<svg width="52" height="32" viewBox="0 0 52 32" fill="none" xmlns="http://www.w3.org/2000/svg">
<g clip-path="url(#clip0_1_2243)">
<path d="M49.8996 17.7391C47.9116 19.9425 44.2588 20.1022 41.3333 20.1501L35.6277 20.2458H26.9806C21.9377 20.2458 16.9272 19.6551 11.8844 19.9265C9.90599 20.1144 7.91011 19.9959 5.96877 19.5753C5.00178 19.3556 4.09223 18.9379 3.29878 18.3493C2.50533 17.7608 1.84567 17.0144 1.36237 16.1583C1.24882 15.9312 1.15161 15.6963 1.07145 15.4557C-0.803453 10.1865 4.99895 4.78977 10.1711 4.78977C11.648 4.78283 13.1035 5.13957 14.4059 5.82767C15.0657 6.16405 15.8135 6.29369 16.5498 6.19956C17.2862 6.10542 17.976 5.79185 18.5274 5.30063C21.8585 2.4895 25.9707 0.736541 30.3263 0.270953C37.4865 -0.367731 41.8343 0.574375 47.1519 5.50821C48.8992 7.01447 50.1773 8.98034 50.8371 11.1766C51.2256 12.2645 51.3432 13.4287 51.18 14.571C51.0168 15.7132 50.5777 16.7999 49.8996 17.7391Z" fill="#D9DBE2"/>
<path d="M45.0835 4.08718C43.4283 3.19041 41.6627 2.50879 39.8305 2.05933C36.3852 1.26874 32.8023 1.26874 29.357 2.05933C26.3812 2.57249 23.5462 3.69281 21.033 5.34864C19.8866 6.43919 18.497 7.24859 16.9761 7.71174C15.3395 7.84288 13.7058 7.42675 12.3374 6.53019C11.0419 5.85161 9.61463 5.45424 8.15113 5.36463C7.8766 5.34866 7.60144 5.34866 7.3269 5.36463C8.23607 5.02397 9.19917 4.84563 10.1715 4.83778C11.6472 4.84064 13.1003 5.1966 14.4063 5.87549C15.0627 6.22077 15.8111 6.35698 16.549 6.2655C17.2869 6.17403 17.9781 5.85943 18.5278 5.36463C21.8552 2.5475 25.9693 0.793705 30.3267 0.33495C37.2283 -0.2718 41.5115 0.574457 46.4897 5.12508C46.0856 4.74187 45.6007 4.35862 45.0835 4.08718Z" fill="#B3B8C9"/>
<path d="M11.6746 7.58397C12.7261 5.98456 14.0177 4.55239 15.5052 3.33667C15.9107 4.55659 16.0554 5.84634 15.9302 7.12437C15.805 8.40241 15.4126 9.64094 14.7778 10.7614L11.6746 7.58397Z" fill="#D9DBE2"/>
<path d="M5.56498 7.71154C4.46382 6.3422 3.14244 5.16097 1.65358 4.21484C1.20094 5.22578 1.01678 6.33394 1.1186 7.43477C1.22041 8.5356 1.60482 9.59262 2.23542 10.5058L5.56498 7.71154Z" fill="#D9DBE2"/>
<path d="M8.08644 14.801C7.89547 15.0909 7.64825 15.3405 7.35908 15.5354C7.25359 15.6205 7.13307 15.6855 7.00355 15.727C6.79758 15.7339 6.5962 15.6657 6.43778 15.5354C6.18701 15.3551 5.96388 15.1399 5.77515 14.8967" stroke="#3B3A43" stroke-width="0.17" stroke-miterlimit="10" stroke-linecap="round"/>
<path d="M6.93796 15.7751C6.88266 16.0974 6.88266 16.4268 6.93796 16.7491" stroke="#3B3A43" stroke-width="0.17" stroke-miterlimit="10" stroke-linecap="round"/>
<path d="M3.93262 13.0767C3.84785 13.2252 3.72627 13.35 3.57925 13.4394C3.43223 13.5288 3.26466 13.5799 3.09221 13.5877C2.91903 13.583 2.75016 13.5332 2.60261 13.4435C2.45506 13.3538 2.33401 13.2273 2.25171 13.0767" stroke="#3B3A43" stroke-width="0.17" stroke-miterlimit="10" stroke-linecap="round"/>
<path d="M11.6746 13.0767C11.591 13.2262 11.4697 13.352 11.3224 13.4415C11.1751 13.5311 11.0069 13.5814 10.8341 13.5877C10.6625 13.5852 10.4949 13.5363 10.3495 13.4462C10.2042 13.3561 10.0867 13.2282 10.0098 13.0767" stroke="#3B3A43" stroke-width="0.17" stroke-miterlimit="10" stroke-linecap="round"/>
<path d="M42.4811 9.99494C41.4144 9.21534 40.1908 8.67086 38.8929 8.39823C38.116 8.15549 37.2943 8.08533 36.4868 8.19299C35.6793 8.30064 34.9058 8.58347 34.2218 9.02097C33.6688 9.52059 33.2606 10.1567 33.0391 10.8639C32.8175 11.571 32.7906 12.3237 32.9611 13.0445C33.3386 14.4855 34.1918 15.761 35.3856 16.6691C34.8781 16.4434 34.3255 16.3343 33.7693 16.3498C33.1796 16.3153 32.5878 16.3528 32.0075 16.4615C31.4437 16.5221 30.8982 16.6948 30.4037 16.9692C29.9093 17.2437 29.4762 17.6141 29.1305 18.0582C29.0215 18.1983 28.9493 18.3629 28.9204 18.5373C28.9153 18.666 28.9439 18.7938 29.0034 18.9084C29.0628 19.0231 29.1511 19.1208 29.2598 19.192C30.1193 19.6977 31.1042 19.9575 32.1045 19.9424C33.2682 20.0861 34.4481 20.1818 35.628 20.2457H29.0012C28.5679 20.1347 28.1842 19.8849 27.9103 19.5352C27.6364 19.1856 27.4878 18.7559 27.4878 18.3137C27.4878 17.8716 27.6364 17.4419 27.9103 17.0922C28.1842 16.7426 28.5679 16.4927 29.0012 16.3818C30.1758 15.9395 31.4518 15.8288 32.6864 16.0623C32.0075 16.0623 31.4094 14.3378 31.2801 13.8269C31.0956 12.8905 31.1569 11.9232 31.458 11.0169C31.7567 10.1245 32.2895 9.32633 33.0022 8.70365C33.7148 8.08098 34.5819 7.65592 35.5149 7.47201C37.2251 7.0574 39.0318 7.32728 40.5416 8.22261C41.2821 8.70429 41.9374 9.30305 42.4811 9.99494Z" fill="#B3B8C9"/>
<path d="M7.08422 31.6463C6.73791 31.6429 6.39632 31.5666 6.08212 31.4227C5.5519 31.1587 5.148 30.6993 4.9575 30.1437C4.76701 29.5881 4.80519 28.9809 5.06385 28.4529C7.58527 23.4392 13.3554 21.4433 17.9942 21.2357C21.4783 21.2255 24.9512 21.6276 28.3385 22.4332C29.3729 22.6408 30.4073 22.8484 31.4418 23.024C34.6744 23.5829 39.2808 24.0939 42.9336 22.2896C45.7621 20.9005 48.1058 17.308 46.9097 14.4019C46.7894 14.1298 46.7259 13.8364 46.7232 13.5395C46.7205 13.2425 46.7786 12.9482 46.8939 12.6741C47.0093 12.3999 47.1795 12.1515 47.3945 11.9439C47.6094 11.7364 47.8647 11.5739 48.1448 11.4662C48.4249 11.3585 48.7242 11.3078 49.0246 11.3173C49.325 11.3267 49.6204 11.3961 49.893 11.5212C50.1656 11.6462 50.4098 11.8244 50.611 12.0451C50.8121 12.2657 50.9661 12.5243 51.0636 12.8052C53.2618 18.1861 49.5927 23.9821 44.9378 26.2973C40.2829 28.6126 34.4804 28.0856 30.6821 27.431C29.5991 27.2393 28.5324 27.0318 27.4495 26.8082C24.4168 26.0835 21.3083 25.7139 18.1881 25.7066C14.9556 25.8343 10.7856 27.1596 9.15312 30.4967C8.95279 30.8613 8.65227 31.1626 8.28628 31.366C7.92028 31.5694 7.50364 31.6665 7.08422 31.6463Z" fill="#D9DBE2"/>
</g>
<defs>
<clipPath id="clip0_1_2243">
<rect width="50.9294" height="31.535" fill="white" transform="translate(0.699951 0.111328)"/>
</clipPath>
</defs>
</svg>
