<svg width="481" height="187" viewBox="0 0 481 187" fill="none" xmlns="http://www.w3.org/2000/svg">
<g clip-path="url(#clip0_1_1989)">
<g opacity="0.1">
<path d="M138.935 165.618C260.626 147.594 341.874 160.287 464.634 151.881C469.627 151.536 475.289 150.826 478.245 146.825C480.142 144.253 480.452 140.912 480.612 137.709C482.284 104.312 475.776 71.0093 461.638 40.621C456.924 30.5199 451.202 20.5667 442.584 13.4122C419.616 -5.65666 385.464 0.857291 356.084 6.87851C291.074 20.2021 223.857 25.8586 158.138 16.477C122.188 11.3427 85.3394 1.76391 50.1083 10.5642C41.8797 12.6139 33.4314 15.994 28.5082 22.8135C24.7934 27.9576 23.5151 34.4421 22.9958 40.7392C21.3681 59.1774 24.7335 77.7042 24.3041 96.2113C23.8747 114.718 15.5862 129.402 4.08211 146.116C0.0177399 152.028 -1.98959 169.836 6.58852 175.285C22.3367 185.268 30.2059 187.486 50.9971 185.988C63.1802 185.071 111.623 169.668 138.935 165.618Z" fill="white"/>
</g>
<path d="M168.824 74.939V76.082C168.824 77.0935 169.231 78.0636 169.956 78.7788C170.681 79.4941 171.664 79.8959 172.689 79.8959C173.714 79.8959 174.697 79.4941 175.421 78.7788C176.146 78.0636 176.553 77.0935 176.553 76.082V74.939H168.824Z" fill="#0DA9E0"/>
<path d="M166.767 79.0483C168.641 79.8289 170.654 80.2311 172.688 80.2311C174.723 80.2311 176.736 79.8289 178.61 79.0483H166.767Z" fill="#0DA9E0"/>
<path d="M174.416 78.9992V78.595C174.416 78.595 176.513 78.4472 177.142 77.6095C177.27 77.4489 177.346 77.2547 177.362 77.0514C177.378 76.848 177.333 76.6445 177.232 76.4665C176.783 75.7175 175.325 75.9837 175.035 76.0428L174.955 75.6386C175.425 75.54 177.012 75.2839 177.592 76.2497C177.733 76.4974 177.798 76.7805 177.778 77.0641C177.759 77.3477 177.656 77.6194 177.482 77.846C176.703 78.8414 174.506 78.9992 174.416 78.9992Z" fill="#479CD6"/>
<path d="M173.208 66.3457C173.398 66.4447 173.571 66.5745 173.717 66.7299C173.873 66.8885 173.995 67.0762 174.077 67.2819C174.161 67.5016 174.192 67.7379 174.167 67.9716C174.135 68.223 174.024 68.4581 173.847 68.6419C173.682 68.7923 173.488 68.9094 173.278 68.9867C173.087 69.056 172.901 69.1349 172.719 69.2232C172.55 69.3044 172.408 69.4309 172.309 69.5879C172.226 69.7385 172.202 69.9135 172.239 70.0807C172.274 70.2424 172.345 70.3942 172.449 70.5241C172.558 70.6651 172.678 70.7968 172.808 70.9182C173.135 71.1861 173.418 71.502 173.647 71.8546C173.769 72.069 173.837 72.3087 173.847 72.5542C173.855 72.7834 173.814 73.0115 173.727 73.2243C173.556 73.5992 173.308 73.9348 172.998 74.2097C173.122 73.8428 173.219 73.4674 173.288 73.0864C173.313 72.9231 173.313 72.757 173.288 72.5937C173.255 72.4474 173.197 72.3074 173.118 72.1796C172.906 71.8745 172.673 71.5848 172.419 71.3125C172.28 71.1416 172.159 70.9565 172.059 70.7606C171.963 70.5472 171.926 70.3129 171.95 70.0807C171.967 69.8522 172.05 69.6332 172.189 69.4498C172.329 69.2912 172.491 69.152 172.669 69.036C172.996 68.8443 173.281 68.5896 173.507 68.287C173.585 68.1631 173.639 68.0263 173.667 67.8831C173.692 67.7264 173.692 67.5668 173.667 67.4101C173.632 67.2374 173.579 67.0689 173.507 66.9075C173.428 66.74 173.328 66.5625 173.238 66.3852L173.208 66.3457Z" fill="#D0CCC8"/>
<path d="M140.393 144.424C140.594 144.293 140.836 144.238 141.074 144.269C141.313 144.3 141.532 144.414 141.691 144.592C141.788 144.777 141.823 144.987 141.791 145.193C141.789 146.54 141.375 147.856 140.603 148.967C140.24 149.507 139.767 149.967 139.215 150.317C138.915 150.481 138.576 150.56 138.233 150.544C137.891 150.528 137.56 150.419 137.278 150.229C137.135 150.079 137.025 149.902 136.955 149.709C136.884 149.516 136.855 149.31 136.868 149.105C136.892 148.698 136.987 148.298 137.148 147.923C137.356 147.301 137.674 146.721 138.086 146.208C138.469 145.773 138.978 145.463 139.544 145.321C140.104 145.183 139.954 144.7 140.393 144.424Z" fill="#0B8E6D"/>
<path d="M136.349 146.307C136.214 146.871 136.002 147.415 135.72 147.923C135.581 148.176 135.5 148.457 135.482 148.745C135.465 149.033 135.512 149.32 135.62 149.588C135.807 149.916 136.109 150.164 136.469 150.288C136.825 150.405 137.193 150.477 137.567 150.505C137.922 150.554 138.281 150.554 138.636 150.505C138.994 150.456 139.32 150.272 139.544 149.992C139.781 149.489 139.823 148.918 139.664 148.386C139.505 147.357 139.505 146.311 139.664 145.282L136.349 146.307Z" fill="#F6D2D2"/>
<path d="M139.624 148.002C138.626 148.889 136.968 148.623 135.7 148.002C135.567 148.245 135.491 148.515 135.478 148.791C135.464 149.067 135.512 149.343 135.62 149.598C135.807 149.925 136.109 150.174 136.469 150.298C136.825 150.414 137.193 150.487 137.567 150.514C137.922 150.564 138.281 150.564 138.636 150.514C138.994 150.465 139.32 150.282 139.545 150.002C139.781 149.499 139.823 148.928 139.664 148.396C139.644 148.268 139.634 148.14 139.624 148.002Z" fill="#0B8E6D"/>
<path d="M139.105 111.224C138.464 113.529 138.102 115.901 138.027 118.29L136.029 146.671L139.954 146.799C140.054 146.799 145.217 130.52 145.846 129.002C148.073 123.641 149.081 118.162 150.299 112.446C146.633 111.586 142.873 111.175 139.105 111.224Z" fill="#515271"/>
<path d="M130.018 144.424C129.817 144.293 129.575 144.238 129.337 144.269C129.098 144.3 128.879 144.414 128.719 144.592C128.623 144.777 128.588 144.987 128.62 145.193C128.622 146.54 129.036 147.856 129.808 148.967C130.171 149.507 130.644 149.967 131.196 150.317C131.496 150.481 131.835 150.56 132.177 150.544C132.52 150.528 132.851 150.419 133.133 150.229C133.276 150.079 133.386 149.902 133.456 149.709C133.527 149.516 133.556 149.31 133.543 149.105C133.519 148.698 133.424 148.298 133.263 147.923C133.055 147.301 132.737 146.721 132.324 146.208C131.941 145.773 131.433 145.463 130.867 145.321C130.357 145.183 130.457 144.7 130.018 144.424Z" fill="#0B8E6D"/>
<path d="M134.112 146.307C134.247 146.871 134.459 147.415 134.741 147.923C134.88 148.176 134.961 148.457 134.978 148.745C134.996 149.033 134.949 149.32 134.841 149.588C134.653 149.916 134.352 150.164 133.992 150.288C133.636 150.405 133.267 150.477 132.894 150.505C132.539 150.554 132.179 150.554 131.825 150.505C131.467 150.456 131.141 150.272 130.916 149.992C130.68 149.489 130.638 148.918 130.797 148.386C130.956 147.357 130.956 146.311 130.797 145.282L134.112 146.307Z" fill="#F6D2D2"/>
<path d="M130.787 148.002C131.785 148.889 133.443 148.623 134.711 148.002C134.844 148.245 134.92 148.515 134.933 148.791C134.947 149.067 134.899 149.343 134.791 149.598C134.604 149.925 134.302 150.174 133.942 150.298C133.586 150.414 133.217 150.487 132.844 150.514C132.489 150.564 132.13 150.564 131.775 150.514C131.417 150.465 131.091 150.282 130.866 150.002C130.63 149.499 130.588 148.928 130.747 148.396C130.766 148.268 130.777 148.14 130.787 148.002Z" fill="#0B8E6D"/>
<path d="M131.296 111.224C131.937 113.529 132.299 115.901 132.374 118.29L134.372 146.671L130.447 146.799C130.347 146.799 125.184 130.52 124.555 129.002C122.328 123.641 121.32 118.162 120.101 112.446C123.768 111.586 127.528 111.175 131.296 111.224Z" fill="#515271"/>
<path d="M90.4125 78.9301C90.4019 78.9289 90.3918 78.9256 90.3826 78.9205C90.3734 78.9153 90.3652 78.9085 90.3587 78.9002C90.3522 78.892 90.3475 78.8824 90.3447 78.8723C90.3419 78.8622 90.3412 78.8517 90.3426 78.8413C90.3776 78.6556 90.3776 78.4654 90.3426 78.2798C90.3396 78.2577 90.345 78.2352 90.358 78.217C90.3709 78.1987 90.3904 78.1859 90.4125 78.1811C90.4237 78.1782 90.4354 78.1777 90.4468 78.1797C90.4583 78.1817 90.4692 78.1861 90.4787 78.1927C90.4882 78.1992 90.496 78.2078 90.5018 78.2177C90.5076 78.2276 90.5112 78.2388 90.5123 78.2502C90.5473 78.4524 90.5473 78.6588 90.5123 78.861C90.5075 78.8828 90.4946 78.9021 90.4761 78.9149C90.4576 78.9277 90.4348 78.9331 90.4125 78.9301Z" fill="#3B3A43"/>
<path d="M144.438 82.2905H128.39L130.916 68.5137H141.911L144.438 82.2905Z" fill="#BBBDBF"/>
<path d="M141.911 68.5137H130.917L130.008 73.4509H142.82L141.911 68.5137Z" fill="#929497"/>
<path d="M109.456 36.1509H162.622C163.115 36.1509 163.587 36.344 163.936 36.6877C164.284 37.0315 164.48 37.4977 164.48 37.9839V69.6568C164.478 69.9467 164.419 70.2335 164.306 70.5008C164.192 70.7682 164.026 71.0108 163.818 71.2149C163.609 71.4189 163.362 71.5804 163.09 71.6902C162.818 71.7999 162.527 71.8557 162.233 71.8544H109.836C109.242 71.8544 108.673 71.6219 108.254 71.2079C107.834 70.7939 107.599 70.2324 107.599 69.647V37.9839C107.599 37.4977 107.794 37.0315 108.143 36.6877C108.491 36.344 108.963 36.1509 109.456 36.1509Z" fill="#D0D2D3"/>
<path d="M163.991 37.984V69.657C163.991 70.117 163.805 70.5581 163.476 70.8834C163.146 71.2087 162.699 71.3914 162.233 71.3914H109.836C109.37 71.3914 108.922 71.2087 108.593 70.8834C108.263 70.5581 108.078 70.117 108.078 69.657V37.984C108.078 37.6233 108.223 37.2774 108.482 37.0223C108.74 36.7673 109.091 36.624 109.456 36.624H162.623C162.986 36.6266 163.334 36.7711 163.591 37.0258C163.847 37.2806 163.991 37.625 163.991 37.984Z" fill="#262728"/>
<path d="M107.599 65.1533H164.52V69.6569C164.518 69.9502 164.458 70.2402 164.342 70.5102C164.226 70.7801 164.056 71.0245 163.843 71.2291C163.631 71.4337 163.378 71.5944 163.102 71.7017C162.825 71.8091 162.53 71.8611 162.233 71.8545H109.836C109.242 71.8545 108.673 71.6219 108.254 71.208C107.834 70.794 107.599 70.2325 107.599 69.6471V65.1533Z" fill="#D0D2D3"/>
<path d="M200.192 83.6376L181.282 145.059L183.289 145.66L202.199 84.2393L200.192 83.6376Z" fill="#2A2A4F"/>
<path d="M202.727 83.675L200.721 84.2766L219.631 145.698L221.638 145.096L202.727 83.675Z" fill="#2A2A4F"/>
<path d="M75.7632 83.6364L56.853 145.058L58.8596 145.659L77.7698 84.238L75.7632 83.6364Z" fill="#2A2A4F"/>
<path d="M82.7989 91.7284L80.7856 92.3286L99.6501 153.954L101.663 153.354L82.7989 91.7284Z" fill="#2A2A4F"/>
<path d="M215.549 80.1226H63.7095V87.4939H215.549V80.1226Z" fill="#F29020"/>
<path d="M216.538 128.706H187.059V130.776H216.538V128.706Z" fill="#2A2A4F"/>
<path d="M92.0104 128.706H62.6211V130.776H92.0104V128.706Z" fill="#2A2A4F"/>
<path d="M202.02 30.2567L192.118 34.9031L192.388 35.4639L202.29 30.8175L202.02 30.2567Z" fill="#2A2A4F"/>
<path d="M194.029 36.4267L192.511 37.225C192.696 38.2705 192.628 39.3443 192.311 40.3587C192.045 41.2206 191.609 42.0222 191.028 42.7172C190.447 43.4123 189.733 43.9873 188.926 44.4091L186.829 45.562L181.367 35.4217L180.308 33.4508L182.395 32.2976C183.764 31.5875 185.333 31.3454 186.857 31.6093C188.38 31.8732 189.772 32.6282 190.814 33.7561L192.202 33.0269C192.543 32.8718 192.921 32.8148 193.294 32.8623C193.666 32.9099 194.017 33.0602 194.307 33.2959C194.597 33.5315 194.814 33.8429 194.932 34.1945C195.051 34.5461 195.067 34.9236 194.978 35.2836C194.824 35.7717 194.484 36.1815 194.029 36.4267Z" fill="#A7A9AC"/>
<path d="M189.166 33.175C187.243 32.7693 185.237 33.0484 183.504 33.9632L181.596 34.998L181.107 34.0914L182.725 33.2046C183.716 32.6855 184.819 32.4115 185.941 32.4063C187.063 32.4012 188.17 32.6651 189.166 33.175Z" fill="#DCDCDC"/>
<path d="M202.387 79.5411L201.838 79.2654L214.98 53.8107L199.681 31.6277L200.2 31.2827L215.599 53.6136C215.63 53.6604 215.647 53.7151 215.647 53.7712C215.647 53.8273 215.63 53.882 215.599 53.9288L202.387 79.5411Z" fill="#2A2A4F"/>
<path d="M216.168 53.7711C216.178 53.9776 216.125 54.1824 216.016 54.3589C215.907 54.5354 215.747 54.6755 215.557 54.7614C215.366 54.8473 215.154 54.875 214.947 54.8408C214.741 54.8066 214.549 54.7122 214.398 54.5697C214.246 54.4271 214.141 54.243 214.096 54.0411C214.052 53.8391 214.069 53.6287 214.147 53.4367C214.225 53.2447 214.359 53.0802 214.532 52.9642C214.706 52.8481 214.91 52.7859 215.12 52.7857C215.255 52.779 215.39 52.7995 215.517 52.846C215.644 52.8926 215.76 52.9641 215.858 53.0563C215.956 53.1485 216.034 53.2594 216.088 53.3823C216.141 53.5052 216.168 53.6375 216.168 53.7711Z" fill="#2A2A4F"/>
<path d="M201.119 31.4993C201.129 31.7078 201.075 31.9146 200.963 32.0921C200.852 32.2696 200.689 32.4098 200.495 32.4941C200.302 32.5785 200.087 32.603 199.879 32.5646C199.671 32.5263 199.48 32.4269 199.33 32.2793C199.181 32.1317 199.08 31.9427 199.041 31.7375C199.002 31.5323 199.027 31.3204 199.113 31.1295C199.198 30.9385 199.34 30.7774 199.52 30.6676C199.7 30.5577 199.909 30.5041 200.12 30.5138C200.385 30.5138 200.639 30.6177 200.827 30.8025C201.014 30.9873 201.119 31.2379 201.119 31.4993Z" fill="#2A2A4F"/>
<path d="M209.947 77.718H195.058V80.2211H209.947V77.718Z" fill="#2A2A4F"/>
<path d="M190.803 64.5717C190.809 64.5592 190.812 64.5458 190.812 64.5322C190.812 64.5186 190.809 64.5054 190.803 64.493H190.743H190.574C190.278 64.4743 189.983 64.5503 189.735 64.7098C189.24 65.0127 188.825 65.4283 188.527 65.9219C188.527 65.6131 188.487 65.3074 188.407 65.0052C188.407 64.6701 188.297 64.3351 188.237 64.0197V63.8622C188.237 63.6552 188.147 63.4582 188.107 63.2513L188.307 63.0935C188.789 62.7475 189.166 62.277 189.395 61.7336C189.395 61.6449 189.465 61.5266 189.495 61.4083C189.575 61.0831 189.575 60.7087 189.146 60.7383C188.716 60.7679 188.317 61.2704 188.077 61.635C187.997 61.7631 187.917 61.901 187.848 62.0389C187.734 61.6382 187.614 61.2342 187.488 60.8268C187.388 60.5115 187.278 60.1863 187.168 59.8414C187.171 59.8053 187.171 59.7692 187.168 59.7331C187.298 59.6247 187.448 59.5557 187.568 59.4374C187.665 59.3402 187.749 59.2308 187.818 59.1121L187.927 58.9249C188.075 58.5822 188.172 58.2204 188.217 57.8507C188.252 57.6155 188.252 57.3764 188.217 57.1412C188.217 56.885 188.047 56.6879 187.778 56.7175C187.258 56.7766 187.059 57.5552 186.919 57.9592C186.849 58.2056 186.779 58.4717 186.729 58.7378C186.321 57.8101 185.819 56.9253 185.231 56.0968C185.458 55.9168 185.632 55.6803 185.736 55.4118C185.839 55.1433 185.869 54.8525 185.82 54.5692C185.791 54.3537 185.727 54.144 185.631 53.9483C185.519 53.7491 185.389 53.5612 185.241 53.3867C185.079 53.2172 184.902 53.062 184.712 52.9233C184.523 52.7829 184.319 52.664 184.103 52.5687C184.083 52.5526 184.058 52.5433 184.032 52.5422C184.006 52.5412 183.981 52.5483 183.959 52.5627C183.938 52.5771 183.922 52.598 183.914 52.6221C183.905 52.6463 183.905 52.6724 183.913 52.6967C184.025 53.484 184.185 54.264 184.392 55.0324C184.046 54.6417 183.669 54.2791 183.264 53.9483C183.027 53.322 182.615 52.7752 182.075 52.3717C181.79 52.1694 181.465 52.0281 181.121 51.9569C180.777 51.8856 180.422 51.8857 180.078 51.9576C180.044 51.9708 180.016 51.997 180.001 52.0303C179.986 52.0635 179.985 52.1012 179.998 52.1352C180.085 52.3136 180.196 52.4795 180.328 52.6279C180.39 52.6953 180.456 52.7578 180.528 52.8151C180.591 52.8817 180.661 52.9412 180.737 52.9924C181.029 53.2085 181.333 53.4093 181.646 53.5936C181.813 53.6972 181.986 53.7895 182.165 53.8696L182.725 54.116C182.894 54.1948 183.064 54.2638 183.234 54.3525C183.41 54.4355 183.572 54.5451 183.713 54.6775C183.997 54.951 184.261 55.2443 184.502 55.5547C184.294 55.4265 184.069 55.3269 183.833 55.259C183.606 55.1956 183.37 55.1657 183.134 55.1702C182.9 55.1771 182.67 55.2335 182.46 55.3355C182.25 55.4375 182.064 55.5828 181.916 55.7616C181.901 55.7716 181.889 55.7849 181.881 55.8004C181.873 55.8158 181.869 55.833 181.869 55.8504C181.869 55.8678 181.873 55.8848 181.881 55.9002C181.889 55.9156 181.901 55.9289 181.916 55.9389C182.367 56.1486 182.844 56.3009 183.334 56.3922C183.607 56.4677 183.893 56.4884 184.174 56.4528C184.455 56.4173 184.726 56.3263 184.972 56.1853C185.605 57.071 186.137 58.0229 186.559 59.0236C186.379 58.8629 186.185 58.7176 185.98 58.5898C185.688 58.3938 185.368 58.2411 185.031 58.1365C184.71 58.0304 184.371 57.987 184.033 58.0085C184.013 58.0098 183.994 58.0148 183.976 58.0234C183.958 58.032 183.943 58.0439 183.93 58.0586C183.917 58.0732 183.907 58.0904 183.9 58.1088C183.894 58.1273 183.892 58.1467 183.893 58.1661C183.938 58.4641 184.099 58.7329 184.342 58.9151L184.452 59.0039C184.67 59.1596 184.909 59.2854 185.161 59.3782C185.271 59.4214 185.385 59.4545 185.501 59.4769C185.972 59.5159 186.427 59.6645 186.829 59.9104C187.408 60.413 187.278 61.4378 187.608 62.0883C187.199 61.3443 186.558 60.75 185.78 60.3933C185.589 60.3146 185.387 60.2616 185.181 60.2357C185.146 60.2321 185.11 60.2411 185.081 60.261C185.052 60.2808 185.031 60.3101 185.021 60.344C185.004 60.6673 185.07 60.9898 185.213 61.2811C185.356 61.5724 185.572 61.8231 185.84 62.0096L186.02 62.1573C186.221 62.3162 186.431 62.4642 186.649 62.6007L186.899 62.7487L187.628 63.1526L187.758 63.2118C187.758 63.4385 187.857 63.6651 187.897 63.8819C187.967 64.2465 188.027 64.6014 188.077 64.966C188.127 65.3306 188.147 65.4094 188.167 65.6262C188.172 65.6556 188.172 65.6856 188.167 65.715C188.169 65.692 188.169 65.6689 188.167 65.6459L188.047 65.4785L187.857 65.2417C187.672 65.0352 187.461 64.8532 187.228 64.6999C187.019 64.5554 186.786 64.4485 186.539 64.3845C186.37 64.3384 186.195 64.3217 186.02 64.3352C185.993 64.3395 185.969 64.3525 185.951 64.3722C185.933 64.3919 185.922 64.4172 185.92 64.4437C185.913 64.4537 185.909 64.4657 185.909 64.4781C185.909 64.4904 185.913 64.5024 185.92 64.5125C186.003 64.6548 186.093 64.7931 186.19 64.9265C186.548 65.4819 187.025 65.9528 187.588 66.3061L187.818 66.4146L187.987 66.4735H188.117H188.277C188.321 66.6341 188.341 66.8001 188.337 66.9663C188.337 67.124 188.337 67.2917 188.337 67.4494C188.337 67.6071 188.337 67.883 188.337 67.9323C188.342 67.9583 188.342 67.9849 188.337 68.0109V68.1981C188.337 68.3952 188.337 68.5825 188.337 68.7698V69.0951C188.337 69.2133 188.337 69.3314 188.337 69.4497V69.7651C188.343 69.7911 188.343 69.818 188.337 69.844C188.337 70.051 188.337 70.2479 188.337 70.445C188.308 70.9214 188.248 71.3955 188.157 71.8643L188.097 72.1205C188.097 72.1205 188.097 72.1795 188.097 72.1992C188.102 72.2681 188.102 72.3372 188.097 72.4061H188.547C188.547 71.7458 188.626 71.0954 188.666 70.4352C188.666 70.3563 188.666 70.2775 188.666 70.1987C188.666 70.1198 188.666 69.9524 188.666 69.8342C188.666 69.7159 188.666 69.5778 188.666 69.4497C188.666 69.3216 188.666 69.3907 188.666 69.3611C188.666 69.2922 188.666 69.0358 188.666 68.7106C188.666 68.6219 188.666 68.5334 188.666 68.4349V68.3855C188.666 68.2377 188.666 68.0897 188.666 67.9518C188.666 67.8138 188.666 67.8829 188.666 67.8534C188.666 67.6563 188.666 67.4492 188.666 67.2718C188.666 67.0945 188.666 66.8875 188.666 66.7396C188.677 66.6019 188.677 66.4636 188.666 66.3258H188.856C189.078 66.2636 189.292 66.1777 189.495 66.0696L189.835 65.8627L189.965 65.764C190.051 65.6995 190.132 65.6269 190.204 65.5473L190.294 65.439C190.53 65.1294 190.737 64.7996 190.913 64.4535C190.884 64.458 190.857 64.472 190.837 64.4935C190.817 64.515 190.805 64.5426 190.803 64.5717Z" fill="#02B581"/>
<path d="M201.239 59.812C200.972 59.57 200.656 59.3867 200.311 59.2745C199.967 59.1624 199.602 59.1239 199.242 59.1615C198.822 59.1617 198.405 59.2214 198.003 59.3388C197.634 59.4275 197.304 59.5753 196.905 59.6443C196.505 59.7133 196.146 59.7922 195.766 59.9006C196.545 59.398 197.424 58.8068 197.344 58.0579C197.344 57.9987 197.234 57.9592 197.155 57.9888C196.563 58.1637 196.015 58.459 195.547 58.8559C195.087 59.2698 194.838 59.7626 195.008 60.1469C194.5 60.348 194.018 60.606 193.57 60.9156C193.129 61.2269 192.721 61.5801 192.351 61.9701C192.461 61.7435 192.551 61.497 192.621 61.3492C192.919 60.737 193.163 60.1007 193.35 59.4473C193.35 59.3684 193.29 59.3388 193.19 59.3684C192.792 59.4999 192.444 59.7473 192.191 60.0779C191.97 60.3709 191.813 60.7067 191.732 61.0633C191.602 61.6054 191.832 62.0982 191.732 62.6303C191.601 62.9926 191.401 63.327 191.143 63.6158C190.935 63.8678 190.751 64.1384 190.594 64.4239C190.594 64.4831 190.594 64.5421 190.524 64.5914L190.584 64.4239C190.725 63.9761 190.832 63.518 190.903 63.054C190.972 62.5867 190.972 62.1122 190.903 61.6449C190.895 61.6327 190.884 61.6227 190.871 61.6157C190.858 61.6088 190.843 61.6052 190.828 61.6052C190.814 61.6052 190.799 61.6088 190.786 61.6157C190.773 61.6227 190.762 61.6327 190.753 61.6449C190.453 61.8569 190.203 62.1306 190.021 62.447C189.838 62.7634 189.727 63.1151 189.695 63.4779C189.64 63.8768 189.64 64.2813 189.695 64.6802C189.73 64.9259 189.78 65.1694 189.845 65.4094C189.845 65.4094 189.845 65.4881 189.845 65.5276C189.845 65.567 189.845 65.5276 189.845 65.5276C189.775 65.6852 189.695 65.833 189.635 65.9907C189.575 66.1484 189.465 66.3554 189.385 66.5327C189.216 66.9466 189.046 67.3704 188.906 67.7942C188.902 67.8137 188.902 67.8339 188.906 67.8534C188.898 67.6255 188.874 67.3984 188.836 67.1734C188.836 67.0453 188.836 66.9072 188.766 66.7791C188.762 66.7299 188.762 66.6806 188.766 66.6314V66.4933C188.714 66.3095 188.629 66.1361 188.517 65.9808C188.451 65.8769 188.362 65.7895 188.257 65.7248C188.235 65.7375 188.215 65.7543 188.2 65.7746C188.184 65.795 188.173 65.8183 188.167 65.843C188.167 65.9908 188.167 66.1583 188.167 66.316C188.162 66.4013 188.162 66.4869 188.167 66.5722C188.157 66.71 188.157 66.8482 188.167 66.986C188.176 67.1514 188.196 67.3159 188.227 67.4788C188.268 67.7174 188.342 67.9496 188.447 68.1688C188.445 68.1917 188.445 68.2146 188.447 68.2376V68.2869V68.3362C188.51 68.4355 188.587 68.5252 188.676 68.6023L188.746 68.6615L188.686 68.8783C188.686 68.967 188.686 69.0656 188.616 69.1543C188.546 69.2429 188.536 69.44 188.507 69.5977C188.477 69.7553 188.447 69.834 188.427 69.9523C188.422 69.9817 188.422 70.0117 188.427 70.0411L188.307 70.6423C188.307 70.8788 188.227 71.1252 188.197 71.3617C188.167 71.5982 188.197 71.7853 188.117 72.0022C188.037 72.219 188.117 72.3964 188.117 72.6034H188.327C188.367 71.9423 188.447 71.2841 188.566 70.6325C188.566 70.4452 188.636 70.2579 188.676 70.0805C188.672 70.0644 188.672 70.0473 188.676 70.0312C188.676 69.9031 188.676 69.7751 188.756 69.647C188.761 69.6309 188.761 69.6138 188.756 69.5977C188.836 69.2626 188.926 68.9374 189.026 68.6122C189.227 68.6468 189.433 68.6468 189.635 68.6122C189.797 68.5821 189.957 68.5425 190.114 68.4938C190.207 68.4654 190.297 68.4293 190.384 68.3856C190.669 68.229 190.946 68.0579 191.213 67.8731C191.228 67.8611 191.239 67.8459 191.247 67.8288C191.255 67.8118 191.26 67.7933 191.26 67.7745C191.26 67.7556 191.255 67.7371 191.247 67.7201C191.239 67.703 191.228 67.6881 191.213 67.676C191.087 67.563 190.933 67.4837 190.767 67.4458C190.601 67.4079 190.428 67.4123 190.264 67.459C190.158 67.4713 190.054 67.4979 189.955 67.5379L189.625 67.676C189.472 67.7598 189.328 67.8587 189.196 67.9715L189.355 67.5281C189.475 67.2029 189.605 66.8777 189.735 66.5426C189.865 66.2076 190.004 65.9416 190.144 65.6558V65.5571C190.52 65.5405 190.893 65.4776 191.253 65.37C191.394 65.3233 191.532 65.264 191.662 65.1926C191.856 65.1032 192.029 64.9756 192.171 64.818C192.215 64.7709 192.239 64.7093 192.239 64.6455C192.239 64.5817 192.215 64.5204 192.171 64.4733C191.922 64.1973 191.433 64.2958 191.083 64.4042C190.991 64.4263 190.901 64.4561 190.813 64.493L190.674 64.5519L190.763 64.4141C191.12 63.8074 191.517 63.2247 191.952 62.6698C192.082 62.6698 192.201 62.7682 192.341 62.7978C192.507 62.8177 192.675 62.8177 192.841 62.7978C193.12 62.7978 193.41 62.6993 193.689 62.6501C193.856 62.6248 194.019 62.5852 194.179 62.5317C194.338 62.4627 194.448 62.3643 194.398 62.177C194.365 62.0828 194.307 61.999 194.23 61.9348C194.152 61.8706 194.059 61.8282 193.959 61.8123C193.755 61.7546 193.542 61.7347 193.33 61.7534C193.096 61.7607 192.864 61.8004 192.641 61.8715C192.983 61.5313 193.357 61.2244 193.759 60.9551C194.161 60.6864 194.589 60.4587 195.038 60.2752C195.128 60.4731 195.283 60.6359 195.477 60.7383C195.665 60.8577 195.87 60.9475 196.086 61.0044C196.757 61.1234 197.449 61.0549 198.083 60.8071C198.1 60.799 198.114 60.7865 198.124 60.7708C198.134 60.7551 198.14 60.7371 198.14 60.7186C198.14 60.7001 198.134 60.6818 198.124 60.6661C198.114 60.6504 198.1 60.6379 198.083 60.6298C197.553 60.2294 196.927 59.9714 196.266 59.8808C196.746 59.7692 197.233 59.6869 197.724 59.6345C198.828 60.0754 200.047 60.1514 201.199 59.8512C201.216 59.8427 201.23 59.8291 201.239 59.812Z" fill="#0B8E6D"/>
<path d="M189.375 65.5376C189.196 65.5296 189.019 65.5694 188.86 65.6526C188.702 65.7359 188.57 65.8595 188.477 66.0106C188.333 66.2086 188.216 66.424 188.127 66.6513C188.075 66.7764 188.032 66.9047 187.997 67.0356C187.997 66.8582 187.888 66.6808 187.838 66.5132V66.4444C187.658 65.8729 187.468 65.3208 187.248 64.7788C187.248 64.6901 187.179 64.5915 187.139 64.5127L187.258 64.3453C187.511 64.0163 187.676 63.6301 187.738 63.2219C187.744 63.1597 187.744 63.0968 187.738 63.0345C187.738 63.0345 187.738 63.0347 187.738 62.9657C187.738 62.7095 187.738 62.2067 187.488 62.0688C187.446 62.0545 187.4 62.0545 187.358 62.0688H187.278C186.999 62.1279 186.869 62.4533 186.779 62.7588C186.779 62.8573 186.759 62.9458 186.719 63.0246C186.698 63.0958 186.681 63.1684 186.669 63.2417V63.4584C186.44 63.015 186.2 62.5813 185.93 62.1674C185.771 61.9309 185.611 61.6944 185.431 61.4678C185.481 61.3396 185.581 61.241 185.631 61.1129C185.689 60.9449 185.716 60.768 185.711 60.5906C185.711 60.5314 185.711 60.4724 185.711 60.4034C185.665 60.1295 185.588 59.8616 185.481 59.6051C185.485 59.5658 185.485 59.5263 185.481 59.487C185.405 59.3085 185.308 59.1397 185.191 58.9844C185.022 58.7873 184.822 58.6394 184.612 58.7281C184.559 58.7559 184.515 58.797 184.483 58.8472C184.452 58.8974 184.434 58.9549 184.432 59.0139C184.422 59.1023 184.422 59.1917 184.432 59.28C184.467 59.5096 184.518 59.7367 184.582 59.96C184.642 60.1768 184.702 60.4231 184.782 60.6596C184.08 59.946 183.237 59.3826 182.305 59.0041C182.349 58.9045 182.371 58.7971 182.371 58.6887C182.371 58.5802 182.349 58.4729 182.305 58.3732C182.185 58.1367 182.015 57.9285 181.806 57.7624C181.436 57.5077 181.006 57.3516 180.558 57.3091C180.109 57.2705 179.656 57.307 179.22 57.4174C179.11 57.4174 179.09 57.5358 179.22 57.5851C179.819 57.9497 180.458 58.3437 181.097 58.6689C180.588 58.5971 180.073 58.574 179.559 58.5999C178.972 58.3856 178.347 58.2887 177.722 58.3143C177.083 58.3355 176.462 58.526 175.924 58.866C175.914 58.8752 175.905 58.8867 175.899 58.8994C175.893 58.9122 175.89 58.9261 175.89 58.9401C175.89 58.9541 175.893 58.9678 175.899 58.9805C175.905 58.9933 175.914 59.0047 175.924 59.0139C176.584 59.3357 177.337 59.416 178.051 59.2406C178.459 59.1808 178.863 59.0952 179.259 58.9844C179.617 58.8672 179.991 58.8042 180.368 58.7972C180.754 58.8167 181.138 58.866 181.516 58.9449C181.073 58.9664 180.644 59.1097 180.278 59.3587C180.123 59.4623 179.997 59.602 179.91 59.7653C179.823 59.9286 179.778 60.1106 179.779 60.2951C179.779 60.3113 179.783 60.3271 179.791 60.3413C179.799 60.3555 179.811 60.3674 179.825 60.3762C179.838 60.385 179.854 60.3903 179.871 60.3916C179.887 60.3929 179.904 60.3901 179.919 60.3836C180.362 60.2791 180.796 60.1408 181.217 59.9698C181.656 59.7826 182.106 59.5756 182.215 59.1715C183.209 59.5653 184.097 60.179 184.812 60.9652C184.616 60.8594 184.408 60.7767 184.193 60.7188C183.914 60.6113 183.616 60.5618 183.317 60.5737C183.018 60.5856 182.724 60.6586 182.455 60.7878C182.443 60.797 182.433 60.8088 182.426 60.8225C182.419 60.8362 182.415 60.8512 182.415 60.8665C182.415 60.8818 182.419 60.8969 182.426 60.9105C182.433 60.9242 182.443 60.9363 182.455 60.9454C182.62 61.1468 182.843 61.2943 183.094 61.3691C183.355 61.464 183.627 61.5236 183.903 61.5464C184.362 61.6056 184.902 61.4283 185.361 61.6944C185.677 61.9102 185.923 62.2111 186.07 62.5615C186.231 62.9017 186.414 63.2309 186.619 63.547C186.307 63.1425 185.912 62.8069 185.461 62.5615C185.093 62.3287 184.658 62.2216 184.223 62.2562C184.209 62.2558 184.195 62.2585 184.183 62.2641C184.171 62.2698 184.159 62.2782 184.151 62.2887C184.142 62.2991 184.136 62.3114 184.133 62.3245C184.13 62.3377 184.13 62.3513 184.133 62.3644C184.322 62.9149 184.709 63.3778 185.221 63.6653C185.682 63.9627 186.162 64.2294 186.659 64.4636L186.839 64.5522L186.949 64.6113C186.96 64.616 186.972 64.6183 186.984 64.6183C186.996 64.6183 187.008 64.616 187.019 64.6113C187.258 65.1829 187.468 65.7742 187.658 66.3655L187.868 67.0158C187.756 66.8742 187.636 66.7394 187.508 66.6119L187.298 66.405L187.179 66.3063C186.936 66.1084 186.654 65.964 186.35 65.8826H186.15C186.077 65.8725 186.003 65.8725 185.93 65.8826C185.87 65.8826 185.85 66.0107 185.93 66.0698C185.954 66.1082 185.98 66.1446 186.01 66.1783C186.223 66.4669 186.457 66.74 186.709 66.9961C186.88 67.1702 187.064 67.3316 187.258 67.479C187.515 67.6731 187.817 67.7988 188.137 67.8437C188.137 67.962 188.207 68.0801 188.237 68.1984V68.3266L188.417 69.0361L188.477 69.2923C188.477 69.3909 188.477 69.4993 188.547 69.6077L188.637 70.0413C188.637 70.0577 188.637 70.0742 188.637 70.0906L188.696 70.406C188.701 70.4848 188.701 70.5638 188.696 70.6425C188.806 71.2043 188.896 71.7758 188.966 72.3474C188.972 72.4393 188.972 72.5314 188.966 72.6233H189.176C189.176 72.5445 189.176 72.4654 189.176 72.3866C189.176 72.3078 189.176 72.1206 189.176 71.9826C189.116 71.5392 189.036 71.086 188.956 70.6524C188.956 70.4455 188.886 70.2483 188.836 70.0512C188.817 69.9047 188.787 69.7598 188.746 69.6176L188.657 69.2134L188.577 68.8785C188.577 68.7307 188.507 68.5925 188.467 68.4447V68.3266C188.467 68.3266 188.467 68.3265 188.467 68.2773C188.471 68.2512 188.471 68.2244 188.467 68.1984C188.467 68.0505 188.387 67.8929 188.347 67.7352L188.517 67.6565C188.597 67.6097 188.674 67.5568 188.746 67.4987C188.858 67.4093 188.959 67.3069 189.046 67.1934C189.1 67.1407 189.147 67.0808 189.186 67.0158C189.274 66.8934 189.348 66.7612 189.405 66.6217L189.525 66.257C189.525 66.0895 189.605 65.9121 189.655 65.7347C189.668 65.7166 189.678 65.6962 189.683 65.6745C189.688 65.6528 189.688 65.6303 189.685 65.6084C189.681 65.5864 189.673 65.5654 189.661 65.5465C189.649 65.5276 189.633 65.5111 189.615 65.4982C189.597 65.4852 189.576 65.476 189.554 65.471C189.532 65.466 189.509 65.4654 189.487 65.4691C189.465 65.4727 189.443 65.4806 189.424 65.4924C189.405 65.5042 189.389 65.5195 189.375 65.5376Z" fill="#3D835A"/>
<path d="M188.676 68.1689H188.616C188.532 68.1786 188.45 68.2053 188.377 68.2475L188.207 68.3462L188.067 68.4544C187.997 68.5037 187.937 68.5729 187.867 68.632C187.649 68.8524 187.467 69.1051 187.328 69.381C187.152 68.939 186.948 68.5078 186.719 68.0899C186.839 67.9585 186.949 67.8303 187.049 67.7055C187.105 67.6413 187.155 67.572 187.198 67.4986C187.312 67.3293 187.396 67.1431 187.448 66.9469V66.7792C187.458 66.7304 187.458 66.6803 187.448 66.6315C187.448 66.5034 187.398 66.395 187.238 66.4246H187.168C186.939 66.5428 186.756 66.7335 186.649 66.9664C186.603 67.0388 186.563 67.1148 186.529 67.1933C186.529 67.2918 186.439 67.3902 186.4 67.4986C186.182 67.1384 185.945 66.7899 185.691 66.4542C185.77 66.3556 185.87 66.2669 185.95 66.1585C186.024 66.0668 186.081 65.9635 186.12 65.8529C186.12 65.8529 186.12 65.8529 186.12 65.7937C186.192 65.5709 186.226 65.3378 186.22 65.1039C186.224 65.0614 186.224 65.0185 186.22 64.9759C186.22 64.7789 186.14 64.4832 185.94 64.4931H185.81C185.481 64.6803 185.441 65.2125 185.381 65.4785C185.321 65.7446 185.381 65.8134 185.321 65.9809C184.99 65.5614 184.588 65.2016 184.133 64.9168C184.231 64.7418 184.282 64.545 184.282 64.3451C184.282 64.1452 184.231 63.9485 184.133 63.7735C183.989 63.5509 183.781 63.3765 183.535 63.2728C183.289 63.169 183.017 63.1409 182.755 63.1922C182.738 63.1962 182.723 63.2038 182.71 63.2146C182.697 63.2253 182.687 63.2388 182.68 63.254C182.673 63.2693 182.67 63.2858 182.671 63.3024C182.672 63.319 182.677 63.3352 182.685 63.3498C182.91 63.7861 183.163 64.2075 183.444 64.6112C183.188 64.515 182.924 64.4424 182.655 64.3944C182.454 64.0926 182.148 63.8732 181.796 63.7771C181.443 63.681 181.067 63.7147 180.737 63.8721C180.737 63.8721 180.737 63.9607 180.737 64.01C180.826 64.2064 180.964 64.377 181.139 64.5049C181.314 64.6327 181.52 64.7136 181.736 64.7394C181.951 64.7744 182.17 64.7744 182.385 64.7394C182.586 64.6949 182.794 64.6949 182.994 64.7394C183.188 64.7965 183.378 64.8656 183.563 64.9464C183.281 64.9702 183.015 65.0842 182.805 65.2714C182.57 65.5057 182.414 65.8048 182.355 66.1289C182.355 66.1979 182.355 66.247 182.355 66.2371C182.609 66.1658 182.849 66.0526 183.064 65.9022C183.393 65.7111 183.673 65.4482 183.883 65.1335C184.352 65.4387 184.767 65.8182 185.111 66.2569C184.977 66.22 184.84 66.1938 184.702 66.1782C184.482 66.1484 184.259 66.1616 184.045 66.2174C183.83 66.2732 183.63 66.3704 183.454 66.5032C183.431 66.516 183.412 66.535 183.4 66.5576C183.388 66.5802 183.382 66.6058 183.384 66.6315C183.384 66.9074 183.783 66.8975 184.193 66.8581C184.602 66.8187 185.011 66.602 185.351 66.6907C185.691 66.7793 185.8 67.41 186.1 67.6761C185.844 67.4783 185.542 67.3452 185.222 67.2885C184.902 67.2319 184.572 67.2533 184.262 67.3508C184.24 67.3576 184.219 67.3703 184.204 67.3877C184.188 67.405 184.177 67.4265 184.173 67.4495C184.173 67.8338 184.462 68.0013 184.862 68.0899C185.302 68.1774 185.751 68.2202 186.2 68.2179H186.4C186.617 68.6103 186.81 69.0151 186.979 69.43C186.73 69.2709 186.446 69.1722 186.151 69.1413C185.856 69.1105 185.558 69.1486 185.281 69.2527C185.281 69.2527 185.201 69.3514 185.281 69.3711C185.832 69.7636 186.514 69.9361 187.188 69.854C187.188 69.9624 187.268 70.061 187.298 70.1595C187.328 70.2581 187.418 70.5338 187.478 70.7309C187.664 71.3535 187.801 71.9893 187.887 72.6328H188.097C188.097 72.5343 188.097 72.4458 188.097 72.3472L188.037 72.0318C188.037 71.8249 187.967 71.6277 187.917 71.4207C187.867 71.2138 187.798 70.9379 187.728 70.7013L187.548 70.1299L187.398 69.7257C187.549 69.657 187.693 69.5745 187.828 69.4794C187.896 69.4363 187.959 69.3869 188.017 69.3316C188.101 69.2707 188.178 69.2013 188.247 69.1247C188.273 69.1043 188.296 69.0811 188.317 69.0557L188.377 68.9866L188.477 68.8488C188.477 68.7699 188.567 68.6911 188.597 68.6123L188.746 68.2673C188.806 68.2081 188.756 68.159 188.676 68.1689Z" fill="#0B8E6D"/>
<path d="M199.841 63.5766C199.651 63.379 199.411 63.2348 199.146 63.1586C198.881 63.0825 198.601 63.077 198.333 63.143C198.037 63.1934 197.75 63.2899 197.484 63.4288C197.252 63.573 197.008 63.6981 196.755 63.8032C196.485 63.882 196.226 63.9707 195.966 64.0693C196.26 63.8642 196.492 63.5848 196.637 63.2604C196.783 62.9361 196.838 62.5789 196.795 62.2266C196.789 62.2123 196.779 62.1993 196.768 62.1886C196.756 62.1778 196.743 62.1695 196.728 62.164C196.713 62.1585 196.697 62.156 196.681 62.1566C196.665 62.1572 196.65 62.1608 196.635 62.1674C196.239 62.3846 195.897 62.6878 195.637 63.0542C195.498 63.2229 195.407 63.4247 195.372 63.6391C195.336 63.8535 195.359 64.0731 195.437 64.2762C194.72 64.5874 194.048 64.992 193.44 65.4787C193.516 65.322 193.583 65.1605 193.639 64.9956C193.868 64.5003 194.009 63.9707 194.059 63.4288C194.058 63.4136 194.053 63.3987 194.046 63.3853C194.039 63.3719 194.029 63.3602 194.016 63.3509C194.004 63.3416 193.99 63.3349 193.975 63.3314C193.96 63.3278 193.944 63.3274 193.929 63.3302C193.648 63.3919 193.399 63.5531 193.23 63.7835C193.06 63.9992 192.947 64.2531 192.9 64.5226C192.801 64.9463 193.01 65.4391 192.9 65.8432C192.794 66.0993 192.618 66.321 192.391 66.4836C192.166 66.6529 191.976 66.8639 191.832 67.1046C192.149 66.4063 192.28 65.6396 192.211 64.8774C192.216 64.8481 192.216 64.818 192.211 64.7887C192.209 64.7757 192.204 64.7636 192.197 64.7528C192.189 64.742 192.179 64.7329 192.168 64.7264C192.157 64.7198 192.144 64.7157 192.131 64.7146C192.117 64.7134 192.104 64.7153 192.092 64.7199C191.955 64.7601 191.827 64.8234 191.712 64.907C191.612 64.996 191.522 65.0952 191.443 65.2027C191.39 65.2746 191.343 65.3504 191.303 65.4294C191.221 65.6013 191.164 65.7838 191.133 65.9714C191.093 66.2492 191.093 66.5311 191.133 66.8089C191.153 67.0635 191.203 67.3149 191.283 67.5579V67.6565C190.921 68.1469 190.588 68.6567 190.284 69.1838C190.288 68.8988 190.258 68.6145 190.194 68.3365C190.199 68.2873 190.199 68.2379 190.194 68.1887C190.13 67.9316 190.007 67.6921 189.835 67.4888C189.794 67.4437 189.751 67.401 189.705 67.3608C189.692 67.3526 189.676 67.3476 189.661 67.3462C189.645 67.3448 189.629 67.3471 189.615 67.3529C189.6 67.3587 189.587 67.3677 189.577 67.3794C189.566 67.391 189.559 67.405 189.555 67.42C189.555 67.489 189.555 67.558 189.555 67.6269C189.51 67.9374 189.51 68.2526 189.555 68.5631C189.551 68.5958 189.551 68.629 189.555 68.6617C189.605 69.0665 189.8 69.4402 190.104 69.716L189.955 70.0117C189.855 70.2088 189.765 70.406 189.675 70.6031C189.465 71.0367 189.276 71.48 189.096 71.9136C189.096 72.0417 188.996 72.1601 188.936 72.2882C188.876 72.4163 188.866 72.4656 188.826 72.5642H189.046C189.083 72.4871 189.117 72.4082 189.146 72.3277C189.385 71.7561 189.625 71.1845 189.885 70.6327L190.174 70.0413C190.174 69.9427 190.264 69.854 190.314 69.7555C190.633 69.8747 190.971 69.938 191.313 69.9427C191.672 69.9198 192.028 69.8536 192.371 69.7456C192.451 69.7456 192.451 69.657 192.371 69.6077C192.112 69.3918 191.798 69.2513 191.462 69.2026C191.127 69.1538 190.785 69.1986 190.474 69.3318C190.776 68.7876 191.109 68.2611 191.472 67.7549C191.935 67.8732 192.415 67.9101 192.89 67.8634C193.11 67.8142 193.57 67.765 193.29 67.4299C193.159 67.3031 193.002 67.2056 192.83 67.1443C192.658 67.0831 192.474 67.0595 192.291 67.075C192.168 67.0655 192.045 67.0655 191.922 67.075C192.092 66.8681 192.281 66.6613 192.461 66.4642C192.644 66.2639 192.837 66.073 193.04 65.8925C193.16 65.9516 193.26 66.0403 193.38 66.0994C193.513 66.1659 193.654 66.2155 193.799 66.2471C194.033 66.2986 194.27 66.3316 194.508 66.3458C194.708 66.3458 195.197 66.4443 195.078 66.0698C194.958 65.6953 194.478 65.5378 194.179 65.4688C193.993 65.4441 193.805 65.4441 193.619 65.4688C193.888 65.2519 194.171 65.0542 194.468 64.8774C194.768 64.7001 195.077 64.5523 195.387 64.4044C195.582 64.7591 195.907 65.0269 196.296 65.1534C196.536 65.2181 196.787 65.2277 197.031 65.1816C197.275 65.1354 197.505 65.0348 197.704 64.8873C197.716 64.8771 197.726 64.8643 197.733 64.8498C197.74 64.8353 197.744 64.8196 197.744 64.8036C197.744 64.7876 197.74 64.7716 197.733 64.7571C197.726 64.7427 197.716 64.73 197.704 64.7199C197.288 64.3803 196.788 64.1557 196.256 64.0693C196.595 63.951 196.925 63.8524 197.254 63.7637C197.65 63.9364 198.081 64.015 198.513 63.9928C198.945 63.9705 199.366 63.8482 199.741 63.6357C199.762 63.6361 199.782 63.6308 199.799 63.6203C199.817 63.6099 199.831 63.5947 199.841 63.5766Z" fill="#107D5D"/>
<path d="M190.204 55.614C191.129 54.9396 191.825 54.005 192.202 52.9333C192.204 52.9196 192.204 52.9056 192.201 52.8919C192.198 52.8783 192.192 52.8653 192.184 52.8542C192.175 52.843 192.164 52.8337 192.152 52.827C192.14 52.8202 192.126 52.8163 192.112 52.8152C191.473 52.8152 190.873 53.4459 190.494 54.0569C190.284 54.4014 190.122 54.7727 190.015 55.1605C189.938 55.518 189.838 55.8703 189.715 56.215C189.575 56.5501 189.435 56.9049 189.306 57.2498C189.347 56.8077 189.316 56.3619 189.216 55.9292C189.187 55.7423 189.115 55.5644 189.006 55.409C188.897 55.2536 188.754 55.1249 188.587 55.0325C188.517 55.0325 188.447 55.0324 188.427 55.1506C188.277 55.6929 188.243 56.2603 188.327 56.8162C188.329 57.0561 188.398 57.2905 188.527 57.494C188.655 57.6975 188.839 57.862 189.056 57.9692V58.0284C188.742 58.9961 188.495 59.9839 188.317 60.9848C188.317 60.7384 188.207 60.5017 188.177 60.3441C188.081 59.8915 187.923 59.454 187.708 59.0434C187.632 58.8939 187.542 58.7518 187.438 58.6195C187.438 58.5604 187.318 58.6195 187.278 58.6195C187.109 58.9199 187.033 59.2624 187.059 59.605C187.059 59.6542 187.059 59.6938 187.059 59.7332C187.094 59.9942 187.165 60.2494 187.268 60.492C187.299 60.5608 187.336 60.6267 187.378 60.6891C187.558 60.9749 187.808 61.2016 187.967 61.4972C188.019 61.5803 188.06 61.6698 188.087 61.7633C188.267 62.4039 187.858 63.2316 187.908 63.9116C187.903 63.931 187.903 63.9513 187.908 63.9708C187.908 63.9708 187.908 63.9017 187.908 63.8623C187.866 63.5665 187.806 63.2737 187.728 62.9853C187.635 62.6452 187.508 62.315 187.348 61.9998C187.233 61.7562 187.078 61.5329 186.889 61.3394C186.882 61.3271 186.872 61.317 186.86 61.3098C186.847 61.3027 186.833 61.2987 186.819 61.2987C186.805 61.2987 186.791 61.3027 186.778 61.3098C186.766 61.317 186.756 61.3271 186.749 61.3394C186.549 61.7003 186.469 62.114 186.519 62.5222C186.542 62.7369 186.589 62.9483 186.659 63.1528C186.659 63.1528 186.659 63.2413 186.659 63.2807C186.797 63.6282 186.974 63.9589 187.189 64.2662C187.338 64.4929 187.498 64.6901 187.638 64.8675C187.659 64.8985 187.686 64.9253 187.718 64.9464C187.718 65.0154 187.718 65.0942 187.718 65.1631C187.718 65.5376 187.718 65.912 187.718 66.2865V67.3706C187.612 67.1115 187.485 66.861 187.338 66.6216C187.268 66.5006 187.188 66.3852 187.099 66.2766L187.009 66.1683C186.82 65.9316 186.556 65.7649 186.26 65.6953C186.26 65.6953 186.2 65.6951 186.18 65.7444C186.172 65.7616 186.169 65.7802 186.169 65.7988C186.169 65.8174 186.172 65.8358 186.18 65.8529C186.27 66.19 186.387 66.5195 186.529 66.8384C186.639 67.081 186.773 67.3121 186.929 67.5282C187.131 67.8135 187.412 68.036 187.738 68.1689C187.743 68.2641 187.743 68.3593 187.738 68.4545V69.3021C187.738 69.509 187.738 69.7161 187.738 69.9132V70.5142C187.738 70.7605 187.738 70.9971 187.738 71.2434L187.808 72.4555H188.007V71.9135C188.007 71.6868 188.007 71.4602 188.007 71.2237C188.007 70.9872 188.007 70.7408 188.007 70.5043V69.9132V69.1642C188.007 68.8686 188.007 68.5827 188.007 68.287V68.3166H188.117H188.277H188.337L188.577 68.218C188.699 68.1585 188.816 68.0893 188.926 68.011C189.028 67.9392 189.122 67.8566 189.206 67.7647C189.402 67.5352 189.586 67.295 189.755 67.0453C189.77 67.0333 189.781 67.0183 189.79 67.0013C189.798 66.9842 189.802 66.9657 189.802 66.9469C189.802 66.9281 189.798 66.9093 189.79 66.8923C189.781 66.8753 189.77 66.8603 189.755 66.8483L189.625 66.7989C189.556 66.7879 189.485 66.7879 189.415 66.7989C189.346 66.7894 189.275 66.7894 189.206 66.7989C189.053 66.8325 188.908 66.8925 188.776 66.9763C188.689 67.0264 188.606 67.0825 188.527 67.144L188.307 67.3509C188.197 67.4537 188.099 67.5696 188.017 67.6959L187.957 67.7943V67.2031V66.7989C187.957 66.7102 187.957 66.6215 187.957 66.5328C187.957 66.2865 187.957 66.0302 187.957 65.774C187.957 65.5178 187.957 65.4488 187.957 65.2813L188.217 65.1434C188.608 64.9563 188.949 64.6831 189.216 64.3451C189.386 64.1086 189.735 63.6357 189.326 63.4879C188.916 63.3401 188.587 63.6455 188.327 63.8919C188.24 63.9666 188.159 64.0491 188.087 64.1382L188.037 64.1875C188.032 64.1186 188.032 64.0495 188.037 63.9806C188.037 63.7244 188.037 63.4682 188.107 63.2119C188.177 62.9557 188.207 62.4039 188.267 62.0097C188.397 61.9604 188.537 61.9603 188.666 61.9209C188.825 61.8657 188.973 61.7858 189.106 61.6844L189.296 61.5268C189.455 61.3889 189.595 61.231 189.745 61.0733C189.873 60.94 189.984 60.791 190.075 60.6299C190.174 60.4624 190.204 60.285 190.075 60.1569C189.945 60.0288 189.236 60.295 188.966 60.5315C188.791 60.6763 188.627 60.8345 188.477 61.0045C188.657 60.0896 188.887 59.1849 189.166 58.2945C189.386 58.3336 189.612 58.3199 189.826 58.2548C190.04 58.1896 190.235 58.0747 190.394 57.9199C190.887 57.4409 191.212 56.8196 191.323 56.146C191.327 56.1286 191.327 56.1105 191.322 56.0933C191.317 56.076 191.307 56.0604 191.294 56.0483C191.281 56.0361 191.264 56.0278 191.246 56.0242C191.229 56.0206 191.21 56.0218 191.193 56.0278C190.575 56.2638 190.021 56.6381 189.575 57.1216L189.845 56.4614L190.204 55.614Z" fill="#107D5D"/>
<path d="M191.572 79.5804H185.161L183.573 70.7605H192.841L191.572 79.5804Z" fill="#D67728"/>
<path d="M191.992 80.4182H184.732L183.893 77.9841H192.841L191.992 80.4182Z" fill="#C86B28"/>
<path d="M157.949 82.6355C157.894 83.0737 157.719 83.4889 157.443 83.8363C157.167 84.1836 156.8 84.4499 156.381 84.6064C155.183 84.9316 154.014 83.9855 153.175 83.069C152.002 81.7393 150.953 80.3078 150.04 78.792C149.584 78.0345 149.168 77.2551 148.792 76.4565C148.732 76.3383 147.793 74.7319 147.793 74.7024C147.114 76.358 145.606 88.6469 145.416 91.3274C145.017 96.777 146.824 99.5362 146.415 104.986C139.598 104.375 132.78 103.764 125.963 103.153C125.963 103.153 125.554 88.9424 125.464 87.7007C125.284 85.0727 125.065 82.4778 124.805 79.9156C124.685 78.7527 124.625 77.649 124.525 76.5453C120.91 80.4872 114.799 86.0255 113.441 85.8678C112.826 85.7272 112.284 85.3705 111.917 84.8646C111.549 84.3586 111.381 83.7378 111.443 83.1183C111.539 82.2614 111.785 81.4275 112.172 80.6547C112.462 80.0042 112.782 79.3833 113.031 78.8018C113.81 77.0083 114.779 75.274 115.678 73.5593C117.066 70.8887 118.464 67.745 120.471 65.3601C120.949 64.2484 121.775 63.3163 122.828 62.6994C125.097 61.3584 127.63 60.5085 130.257 60.2062C134.263 59.462 138.387 59.6237 142.321 60.6792C146.548 61.8983 150.248 64.462 152.846 67.9715C155.512 71.4897 156.84 75.8553 157.729 80.083C157.963 80.9128 158.038 81.7786 157.949 82.6355Z" fill="#0DA9E0"/>
<path d="M140.653 88.9523H145.646C145.646 88.6468 145.726 88.3117 145.766 87.9668H140.673L140.653 88.9523Z" fill="white"/>
<path d="M152.576 82.3202H157.979C158.013 81.9926 158.013 81.6623 157.979 81.3347H151.797C152.087 81.6698 152.307 81.995 152.576 82.3202Z" fill="white"/>
<path d="M140.653 82.3202H146.445C146.495 81.9851 146.535 81.6599 146.585 81.3347H140.653V82.3202Z" fill="white"/>
<path d="M140.653 75.6879H147.504C147.57 75.3535 147.66 75.0242 147.773 74.7024H140.653V75.6879Z" fill="white"/>
<path d="M148.362 75.6879H156.601C156.501 75.3528 156.391 75.0276 156.281 74.7024H147.793C147.833 74.7714 148.093 75.2148 148.362 75.6879Z" fill="white"/>
<path d="M140.653 69.0558H153.635C153.415 68.7207 153.186 68.3857 152.946 68.0703H140.663L140.653 69.0558Z" fill="white"/>
<path d="M140.653 62.4039H146.535C145.86 62.0402 145.167 61.7112 144.458 61.4185H140.653V62.4039Z" fill="white"/>
<path d="M140.653 85.6412H146.016C146.016 85.316 146.106 84.981 146.145 84.6558H140.653V85.6412Z" fill="white"/>
<path d="M140.653 79.0092H146.924C146.974 78.6642 147.034 78.3292 147.084 78.0237H140.653V79.0092Z" fill="white"/>
<path d="M150.09 78.7628C150.09 78.8416 150.2 78.9205 150.25 79.0092H157.55C157.47 78.6741 157.39 78.339 157.3 78.0237H149.67C149.76 78.2602 149.89 78.5164 150.09 78.7628Z" fill="white"/>
<path d="M140.653 72.3671H155.393C155.253 72.032 155.083 71.7068 154.923 71.3816H140.653V72.3671Z" fill="white"/>
<path d="M140.653 65.7345H150.919C150.579 65.3896 150.22 65.0545 149.85 64.749H140.653V65.7345Z" fill="white"/>
<path d="M140.663 87.9668H140.543V88.9621H140.663V87.9668Z" fill="white"/>
<path d="M140.663 81.3347H140.543V82.33H140.663V81.3347Z" fill="white"/>
<path d="M140.663 74.6926H140.543V75.688H140.663V74.6926Z" fill="white"/>
<path d="M140.663 68.0603H140.543V69.0556H140.663V68.0603Z" fill="white"/>
<path d="M140.663 61.4282H140.543V62.4235H140.663V61.4282Z" fill="white"/>
<path d="M140.663 84.6458H140.543V85.6411H140.663V84.6458Z" fill="white"/>
<path d="M140.663 78.0137H140.543V79.009H140.663V78.0137Z" fill="white"/>
<path d="M140.663 71.3813H140.543V72.3767H140.663V71.3813Z" fill="white"/>
<path d="M140.663 64.7393H140.543V65.7346H140.663V64.7393Z" fill="white"/>
<path d="M140.653 102.226H146.425C146.425 101.891 146.425 101.556 146.345 101.241H140.653V102.226Z" fill="white"/>
<path d="M140.653 95.5944H145.516C145.516 95.2692 145.446 94.9341 145.416 94.6089H140.653V95.5944Z" fill="white"/>
<path d="M146.385 104.956C146.385 104.818 146.385 104.69 146.385 104.552H141.791L146.385 104.956Z" fill="white"/>
<path d="M140.653 98.8661H146.036C146.036 98.5409 145.926 98.2058 145.866 97.8806H140.653V98.8661Z" fill="white"/>
<path d="M140.653 92.2736H145.356C145.356 91.9582 145.356 91.633 145.356 91.2881H140.603L140.653 92.2736Z" fill="white"/>
<path d="M140.663 101.231H140.543V102.227H140.663V101.231Z" fill="white"/>
<path d="M140.663 94.5991H140.543V95.5944H140.663V94.5991Z" fill="white"/>
<path d="M140.663 97.9202H140.543V98.9155H140.663V97.9202Z" fill="white"/>
<path d="M140.663 91.2781H140.543V92.2734H140.663V91.2781Z" fill="white"/>
<path d="M140.423 87.957H125.444C125.444 88.1935 125.444 88.5385 125.444 88.9425H140.423V87.957Z" fill="white"/>
<path d="M140.543 87.9668H140.423V88.9621H140.543V87.9668Z" fill="white"/>
<path d="M111.583 82.3202H118.574C118.943 82.0048 119.313 81.6698 119.682 81.3347H111.923C111.784 81.6541 111.671 81.9836 111.583 82.3202Z" fill="white"/>
<path d="M140.423 81.3247H124.905L124.995 82.3102H140.423V81.3247Z" fill="white"/>
<path d="M140.543 81.3347H140.423V82.33H140.543V81.3347Z" fill="white"/>
<path d="M140.423 74.6926H115.078L114.549 75.6781H140.423V74.6926Z" fill="white"/>
<path d="M140.543 74.6926H140.423V75.688H140.543V74.6926Z" fill="white"/>
<path d="M140.423 68.0603H118.574L118.004 69.0458H140.423V68.0603Z" fill="white"/>
<path d="M140.543 68.0603H140.423V69.0556H140.543V68.0603Z" fill="white"/>
<path d="M140.423 61.4185H125.324C124.614 61.6952 123.927 62.0246 123.267 62.4039H140.423V61.4185Z" fill="white"/>
<path d="M140.543 61.4282H140.423V62.4235H140.543V61.4282Z" fill="white"/>
<path d="M112.802 85.6412H114.14C114.695 85.3611 115.223 85.0312 115.717 84.6558H111.833C112.046 85.0741 112.384 85.4179 112.802 85.6412Z" fill="white"/>
<path d="M140.423 84.646H125.204C125.204 84.9811 125.254 85.3063 125.274 85.6315H140.423V84.646Z" fill="white"/>
<path d="M140.543 84.6458H140.423V85.6411H140.543V84.6458Z" fill="white"/>
<path d="M113.041 78.7726L112.941 79.0092H122.129L123.127 78.0237H113.451L113.041 78.7726Z" fill="white"/>
<path d="M140.423 78.0137H124.615C124.615 78.3389 124.675 78.6739 124.695 78.9991H140.423V78.0137Z" fill="white"/>
<path d="M140.543 78.0137H140.423V79.009H140.543V78.0137Z" fill="white"/>
<path d="M140.423 71.3716H116.786L116.277 72.3571H140.423V71.3716Z" fill="white"/>
<path d="M140.543 71.3813H140.423V72.3767H140.543V71.3813Z" fill="white"/>
<path d="M140.423 64.7395H120.761C120.651 64.9286 120.557 65.1263 120.481 65.3306C120.371 65.4588 120.271 65.6065 120.161 65.7346H140.423V64.7395Z" fill="white"/>
<path d="M140.543 64.7393H140.423V65.7346H140.543V64.7393Z" fill="white"/>
<path d="M140.423 101.231H125.903C125.903 101.616 125.903 101.951 125.903 102.217H140.403L140.423 101.231Z" fill="white"/>
<path d="M140.543 101.231H140.423V102.227H140.543V101.231Z" fill="white"/>
<path d="M140.423 94.5991H125.694V95.5846H140.393L140.423 94.5991Z" fill="white"/>
<path d="M140.543 94.5991H140.423V95.5944H140.543V94.5991Z" fill="white"/>
<path d="M140.423 97.8806H125.803C125.803 98.2255 125.803 98.5606 125.803 98.8661H140.393L140.423 97.8806Z" fill="white"/>
<path d="M140.543 97.9202H140.423V98.9155H140.543V97.9202Z" fill="white"/>
<path d="M140.423 91.2781H125.584C125.584 91.6033 125.584 91.9285 125.584 92.2635H140.393L140.423 91.2781Z" fill="white"/>
<path d="M140.543 91.2781H140.423V92.2734H140.543V91.2781Z" fill="white"/>
<g style="mix-blend-mode:multiply">
<g style="mix-blend-mode:multiply">
<path d="M129.468 103.439V102.808C129.468 102.039 129.468 101.28 129.468 100.522C129.393 99.584 129.223 98.6564 128.959 97.7526C128.359 95.7766 127.869 93.7698 127.491 91.7412C127.378 90.6641 127.324 89.5817 127.331 88.4989C127.331 87.3164 127.221 86.1436 127.112 84.961C127.002 83.7784 126.872 82.6747 126.722 81.5316C126.572 80.3885 126.323 79.2061 126.263 78.0432C126.203 76.8804 126.383 75.6978 126.433 74.525C126.433 74.1998 126.433 73.8845 126.433 73.5396C126.433 73.372 126.433 72.6921 126.343 72.5541C126.253 72.4161 125.344 73.1454 125.174 73.3524C124.515 74.0225 123.916 74.7123 123.177 75.3233C122.438 75.9343 121.619 76.634 120.87 77.2943C120.083 77.9724 119.358 78.7177 118.703 79.5214C118.314 80.0142 117.934 80.5069 117.545 80.9996C116.608 82.2032 115.528 83.2915 114.329 84.2416C113.734 84.715 113.058 85.079 112.332 85.3159C112.611 85.565 112.958 85.7262 113.331 85.779C114.689 85.9367 120.8 80.3885 124.415 76.4565C124.515 77.5602 124.575 78.6639 124.695 79.8268C124.955 82.4218 125.174 85.017 125.354 87.6121C125.444 88.8538 125.903 103.074 125.853 103.064L129.468 103.439Z" fill="#D0D2D3"/>
</g>
<g style="mix-blend-mode:multiply">
<path d="M137.387 60.3341C139.271 60.9573 141.112 61.6979 142.9 62.5514C145.591 63.6234 148.064 65.1659 150.2 67.1044C152.329 69.2402 154.078 71.7156 155.373 74.4263C156.52 77.1207 157.37 79.929 157.909 82.8028C157.914 82.7471 157.914 82.6911 157.909 82.6354C158.005 81.7694 157.934 80.8932 157.699 80.0533C156.761 75.8158 155.482 71.4602 152.816 67.9421C150.218 64.4326 146.518 61.8686 142.291 60.6495C139.931 59.9714 137.477 59.6655 135.021 59.7429C135.84 59.9006 136.619 60.0976 137.387 60.3341Z" fill="#D0D2D3"/>
</g>
</g>
<path d="M129.758 42.5171C127.951 44.084 127.511 46.0844 127.122 48.2919C126.682 50.8344 125.614 52.7856 126.543 55.4266C126.882 56.1952 127.169 56.9855 127.401 57.7919C127.631 58.9153 127.401 60.088 127.531 61.2213C127.782 62.7795 128.607 64.1917 129.847 65.188C131.086 66.1842 132.655 66.6946 134.252 66.6217C135.79 66.533 137.347 65.9318 138.835 66.326C139.798 66.7129 140.729 67.1709 141.622 67.6959C142.192 67.9518 142.812 68.0842 143.439 68.0842C144.066 68.0842 144.686 67.9518 145.257 67.6959C145.821 67.4311 146.296 67.0114 146.626 66.4872C146.955 65.9629 147.125 65.3563 147.114 64.7395C147.004 63.1529 145.546 61.6549 146.115 60.1865C146.585 59.004 148.113 58.6 148.802 57.5455C149.61 56.3236 149.041 54.5891 148.073 53.5346C147.104 52.4802 145.786 51.6622 144.807 50.5782C143.239 48.8339 144.328 47.3065 143.599 45.4834C143.027 44.2473 142.17 43.1598 141.098 42.3078C140.025 41.4558 138.765 40.8629 137.42 40.5758C136.074 40.2887 134.678 40.3155 133.345 40.6542C132.011 40.993 130.776 41.6343 129.738 42.527L129.758 42.5171Z" fill="#ED592F"/>
<path d="M128.97 114.883L116.43 150.885L118.451 151.57L130.991 115.569L128.97 114.883Z" fill="#2A2A4F"/>
<path d="M140.463 114.974L138.442 115.66L150.983 151.661L153.004 150.975L140.463 114.974Z" fill="#2A2A4F"/>
<path d="M149.94 101.823C148.522 105.764 151.348 109.411 150.34 113.382C149.521 116.575 146.605 118.911 143.449 119.965C141.413 120.598 139.293 120.93 137.158 120.95C136.589 120.95 136.029 120.95 135.46 120.95H135.241C134.671 120.95 134.112 120.95 133.543 120.95C131.408 120.931 129.288 120.599 127.252 119.965C124.096 118.911 121.18 116.575 120.361 113.382C119.363 109.44 122.179 105.715 120.761 101.823C119.762 99.1815 117.485 97.0922 116.976 94.3329C116.427 91.3765 118.244 88.3019 120.731 86.4985C124.925 83.4435 130.228 82.6849 135.33 82.6947C140.413 82.5863 146.315 83.8377 149.93 86.4985C152.427 88.3019 154.234 91.3371 153.685 94.3329C153.216 97.0627 150.889 99.152 149.94 101.823Z" fill="#C6C5C5"/>
<path d="M142.555 124.589L121.031 139.645L121.649 140.505L143.173 125.449L142.555 124.589Z" fill="#2A2A4F"/>
<path d="M126.423 124.663L125.805 125.523L147.33 140.58L147.948 139.719L126.423 124.663Z" fill="#2A2A4F"/>
<path opacity="0.2" d="M398.917 25.0482L313.548 50.4514L348.688 165.456L434.058 140.052L398.917 25.0482Z" fill="#515271"/>
<path d="M330.929 81.7487C330.799 81.8316 330.651 81.8837 330.497 81.9005C330.343 81.9173 330.187 81.8985 330.042 81.8456C329.897 81.7927 329.765 81.7069 329.659 81.5954C329.553 81.4839 329.475 81.3498 329.431 81.2032C329.386 81.0567 329.377 80.902 329.404 80.7514C329.431 80.6008 329.492 80.4582 329.584 80.3352C329.676 80.2122 329.796 80.1122 329.934 80.0429C330.072 79.9735 330.225 79.9367 330.38 79.9355L399.454 59.4476C399.674 59.4402 399.891 59.5047 400.07 59.6312C400.249 59.7577 400.38 59.939 400.444 60.147C400.508 60.355 400.5 60.578 400.422 60.7812C400.344 60.9844 400.201 61.1566 400.014 61.2708L330.929 81.7487Z" fill="#E0E1E0"/>
<path d="M335.623 97.1021C335.493 97.1851 335.345 97.2371 335.191 97.2539C335.037 97.2707 334.881 97.2518 334.735 97.1988C334.59 97.1459 334.459 97.0603 334.353 96.9489C334.247 96.8374 334.169 96.703 334.124 96.5565C334.08 96.4099 334.071 96.2553 334.097 96.1046C334.124 95.954 334.186 95.8116 334.278 95.6886C334.37 95.5657 334.49 95.4655 334.628 95.3961C334.766 95.3267 334.919 95.2901 335.074 95.289L404.148 74.8011C404.367 74.7959 404.582 74.8621 404.759 74.9894C404.936 75.1167 405.066 75.2979 405.129 75.5053C405.191 75.7126 405.183 75.9346 405.105 76.1368C405.027 76.339 404.884 76.5102 404.697 76.624L335.623 97.1021Z" fill="#E0E1E0"/>
<path d="M334.065 91.9677C333.845 91.9751 333.629 91.9106 333.45 91.7841C333.271 91.6577 333.139 91.4763 333.075 91.2683C333.011 91.0604 333.019 90.8373 333.097 90.6341C333.175 90.4309 333.318 90.2588 333.506 90.1445L402.58 69.6667C402.797 69.6629 403.009 69.7288 403.185 69.8548C403.361 69.9808 403.49 70.1599 403.553 70.3649C403.616 70.5698 403.61 70.7895 403.535 70.9906C403.461 71.1918 403.321 71.3636 403.139 71.4798L334.065 91.9677Z" fill="#E0E1E0"/>
<path d="M332.497 86.8633C332.253 86.9267 331.995 86.8968 331.773 86.7798C331.55 86.6628 331.381 86.4673 331.299 86.2325C331.234 85.9921 331.265 85.7367 331.383 85.5174C331.502 85.2981 331.7 85.1312 331.938 85.0499L401.022 64.5719C401.152 64.4889 401.3 64.4371 401.454 64.4203C401.608 64.4035 401.764 64.4222 401.909 64.4751C402.055 64.5281 402.186 64.6136 402.292 64.7251C402.398 64.8366 402.476 64.971 402.521 65.1175C402.565 65.264 402.574 65.4187 402.548 65.5694C402.521 65.72 402.459 65.8624 402.367 65.9853C402.275 66.1083 402.155 66.2085 402.017 66.2779C401.879 66.3473 401.726 66.3841 401.571 66.3852L332.497 86.8633Z" fill="#E0E1E0"/>
<path d="M337.83 104.237C337.613 104.241 337.4 104.175 337.225 104.049C337.049 103.923 336.92 103.743 336.857 103.538C336.793 103.334 336.8 103.114 336.874 102.913C336.949 102.712 337.088 102.54 337.27 102.424L406.345 81.9457C406.475 81.863 406.622 81.811 406.776 81.7941C406.929 81.7772 407.085 81.7958 407.23 81.8483C407.375 81.9007 407.506 81.9855 407.612 82.0963C407.718 82.2071 407.797 82.3407 407.842 82.4866C407.887 82.6325 407.897 82.7868 407.871 82.9372C407.845 83.0876 407.785 83.2299 407.694 83.3532C407.603 83.4765 407.484 83.5773 407.347 83.6477C407.21 83.7181 407.058 83.7561 406.904 83.7588L337.83 104.237Z" fill="#E0E1E0"/>
<path d="M342.493 119.561C342.363 119.644 342.215 119.696 342.061 119.713C341.907 119.729 341.751 119.711 341.606 119.658C341.46 119.605 341.329 119.519 341.223 119.408C341.117 119.296 341.039 119.162 340.995 119.015C340.95 118.869 340.941 118.714 340.967 118.564C340.994 118.413 341.056 118.271 341.148 118.148C341.24 118.025 341.36 117.924 341.498 117.855C341.636 117.786 341.789 117.749 341.944 117.748L411.018 97.2696C411.262 97.2062 411.52 97.2361 411.743 97.3531C411.965 97.47 412.134 97.6656 412.216 97.9004C412.281 98.1408 412.251 98.3962 412.132 98.6155C412.014 98.8348 411.815 99.0017 411.577 99.0829L342.493 119.561Z" fill="#E0E1E0"/>
<path d="M340.935 114.476C340.691 114.539 340.431 114.508 340.208 114.389C339.986 114.27 339.817 114.072 339.737 113.835C339.676 113.597 339.707 113.344 339.825 113.126C339.944 112.909 340.14 112.744 340.376 112.663L409.46 92.1748C409.68 92.1697 409.894 92.2359 410.072 92.3632C410.249 92.4905 410.379 92.6719 410.441 92.8793C410.504 93.0867 410.495 93.3084 410.417 93.5106C410.339 93.7128 410.196 93.8842 410.01 93.9981L340.935 114.476Z" fill="#E0E1E0"/>
<path d="M339.368 109.351C339.237 109.434 339.089 109.486 338.935 109.503C338.781 109.52 338.626 109.501 338.48 109.448C338.335 109.395 338.204 109.31 338.098 109.198C337.992 109.087 337.913 108.952 337.869 108.806C337.825 108.659 337.815 108.505 337.842 108.354C337.869 108.203 337.931 108.061 338.023 107.938C338.115 107.815 338.235 107.715 338.373 107.645C338.511 107.576 338.663 107.539 338.818 107.538L407.892 87.0601C408.023 86.9771 408.171 86.9251 408.325 86.9083C408.479 86.8915 408.635 86.9104 408.78 86.9634C408.925 87.0163 409.056 87.1019 409.162 87.2134C409.269 87.3248 409.347 87.4592 409.391 87.6058C409.436 87.7523 409.445 87.907 409.418 88.0576C409.391 88.2082 409.33 88.3506 409.238 88.4736C409.145 88.5966 409.026 88.6968 408.887 88.7661C408.749 88.8355 408.597 88.8723 408.442 88.8734L339.368 109.351Z" fill="#E0E1E0"/>
<path d="M344.68 126.726C344.55 126.808 344.403 126.86 344.249 126.877C344.096 126.894 343.94 126.875 343.795 126.823C343.65 126.771 343.519 126.685 343.413 126.575C343.307 126.464 343.228 126.33 343.183 126.184C343.138 126.039 343.128 125.884 343.154 125.734C343.179 125.584 343.24 125.441 343.331 125.318C343.422 125.195 343.54 125.094 343.677 125.023C343.814 124.953 343.966 124.915 344.121 124.912L413.205 104.434C413.421 104.433 413.632 104.5 413.806 104.627C413.98 104.754 414.107 104.933 414.169 105.137C414.231 105.342 414.224 105.561 414.149 105.761C414.074 105.961 413.936 106.132 413.754 106.247L344.68 126.726Z" fill="#E0E1E0"/>
<path d="M349.374 142.079C349.157 142.083 348.944 142.017 348.769 141.891C348.593 141.765 348.464 141.586 348.401 141.381C348.338 141.176 348.344 140.956 348.418 140.755C348.493 140.554 348.632 140.382 348.814 140.266L417.889 119.788C418.018 119.705 418.166 119.653 418.32 119.636C418.473 119.62 418.629 119.638 418.774 119.69C418.919 119.743 419.05 119.828 419.156 119.939C419.262 120.049 419.341 120.183 419.386 120.329C419.431 120.475 419.441 120.629 419.415 120.779C419.389 120.93 419.329 121.072 419.238 121.196C419.147 121.319 419.028 121.42 418.891 121.49C418.754 121.56 418.602 121.598 418.448 121.601L349.374 142.079Z" fill="#E0E1E0"/>
<path d="M347.816 136.964C347.599 136.968 347.386 136.902 347.211 136.776C347.035 136.65 346.906 136.471 346.843 136.266C346.78 136.061 346.786 135.841 346.861 135.64C346.935 135.439 347.074 135.267 347.256 135.151L416.341 114.663C416.471 114.584 416.619 114.534 416.771 114.52C416.924 114.506 417.078 114.526 417.222 114.58C417.365 114.634 417.494 114.72 417.598 114.831C417.703 114.942 417.78 115.075 417.824 115.22C417.867 115.365 417.877 115.519 417.851 115.668C417.825 115.817 417.764 115.959 417.674 116.081C417.583 116.204 417.466 116.304 417.33 116.374C417.194 116.444 417.043 116.483 416.89 116.486L347.816 136.964Z" fill="#E0E1E0"/>
<path d="M346.238 131.85C346.019 131.855 345.804 131.789 345.627 131.661C345.449 131.534 345.319 131.353 345.257 131.146C345.195 130.938 345.203 130.716 345.281 130.514C345.359 130.312 345.502 130.141 345.689 130.027L414.763 109.549C414.893 109.466 415.04 109.414 415.194 109.397C415.347 109.38 415.503 109.399 415.648 109.451C415.793 109.504 415.924 109.589 416.03 109.699C416.136 109.81 416.215 109.944 416.26 110.09C416.305 110.235 416.315 110.39 416.289 110.54C416.264 110.691 416.203 110.833 416.112 110.956C416.021 111.08 415.903 111.18 415.765 111.251C415.628 111.321 415.477 111.359 415.322 111.362L346.238 131.85Z" fill="#E0E1E0"/>
<path d="M351.55 149.214C351.307 149.277 351.048 149.247 350.826 149.13C350.604 149.013 350.434 148.818 350.352 148.583C350.288 148.343 350.318 148.087 350.436 147.868C350.555 147.649 350.753 147.482 350.991 147.401L420.076 126.922C420.206 126.839 420.354 126.788 420.508 126.771C420.662 126.754 420.818 126.773 420.963 126.826C421.108 126.879 421.239 126.964 421.345 127.076C421.451 127.187 421.53 127.322 421.574 127.468C421.618 127.615 421.628 127.769 421.601 127.92C421.574 128.071 421.512 128.213 421.42 128.336C421.328 128.459 421.208 128.559 421.07 128.628C420.932 128.698 420.78 128.735 420.625 128.736L351.55 149.214Z" fill="#E0E1E0"/>
<path d="M353.119 154.338C352.874 154.401 352.614 154.37 352.391 154.251C352.169 154.132 352.001 153.934 351.92 153.698C351.859 153.459 351.89 153.206 352.009 152.989C352.127 152.772 352.323 152.606 352.559 152.525L421.633 132.037C421.854 132.03 422.07 132.095 422.249 132.221C422.428 132.347 422.56 132.529 422.624 132.737C422.687 132.945 422.68 133.168 422.602 133.371C422.524 133.574 422.38 133.746 422.193 133.86L353.119 154.338Z" fill="#E0E1E0"/>
<path opacity="0.2" d="M324.058 59.2603C323.814 59.3231 323.554 59.2918 323.331 59.1729C323.109 59.054 322.941 58.8563 322.86 58.6196C322.796 58.3793 322.826 58.1241 322.945 57.9048C323.063 57.6855 323.261 57.5183 323.499 57.4371L392.584 36.959C392.828 36.8961 393.088 36.9274 393.311 37.0463C393.533 37.1652 393.702 37.363 393.782 37.5997C393.843 37.8399 393.81 38.0938 393.69 38.3111C393.569 38.5284 393.37 38.6931 393.133 38.7723L324.058 59.2603Z" fill="#515271"/>
<path opacity="0.2" d="M328.752 74.6135C328.507 74.6763 328.248 74.6453 328.025 74.5264C327.803 74.4075 327.634 74.2097 327.554 73.973C327.49 73.7327 327.52 73.4773 327.639 73.258C327.757 73.0387 327.955 72.8717 328.193 72.7905L397.277 52.3124C397.408 52.2327 397.555 52.1837 397.708 52.1692C397.861 52.1548 398.015 52.1755 398.158 52.2294C398.302 52.2833 398.431 52.3691 398.535 52.4801C398.639 52.5911 398.716 52.7242 398.76 52.8694C398.804 53.0145 398.813 53.1679 398.787 53.3171C398.761 53.4664 398.701 53.6078 398.611 53.7302C398.52 53.8527 398.402 53.953 398.267 54.0233C398.131 54.0936 397.98 54.132 397.827 54.1356L328.752 74.6135Z" fill="#515271"/>
<path opacity="0.2" d="M327.184 69.4894C327.054 69.5723 326.906 69.6244 326.752 69.6412C326.598 69.658 326.442 69.639 326.297 69.5861C326.152 69.5331 326.021 69.4476 325.914 69.3361C325.808 69.2246 325.73 69.0905 325.686 68.9439C325.641 68.7974 325.632 68.6425 325.659 68.4919C325.686 68.3412 325.747 68.1989 325.839 68.0759C325.931 67.9529 326.051 67.8527 326.189 67.7833C326.328 67.7139 326.48 67.6774 326.635 67.6762L395.709 47.1982C395.839 47.1155 395.987 47.0635 396.14 47.0466C396.294 47.0297 396.449 47.0483 396.594 47.1007C396.739 47.1532 396.87 47.238 396.976 47.3488C397.083 47.4596 397.161 47.5931 397.206 47.739C397.251 47.8849 397.261 48.0393 397.236 48.1896C397.21 48.34 397.149 48.4823 397.059 48.6056C396.968 48.7289 396.849 48.83 396.712 48.9004C396.575 48.9707 396.423 49.0086 396.269 49.0113L327.184 69.4894Z" fill="#515271"/>
<path opacity="0.2" d="M325.626 64.3746C325.383 64.438 325.124 64.4081 324.902 64.2911C324.68 64.1742 324.51 63.9789 324.428 63.744C324.364 63.5037 324.394 63.2483 324.512 63.029C324.631 62.8097 324.829 62.6425 325.067 62.5612L394.141 42.0832C394.358 42.0794 394.571 42.1455 394.746 42.2715C394.922 42.3976 395.051 42.5766 395.114 42.7816C395.177 42.9866 395.171 43.2062 395.097 43.4074C395.022 43.6086 394.883 43.7803 394.701 43.8965L325.626 64.3746Z" fill="#515271"/>
<path opacity="0.2" d="M369.895 33.6085L325.437 46.8433L335.023 120.438L347.326 160.705L377.065 156.93L430.761 140.956L428.055 120.103L400.433 29.7356L369.895 33.6085Z" fill="#515271"/>
<path d="M414.615 29.5671L326.175 40.7783L341.684 159.918L430.123 148.707L414.615 29.5671Z" fill="#EEEDEE"/>
<path opacity="0.2" d="M341.015 73.9634C340.873 74.0226 340.719 74.0485 340.565 74.0391C340.411 74.0298 340.261 73.9853 340.128 73.9092C339.994 73.8332 339.88 73.7276 339.795 73.6008C339.71 73.474 339.655 73.3296 339.636 73.1785C339.616 73.0275 339.633 72.874 339.684 72.7303C339.735 72.5866 339.819 72.4565 339.929 72.3502C340.04 72.2439 340.173 72.1642 340.32 72.1175C340.467 72.0708 340.623 72.0585 340.775 72.0812L408.621 63.4781C408.763 63.4185 408.917 63.392 409.071 63.4008C409.225 63.4097 409.374 63.4537 409.508 63.5291C409.642 63.6045 409.756 63.7093 409.842 63.8356C409.928 63.9618 409.983 64.1061 410.003 64.2569C410.023 64.4076 410.007 64.5608 409.957 64.7046C409.907 64.8484 409.824 64.9789 409.715 65.0857C409.605 65.1926 409.472 65.2729 409.325 65.3205C409.179 65.3682 409.024 65.3818 408.871 65.3602L341.015 73.9634Z" fill="#515271"/>
<path d="M343.092 89.8691C342.876 89.8386 342.677 89.7392 342.523 89.5861C342.37 89.4331 342.272 89.2346 342.244 89.0212C342.215 88.8079 342.259 88.5914 342.367 88.4046C342.475 88.2178 342.642 88.071 342.843 87.9867L410.698 79.3835C410.914 79.4156 411.112 79.5161 411.264 79.6699C411.416 79.8236 411.513 80.0222 411.54 80.2352C411.567 80.4483 411.523 80.6642 411.415 80.8502C411.306 81.0362 411.139 81.1821 410.938 81.2657L343.092 89.8691Z" fill="#D3D3D3"/>
<path d="M342.393 84.5671C342.178 84.5351 341.979 84.4345 341.827 84.2808C341.676 84.1271 341.579 83.9287 341.552 83.7157C341.524 83.5026 341.568 83.2865 341.677 83.1005C341.786 82.9144 341.953 82.7685 342.154 82.685L410 74.0818C410.141 74.0223 410.295 73.9957 410.449 74.0046C410.603 74.0135 410.752 74.0574 410.886 74.1328C411.02 74.2083 411.134 74.3131 411.22 74.4393C411.306 74.5656 411.361 74.7099 411.381 74.8606C411.401 75.0114 411.385 75.1646 411.335 75.3084C411.285 75.4522 411.202 75.5826 411.093 75.6895C410.983 75.7963 410.85 75.8767 410.703 75.9243C410.557 75.9719 410.402 75.9855 410.249 75.964L342.393 84.5671Z" fill="#D3D3D3"/>
<path d="M341.704 79.2653C341.489 79.2333 341.29 79.1327 341.138 78.979C340.986 78.8253 340.889 78.6267 340.862 78.4136C340.835 78.2005 340.879 77.9845 340.988 77.7984C341.097 77.6124 341.264 77.4665 341.464 77.3829L409.311 68.7798C409.526 68.8103 409.726 68.9097 409.879 69.0627C410.033 69.2158 410.131 69.4141 410.159 69.6274C410.188 69.8407 410.144 70.0575 410.036 70.2443C409.928 70.4311 409.761 70.5777 409.56 70.6619L341.704 79.2653Z" fill="#D3D3D3"/>
<path d="M344.051 97.26C343.835 97.2295 343.635 97.1301 343.482 96.977C343.329 96.824 343.231 96.6255 343.202 96.4121C343.174 96.1988 343.217 95.9823 343.325 95.7955C343.434 95.6087 343.601 95.4618 343.801 95.3776L411.657 86.7744C411.799 86.7152 411.954 86.6893 412.108 86.6987C412.261 86.708 412.411 86.7525 412.545 86.8286C412.678 86.9046 412.792 87.0102 412.878 87.137C412.963 87.2638 413.017 87.4085 413.037 87.5595C413.056 87.7105 413.04 87.8638 412.989 88.0075C412.938 88.1512 412.854 88.2813 412.743 88.3876C412.633 88.4939 412.499 88.5736 412.352 88.6203C412.205 88.667 412.049 88.6793 411.897 88.6566L344.051 97.26Z" fill="#D3D3D3"/>
<path d="M346.118 113.165C345.903 113.133 345.704 113.033 345.552 112.879C345.4 112.725 345.303 112.527 345.276 112.314C345.249 112.1 345.293 111.885 345.402 111.699C345.511 111.513 345.678 111.367 345.879 111.283L413.724 102.68C413.866 102.62 414.02 102.594 414.174 102.603C414.328 102.612 414.477 102.656 414.611 102.731C414.745 102.806 414.859 102.911 414.945 103.037C415.031 103.164 415.086 103.308 415.106 103.459C415.126 103.61 415.11 103.763 415.06 103.907C415.01 104.05 414.927 104.181 414.817 104.288C414.708 104.394 414.575 104.475 414.428 104.522C414.282 104.57 414.127 104.584 413.974 104.562L346.118 113.165Z" fill="#D3D3D3"/>
<path d="M345.429 107.863C345.214 107.831 345.015 107.731 344.863 107.577C344.711 107.424 344.614 107.225 344.587 107.012C344.56 106.799 344.604 106.583 344.713 106.397C344.822 106.211 344.989 106.065 345.19 105.981L413.035 97.3782C413.251 97.4087 413.451 97.5081 413.604 97.6611C413.758 97.8142 413.856 98.0124 413.884 98.2258C413.912 98.4391 413.869 98.6558 413.761 98.8427C413.653 99.0295 413.486 99.1761 413.285 99.2603L345.429 107.863Z" fill="#D3D3D3"/>
<path d="M344.74 102.562C344.598 102.621 344.444 102.647 344.29 102.638C344.136 102.628 343.986 102.584 343.853 102.508C343.719 102.432 343.605 102.326 343.52 102.199C343.434 102.072 343.38 101.928 343.361 101.777C343.341 101.626 343.358 101.472 343.409 101.329C343.46 101.185 343.544 101.055 343.654 100.949C343.765 100.842 343.898 100.763 344.045 100.716C344.192 100.669 344.348 100.657 344.5 100.68L412.346 92.0765C412.488 92.0169 412.642 91.9904 412.796 91.9992C412.95 92.0081 413.099 92.052 413.233 92.1275C413.367 92.2029 413.481 92.3077 413.567 92.434C413.653 92.5602 413.708 92.7045 413.728 92.8553C413.748 93.006 413.732 93.1592 413.682 93.303C413.632 93.4468 413.549 93.5772 413.439 93.6841C413.33 93.791 413.197 93.8713 413.05 93.9189C412.904 93.9665 412.749 93.9802 412.596 93.9586L344.74 102.562Z" fill="#D3D3D3"/>
<path d="M347.087 120.547C346.836 120.57 346.585 120.499 346.385 120.347C346.185 120.195 346.05 119.974 346.008 119.728C345.985 119.481 346.057 119.233 346.211 119.036C346.364 118.838 346.588 118.706 346.837 118.664L414.693 110.061C414.944 110.041 415.194 110.115 415.392 110.268C415.59 110.422 415.722 110.643 415.762 110.889C415.783 111.135 415.709 111.38 415.556 111.576C415.402 111.771 415.18 111.902 414.933 111.943L347.087 120.547Z" fill="#D3D3D3"/>
<path d="M349.154 136.462C348.903 136.485 348.652 136.414 348.452 136.262C348.252 136.11 348.117 135.89 348.076 135.644C348.052 135.395 348.126 135.146 348.282 134.948C348.437 134.75 348.664 134.619 348.914 134.58L416.76 125.977C417.013 125.954 417.265 126.026 417.465 126.18C417.666 126.334 417.799 126.557 417.839 126.804C417.86 127.051 417.786 127.296 417.633 127.491C417.479 127.686 417.257 127.818 417.01 127.859L349.154 136.462Z" fill="#D3D3D3"/>
<path d="M348.465 131.16C348.214 131.183 347.963 131.112 347.763 130.96C347.563 130.808 347.428 130.587 347.386 130.342C347.363 130.094 347.435 129.846 347.589 129.649C347.743 129.451 347.966 129.319 348.215 129.278L416.071 120.674C416.213 120.615 416.367 120.589 416.521 120.599C416.675 120.608 416.825 120.652 416.959 120.728C417.092 120.805 417.206 120.91 417.292 121.037C417.377 121.164 417.432 121.308 417.451 121.459C417.47 121.61 417.453 121.764 417.402 121.908C417.352 122.051 417.268 122.181 417.157 122.288C417.047 122.394 416.913 122.473 416.766 122.52C416.619 122.567 416.464 122.579 416.311 122.557L348.465 131.16Z" fill="#D3D3D3"/>
<path d="M347.816 125.858C347.565 125.882 347.314 125.81 347.114 125.658C346.914 125.507 346.779 125.286 346.737 125.04C346.714 124.792 346.786 124.545 346.94 124.347C347.094 124.15 347.317 124.017 347.566 123.976L415.422 115.373C415.675 115.35 415.927 115.422 416.127 115.576C416.328 115.73 416.461 115.953 416.501 116.201C416.521 116.449 416.447 116.695 416.291 116.89C416.135 117.086 415.911 117.216 415.662 117.255L347.816 125.858Z" fill="#D3D3D3"/>
<path d="M350.123 143.863C349.87 143.886 349.618 143.813 349.418 143.659C349.217 143.506 349.084 143.282 349.044 143.035C349.023 142.789 349.097 142.544 349.25 142.348C349.404 142.153 349.626 142.022 349.873 141.981L417.719 133.358C417.861 133.298 418.015 133.272 418.168 133.281C418.322 133.29 418.472 133.333 418.606 133.409C418.739 133.484 418.854 133.589 418.94 133.715C419.025 133.842 419.081 133.986 419.101 134.137C419.121 134.287 419.105 134.44 419.055 134.584C419.005 134.728 418.922 134.859 418.812 134.965C418.703 135.072 418.569 135.153 418.423 135.2C418.277 135.248 418.121 135.261 417.969 135.24L350.123 143.863Z" fill="#D3D3D3"/>
<path d="M350.812 149.125C350.559 149.148 350.307 149.076 350.107 148.922C349.906 148.768 349.773 148.545 349.733 148.297C349.712 148.051 349.786 147.806 349.939 147.611C350.093 147.415 350.315 147.284 350.562 147.243L418.418 138.64C418.633 138.672 418.832 138.772 418.984 138.926C419.136 139.08 419.233 139.278 419.26 139.491C419.287 139.704 419.243 139.921 419.134 140.107C419.026 140.293 418.858 140.438 418.658 140.522L350.812 149.125Z" fill="#D3D3D3"/>
<path opacity="0.2" d="M337.979 50.657C337.768 50.6219 337.573 50.5204 337.425 50.3676C337.276 50.2148 337.181 50.0188 337.155 49.8087C337.128 49.5986 337.17 49.3854 337.276 49.201C337.381 49.0165 337.544 48.8705 337.74 48.7845L405.586 40.1814C405.728 40.1186 405.883 40.0896 406.038 40.0964C406.194 40.1032 406.345 40.1457 406.481 40.2206C406.617 40.2954 406.733 40.4005 406.82 40.5276C406.908 40.6546 406.964 40.8 406.984 40.9522C407.004 41.1044 406.988 41.2593 406.937 41.4043C406.886 41.5493 406.801 41.6806 406.69 41.7876C406.578 41.8946 406.443 41.9742 406.295 42.0205C406.146 42.0667 405.989 42.0783 405.836 42.0539L337.979 50.657Z" fill="#515271"/>
<path opacity="0.2" d="M340.057 66.5725C339.804 66.5956 339.552 66.523 339.352 66.3692C339.151 66.2155 339.018 65.992 338.978 65.7446C338.957 65.4983 339.031 65.2533 339.184 65.058C339.338 64.8627 339.56 64.7315 339.807 64.6904L407.663 56.0872C407.913 56.0665 408.161 56.139 408.359 56.2905C408.557 56.442 408.69 56.6613 408.732 56.905C408.755 57.1529 408.683 57.4005 408.529 57.5979C408.375 57.7954 408.151 57.9281 407.903 57.9694L340.057 66.5725Z" fill="#515271"/>
<path opacity="0.2" d="M339.368 61.2708C339.115 61.2938 338.863 61.221 338.662 61.0672C338.462 60.9135 338.329 60.6903 338.289 60.4429C338.268 60.1966 338.342 59.9515 338.495 59.7562C338.649 59.5609 338.871 59.4295 339.118 59.3883L406.974 50.7852C407.224 50.7645 407.472 50.837 407.67 50.9885C407.868 51.14 408.001 51.3595 408.043 51.6032C408.066 51.8512 407.994 52.0987 407.84 52.2961C407.686 52.4936 407.463 52.6264 407.214 52.6676L339.368 61.2708Z" fill="#515271"/>
<path opacity="0.2" d="M338.679 55.9686C338.426 55.9917 338.174 55.9191 337.973 55.7653C337.773 55.6116 337.64 55.3881 337.6 55.1408C337.579 54.8944 337.653 54.6494 337.806 54.4541C337.96 54.2588 338.182 54.1276 338.429 54.0865L406.275 45.4833C406.417 45.4206 406.572 45.3914 406.727 45.3982C406.883 45.405 407.034 45.4474 407.17 45.5223C407.306 45.5972 407.422 45.7023 407.509 45.8293C407.597 45.9564 407.653 46.102 407.673 46.2542C407.694 46.4064 407.678 46.561 407.626 46.706C407.575 46.8511 407.491 46.9823 407.379 47.0893C407.268 47.1963 407.132 47.2762 406.984 47.3224C406.835 47.3687 406.678 47.38 406.525 47.3556L338.679 55.9686Z" fill="#515271"/>
<path opacity="0.2" d="M343.422 38.5258V153.678H390.417L430.182 148.632L415.192 33.5591H382.628L343.422 38.5258Z" fill="#515271"/>
<path d="M434.206 31.9626H345.04V152.082H434.206V31.9626Z" fill="white"/>
<path d="M423.501 61.3493C423.474 61.1298 423.367 60.9276 423.2 60.7806C423.032 60.6335 422.816 60.5521 422.592 60.5513H356.683C356.459 60.5521 356.243 60.6335 356.076 60.7806C355.909 60.9276 355.802 61.1298 355.775 61.3493V94.7076C355.773 94.8274 355.796 94.9465 355.842 95.0576C355.887 95.1688 355.955 95.2698 356.04 95.355C356.126 95.4402 356.227 95.5078 356.34 95.554C356.452 95.6001 356.572 95.624 356.693 95.624H422.602C422.724 95.624 422.844 95.6001 422.956 95.554C423.068 95.5078 423.17 95.4402 423.255 95.355C423.341 95.2698 423.408 95.1688 423.454 95.0576C423.499 94.9465 423.522 94.8274 423.521 94.7076V61.3493H423.501ZM373.021 75.6781V80.4972H357.582V75.6781H373.021ZM357.582 73.8551V69.0262H373.021V73.8551H357.582ZM421.663 75.6781V80.4972H406.225V75.6781H421.663ZM404.367 80.4972H374.878V75.6781H404.367V80.4972ZM373.021 82.33V87.1491H357.582V82.33H373.021ZM374.878 82.33H404.367V87.1491H374.878V82.33ZM406.225 82.33H421.713V87.1491H406.275L406.225 82.33ZM374.878 73.8551V69.0262H421.713V73.8551H374.878ZM374.878 67.2032V62.4038H421.713V67.2227L374.878 67.2032ZM373.021 67.2032H357.582V62.4038H373.021V67.2032ZM357.582 88.9819H373.021V93.801H357.582V88.9819ZM374.878 88.9819H404.367V93.801H374.878V88.9819ZM406.225 88.9819H421.713V93.801H406.275L406.225 88.9819Z" fill="#DEE5F4"/>
<path d="M423.361 40.3295C423.272 40.2092 423.157 40.1103 423.024 40.0403C422.89 39.9703 422.743 39.9309 422.592 39.9253H387.92C387.769 39.9309 387.622 39.9703 387.489 40.0403C387.356 40.1103 387.24 40.2092 387.151 40.3295C387.048 40.481 386.992 40.6593 386.991 40.842V49.7603C386.991 50.0033 387.089 50.2365 387.264 50.4084C387.438 50.5803 387.674 50.6769 387.92 50.6769H422.592C422.804 50.6764 423.01 50.6034 423.173 50.4705C423.337 50.3376 423.449 50.1529 423.491 49.9477C423.501 49.8857 423.501 49.8222 423.491 49.7603V40.842C423.5 40.6623 423.454 40.484 423.361 40.3295ZM388.849 41.7584H396.748V48.8537H388.849V41.7584ZM398.605 41.7584H421.713V48.8537H398.655L398.605 41.7584Z" fill="#DEE5F4"/>
<path d="M356.654 101.458C356.425 101.434 356.213 101.328 356.06 101.16C355.906 100.992 355.821 100.773 355.821 100.546C355.821 100.32 355.906 100.101 356.06 99.9326C356.213 99.7643 356.425 99.6582 356.654 99.6348H422.562C422.791 99.6582 423.002 99.7643 423.156 99.9326C423.31 100.101 423.395 100.32 423.395 100.546C423.395 100.773 423.31 100.992 423.156 101.16C423.002 101.328 422.791 101.434 422.562 101.458H356.654Z" fill="#DEE5F4"/>
<path d="M356.654 111.796C356.407 111.796 356.171 111.699 355.997 111.527C355.823 111.355 355.725 111.122 355.725 110.879C355.725 110.636 355.823 110.403 355.997 110.231C356.171 110.059 356.407 109.963 356.654 109.963H422.562C422.809 109.963 423.045 110.059 423.219 110.231C423.393 110.403 423.491 110.636 423.491 110.879C423.491 111.122 423.393 111.355 423.219 111.527C423.045 111.699 422.809 111.796 422.562 111.796H356.654Z" fill="#DEE5F4"/>
<path d="M356.654 106.642C356.425 106.618 356.213 106.512 356.06 106.344C355.906 106.175 355.821 105.957 355.821 105.73C355.821 105.504 355.906 105.285 356.06 105.116C356.213 104.948 356.425 104.842 356.654 104.819H418.777C418.907 104.805 419.038 104.819 419.161 104.859C419.285 104.899 419.399 104.963 419.495 105.049C419.592 105.135 419.669 105.24 419.722 105.358C419.775 105.475 419.802 105.602 419.802 105.73C419.802 105.859 419.775 105.985 419.722 106.103C419.669 106.22 419.592 106.325 419.495 106.411C419.399 106.497 419.285 106.562 419.161 106.602C419.038 106.641 418.907 106.655 418.777 106.642H356.654Z" fill="#DEE5F4"/>
<path d="M356.654 138.955C356.425 138.932 356.213 138.826 356.06 138.657C355.906 138.489 355.821 138.27 355.821 138.043C355.821 137.817 355.906 137.598 356.06 137.43C356.213 137.262 356.425 137.156 356.654 137.132H422.562C422.791 137.156 423.002 137.262 423.156 137.43C423.31 137.598 423.395 137.817 423.395 138.043C423.395 138.27 423.31 138.489 423.156 138.657C423.002 138.826 422.791 138.932 422.562 138.955H356.654Z" fill="#DEE5F4"/>
<path d="M383.207 144.109C382.96 144.109 382.724 144.013 382.55 143.841C382.376 143.669 382.278 143.436 382.278 143.193C382.278 142.949 382.376 142.716 382.55 142.545C382.724 142.373 382.96 142.276 383.207 142.276H422.592C422.838 142.276 423.075 142.373 423.249 142.545C423.423 142.716 423.521 142.949 423.521 143.193C423.521 143.436 423.423 143.669 423.249 143.841C423.075 144.013 422.838 144.109 422.592 144.109H383.207Z" fill="#DEE5F4"/>
<path d="M356.654 131.259C356.425 131.282 356.213 131.388 356.06 131.556C355.906 131.725 355.821 131.943 355.821 132.17C355.821 132.397 355.906 132.615 356.06 132.784C356.213 132.952 356.425 133.058 356.654 133.082H384.205C384.335 133.095 384.466 133.081 384.589 133.041C384.713 133.002 384.827 132.937 384.923 132.851C385.02 132.765 385.097 132.66 385.15 132.543C385.203 132.425 385.23 132.298 385.23 132.17C385.23 132.042 385.203 131.915 385.15 131.798C385.097 131.68 385.02 131.575 384.923 131.489C384.827 131.403 384.713 131.338 384.589 131.299C384.466 131.259 384.335 131.245 384.205 131.259H356.654Z" fill="#DEE5F4"/>
<path d="M356.654 115.796C356.407 115.796 356.171 115.893 355.997 116.065C355.823 116.237 355.725 116.47 355.725 116.713C355.725 116.956 355.823 117.189 355.997 117.361C356.171 117.533 356.407 117.629 356.654 117.629H384.205C384.452 117.629 384.688 117.533 384.862 117.361C385.036 117.189 385.134 116.956 385.134 116.713C385.134 116.47 385.036 116.237 384.862 116.065C384.688 115.893 384.452 115.796 384.205 115.796H356.654Z" fill="#DEE5F4"/>
<path d="M356.654 120.95C356.407 120.95 356.171 121.047 355.997 121.219C355.823 121.391 355.725 121.624 355.725 121.867C355.725 122.11 355.823 122.343 355.997 122.515C356.171 122.687 356.407 122.784 356.654 122.784H380.401C380.647 122.784 380.883 122.687 381.057 122.515C381.232 122.343 381.33 122.11 381.33 121.867C381.33 121.624 381.232 121.391 381.057 121.219C380.883 121.047 380.647 120.95 380.401 120.95H356.654Z" fill="#DEE5F4"/>
<path d="M356.654 126.105C356.425 126.128 356.213 126.234 356.06 126.403C355.906 126.571 355.821 126.79 355.821 127.016C355.821 127.243 355.906 127.462 356.06 127.63C356.213 127.798 356.425 127.904 356.654 127.928H372.681C372.811 127.941 372.942 127.927 373.065 127.888C373.189 127.848 373.303 127.783 373.399 127.697C373.496 127.611 373.573 127.506 373.626 127.389C373.679 127.272 373.706 127.144 373.706 127.016C373.706 126.888 373.679 126.761 373.626 126.644C373.573 126.526 373.496 126.421 373.399 126.335C373.303 126.25 373.189 126.184 373.065 126.145C372.942 126.105 372.811 126.091 372.681 126.105H356.654Z" fill="#DEE5F4"/>
<path d="M395.04 117.59C394.794 117.59 394.558 117.494 394.384 117.322C394.209 117.15 394.112 116.917 394.112 116.674C394.112 116.431 394.209 116.197 394.384 116.026C394.558 115.854 394.794 115.757 395.04 115.757H422.592C422.838 115.757 423.075 115.854 423.249 116.026C423.423 116.197 423.521 116.431 423.521 116.674C423.521 116.917 423.423 117.15 423.249 117.322C423.075 117.494 422.838 117.59 422.592 117.59H395.04Z" fill="#DEE5F4"/>
<path d="M395.04 133.082C394.911 133.095 394.78 133.081 394.657 133.041C394.533 133.002 394.419 132.937 394.322 132.851C394.226 132.765 394.148 132.66 394.096 132.543C394.043 132.425 394.015 132.298 394.015 132.17C394.015 132.042 394.043 131.915 394.096 131.798C394.148 131.68 394.226 131.575 394.322 131.489C394.419 131.403 394.533 131.338 394.657 131.299C394.78 131.259 394.911 131.245 395.04 131.259H422.592C422.82 131.282 423.032 131.388 423.186 131.556C423.34 131.725 423.425 131.943 423.425 132.17C423.425 132.397 423.34 132.615 423.186 132.784C423.032 132.952 422.82 133.058 422.592 133.082H395.04Z" fill="#DEE5F4"/>
<path d="M395.04 127.928C394.911 127.941 394.78 127.927 394.657 127.888C394.533 127.848 394.419 127.783 394.322 127.697C394.226 127.611 394.148 127.506 394.096 127.389C394.043 127.272 394.015 127.144 394.015 127.016C394.015 126.888 394.043 126.761 394.096 126.644C394.148 126.526 394.226 126.421 394.322 126.335C394.419 126.25 394.533 126.184 394.657 126.145C394.78 126.105 394.911 126.091 395.04 126.105H418.777C418.907 126.091 419.038 126.105 419.161 126.145C419.285 126.184 419.399 126.25 419.495 126.335C419.592 126.421 419.669 126.526 419.722 126.644C419.775 126.761 419.802 126.888 419.802 127.016C419.802 127.144 419.775 127.272 419.722 127.389C419.669 127.506 419.592 127.611 419.495 127.697C419.399 127.783 419.285 127.848 419.161 127.888C419.038 127.927 418.907 127.941 418.777 127.928H395.04Z" fill="#DEE5F4"/>
<path d="M395.04 122.784C394.794 122.784 394.558 122.687 394.384 122.515C394.209 122.343 394.112 122.11 394.112 121.867C394.112 121.624 394.209 121.391 394.384 121.219C394.558 121.047 394.794 120.95 395.04 120.95H411.068C411.315 120.95 411.551 121.047 411.725 121.219C411.899 121.391 411.997 121.624 411.997 121.867C411.997 122.11 411.899 122.343 411.725 122.515C411.551 122.687 411.315 122.784 411.068 122.784H395.04Z" fill="#DEE5F4"/>
<path d="M356.654 56.491C356.407 56.491 356.171 56.3944 355.997 56.2225C355.823 56.0507 355.725 55.8177 355.725 55.5746C355.725 55.3316 355.823 55.0983 355.997 54.9265C356.171 54.7546 356.407 54.658 356.654 54.658H422.562C422.809 54.658 423.045 54.7546 423.219 54.9265C423.393 55.0983 423.491 55.3316 423.491 55.5746C423.491 55.8177 423.393 56.0507 423.219 56.2225C423.045 56.3944 422.809 56.491 422.562 56.491H356.654Z" fill="#DEE5F4"/>
<path d="M381.639 40.3295C381.55 40.2092 381.435 40.1103 381.301 40.0403C381.168 39.9703 381.021 39.9309 380.87 39.9253H356.654C356.503 39.9262 356.356 39.9636 356.223 40.034C356.091 40.1045 355.978 40.206 355.895 40.3295C355.792 40.481 355.736 40.6593 355.735 40.842V49.7603C355.724 49.8222 355.724 49.8857 355.735 49.9477C355.776 50.1529 355.888 50.3376 356.052 50.4705C356.216 50.6034 356.422 50.6764 356.634 50.6769H380.85C381.097 50.6769 381.333 50.5803 381.507 50.4084C381.681 50.2365 381.779 50.0033 381.779 49.7603V40.842C381.784 40.6613 381.735 40.4832 381.639 40.3295ZM357.582 41.7584H379.941V48.8537H357.582V41.7584Z" fill="#DEE5F4"/>
<path opacity="0.13" d="M419.007 94.5989L417.439 92.628L417.709 91.3666C417.749 91.1548 417.749 90.9378 417.709 90.7261C417.714 90.7 417.714 90.6733 417.709 90.6472C417.683 90.4799 417.633 90.3172 417.559 90.1643C417.435 89.9198 417.236 89.7201 416.99 89.5929L417.21 88.6074C417.284 88.2496 417.212 87.8774 417.011 87.5712C416.809 87.2651 416.493 87.0495 416.131 86.9714C415.951 86.9338 415.766 86.9315 415.586 86.9647C415.405 86.9978 415.233 87.0658 415.079 87.1646C414.925 87.2634 414.792 87.3914 414.688 87.5409C414.584 87.6904 414.512 87.8585 414.474 88.0358L414.254 89.0213C413.907 89.0627 413.583 89.2152 413.333 89.4555C413.082 89.6958 412.918 90.0107 412.866 90.3517L412.606 91.5441L407.933 113.057C407.933 113.057 405.456 125.021 404.058 134.215C403.728 136.383 403.459 138.403 403.299 140.069V140.137C403.299 140.354 403.299 140.571 403.299 140.778L403.658 140.857C403.658 141.458 403.658 142.04 403.658 142.828C403.658 143.409 404.178 143.518 404.407 142.986C404.717 142.227 404.987 141.704 405.246 141.162L405.606 141.241C405.676 141.054 405.746 140.847 405.816 140.64V140.571C405.895 140.364 405.965 140.137 406.035 139.921C408.871 131.357 412.796 114.072 412.796 114.072L413.235 112.101L413.675 110.13L417.25 93.6431L418.138 94.737C418.195 94.8066 418.237 94.8875 418.259 94.9743C418.281 95.061 418.285 95.1516 418.268 95.2396L414.773 111.263H414.723C414.632 111.274 414.544 111.303 414.464 111.348C414.384 111.392 414.314 111.452 414.257 111.523C414.201 111.595 414.159 111.676 414.134 111.764C414.11 111.851 414.103 111.942 414.114 112.032C414.125 112.122 414.154 112.209 414.199 112.288C414.244 112.366 414.305 112.436 414.377 112.492C414.45 112.548 414.532 112.589 414.621 112.613C414.709 112.637 414.802 112.644 414.893 112.633C414.988 112.619 415.079 112.587 415.162 112.538C415.244 112.489 415.315 112.424 415.372 112.347V112.298C415.377 112.278 415.377 112.258 415.372 112.239C415.382 112.207 415.382 112.172 415.372 112.14L419.067 95.1903C419.11 95.0951 419.127 94.9906 419.117 94.8869C419.106 94.7833 419.068 94.6839 419.007 94.5989Z" fill="#010101"/>
<path d="M414.284 110.938V110.839L417.979 93.8795C417.996 93.7922 417.995 93.7021 417.974 93.6153C417.954 93.5286 417.914 93.4473 417.859 93.3769L415.522 90.5093C415.454 90.4228 415.363 90.3568 415.258 90.3185C415.154 90.2802 415.042 90.2712 414.933 90.2925C414.802 90.2961 414.676 90.3409 414.573 90.4205C414.545 90.442 414.521 90.4688 414.503 90.4994L414.633 90.6079L416.97 93.4854C417.028 93.5544 417.069 93.6357 417.089 93.7229C417.11 93.8101 417.111 93.9008 417.09 93.988L413.605 110.012H413.515C413.424 110.023 413.336 110.051 413.256 110.096C413.176 110.141 413.105 110.2 413.049 110.272C412.992 110.343 412.951 110.425 412.926 110.512C412.901 110.599 412.894 110.691 412.906 110.78C412.93 110.961 413.026 111.125 413.171 111.237C413.317 111.349 413.501 111.401 413.684 111.381C413.783 111.369 413.877 111.336 413.961 111.285C414.046 111.235 414.118 111.166 414.174 111.086V111.027C414.174 111.027 414.274 110.958 414.284 110.938Z" fill="#097B97"/>
<path d="M412.905 95.5058C412.726 95.4683 412.555 95.3961 412.404 95.2936C412.252 95.191 412.123 95.06 412.023 94.9081C411.923 94.7562 411.854 94.5864 411.82 94.4082C411.787 94.23 411.789 94.047 411.827 93.8697L413.355 86.8139C413.436 86.4568 413.657 86.1459 413.969 85.9484C414.281 85.751 414.66 85.683 415.023 85.7593C415.384 85.8373 415.699 86.0531 415.899 86.3596C416.099 86.6662 416.168 87.0387 416.091 87.3954L414.563 94.4512C414.484 94.8075 414.265 95.1186 413.955 95.3162C413.644 95.5138 413.267 95.5819 412.905 95.5058Z" fill="#097B97"/>
<path d="M404.148 135.821L402.71 135.516C402.49 137.556 402.71 137.487 402.62 139.172C402.53 140.857 403.549 141.093 404.138 139.536C404.727 137.979 404.937 138.088 405.576 136.127L404.148 135.821Z" fill="#4D4D4D"/>
<path d="M404.148 135.821L403.149 135.614C402.919 135.565 402.67 135.841 402.63 136.196C402.47 138.014 402.42 139.841 402.48 141.665C402.48 142.246 402.999 142.355 403.219 141.823C404.033 140.181 404.747 138.493 405.356 136.767C405.466 136.432 405.356 136.077 405.116 136.028L404.148 135.821Z" fill="#097B97"/>
<path d="M415.602 88.312L413.425 87.8488C413.027 87.807 412.628 87.9208 412.315 88.1659C412.001 88.411 411.797 88.7676 411.747 89.1593L406.814 111.825C406.814 111.825 402.819 131.15 402.12 139.547L403.279 139.793L404.427 140.029C407.283 132.146 411.657 112.85 411.657 112.85L416.591 90.1843C416.707 89.8066 416.669 89.399 416.484 89.0489C416.299 88.6988 415.982 88.4342 415.602 88.312Z" fill="#05AAE2"/>
<path d="M415.602 88.312L413.425 87.8488C413.027 87.807 412.628 87.9208 412.315 88.1659C412.001 88.411 411.797 88.7676 411.747 89.1593L411.488 90.3421C411.54 89.9495 411.746 89.5926 412.061 89.3477C412.377 89.1028 412.776 88.9894 413.175 89.0313L415.342 89.4945C415.725 89.6147 416.043 89.8784 416.23 90.2288C416.417 90.5791 416.457 90.9878 416.341 91.3668L416.6 90.1843C416.716 89.8053 416.677 89.3966 416.49 89.0462C416.303 88.6959 415.984 88.4322 415.602 88.312Z" fill="#097B97"/>
<path d="M415.602 88.3119L414.503 88.0754L403.259 139.822L404.407 140.059C407.263 132.175 411.637 112.88 411.637 112.88L416.571 90.2138C416.697 89.8348 416.666 89.422 416.484 89.0655C416.303 88.709 415.985 88.438 415.602 88.3119Z" fill="#0993B8"/>
<path d="M407.814 108.044L407.378 110.048L412.221 111.073L412.657 109.069L407.814 108.044Z" fill="#D5AE29"/>
<path d="M410.209 108.546L409.773 110.55L412.214 111.066L412.65 109.062L410.209 108.546Z" fill="#F8DA24"/>
<path d="M403.579 138.462L402.26 138.177C402.2 138.679 402.16 139.162 402.12 139.586L403.279 139.832L404.427 140.069C404.577 139.655 404.737 139.211 404.887 138.738L403.579 138.462Z" fill="#097B97"/>
<path d="M402.949 133.022L406.405 133.752C406.584 133.101 406.774 132.441 406.954 131.781L403.269 131.002C403.149 131.673 403.049 132.372 402.949 133.022Z" fill="#D5AE29"/>
<path d="M406.954 131.771L405.097 131.377L404.657 133.348L406.405 133.712C406.584 133.101 406.734 132.441 406.954 131.771Z" fill="#F8DA24"/>
</g>
<defs>
<clipPath id="clip0_1_1989">
<rect width="480.274" height="185.643" fill="white" transform="translate(0.606934 0.739014)"/>
</clipPath>
</defs>
</svg>
