<svg width="475" height="216" viewBox="0 0 475 216" fill="none" xmlns="http://www.w3.org/2000/svg">
<g clip-path="url(#clip0_1_1340)">
<path d="M137.171 194.965C257.394 176.941 248.86 189.624 370.138 181.168C375.071 180.823 380.675 180.114 383.585 176.113C385.469 173.541 385.765 170.2 385.933 166.997C387.579 133.601 381.15 100.299 367.188 69.9088C362.532 59.8078 356.879 49.8545 348.355 42.7C325.664 23.6312 291.933 30.1451 262.909 36.1664C198.674 49.4899 221.059 55.1563 156.143 45.7648C120.627 40.6305 84.2226 31.0518 49.4069 39.852C41.2875 41.8919 32.9412 45.2721 28.0774 52.0916C24.3975 57.2357 23.1446 63.7201 22.6316 70.0172C21.0136 88.4652 24.3383 106.992 23.9239 125.489C23.5095 143.987 15.3112 158.69 3.93615 175.394C-0.0692906 181.306 -2.05226 199.114 6.42231 204.563C21.9705 214.546 29.7546 216.763 50.2849 215.275C62.3111 214.408 110.169 199.005 137.171 194.965Z" fill="#2386B4"/>
<g opacity="0.58">
<path opacity="0.58" d="M316.021 63.9829H290.094V65.9144H316.021V63.9829Z" fill="#DBF1FA"/>
<path opacity="0.58" d="M316.021 67.6882H290.094V69.6198H316.021V67.6882Z" fill="#DBF1FA"/>
<path opacity="0.58" d="M316.021 71.4036H290.094V73.3351H316.021V71.4036Z" fill="#DBF1FA"/>
</g>
<g opacity="0.58">
<path opacity="0.58" d="M316.021 74.823H290.094V76.7545H316.021V74.823Z" fill="#DBF1FA"/>
<path opacity="0.58" d="M316.021 78.5383H290.094V80.4698H316.021V78.5383Z" fill="#DBF1FA"/>
<path opacity="0.58" d="M316.021 82.2534H290.094V84.1849H316.021V82.2534Z" fill="#DBF1FA"/>
<path opacity="0.58" d="M316.021 85.9587H290.094V87.8903H316.021V85.9587Z" fill="#DBF1FA"/>
<path opacity="0.58" d="M316.021 89.6741H290.094V91.6056H316.021V89.6741Z" fill="#DBF1FA"/>
<path opacity="0.58" d="M316.021 93.3892H290.094V95.3207H316.021V93.3892Z" fill="#DBF1FA"/>
</g>
<g opacity="0.58">
<path opacity="0.58" d="M253.493 55.1135H241.22V57.5279H253.493V55.1135Z" fill="#DBF1FA"/>
<path opacity="0.58" d="M253.493 59.7551H241.22V62.1695H253.493V59.7551Z" fill="#DBF1FA"/>
</g>
<g opacity="0.58">
<path opacity="0.58" d="M253.493 64.0222H241.22V66.4366H253.493V64.0222Z" fill="#DBF1FA"/>
<path opacity="0.58" d="M253.493 68.6736H241.22V71.088H253.493V68.6736Z" fill="#DBF1FA"/>
<path opacity="0.58" d="M253.493 73.3152H241.22V75.7296H253.493V73.3152Z" fill="#DBF1FA"/>
<path opacity="0.58" d="M253.493 77.9666H241.22V80.381H253.493V77.9666Z" fill="#DBF1FA"/>
<path opacity="0.58" d="M253.493 82.6082H241.22V85.0226H253.493V82.6082Z" fill="#DBF1FA"/>
<path opacity="0.58" d="M253.493 87.2595H241.22V89.6739H253.493V87.2595Z" fill="#DBF1FA"/>
<path opacity="0.58" d="M253.493 91.9011H241.22V94.3155H253.493V91.9011Z" fill="#DBF1FA"/>
<path opacity="0.58" d="M253.493 96.5525H241.22V98.9669H253.493V96.5525Z" fill="#DBF1FA"/>
<path opacity="0.58" d="M253.493 101.194H241.22V103.608H253.493V101.194Z" fill="#DBF1FA"/>
<path opacity="0.58" d="M253.493 105.845H241.22V108.26H253.493V105.845Z" fill="#DBF1FA"/>
<path opacity="0.58" d="M253.493 110.487H241.22V112.901H253.493V110.487Z" fill="#DBF1FA"/>
<path opacity="0.58" d="M253.493 115.138H241.22V117.553H253.493V115.138Z" fill="#DBF1FA"/>
</g>
<g opacity="0.58">
<path opacity="0.58" d="M267.542 82.6082H255.269V85.0226H267.542V82.6082Z" fill="#DBF1FA"/>
<path opacity="0.58" d="M267.542 91.9011H255.269V94.3155H267.542V91.9011Z" fill="#DBF1FA"/>
<path opacity="0.58" d="M267.542 110.487H255.269V112.901H267.542V110.487Z" fill="#DBF1FA"/>
<path opacity="0.58" d="M267.542 115.138H255.269V117.553H267.542V115.138Z" fill="#DBF1FA"/>
</g>
<g opacity="0.58">
<path opacity="0.58" d="M281.778 73.3152H269.505V75.7296H281.778V73.3152Z" fill="#DBF1FA"/>
<path opacity="0.58" d="M281.778 77.9666H269.505V80.381H281.778V77.9666Z" fill="#DBF1FA"/>
<path opacity="0.58" d="M281.778 82.6082H269.505V85.0226H281.778V82.6082Z" fill="#DBF1FA"/>
<path opacity="0.58" d="M281.778 87.2595H269.505V89.6739H281.778V87.2595Z" fill="#DBF1FA"/>
<path opacity="0.58" d="M281.778 91.9011H269.505V94.3155H281.778V91.9011Z" fill="#DBF1FA"/>
<path opacity="0.58" d="M281.778 110.487H269.505V112.901H281.778V110.487Z" fill="#DBF1FA"/>
<path opacity="0.58" d="M281.778 115.138H269.505V117.553H281.778V115.138Z" fill="#DBF1FA"/>
</g>
<g opacity="0.58">
<path opacity="0.58" d="M214.672 91.0242H205.349V94.8774H214.672V91.0242Z" fill="#DBF1FA"/>
<path opacity="0.58" d="M214.672 98.4348H205.349V102.288H214.672V98.4348Z" fill="#DBF1FA"/>
<path opacity="0.58" d="M214.672 105.846H205.349V109.699H214.672V105.846Z" fill="#DBF1FA"/>
<path opacity="0.58" d="M214.672 113.256H205.349V117.11H214.672V113.256Z" fill="#DBF1FA"/>
</g>
<g opacity="0.58">
<path opacity="0.58" d="M225.336 91.0242H216.013V94.8774H225.336V91.0242Z" fill="#DBF1FA"/>
<path opacity="0.58" d="M225.336 98.4348H216.013V102.288H225.336V98.4348Z" fill="#DBF1FA"/>
<path opacity="0.58" d="M225.336 105.846H216.013V109.699H225.336V105.846Z" fill="#DBF1FA"/>
<path opacity="0.58" d="M225.336 113.256H216.013V117.11H225.336V113.256Z" fill="#DBF1FA"/>
</g>
<g opacity="0.58">
<path opacity="0.58" d="M236.149 91.0242H226.826V94.8774H236.149V91.0242Z" fill="#DBF1FA"/>
<path opacity="0.58" d="M236.149 98.4348H226.826V102.288H236.149V98.4348Z" fill="#DBF1FA"/>
<path opacity="0.58" d="M236.149 105.846H226.826V109.699H236.149V105.846Z" fill="#DBF1FA"/>
<path opacity="0.58" d="M236.149 113.256H226.826V117.11H236.149V113.256Z" fill="#DBF1FA"/>
</g>
<path d="M204.658 91.7535C203.251 93.4929 202.03 95.3756 201.018 97.3706C199.429 100.238 197.792 103.343 198.058 106.604C198.275 108.871 199.42 111.207 198.561 113.325C197.94 114.873 196.351 115.897 195.829 117.484C195.098 119.721 196.746 122.096 196.44 124.432C196.228 125.424 195.897 126.387 195.454 127.299C195.05 128.772 195.009 130.321 195.335 131.813C195.71 132.749 196.785 131.872 197.683 131.389C198.069 131.142 198.387 130.803 198.611 130.404C201.708 125.683 204.806 120.963 207.786 116.173C208.95 114.311 210.134 112.231 209.759 110.063C209.285 107.383 206.543 105.599 205.813 102.968C204.944 99.7358 207.391 96.5823 209.917 94.3748C210.499 93.8722 211.14 92.9952 210.607 92.4039C210.469 92.2561 210.262 92.1575 210.153 91.99C209.936 91.6549 210.153 91.2115 210.459 90.9356C211.2 90.3178 211.985 89.7545 212.807 89.2503C215.185 87.4272 213.981 85.7914 211.436 86.8557C208.836 87.9575 206.519 89.6317 204.658 91.7535Z" fill="#333333"/>
<path d="M320.392 60.9279H272.859C272.486 60.9397 272.128 61.0763 271.842 61.3157C271.555 61.5551 271.358 61.8836 271.281 62.2485L266.072 90.9454C266.033 91.1071 266.033 91.2754 266.071 91.4373C266.109 91.5991 266.184 91.75 266.29 91.878C266.396 92.006 266.531 92.1076 266.683 92.1749C266.835 92.2422 267.001 92.2734 267.167 92.2659H314.68C315.053 92.254 315.411 92.1174 315.697 91.878C315.983 91.6386 316.181 91.3102 316.258 90.9454L321.467 62.2485C321.505 62.0884 321.505 61.9217 321.469 61.7614C321.432 61.6011 321.359 61.4515 321.255 61.3239C321.151 61.1963 321.019 61.0942 320.869 61.0256C320.72 60.9569 320.556 60.9235 320.392 60.9279Z" fill="#0F1341"/>
<path d="M320.086 63.707C320.127 63.5382 320.129 63.362 320.09 63.1925C320.052 63.023 319.975 62.8647 319.865 62.7301C319.755 62.5954 319.615 62.488 319.457 62.4164C319.298 62.3448 319.125 62.3109 318.951 62.3174H274.221C273.832 62.3335 273.459 62.479 273.163 62.7308C272.866 62.9825 272.662 63.3262 272.583 63.707L272.514 64.0815L320.056 63.904L320.086 63.707Z" fill="#DDE5F4"/>
<path d="M272.514 64.0815L267.907 89.4475C267.867 89.6169 267.867 89.7932 267.907 89.9626C267.947 90.132 268.025 90.29 268.136 90.4244C268.246 90.5588 268.386 90.6659 268.545 90.7374C268.704 90.809 268.877 90.8429 269.051 90.8369H313.772C314.163 90.8229 314.537 90.6785 314.836 90.4266C315.135 90.1746 315.34 89.8299 315.42 89.4475L320.056 63.9041L272.514 64.0815Z" fill="white"/>
<path d="M313.742 73.2661H309.648C309.627 73.2671 309.607 73.263 309.588 73.2543C309.569 73.2455 309.553 73.2324 309.54 73.2159C309.527 73.1994 309.519 73.1802 309.516 73.1597C309.512 73.1393 309.514 73.1182 309.52 73.0985C309.525 73.0497 309.548 73.0045 309.584 72.9717C309.621 72.9389 309.668 72.9209 309.717 72.9212H313.802C313.823 72.9207 313.843 72.925 313.862 72.9337C313.881 72.9424 313.898 72.9552 313.911 72.9713C313.925 72.9875 313.934 73.0065 313.939 73.0268C313.944 73.0471 313.944 73.0683 313.94 73.0888C313.933 73.1367 313.909 73.1807 313.873 73.2131C313.837 73.2456 313.791 73.2643 313.742 73.2661Z" fill="#EDE3F0"/>
<path d="M315.045 73.2659H314.472C314.452 73.2681 314.431 73.2653 314.412 73.2579C314.393 73.2504 314.376 73.2383 314.362 73.2229C314.349 73.2074 314.339 73.1889 314.334 73.169C314.329 73.149 314.329 73.1282 314.334 73.1082C314.339 73.0594 314.362 73.0142 314.399 72.9814C314.435 72.9486 314.482 72.9306 314.531 72.9309H315.104C315.124 72.9287 315.145 72.9315 315.164 72.939C315.183 72.9464 315.2 72.9585 315.214 72.974C315.227 72.9894 315.237 73.0079 315.242 73.0279C315.247 73.0478 315.247 73.0686 315.242 73.0886C315.235 73.1366 315.211 73.1806 315.175 73.213C315.139 73.2454 315.093 73.2641 315.045 73.2659Z" fill="#EDE3F0"/>
<path d="M311.236 74.015H309.53C309.508 74.0177 309.486 74.015 309.466 74.007C309.446 73.9991 309.428 73.9861 309.414 73.9694C309.4 73.9526 309.391 73.9326 309.387 73.9113C309.383 73.89 309.385 73.868 309.392 73.8474C309.399 73.8004 309.423 73.7576 309.459 73.7269C309.495 73.6961 309.541 73.6794 309.589 73.6799H311.335C311.355 73.6811 311.375 73.6865 311.394 73.6957C311.412 73.7049 311.428 73.7177 311.441 73.7335C311.454 73.7492 311.463 73.7675 311.469 73.7871C311.474 73.8067 311.476 73.8272 311.473 73.8474C311.461 73.8996 311.431 73.9457 311.387 73.9766C311.343 74.0075 311.29 74.0212 311.236 74.015Z" fill="#EDE3F0"/>
<path d="M314.916 74.015H311.957C311.936 74.0138 311.916 74.0084 311.898 73.9992C311.88 73.99 311.864 73.977 311.851 73.9613C311.838 73.9456 311.828 73.9274 311.823 73.9078C311.817 73.8882 311.816 73.8676 311.818 73.8474C311.827 73.8002 311.851 73.7572 311.887 73.7251C311.923 73.693 311.968 73.6737 312.016 73.6701H314.975C314.996 73.6691 315.017 73.673 315.036 73.6817C315.055 73.6905 315.071 73.7038 315.084 73.7202C315.096 73.7367 315.105 73.756 315.108 73.7764C315.112 73.7969 315.11 73.8178 315.104 73.8375C315.099 73.8847 315.078 73.9286 315.043 73.9612C315.009 73.9938 314.964 74.0128 314.916 74.015Z" fill="#EDE3F0"/>
<path d="M312.637 74.3896H309.47C309.425 74.3904 309.381 74.4064 309.345 74.4349C309.309 74.4634 309.284 74.5029 309.273 74.5473C309.267 74.5683 309.266 74.5906 309.27 74.6122C309.274 74.6338 309.283 74.6541 309.296 74.6714C309.31 74.6888 309.327 74.7027 309.347 74.712C309.367 74.7212 309.389 74.7255 309.411 74.7246H312.578C312.624 74.7228 312.668 74.7051 312.702 74.6745C312.736 74.644 312.759 74.6025 312.766 74.5571C312.772 74.5374 312.773 74.5163 312.77 74.4959C312.766 74.4755 312.758 74.4562 312.745 74.4397C312.733 74.4232 312.716 74.4101 312.698 74.4013C312.679 74.3926 312.658 74.3885 312.637 74.3896Z" fill="#EDE3F0"/>
<path d="M313.368 75.4243H309.283C309.263 75.4264 309.242 75.4236 309.223 75.4161C309.204 75.4086 309.187 75.3967 309.173 75.3812C309.16 75.3657 309.15 75.3473 309.145 75.3273C309.14 75.3074 309.14 75.2865 309.145 75.2666C309.152 75.2186 309.175 75.1746 309.211 75.1422C309.248 75.1098 309.294 75.0909 309.342 75.0891H313.427C313.447 75.0889 313.466 75.093 313.484 75.1011C313.503 75.1093 313.519 75.1213 313.532 75.1363C313.545 75.1513 313.555 75.1689 313.561 75.188C313.566 75.2071 313.568 75.2271 313.565 75.2468C313.556 75.294 313.532 75.3371 313.496 75.3692C313.461 75.4013 313.415 75.4207 313.368 75.4243Z" fill="#EDE3F0"/>
<path d="M314.67 75.4242H314.097C314.076 75.4269 314.054 75.4242 314.034 75.4162C314.013 75.4082 313.996 75.3952 313.982 75.3785C313.968 75.3617 313.959 75.3418 313.955 75.3205C313.951 75.2991 313.952 75.2772 313.959 75.2566C313.968 75.2104 313.993 75.1687 314.028 75.1382C314.064 75.1078 314.109 75.0904 314.157 75.089H314.739C314.759 75.088 314.78 75.0921 314.799 75.1008C314.818 75.1095 314.834 75.1227 314.847 75.1392C314.859 75.1557 314.868 75.1749 314.871 75.1954C314.875 75.2158 314.873 75.2369 314.867 75.2566C314.86 75.3036 314.836 75.3465 314.8 75.3772C314.763 75.408 314.717 75.4247 314.67 75.4242Z" fill="#EDE3F0"/>
<path d="M310.862 76.1438H309.155C309.134 76.1442 309.113 76.1399 309.094 76.1312C309.075 76.1225 309.058 76.1096 309.045 76.0935C309.032 76.0773 309.022 76.0585 309.017 76.0381C309.012 76.0178 309.012 75.9966 309.017 75.9762C309.025 75.929 309.049 75.8859 309.085 75.8538C309.121 75.8217 309.166 75.8025 309.214 75.7989H310.921C310.942 75.7984 310.962 75.8026 310.981 75.8113C311 75.82 311.017 75.8329 311.03 75.849C311.044 75.8652 311.053 75.8842 311.058 75.9045C311.063 75.9248 311.063 75.9459 311.059 75.9663C311.052 76.0143 311.028 76.0583 310.992 76.0907C310.956 76.1231 310.91 76.1419 310.862 76.1438Z" fill="#EDE3F0"/>
<path d="M314.551 76.1435H311.592C311.572 76.144 311.552 76.14 311.535 76.1318C311.517 76.1236 311.501 76.1115 311.489 76.0962C311.476 76.081 311.468 76.063 311.463 76.0439C311.459 76.0248 311.459 76.0049 311.463 75.9858C311.468 75.937 311.491 75.8918 311.528 75.859C311.564 75.8262 311.612 75.8081 311.661 75.8084H314.62C314.64 75.8082 314.66 75.8123 314.678 75.8204C314.696 75.8285 314.713 75.8405 314.726 75.8555C314.739 75.8705 314.749 75.8882 314.754 75.9072C314.76 75.9263 314.761 75.9464 314.759 75.9661C314.75 76.0148 314.724 76.0591 314.686 76.0914C314.649 76.1237 314.601 76.1421 314.551 76.1435Z" fill="#EDE3F0"/>
<path d="M312.262 76.5378H309.096C309.049 76.5409 309.005 76.5588 308.969 76.589C308.934 76.6191 308.909 76.6599 308.898 76.7053C308.894 76.7262 308.894 76.7479 308.899 76.7687C308.904 76.7895 308.913 76.809 308.926 76.8258C308.94 76.8427 308.956 76.8564 308.975 76.8663C308.994 76.8761 309.015 76.8817 309.036 76.8827H312.203C312.25 76.8814 312.296 76.864 312.331 76.8335C312.367 76.8031 312.392 76.7613 312.401 76.7152C312.405 76.6942 312.405 76.6727 312.4 76.6519C312.395 76.6311 312.386 76.6116 312.372 76.5947C312.359 76.5779 312.343 76.564 312.324 76.5542C312.305 76.5444 312.284 76.5388 312.262 76.5378Z" fill="#EDE3F0"/>
<path d="M312.677 79.2674H308.592C308.572 79.2696 308.551 79.2668 308.532 79.2593C308.513 79.2518 308.496 79.2399 308.482 79.2245C308.469 79.209 308.459 79.1905 308.454 79.1706C308.45 79.1506 308.449 79.1298 308.454 79.1098C308.461 79.0618 308.485 79.0177 308.521 78.9853C308.557 78.9529 308.603 78.9342 308.652 78.9324H312.736C312.756 78.9335 312.776 78.9389 312.794 78.9481C312.813 78.9574 312.829 78.9703 312.842 78.986C312.855 79.0018 312.864 79.02 312.87 79.0396C312.875 79.0592 312.877 79.0798 312.874 79.0999C312.864 79.1453 312.839 79.1861 312.803 79.2163C312.768 79.2464 312.723 79.2644 312.677 79.2674Z" fill="#EDE3F0"/>
<path d="M313.979 79.2674H313.407C313.386 79.2679 313.365 79.2637 313.346 79.255C313.327 79.2463 313.31 79.2334 313.297 79.2172C313.284 79.2011 313.274 79.1821 313.269 79.1618C313.264 79.1415 313.264 79.1204 313.269 79.1C313.277 79.0527 313.301 79.0097 313.337 78.9776C313.373 78.9455 313.418 78.9261 313.466 78.9225H314.048C314.069 78.9215 314.089 78.9256 314.108 78.9343C314.127 78.943 314.144 78.9562 314.156 78.9727C314.169 78.9892 314.177 79.0084 314.181 79.0289C314.184 79.0493 314.183 79.0704 314.176 79.0901C314.171 79.1389 314.148 79.1841 314.112 79.2169C314.075 79.2497 314.028 79.2677 313.979 79.2674Z" fill="#EDE3F0"/>
<path d="M310.171 79.987H308.464C308.444 79.9872 308.424 79.9831 308.406 79.975C308.388 79.9668 308.372 79.9548 308.359 79.9399C308.345 79.9249 308.336 79.9072 308.33 79.8881C308.325 79.869 308.323 79.849 308.326 79.8293C308.334 79.7821 308.359 79.7391 308.394 79.707C308.43 79.6749 308.475 79.6554 308.523 79.6519H310.23C310.25 79.6517 310.27 79.6558 310.288 79.6639C310.306 79.672 310.322 79.684 310.335 79.699C310.348 79.714 310.358 79.7317 310.364 79.7507C310.369 79.7698 310.371 79.7899 310.368 79.8096C310.361 79.8575 310.338 79.9015 310.302 79.934C310.266 79.9664 310.219 79.9852 310.171 79.987Z" fill="#EDE3F0"/>
<path d="M313.851 79.987H310.891C310.872 79.9875 310.852 79.9835 310.834 79.9753C310.816 79.9671 310.801 79.955 310.788 79.9397C310.776 79.9245 310.767 79.9065 310.763 79.8874C310.758 79.8683 310.758 79.8484 310.763 79.8293C310.768 79.7805 310.791 79.7353 310.827 79.7025C310.864 79.6697 310.911 79.6516 310.96 79.6519H313.92C313.94 79.653 313.96 79.6584 313.978 79.6676C313.997 79.6768 314.013 79.6898 314.026 79.7055C314.039 79.7212 314.048 79.7394 314.054 79.759C314.059 79.7786 314.061 79.7992 314.058 79.8194C314.047 79.8664 314.021 79.9083 313.983 79.9386C313.946 79.969 313.899 79.9861 313.851 79.987Z" fill="#EDE3F0"/>
<path d="M311.572 80.3811H308.375C308.329 80.3808 308.284 80.3979 308.249 80.4289C308.215 80.4598 308.193 80.5025 308.188 80.5487C308.182 80.5684 308.18 80.5893 308.183 80.6098C308.187 80.6302 308.195 80.6496 308.208 80.6661C308.221 80.6826 308.237 80.6957 308.256 80.7045C308.275 80.7132 308.295 80.7173 308.316 80.7163H311.483C311.53 80.7132 311.574 80.6952 311.609 80.665C311.645 80.6348 311.67 80.5941 311.68 80.5487C311.686 80.5123 311.679 80.4749 311.659 80.4439C311.639 80.4129 311.608 80.3904 311.572 80.3811Z" fill="#EDE3F0"/>
<path d="M312.322 81.4158H308.237C308.217 81.4146 308.197 81.4092 308.179 81.4C308.161 81.3908 308.145 81.3778 308.132 81.3621C308.119 81.3464 308.109 81.3282 308.104 81.3086C308.098 81.289 308.096 81.2684 308.099 81.2482C308.108 81.201 308.132 81.158 308.168 81.1259C308.203 81.0938 308.249 81.0745 308.297 81.0709H312.322C312.343 81.0681 312.365 81.0708 312.385 81.0788C312.406 81.0868 312.423 81.0997 312.437 81.1165C312.451 81.1332 312.46 81.1531 312.464 81.1745C312.468 81.1958 312.467 81.2178 312.46 81.2383C312.456 81.278 312.442 81.316 312.417 81.3474C312.393 81.3789 312.359 81.4026 312.322 81.4158Z" fill="#EDE3F0"/>
<path d="M313.604 81.4158H313.032C313.011 81.418 312.991 81.4153 312.972 81.4078C312.953 81.4003 312.935 81.3882 312.922 81.3728C312.908 81.3573 312.899 81.3388 312.894 81.3189C312.889 81.2989 312.889 81.2781 312.894 81.2581C312.901 81.2102 312.924 81.1662 312.96 81.1337C312.996 81.1013 313.043 81.0826 313.091 81.0808H313.673C313.693 81.0806 313.713 81.0847 313.731 81.0928C313.749 81.101 313.765 81.1129 313.779 81.1279C313.792 81.1428 313.801 81.1605 313.807 81.1796C313.813 81.1987 313.814 81.2187 313.811 81.2384C313.804 81.288 313.779 81.3334 313.741 81.366C313.703 81.3987 313.654 81.4164 313.604 81.4158Z" fill="#EDE3F0"/>
<path d="M303.058 87.3583H270.768C270.632 87.3566 270.497 87.3268 270.373 87.2709C270.249 87.2149 270.138 87.1339 270.047 87.033C269.963 86.9236 269.903 86.7978 269.871 86.6637C269.839 86.5296 269.835 86.3902 269.86 86.2546L273.106 68.388C273.163 68.1147 273.311 67.8688 273.526 67.6899C273.741 67.5111 274.01 67.4099 274.289 67.4025H306.58C306.718 67.3996 306.855 67.4278 306.98 67.4851C307.106 67.5423 307.217 67.6273 307.305 67.7334C307.393 67.8395 307.456 67.964 307.489 68.0979C307.523 68.2317 307.525 68.3713 307.497 68.5063L304.251 86.3728C304.19 86.6462 304.04 86.8914 303.823 87.0698C303.607 87.2483 303.338 87.3497 303.058 87.3583ZM274.289 67.9543C274.142 67.9621 274.001 68.0186 273.888 68.1148C273.776 68.2111 273.698 68.3418 273.668 68.4865L270.422 86.3531C270.41 86.4075 270.41 86.4639 270.422 86.5184C270.434 86.5728 270.458 86.624 270.491 86.6684C270.525 86.7082 270.567 86.7397 270.615 86.7602C270.663 86.7807 270.715 86.7898 270.768 86.7867H303.058C303.206 86.7778 303.348 86.7212 303.462 86.6253C303.576 86.5294 303.655 86.3994 303.689 86.2546L306.935 68.388C306.954 68.2779 306.93 68.1645 306.866 68.0726C306.83 68.0331 306.785 68.0021 306.736 67.9817C306.687 67.9612 306.633 67.9519 306.58 67.9543H274.289Z" fill="#0F1341"/>
<path d="M310.871 84.1258H307.714C307.667 84.1253 307.621 84.1419 307.584 84.1727C307.548 84.2035 307.524 84.2464 307.517 84.2934C307.511 84.3131 307.509 84.334 307.513 84.3545C307.516 84.3749 307.525 84.3942 307.537 84.4107C307.55 84.4272 307.566 84.4404 307.585 84.4492C307.604 84.4579 307.625 84.4619 307.645 84.4608H310.812C310.859 84.4578 310.903 84.4399 310.939 84.4097C310.974 84.3795 310.999 84.3388 311.009 84.2934C311.016 84.2728 311.018 84.2508 311.014 84.2295C311.01 84.2082 311.001 84.1881 310.987 84.1714C310.973 84.1547 310.955 84.1417 310.935 84.1337C310.915 84.1258 310.893 84.123 310.871 84.1258Z" fill="#EDE3F0"/>
<path d="M311.602 85.1607H307.517C307.497 85.1595 307.477 85.1541 307.459 85.1448C307.44 85.1356 307.424 85.1228 307.411 85.1071C307.398 85.0913 307.389 85.0731 307.383 85.0535C307.378 85.0339 307.376 85.0133 307.379 84.9931C307.388 84.9459 307.412 84.9029 307.447 84.8708C307.483 84.8387 307.528 84.8193 307.576 84.8157H311.671C311.691 84.8152 311.712 84.8195 311.731 84.8282C311.75 84.8369 311.767 84.8499 311.78 84.866C311.794 84.8821 311.803 84.901 311.808 84.9213C311.813 84.9417 311.813 84.9629 311.809 84.9833C311.802 85.0329 311.777 85.0782 311.738 85.1108C311.7 85.1434 311.652 85.1612 311.602 85.1607Z" fill="#EDE3F0"/>
<path d="M312.914 85.1606H312.322C312.302 85.1611 312.283 85.1571 312.265 85.1489C312.247 85.1407 312.231 85.1285 312.219 85.1133C312.206 85.098 312.198 85.0801 312.193 85.061C312.189 85.0418 312.189 85.022 312.193 85.0028C312.198 84.9541 312.221 84.9089 312.258 84.8761C312.294 84.8433 312.342 84.8252 312.391 84.8254H312.963C312.983 84.8232 313.004 84.8261 313.023 84.8336C313.042 84.8411 313.059 84.853 313.073 84.8685C313.086 84.8839 313.096 84.9024 313.101 84.9224C313.106 84.9423 313.106 84.9632 313.101 84.9831C313.095 85.0295 313.072 85.0723 313.038 85.1045C313.004 85.1367 312.96 85.1566 312.914 85.1606Z" fill="#EDE3F0"/>
<path d="M309.096 85.89H307.389C307.368 85.891 307.348 85.8869 307.329 85.8782C307.31 85.8695 307.293 85.8563 307.281 85.8398C307.268 85.8233 307.26 85.804 307.256 85.7835C307.253 85.7631 307.254 85.7421 307.261 85.7224C307.268 85.6754 307.292 85.6325 307.328 85.6018C307.364 85.571 307.41 85.5543 307.458 85.5548H309.165C309.186 85.5538 309.206 85.5579 309.225 85.5666C309.244 85.5754 309.26 85.5885 309.273 85.605C309.286 85.6215 309.294 85.6407 309.297 85.6612C309.301 85.6816 309.299 85.7027 309.293 85.7224C309.286 85.7694 309.262 85.8123 309.226 85.8431C309.189 85.8739 309.143 85.8905 309.096 85.89Z" fill="#EDE3F0"/>
<path d="M312.785 85.8406H309.826C309.805 85.8394 309.785 85.834 309.767 85.8248C309.749 85.8156 309.733 85.8027 309.72 85.7869C309.707 85.7712 309.697 85.753 309.692 85.7334C309.686 85.7138 309.685 85.6932 309.687 85.673C309.696 85.6258 309.72 85.5828 309.756 85.5507C309.791 85.5186 309.837 85.4993 309.885 85.4957H312.844C312.866 85.4929 312.888 85.4956 312.908 85.5036C312.928 85.5116 312.946 85.5245 312.96 85.5413C312.974 85.558 312.983 85.5779 312.987 85.5993C312.991 85.6206 312.989 85.6426 312.983 85.6631C312.976 85.7111 312.952 85.7552 312.916 85.7876C312.88 85.8201 312.834 85.8388 312.785 85.8406Z" fill="#EDE3F0"/>
<path d="M316.1 67.6093H310.792C310.653 67.6156 310.52 67.6686 310.414 67.7598C310.309 67.851 310.237 67.975 310.21 68.1119L309.678 71.0683C309.664 71.1296 309.665 71.1931 309.68 71.2541C309.694 71.315 309.723 71.3718 309.762 71.4202C309.802 71.4686 309.853 71.5074 309.91 71.5335C309.967 71.5596 310.029 71.5724 310.092 71.5709H315.39C315.53 71.565 315.665 71.5123 315.772 71.4213C315.88 71.3302 315.953 71.206 315.982 71.0683L316.505 68.1119C316.52 68.0513 316.521 67.988 316.508 67.9269C316.494 67.8658 316.467 67.8088 316.428 67.76C316.388 67.7113 316.338 67.6724 316.282 67.6462C316.225 67.6201 316.163 67.6074 316.1 67.6093Z" fill="#05A9E1"/>
<path d="M303.235 72.1722C303.043 72.1805 302.852 72.1442 302.677 72.0661C302.501 71.9881 302.346 71.8703 302.224 71.7223C302.101 71.5743 302.015 71.3999 301.971 71.213C301.928 71.026 301.928 70.8315 301.973 70.6447C302.066 70.226 302.294 69.8493 302.622 69.5719C302.95 69.2944 303.359 69.1314 303.788 69.1074L303.235 72.1722Z" fill="white"/>
<path d="M303.443 79.4844C303.346 79.9028 303.116 80.2784 302.787 80.5541C302.457 80.8298 302.047 80.9905 301.618 81.0118C301.426 81.0185 301.236 80.981 301.062 80.9022C300.888 80.8235 300.734 80.7056 300.613 80.5578C300.491 80.41 300.406 80.2362 300.363 80.05C300.32 79.8638 300.32 79.6703 300.365 79.4844C300.458 79.0657 300.686 78.6889 301.014 78.4115C301.342 78.134 301.751 77.971 302.18 77.947L303.443 79.4844Z" fill="white"/>
<path d="M321.832 93.8721L326.548 163.16L327.761 163.17L323.045 93.8819L321.832 93.8721Z" fill="#515271"/>
<path d="M247.08 93.5863L242.128 162.825H241.003L245.956 93.5764L247.08 93.5863Z" fill="#2B3683"/>
<path d="M222.13 93.468L217.178 162.717L215.964 162.707L220.917 93.468H222.13Z" fill="#0F1341"/>
<path d="M230.368 91.7336L230.348 95.3109L324.476 95.4981L324.486 91.9209L230.368 91.7336Z" fill="#515271"/>
<path d="M218.569 91.7239L248.807 91.783L248.797 95.3701L218.549 95.311L218.569 91.7239Z" fill="#0F1341"/>
<path d="M246.37 137.588C245.867 138.494 245.147 139.273 244.712 140.209C244.081 141.559 244.081 143.106 243.726 144.555C243.45 145.649 242.986 146.674 242.739 147.758C242.381 148.829 242.402 149.991 242.799 151.049C246.538 144.397 248.787 137.016 252.329 130.265C252.901 129.181 253.503 128.107 254.095 127.033C254.687 125.959 255.081 124.264 253.532 123.683C252.546 123.318 251.905 124.175 251.411 124.924C249.813 127.378 248.304 129.852 247.771 132.729C247.576 134.415 247.103 136.057 246.37 137.588Z" fill="#0F1341"/>
<path d="M273.372 126.067C273.698 126.138 273.997 126.303 274.231 126.541C274.359 126.742 274.427 126.977 274.427 127.216C274.427 127.455 274.359 127.689 274.231 127.891C273.971 128.295 273.688 128.683 273.382 129.053C272.701 130.213 272.411 131.56 272.553 132.897C272.712 134.206 272.712 135.529 272.553 136.839C272.133 138.201 271.585 139.521 270.916 140.781C270.362 142.066 270.028 143.435 269.929 144.831C269.85 145.954 269.929 147.088 269.811 148.221C269.643 149.876 269.101 151.631 269.811 153.148C272.771 144.87 275.434 136.454 278.059 128.048C278.443 127.113 278.569 126.092 278.424 125.092C278.019 123.397 276.174 122.461 274.477 122.135C273.453 121.901 272.379 122.03 271.439 122.5C270.788 122.884 261.741 124.234 262.323 125.003C262.905 125.772 272.662 125.841 273.372 126.067Z" fill="#151C28"/>
<path d="M273.668 150.33L271.172 159.376L275.355 159.721L278.631 150.162L273.668 150.33Z" fill="#F69886"/>
<path d="M281.156 159.81L276.134 157.928L271.646 158.007C271.367 158.036 271.109 158.171 270.926 158.383C270.743 158.596 270.648 158.87 270.659 159.15V161.899L282.222 162.008C282.636 161.259 282.389 160.263 281.156 159.81Z" fill="#FBA823"/>
<path d="M270.6 161.899L270.482 162.402C270.403 162.717 270.738 163.003 271.162 162.993H280.15C280.534 163.003 280.915 162.918 281.26 162.746C281.604 162.574 281.9 162.321 282.123 162.008L270.6 161.899Z" fill="#0F1341"/>
<path d="M276.48 159.485L276.144 159.366C276.11 159.353 276.082 159.328 276.066 159.295C276.05 159.262 276.046 159.224 276.056 159.189L276.47 157.464C276.472 157.447 276.478 157.429 276.487 157.414C276.497 157.399 276.51 157.386 276.525 157.377C276.54 157.367 276.557 157.361 276.575 157.36C276.593 157.358 276.611 157.36 276.628 157.366L276.963 157.474C276.998 157.489 277.027 157.517 277.043 157.551C277.059 157.586 277.062 157.625 277.052 157.662L276.638 159.386C276.634 159.403 276.627 159.419 276.618 159.434C276.608 159.448 276.595 159.46 276.58 159.469C276.565 159.478 276.549 159.485 276.532 159.487C276.514 159.49 276.497 159.489 276.48 159.485Z" fill="#0F1341"/>
<path d="M277.792 159.889L277.457 159.781C277.422 159.765 277.393 159.738 277.377 159.704C277.361 159.669 277.357 159.63 277.368 159.593L277.782 157.879C277.789 157.844 277.81 157.813 277.839 157.793C277.869 157.772 277.905 157.764 277.94 157.77L278.285 157.888C278.319 157.905 278.346 157.933 278.362 157.967C278.378 158.001 278.382 158.039 278.374 158.076L277.95 159.79C277.948 159.808 277.942 159.825 277.932 159.84C277.923 159.856 277.91 159.869 277.895 159.878C277.88 159.887 277.863 159.893 277.845 159.895C277.827 159.897 277.809 159.895 277.792 159.889Z" fill="#0F1341"/>
<path d="M279.055 160.362L278.719 160.244C278.684 160.228 278.656 160.201 278.64 160.167C278.623 160.132 278.62 160.093 278.63 160.056L279.055 158.342C279.057 158.324 279.063 158.306 279.072 158.291C279.082 158.276 279.094 158.262 279.109 158.252C279.124 158.242 279.141 158.235 279.159 158.232C279.177 158.228 279.195 158.229 279.212 158.233L279.548 158.351C279.583 158.367 279.611 158.394 279.627 158.429C279.644 158.463 279.647 158.502 279.637 158.539L279.212 160.253C279.21 160.271 279.204 160.289 279.195 160.304C279.185 160.32 279.173 160.333 279.158 160.343C279.143 160.353 279.126 160.36 279.108 160.363C279.09 160.367 279.072 160.366 279.055 160.362Z" fill="#0F1341"/>
<path d="M273.096 161.115L271.508 161.143C271.421 161.145 271.352 161.217 271.353 161.304L271.359 161.629C271.361 161.716 271.433 161.785 271.52 161.784L273.108 161.756C273.195 161.754 273.264 161.682 273.263 161.595L273.257 161.27C273.256 161.183 273.184 161.114 273.096 161.115Z" fill="#0F1341"/>
<path d="M245.374 149.758L242.572 158.539L246.705 159.376L250.297 150.182L245.374 149.758Z" fill="#F69886"/>
<path d="M287.174 92.0983H294.396C293.064 88.8068 288.476 89.0533 288.476 89.0533L287.174 92.0983Z" fill="#F69886"/>
<path d="M250.306 63.5494C251.609 63.6288 252.908 63.3558 254.068 62.7591C255.228 62.1625 256.205 61.2643 256.897 60.1593L257.035 60.0509C256.769 59.5493 256.682 58.9726 256.788 58.4151C256.985 57.2917 257.775 56.5427 258.593 56.7397C258.901 56.8176 259.169 57.0074 259.343 57.2719C259.484 57.479 259.588 57.7091 259.649 57.9519C259.827 57.9519 260.024 57.469 260.073 57.3409C260.182 57.0255 260.231 56.6905 260.33 56.3554C260.574 55.8261 260.908 55.3428 261.316 54.9265L260.33 60.0509C260.11 60.8949 259.705 61.6798 259.146 62.3494C258.587 63.019 257.886 63.5566 257.094 63.9239C256.37 64.2759 255.587 64.493 254.785 64.5644C254.234 65.148 253.729 65.7741 253.276 66.4369C252.721 67.2901 252.008 68.0293 251.175 68.6147C250.839 68.8414 250.849 68.1515 250.444 68.0628C247.958 67.5602 245.364 66.151 245.512 65.7667C245.969 65.3808 246.454 65.0284 246.962 64.7123C247.749 64.1105 248.446 63.4005 249.034 62.6034C249.399 62.9877 249.576 63.4902 250.306 63.5494Z" fill="#F69886"/>
<path d="M246.626 57.9026C246.631 57.9978 246.631 58.0931 246.626 58.1883C246.469 59.095 245.748 59.9819 246.104 60.8393C246.248 61.0866 246.441 61.3017 246.672 61.4712C246.903 61.6407 247.166 61.7611 247.445 61.8248C248.017 61.9519 248.552 62.2044 249.014 62.5639C249.222 62.8205 249.446 63.064 249.685 63.2931C249.87 63.426 250.089 63.5044 250.316 63.5197H250.553C251.816 63.5566 253.067 63.2631 254.181 62.6685C255.295 62.0739 256.235 61.1988 256.906 60.1298L257.045 60.0214C256.779 59.5198 256.692 58.9429 256.798 58.3855C256.995 57.2621 257.785 56.513 258.603 56.7101C258.911 56.7879 259.178 56.9778 259.353 57.2423C259.494 57.4493 259.598 57.6796 259.659 57.9223C259.837 57.9223 260.034 57.4395 260.083 57.3114C260.192 56.996 260.241 56.661 260.34 56.3259C260.584 55.7966 260.918 55.3132 261.326 54.8969C261.688 54.5455 262.018 54.163 262.313 53.7537C262.97 52.5725 263.19 51.198 262.934 49.871C262.619 48.718 261.099 48.4421 259.975 47.9001C259.567 47.756 259.185 47.55 258.84 47.2891C258.597 47.0029 258.37 46.7035 258.159 46.3923C257.903 46.13 257.596 45.9231 257.257 45.7841C256.917 45.6451 256.553 45.5771 256.186 45.5843H256.088C255.388 45.6168 254.692 45.7025 254.006 45.8405C252.892 45.926 251.789 46.1173 250.711 46.412C250.304 46.5529 249.921 46.7556 249.576 47.0131C249.088 47.3591 248.719 47.8481 248.521 48.4125C248.364 48.4695 248.212 48.5387 248.067 48.6195C247.188 49.1149 246.496 49.8829 246.094 50.8072C246.014 50.9972 245.945 51.1913 245.887 51.3887C245.541 52.733 245.603 54.1495 246.064 55.4587C246.385 56.2123 246.572 57.0159 246.617 57.8336L246.626 57.9026Z" fill="#151C28"/>
<path d="M259.679 85.9292C259.679 85.9292 253.532 79.0309 252.279 76.0055L250.622 72.0636C248.165 66.2592 258.87 66.3971 261.336 72.2311C262.54 74.6656 263.901 77.0193 265.41 79.2772C266.647 81.2222 268.432 82.7582 270.541 83.6921C275.473 85.8404 282.685 86.4712 287.559 86.7865C287.747 86.7975 287.932 86.8466 288.101 86.9306C288.27 87.0147 288.421 87.132 288.543 87.2756C288.666 87.4192 288.758 87.5862 288.814 87.7663C288.871 87.9465 288.89 88.1361 288.871 88.3239L288.614 90.8664C288.58 91.22 288.411 91.5472 288.144 91.7815C287.876 92.0157 287.53 92.1395 287.174 92.1278C264.671 91.5069 263.911 89.2797 259.679 85.9292Z" fill="#FBA823"/>
<path d="M286.119 111.837L285.744 112.576L286.059 111.808C274.359 106.535 254.785 108.28 246.922 109.275L246.035 109.393V109.472C245.048 109.63 243.183 109.856 241.339 109.965L239.849 127.28C242.71 127.132 246.183 126.708 250.01 126.235C257.489 125.318 266.624 124.195 274.428 124.875C274.599 124.889 274.764 124.941 274.913 125.026C275.061 125.111 275.19 125.228 275.288 125.368C275.387 125.508 275.454 125.668 275.484 125.836C275.514 126.005 275.508 126.178 275.464 126.343C275.197 127.329 274.911 128.413 274.615 129.497C272.859 135.981 270.669 144.042 269.377 151.788C269.321 152.095 269.335 152.411 269.416 152.712C269.497 153.013 269.643 153.293 269.845 153.531C270.047 153.769 270.298 153.96 270.582 154.09C270.866 154.219 271.176 154.285 271.488 154.281H271.557L277.358 154.074C277.918 154.055 278.459 153.866 278.909 153.531C279.359 153.197 279.695 152.733 279.874 152.202C283.603 139.085 287.815 127.644 289.739 121.988C291.199 117.789 289.986 113.522 286.119 111.837Z" fill="#2F3B4D"/>
<path d="M256.354 67.0281C252.852 65.5597 242.7 64.7023 239.671 67.8558C234.028 73.7687 234.738 77.3459 231.71 84.1949C231.433 84.8256 231.009 86.1659 230.99 86.2546C230.003 90.4133 230.634 94.8282 230.092 99.0657C229.697 102.14 227.675 104.17 226.56 106.861C224.902 110.862 227.714 114.744 229.707 118.499C230.038 119.294 230.581 119.984 231.277 120.493C231.973 121.002 232.794 121.311 233.653 121.386C234.64 121.239 235.814 121.032 237.037 120.795C237.491 120.638 237.925 120.45 238.359 120.263C238.456 120.219 238.566 120.211 238.669 120.24C238.772 120.268 238.861 120.333 238.921 120.421C244.111 119.337 249.685 117.937 249.685 117.937C252.941 117.159 255.949 114.616 256.818 111.956C257.804 108.999 258.653 105.698 258.209 103.776C253.72 84.0668 260.004 88.9941 262.431 78.7847C262.994 76.3407 260.665 68.8216 256.354 67.0281Z" fill="#FBA823"/>
<path d="M287.174 92.3054C267.443 91.7831 264.365 90.019 260.912 87.1907C259.971 86.4244 259.102 85.5734 258.317 84.6483C257.331 83.4361 255.782 81.6228 254.499 79.8884L254.825 79.6519C256.107 81.3764 257.597 83.1799 258.623 84.392C259.394 85.2951 260.246 86.1263 261.168 86.8754C264.552 89.6544 267.621 91.3889 287.184 91.9013L287.174 92.3054Z" fill="#C4D1EB"/>
<path d="M251.796 159.899L246.794 157.928H242.305C242.027 157.955 241.77 158.088 241.587 158.298C241.403 158.509 241.307 158.782 241.319 159.061L241.24 161.81L252.802 162.037C253.256 161.367 253.019 160.382 251.796 159.899Z" fill="#FFE579"/>
<path d="M241.22 161.879L241.092 162.382C241.013 162.687 241.339 162.983 241.773 162.983H250.76C251.148 163.012 251.537 162.943 251.891 162.781C252.245 162.619 252.552 162.369 252.783 162.057L241.22 161.879Z" fill="#0F1341"/>
<path d="M247.12 159.524L246.784 159.416C246.749 159.4 246.721 159.373 246.705 159.339C246.689 159.304 246.685 159.265 246.696 159.228L247.14 157.514C247.142 157.496 247.148 157.478 247.157 157.463C247.167 157.448 247.179 157.434 247.194 157.424C247.209 157.414 247.226 157.407 247.244 157.404C247.262 157.4 247.28 157.401 247.297 157.405L247.633 157.524C247.668 157.539 247.696 157.566 247.712 157.601C247.729 157.635 247.732 157.674 247.722 157.711L247.278 159.426C247.276 159.443 247.27 159.46 247.26 159.476C247.251 159.491 247.238 159.504 247.223 159.513C247.208 159.523 247.19 159.529 247.173 159.53C247.155 159.532 247.137 159.53 247.12 159.524Z" fill="#0F1341"/>
<path d="M248.442 159.948L248.106 159.839C248.071 159.824 248.043 159.797 248.027 159.762C248.01 159.728 248.007 159.689 248.017 159.652L248.461 157.938C248.464 157.92 248.47 157.902 248.479 157.887C248.488 157.871 248.501 157.858 248.516 157.848C248.531 157.838 248.548 157.831 248.566 157.827C248.583 157.824 248.602 157.825 248.619 157.829L248.955 157.947C248.99 157.963 249.018 157.99 249.034 158.024C249.05 158.059 249.054 158.098 249.043 158.135L248.6 159.849C248.598 159.867 248.592 159.884 248.582 159.899C248.573 159.915 248.56 159.927 248.544 159.937C248.529 159.946 248.512 159.952 248.494 159.954C248.477 159.956 248.458 159.954 248.442 159.948Z" fill="#0F1341"/>
<path d="M249.695 160.431L249.359 160.312C249.324 160.297 249.296 160.27 249.28 160.235C249.264 160.201 249.26 160.162 249.271 160.125L249.715 158.411C249.718 158.393 249.725 158.377 249.735 158.363C249.745 158.349 249.758 158.337 249.772 158.327C249.787 158.318 249.804 158.312 249.821 158.309C249.838 158.307 249.855 158.308 249.872 158.312L250.208 158.43C250.243 158.445 250.271 158.473 250.287 158.507C250.304 158.542 250.307 158.581 250.297 158.617L249.853 160.332C249.849 160.349 249.842 160.365 249.832 160.38C249.822 160.394 249.81 160.406 249.795 160.415C249.78 160.425 249.764 160.431 249.746 160.433C249.729 160.436 249.712 160.435 249.695 160.431Z" fill="#0F1341"/>
<path d="M243.901 160.95L242.313 160.96C242.226 160.961 242.156 161.032 242.156 161.119L242.158 161.444C242.159 161.531 242.23 161.602 242.317 161.601L243.906 161.59C243.993 161.59 244.063 161.519 244.062 161.431L244.06 161.106C244.059 161.019 243.988 160.949 243.901 160.95Z" fill="#0F1341"/>
<path d="M257.745 161.475C257.6 161.473 257.462 161.414 257.361 161.31C257.259 161.207 257.202 161.068 257.202 160.924C257.2 160.345 256.968 159.791 256.557 159.383C256.147 158.975 255.591 158.746 255.012 158.746H221.065C220.777 158.744 220.493 158.8 220.227 158.909C219.962 159.018 219.72 159.178 219.516 159.38C219.313 159.583 219.152 159.823 219.041 160.088C218.931 160.353 218.874 160.637 218.874 160.924C218.885 161.002 218.879 161.081 218.856 161.156C218.833 161.232 218.795 161.301 218.743 161.36C218.691 161.42 218.627 161.467 218.555 161.5C218.483 161.532 218.406 161.549 218.327 161.549C218.248 161.549 218.17 161.532 218.099 161.5C218.027 161.467 217.963 161.42 217.911 161.36C217.859 161.301 217.821 161.232 217.798 161.156C217.775 161.081 217.769 161.002 217.779 160.924C217.782 160.055 218.129 159.223 218.745 158.61C219.361 157.996 220.195 157.652 221.065 157.652H255.012C255.882 157.652 256.716 157.996 257.332 158.61C257.947 159.223 258.295 160.055 258.297 160.924C258.297 161.07 258.239 161.21 258.136 161.314C258.032 161.417 257.892 161.475 257.745 161.475Z" fill="#6B4E7B"/>
<path d="M259.629 161.15C259.629 161.524 259.518 161.89 259.31 162.201C259.102 162.513 258.806 162.755 258.46 162.898C258.114 163.041 257.733 163.079 257.366 163.006C256.998 162.933 256.661 162.753 256.396 162.488C256.131 162.223 255.951 161.886 255.877 161.519C255.804 161.152 255.842 160.772 255.985 160.426C256.129 160.08 256.371 159.785 256.683 159.577C256.994 159.369 257.361 159.258 257.735 159.258C258.238 159.258 258.719 159.457 259.075 159.812C259.43 160.167 259.629 160.648 259.629 161.15Z" fill="#26182D"/>
<path d="M220.216 161.15C220.216 161.524 220.105 161.89 219.897 162.201C219.689 162.513 219.393 162.755 219.047 162.898C218.701 163.041 218.32 163.079 217.953 163.006C217.585 162.933 217.248 162.753 216.983 162.488C216.718 162.223 216.537 161.886 216.464 161.519C216.391 161.152 216.429 160.772 216.572 160.426C216.716 160.08 216.958 159.785 217.27 159.577C217.581 159.369 217.947 159.258 218.322 159.258C218.825 159.258 219.306 159.457 219.662 159.812C220.017 160.167 220.216 160.648 220.216 161.15Z" fill="#26182D"/>
<path d="M203.701 94.1677C200.929 97.942 199.104 102.554 199.617 107.146C200.031 110.733 201.827 114.202 201.373 117.789C200.959 121.091 198.699 123.85 197.002 126.757C193.369 133.008 192.214 140.392 193.766 147.452C194.497 150.753 196.006 154.134 198.966 155.937C201.412 157.435 204.619 157.691 206.769 159.573C207.756 160.45 208.466 161.633 209.453 162.53C211.426 164.343 214.238 164.885 216.911 165.269C228.883 166.979 241.038 166.979 253.01 165.269C255.549 165.01 258.036 164.376 260.389 163.387C262.437 162.374 264.293 161.014 265.874 159.366C271.162 154.094 274.546 146.752 273.767 139.47C272.987 132.187 267.394 125.289 259.955 123.83C257.637 123.367 255.091 123.367 253.207 121.997C251.609 120.834 250.671 118.795 248.777 118.193C247.829 118.011 246.87 117.89 245.906 117.829C243.213 117.346 241.447 114.744 240.885 112.162C240.322 109.58 240.668 106.9 240.48 104.279C240.241 101.345 239.376 98.4967 237.944 95.9248C236.511 93.353 234.543 91.1174 232.173 89.3684C227.428 86.0768 221.698 84.5052 215.935 84.9142C210.647 85.269 206.533 90.2948 203.701 94.1677Z" fill="#514E5B"/>
<path d="M244.752 56.8579C244.841 56.5919 245.117 56.4539 245.285 56.2371C245.42 55.9873 245.483 55.705 245.467 55.4215C245.452 55.1379 245.358 54.8642 245.196 54.6308C244.861 54.1676 244.657 53.6231 244.604 53.054C244.604 52.2262 245.482 51.566 245.403 50.7481C245.337 50.4248 245.21 50.1171 245.028 49.8414C244.813 49.4911 244.678 49.0973 244.634 48.6885C244.614 48.4829 244.653 48.2761 244.745 48.0914C244.838 47.9068 244.98 47.7517 245.157 47.6438C245.689 47.3679 246.4 47.6438 246.883 47.3481C247.366 47.0525 247.218 45.998 247.593 45.3772C247.803 45.1421 248.068 44.9624 248.364 44.8541C248.66 44.7458 248.978 44.7123 249.29 44.7565C249.917 44.8379 250.553 44.717 251.105 44.4114C251.401 44.1848 251.668 43.7808 252.092 43.8301C252.516 43.8793 252.595 44.1848 252.881 44.2932C253.463 44.5297 254.124 43.8399 254.706 44.0666C255.101 44.2144 255.377 44.7465 255.782 44.6381C255.9 44.6381 255.999 44.5101 256.117 44.4805C256.778 44.2637 257.252 45.663 257.854 45.328C258.219 45.121 258.14 44.4509 258.544 44.3425C258.697 44.3205 258.853 44.3594 258.978 44.4509C259.637 44.8127 260.17 45.366 260.507 46.0375C260.734 46.4908 260.951 47.023 261.494 47.1412C261.622 47.1412 261.76 47.1412 261.889 47.1412C262.042 47.1957 262.181 47.283 262.297 47.3971C262.413 47.5111 262.503 47.6492 262.559 47.8015C263.253 49.1372 263.422 50.6839 263.033 52.1376C262.717 53.2216 261.82 54.3155 260.685 54.2169C260.141 54.0891 259.61 53.9143 259.097 53.6946C258.501 53.5901 257.889 53.6404 257.319 53.8407C256.749 54.0409 256.24 54.3842 255.841 54.8378C255.486 55.2856 255.047 55.6604 254.549 55.9415C254.073 56.0776 253.583 56.1504 253.088 56.1583C252.22 56.296 251.429 56.7373 250.857 57.4032C250.284 58.0692 249.967 58.9166 249.961 59.7946C249.991 59.9641 249.991 60.1376 249.961 60.3071C249.606 61.2925 246.705 61.608 246.232 60.9871C245.758 60.3663 246.232 58.8289 245.877 58.3164C245.522 57.804 244.565 57.4492 244.752 56.8579Z" fill="#151C28"/>
<path d="M235.37 63.6972C234.941 62.6429 234.764 61.5029 234.855 60.3684C234.946 59.2338 235.301 58.1363 235.893 57.1635C236.672 56.1768 237.701 55.4167 238.874 54.9626C240.047 54.5085 241.321 54.377 242.562 54.5816C245.041 55.0211 247.369 56.0787 249.33 57.6563C252.526 59.9721 257.321 65.205 258.465 68.9793C258.623 69.5016 256.847 67.8362 256.788 68.3782C256.666 69.0376 256.377 69.6548 255.95 70.1717C254.996 71.4226 253.769 72.439 252.361 73.1428C250.954 73.8466 249.404 74.219 247.83 74.2318C241.97 74.2318 237.215 68.8611 235.37 63.6972Z" fill="#FBA823"/>
<path d="M261.159 76.3506C261.16 76.8305 261.02 77.3002 260.754 77.7001C260.489 78.1001 260.11 78.4124 259.667 78.5974C259.224 78.7824 258.736 78.8318 258.264 78.7394C257.793 78.6469 257.359 78.4169 257.019 78.0782C256.679 77.7396 256.446 77.3076 256.352 76.8371C256.258 76.3666 256.305 75.8786 256.488 75.4351C256.672 74.9915 256.983 74.6123 257.382 74.3455C257.782 74.0787 258.251 73.9363 258.732 73.9363C259.374 73.9363 259.989 74.1903 260.444 74.6428C260.899 75.0953 261.156 75.7094 261.159 76.3506Z" fill="#1EB2E4"/>
<path d="M262.204 57.262C262.204 60.0509 260.675 62.3076 258.791 62.3076C256.906 62.3076 255.387 60.0509 255.387 57.262C255.387 54.4731 256.906 52.2065 258.791 52.2065C260.675 52.2065 262.204 54.483 262.204 57.262Z" fill="#FBA823"/>
<path d="M258.84 53.9705H258.268C258.338 51.679 257.529 49.4473 256.007 47.7312C254.485 46.0151 252.365 44.944 250.08 44.7367V44.165C252.517 44.3852 254.778 45.529 256.398 47.3616C258.018 49.1941 258.874 51.5764 258.791 54.0197L258.84 53.9705Z" fill="#FBA823"/>
<path d="M97.6002 6.43481C97.6002 6.43481 157.909 25.4741 182.089 22.5472C182.089 22.5472 143.544 50.5739 99.1097 53.0179C99.1097 53.0179 93.506 27.2972 97.6002 6.43481Z" fill="white"/>
<path d="M97.7484 158.315L102.948 158.148L97.8076 6.64185L92.6084 6.80938L97.7484 158.315Z" fill="#C8D1D9"/>
<path d="M103.165 111.131L104.733 159.606C104.629 160.66 104.144 161.641 103.369 162.364C102.595 163.088 101.583 163.505 100.523 163.539C99.4635 163.573 98.4275 163.221 97.6083 162.548C96.7892 161.875 96.243 160.928 96.0714 159.882L94.5027 111.407L103.165 111.131Z" fill="#9A9FA3"/>
<path d="M122.669 24.6265C121.493 22.9149 119.688 21.7357 117.647 21.3449C115.971 21.084 114.255 21.3239 112.714 22.0347C111.702 22.3812 110.779 22.9494 110.014 23.6979C109.249 24.4465 108.662 25.3564 108.295 26.3609C107.646 28.0306 107.338 29.8126 107.387 31.6029C107.436 33.3931 107.842 35.1555 108.581 36.7872C109.354 38.405 110.559 39.7787 112.062 40.7574C113.566 41.7362 115.311 42.2821 117.105 42.3354C118.836 42.2684 120.499 41.6412 121.843 40.548C123.186 39.4548 124.137 37.955 124.553 36.2747C124.662 35.9101 124.839 34.9443 124.839 34.9443C124.839 34.9443 123.853 34.6586 123.547 34.5995L120.883 34.0771C120.36 35.5849 119.305 37.0927 117.805 37.2011C116.278 37.2283 114.792 36.7033 113.622 35.7229C113.009 35.1231 112.54 34.3918 112.251 33.5844C111.695 32.0198 111.762 30.3017 112.438 28.7852C113.094 27.4275 114.189 26.3304 115.546 25.671C116.258 25.361 117.064 25.3433 117.79 25.6217C118.515 25.9001 119.102 26.4523 119.423 27.1591C120.913 26.4988 121.396 26.1736 123.063 25.4247" fill="#05A9E1"/>
<path d="M138.326 28.6374C138.087 27.3999 137.514 26.2514 136.668 25.3164C135.522 24.2214 134.05 23.5294 132.475 23.3454C130.907 23.1533 129.322 23.1335 127.75 23.2864L128.145 39.0539C129.917 39.0115 131.656 38.5595 133.225 37.7334C134.069 37.4074 134.873 36.9876 135.622 36.4818C136.771 35.5649 137.636 34.3405 138.114 32.9516C138.593 31.5627 138.666 30.0664 138.326 28.6374ZM131.104 26.499C132.328 26.2625 133.837 26.1147 134.606 27.1001C134.867 27.4607 135.033 27.8808 135.09 28.3221C135.318 29.5397 135.101 30.7985 134.478 31.8698C134.164 32.3933 133.734 32.8379 133.221 33.1693C132.708 33.5008 132.125 33.7102 131.518 33.7816V33.8802C131.518 33.8802 131.518 33.8211 131.518 33.7915V33.5057C131.18 31.2459 131.048 28.96 131.124 26.6763" fill="#05A9E1"/>
</g>
<defs>
<clipPath id="clip0_1_1340">
<rect width="474.477" height="215.217" fill="white" transform="translate(0.483154 0.492432)"/>
</clipPath>
</defs>
</svg>
