<svg width="163" height="224" viewBox="0 0 163 224" fill="none" xmlns="http://www.w3.org/2000/svg">
<g clip-path="url(#clip0_1_1786)">
<path d="M77.6078 26.7394C77.6078 26.7394 83.1667 19.3282 72.1653 13.2675C67.4219 10.6489 62.6952 9.54553 58.501 16.2156L77.6078 26.7394Z" fill="#88552A"/>
<path d="M46.4181 15.4745C50.0796 8.88678 61.6136 8.40916 72.1657 14.2228C82.7177 20.0364 88.3099 30.0331 84.6484 36.5385C80.9868 43.0438 69.4694 43.6038 58.9008 37.7902C48.3321 31.9765 42.7565 21.9798 46.4181 15.4745Z" fill="#88552A"/>
<path d="M66.2572 15.0957C68.1256 14.4094 70.1808 14.4094 72.0491 15.0957C75.1116 16.2815 75.3779 19.5587 75.3779 21.3374C75.3779 23.1161 79.805 24.483 77.0422 28.7156C74.2794 32.9482 80.7706 32.5035 77.3088 36.9502C73.8469 41.3969 79.3227 41.5287 77.7582 45.4813C76.2518 44.7322 74.5377 44.4949 72.8813 44.806C71.0505 45.2836 70.7843 47.507 67.5888 45.646C63.9438 43.505 62.9784 46.3706 60.0325 45.646C57.8023 45.1354 56.8372 41.7922 53.6749 42.7804C49.9634 43.9332 52.3598 38.1197 47.1337 39.6019C47.1337 39.6019 45.769 37.9549 49.3141 35.7644C52.0104 34.1175 46.618 30.9719 51.1118 27.711C55.6055 24.4501 47.7829 23.3303 53.9244 18.7683C55.5888 17.5825 56.6375 14.5521 59.4835 13.531C62.8289 12.444 65.4583 13.7123 66.2572 15.0957Z" fill="#9F3B22"/>
<path d="M58.4012 33.4262C58.4012 33.4262 58.6842 43.9006 58.4012 44.9546C58.1183 46.0087 56.5038 47.5403 52.4927 48.4296C52.4927 48.4296 56.2375 62.2966 63.2777 62.1649C70.3179 62.0331 72.2487 50.7847 73.3638 49.2036C73.3638 49.2036 67.805 47.0297 67.6385 45.1522C67.4554 42.896 67.6385 33.3767 67.6385 33.3767L58.4012 33.4262Z" fill="#EB9A7D"/>
<path d="M65.8074 33.426H58.4011C58.4011 33.426 58.6009 40.6888 58.5011 43.8015C60.9643 43.818 65.5911 42.3853 65.8074 33.426Z" fill="#D87E66"/>
<path d="M72.6147 29.2427C72.0167 31.8303 70.8181 34.2444 69.1137 36.294C67.4093 38.3436 65.246 39.9722 62.7952 41.051C62.1801 41.4349 61.4933 41.6926 60.7757 41.8086C60.058 41.9246 59.3241 41.8965 58.6176 41.7263C54.3402 41.0017 51.9601 36.2091 53.5412 26.904C55.5385 15.705 59.766 15.4579 65.275 16.3802C72.4152 17.5989 74.0461 21.6339 72.6147 29.2427Z" fill="#EB9A7D"/>
<path d="M53.7408 26.8876C53.7086 26.8809 53.6786 26.8672 53.6526 26.8472C53.6267 26.8272 53.6058 26.8016 53.5913 26.7724C53.5425 26.7052 53.5161 26.6246 53.5161 26.5418C53.5161 26.4591 53.5425 26.3784 53.5913 26.3112C53.7678 26.0762 53.9973 25.8853 54.2617 25.7537C54.5262 25.6222 54.8183 25.5537 55.1142 25.5537C55.4102 25.5537 55.7019 25.6222 55.9663 25.7537C56.2308 25.8853 56.4602 26.0762 56.6368 26.3112C56.6856 26.3784 56.712 26.4591 56.712 26.5418C56.712 26.6246 56.6856 26.7052 56.6368 26.7724C56.6134 26.8001 56.5841 26.8223 56.551 26.8376C56.518 26.8528 56.4819 26.8609 56.4454 26.8609C56.4089 26.8609 56.3728 26.8528 56.3398 26.8376C56.3067 26.8223 56.2774 26.8001 56.254 26.7724C56.099 26.6156 55.9139 26.4908 55.7095 26.4057C55.5052 26.3206 55.286 26.2769 55.0643 26.2769C54.8425 26.2769 54.6229 26.3206 54.4186 26.4057C54.2142 26.4908 54.0291 26.6156 53.8741 26.7724C53.8614 26.7998 53.843 26.8243 53.8201 26.8442C53.7971 26.8641 53.77 26.8788 53.7408 26.8876Z" fill="#9F3B22"/>
<path d="M65.5581 28.6172C65.598 28.6194 65.6378 28.6131 65.6751 28.5989C65.7124 28.5847 65.7461 28.5629 65.7743 28.5348C65.8065 28.5055 65.8326 28.47 65.8502 28.4303C65.8679 28.3906 65.8771 28.3476 65.8771 28.3042C65.8771 28.2609 65.8679 28.218 65.8502 28.1784C65.8326 28.1387 65.8065 28.1031 65.7743 28.0738C65.5719 27.7973 65.3156 27.5636 65.0205 27.3869C64.7254 27.2101 64.3977 27.0938 64.0563 27.0447C63.7149 26.9956 63.3669 27.0145 63.0331 27.1008C62.6993 27.187 62.3863 27.3387 62.1127 27.5467C62.0388 27.5913 61.9846 27.6616 61.96 27.7437C61.9354 27.8259 61.9425 27.9141 61.9799 27.9914C62.0221 28.0675 62.0928 28.1241 62.1769 28.1488C62.2611 28.1735 62.3515 28.1642 62.4289 28.1231C62.8852 27.8744 63.4107 27.7786 63.9266 27.8499C64.4426 27.9211 64.9218 28.1555 65.2919 28.5183C65.3262 28.5532 65.3678 28.5802 65.4138 28.5973C65.4599 28.6144 65.5091 28.6212 65.5581 28.6172Z" fill="#9F3B22"/>
<path d="M57.6356 34.5623C57.1696 34.4635 56.8367 34.2823 56.7201 33.92C56.354 32.7672 57.6691 31.252 57.8022 31.0544C57.9354 30.8567 58.0019 30.8568 58.135 30.9392C58.2682 31.0215 58.135 31.2191 58.135 31.3509C57.6533 32.0514 57.4298 32.8946 57.5024 33.7389C57.5301 33.8075 57.5757 33.8678 57.634 33.914C57.6923 33.9601 57.7618 33.9907 57.8355 34.0024C57.873 34.0097 57.9082 34.0248 57.9392 34.0469C57.9702 34.0689 57.9962 34.0973 58.0152 34.1301C58.0341 34.1629 58.0454 34.1994 58.0489 34.237C58.0523 34.2747 58.0477 34.3126 58.0351 34.3482C58.0288 34.3915 58.0123 34.4326 57.9871 34.4684C57.9619 34.5043 57.9284 34.5339 57.8896 34.5547C57.8508 34.5755 57.8078 34.5869 57.7636 34.5883C57.7195 34.5896 57.6757 34.5808 57.6356 34.5623Z" fill="#D87E66"/>
<path d="M55.6054 29.1935C55.5977 29.2717 55.574 29.3476 55.5355 29.4164C55.497 29.4852 55.4444 29.5455 55.3815 29.5935C55.3186 29.6416 55.2464 29.6764 55.1694 29.6959C55.0924 29.7153 55.0122 29.7191 54.9337 29.7067C54.8552 29.6943 54.7802 29.6661 54.7131 29.6239C54.646 29.5817 54.5883 29.5265 54.5436 29.4615C54.499 29.3964 54.4684 29.323 54.4534 29.2457C54.4385 29.1685 54.4398 29.0891 54.4571 29.0123C54.4648 28.9341 54.4885 28.8582 54.527 28.7894C54.5654 28.7206 54.6177 28.6603 54.6806 28.6123C54.7435 28.5642 54.8157 28.5294 54.8927 28.5099C54.9697 28.4905 55.0499 28.4867 55.1284 28.4991C55.2068 28.5115 55.2819 28.5397 55.349 28.5819C55.4161 28.6241 55.4738 28.6793 55.5184 28.7443C55.5631 28.8094 55.5937 28.8828 55.6086 28.9601C55.6236 29.0373 55.6226 29.1167 55.6054 29.1935Z" fill="#23252C"/>
<path d="M63.5774 30.5275C63.5606 30.692 63.4802 30.8437 63.3531 30.9511C63.226 31.0585 63.0616 31.1132 62.8948 31.1039C62.7466 31.046 62.623 30.9399 62.5441 30.8029C62.4652 30.666 62.436 30.5064 62.4612 30.3508C62.4865 30.1952 62.5649 30.0527 62.6831 29.9471C62.8013 29.8414 62.9523 29.7788 63.1114 29.7698C63.2726 29.8125 63.411 29.9152 63.4978 30.0563C63.5846 30.1973 63.6131 30.3662 63.5774 30.5275Z" fill="#23252C"/>
<path d="M68.8868 30.5441C67.2917 29.6756 66.0987 28.2293 65.5581 26.509C64.626 21.8647 60.981 24.2858 60.4817 19.6085C60.4817 19.6085 58.8173 22.7375 56.7369 22.3917C54.6564 22.0458 54.8231 23.2975 54.0575 24.648C53.51 25.5369 53.1582 26.5303 53.0254 27.5631V25.735C53.0254 25.735 53.791 13.383 66.3403 15.9851C79.3056 18.6696 72.4152 33.7719 72.2155 34.4801L67.6219 37.8563L68.8868 30.5441Z" fill="#9F3B22"/>
<path d="M61.1973 32.4377C61.1869 32.4006 61.1917 32.3609 61.2103 32.3271C61.2289 32.2933 61.2601 32.268 61.2973 32.2566C61.317 32.2517 61.3374 32.2509 61.3574 32.2541C61.3774 32.2574 61.3968 32.2647 61.4139 32.2754C61.431 32.2862 61.4455 32.3003 61.457 32.3169C61.4684 32.3334 61.4766 32.3522 61.4805 32.3719C61.4909 32.4091 61.4862 32.4487 61.4675 32.4825C61.4489 32.5163 61.4177 32.5416 61.3806 32.5531C61.3609 32.5579 61.3405 32.5587 61.3204 32.5555C61.3004 32.5523 61.2811 32.545 61.2639 32.5342C61.2468 32.5234 61.2323 32.5094 61.2209 32.4928C61.2094 32.4762 61.2012 32.4574 61.1973 32.4377Z" fill="#DA715D"/>
<path d="M62.1126 33.5247C62.1068 33.49 62.1138 33.4543 62.1321 33.4242C62.1504 33.394 62.1789 33.3713 62.2125 33.36C62.231 33.3523 62.251 33.3488 62.2711 33.3498C62.2911 33.3508 62.3108 33.3562 62.3284 33.3657C62.346 33.3752 62.361 33.3885 62.3726 33.4047C62.3843 33.4208 62.3924 33.4392 62.3958 33.4587C62.4062 33.4959 62.4014 33.5357 62.3828 33.5695C62.3642 33.6033 62.333 33.6284 62.2958 33.6399C62.2762 33.6447 62.2557 33.6457 62.2357 33.6425C62.2157 33.6393 62.1964 33.632 62.1792 33.6212C62.1621 33.6104 62.1476 33.5963 62.1362 33.5798C62.1247 33.5632 62.1165 33.5444 62.1126 33.5247Z" fill="#DA715D"/>
<path d="M61.0476 33.6729C61.0476 33.6729 61.0476 33.673 61.0476 33.5742H61.1476V33.6729H61.0476Z" fill="#DA715D"/>
<path d="M62.1125 32.6519C62.1125 32.6519 62.1125 32.652 62.1125 32.5532C62.1125 32.4544 62.1959 32.5532 62.2125 32.5532C62.2292 32.5532 62.2125 32.6519 62.2125 32.6519C62.2125 32.6519 62.1292 32.7013 62.1125 32.6519Z" fill="#DA715D"/>
<path d="M59.4331 31.7626C59.4331 31.7408 59.4419 31.7197 59.4575 31.7043C59.4731 31.6889 59.494 31.6802 59.516 31.6802C59.5381 31.6802 59.5593 31.6889 59.5749 31.7043C59.5906 31.7197 59.5993 31.7408 59.5993 31.7626C59.6115 31.7794 59.618 31.7994 59.618 31.8201C59.618 31.8408 59.6115 31.861 59.5993 31.8778C59.5839 31.8996 59.5604 31.9146 59.5339 31.9192C59.5074 31.9238 59.48 31.9178 59.4579 31.9025C59.4358 31.8872 59.4207 31.8638 59.4161 31.8376C59.4114 31.8113 59.4177 31.7844 59.4331 31.7626Z" fill="#DA715D"/>
<path d="M59.3 33.2942C59.3 33.2942 59.3 33.2943 59.3 33.1955C59.3 33.0967 59.3001 33.1955 59.4 33.1955C59.4999 33.1955 59.4 33.2942 59.4 33.2942C59.4 33.2942 59.3 33.3436 59.3 33.2942Z" fill="#DA715D"/>
<path d="M61.8799 34.4635V34.3647C61.8799 34.3647 61.88 34.3647 61.9798 34.3647C62.0797 34.3647 61.9798 34.3646 61.9798 34.4635C61.9798 34.5623 61.8965 34.5623 61.8799 34.4635Z" fill="#DA715D"/>
<path d="M64.3765 32.9153V32.8164H64.4764C64.4886 32.8332 64.4951 32.8534 64.4951 32.8741C64.4951 32.8948 64.4886 32.915 64.4764 32.9318L64.3765 32.9153Z" fill="#DA715D"/>
<path d="M60.282 31.8778V31.7791C60.282 31.7791 60.3649 31.7791 60.3815 31.7791C60.3982 31.7791 60.3815 31.8778 60.3815 31.8778H60.282Z" fill="#DA715D"/>
<path d="M64.3931 33.5247C64.3931 33.5247 64.3931 33.5248 64.3931 33.426H64.493V33.5247H64.3931Z" fill="#DA715D"/>
<path d="M60.2655 33.5907C60.2597 33.556 60.2663 33.5203 60.2846 33.4902C60.3029 33.46 60.3313 33.4373 60.365 33.426C60.3825 33.4211 60.401 33.4196 60.4191 33.422C60.4371 33.4244 60.4543 33.4304 60.4699 33.4397C60.4855 33.449 60.4991 33.4613 60.5097 33.4759C60.5203 33.4905 60.5278 33.5071 60.5316 33.5247C60.5316 33.542 60.5282 33.5592 60.5215 33.5752C60.5148 33.5912 60.505 33.6056 60.4926 33.6178C60.4803 33.6301 60.4657 33.6399 60.4496 33.6466C60.4334 33.6532 60.4158 33.6564 60.3984 33.6564C60.3809 33.6564 60.3637 33.6532 60.3476 33.6466C60.3314 33.6399 60.3169 33.6301 60.3045 33.6178C60.2921 33.6056 60.2823 33.5912 60.2756 33.5752C60.2689 33.5592 60.2655 33.542 60.2655 33.5247V33.5907Z" fill="#DA715D"/>
<path d="M63.2945 34.1838C63.2841 34.1467 63.2888 34.1071 63.3075 34.0732C63.3261 34.0394 63.3573 34.0141 63.3944 34.0027C63.4338 33.9971 63.4742 34.0055 63.5078 34.0266C63.5414 34.0478 63.5662 34.0802 63.5777 34.1179C63.5835 34.1526 63.5765 34.1882 63.5582 34.2184C63.5399 34.2486 63.5114 34.2713 63.4777 34.2825C63.4404 34.2892 63.4017 34.283 63.3684 34.265C63.3351 34.2471 63.309 34.2185 63.2945 34.1838Z" fill="#DA715D"/>
<path d="M59.7327 32.7343C59.7278 32.717 59.7263 32.6988 59.7287 32.681C59.7311 32.6632 59.7372 32.646 59.7465 32.6305C59.7559 32.6151 59.7683 32.6018 59.7831 32.5913C59.7979 32.5809 59.8149 32.5734 59.8327 32.5696C59.8678 32.5639 59.9038 32.5706 59.9343 32.5887C59.9648 32.6068 59.9875 32.635 59.9989 32.6683C60.0093 32.7055 60.0049 32.7451 59.9863 32.7789C59.9676 32.8127 59.9365 32.838 59.8993 32.8495C59.862 32.8545 59.8241 32.8455 59.7933 32.8241C59.7624 32.8028 59.7407 32.7707 59.7327 32.7343Z" fill="#DA715D"/>
<path d="M55.6218 31.5649C55.6371 31.5538 55.6492 31.5391 55.6575 31.5223C55.6659 31.5054 55.6699 31.4867 55.6693 31.468C55.6687 31.4492 55.6637 31.431 55.6543 31.4147C55.6449 31.3984 55.6317 31.3846 55.6157 31.3745C55.5997 31.3644 55.5814 31.3583 55.5625 31.3568C55.5436 31.3553 55.5246 31.3585 55.5072 31.3659C55.4898 31.3733 55.4744 31.3846 55.4625 31.3992C55.4506 31.4138 55.4422 31.4311 55.4385 31.4495C55.4235 31.4714 55.4158 31.4972 55.4158 31.5237C55.4158 31.5501 55.4235 31.5758 55.4385 31.5977C55.4518 31.6098 55.4679 31.6188 55.4853 31.6238C55.5026 31.6288 55.5207 31.6296 55.5385 31.6264C55.5562 31.6232 55.5728 31.616 55.5872 31.6053C55.6017 31.5946 55.6137 31.5808 55.6218 31.5649Z" fill="#DA715D"/>
<path d="M54.7896 32.0755C54.7999 32.0679 54.8082 32.058 54.8139 32.0466C54.8197 32.0352 54.8229 32.0224 54.8229 32.0096C54.8229 31.9968 54.8197 31.9843 54.8139 31.9728C54.8082 31.9614 54.7999 31.9515 54.7896 31.9439C54.7761 31.929 54.7584 31.9184 54.7388 31.9137C54.7191 31.909 54.6983 31.9102 54.6794 31.9173C54.6605 31.9245 54.6442 31.9372 54.6327 31.9537C54.6212 31.9702 54.6152 31.9896 54.6152 32.0096C54.6152 32.0296 54.6212 32.0492 54.6327 32.0657C54.6442 32.0822 54.6605 32.0949 54.6794 32.1021C54.6983 32.1092 54.7191 32.1104 54.7388 32.1057C54.7584 32.101 54.7761 32.0905 54.7896 32.0755Z" fill="#DA715D"/>
<path d="M54.9725 31.4997V31.4167C54.9725 31.4167 54.9725 31.4168 54.9725 31.4997C54.9725 31.5826 54.9559 31.5329 54.9725 31.4997Z" fill="#DA715D"/>
<path d="M55.622 33.0471C55.622 33.0471 55.6219 33.0471 55.5386 33.0471C55.5386 33.0471 55.6053 33.0805 55.622 33.0471Z" fill="#DA715D"/>
<path d="M54.7564 32.7509V32.6685C54.7564 32.6685 54.7563 32.6685 54.6731 32.6685V32.7509H54.7564Z" fill="#DA715D"/>
<path d="M53.4247 31.1205V31.0381C53.4247 31.0381 53.4246 31.0381 53.3414 31.0381C53.2582 31.0381 53.3414 31.0382 53.3414 31.1205H53.4247Z" fill="#DA715D"/>
<path d="M56.3376 31.4167H56.2542C56.2542 31.4167 56.3209 31.4335 56.3376 31.4167Z" fill="#DA715D"/>
<path d="M55.8214 32.0095V32.1084C55.8214 32.1084 55.8047 32.0425 55.8214 32.0095Z" fill="#DA715D"/>
<path d="M55.9711 32.5532C55.9815 32.5456 55.9897 32.5355 55.9955 32.5241C56.0013 32.5127 56.0045 32.5001 56.0045 32.4873C56.0045 32.4745 56.0013 32.462 55.9955 32.4505C55.9897 32.4391 55.9815 32.429 55.9711 32.4214C55.9528 32.4052 55.9291 32.3962 55.9045 32.3962C55.8799 32.3962 55.8562 32.4052 55.8379 32.4214C55.8243 32.4407 55.8171 32.4638 55.8171 32.4873C55.8171 32.5109 55.8243 32.5339 55.8379 32.5532C55.8456 32.5635 55.856 32.5717 55.8675 32.5774C55.8791 32.5831 55.8916 32.5862 55.9045 32.5862C55.9174 32.5862 55.9303 32.5831 55.9419 32.5774C55.9534 32.5717 55.9634 32.5635 55.9711 32.5532Z" fill="#DA715D"/>
<path d="M53.8741 32.2402C53.8917 32.2194 53.9013 32.1933 53.9013 32.1662C53.9013 32.1391 53.8917 32.1128 53.8741 32.092C53.8558 32.0758 53.832 32.0669 53.8075 32.0669C53.7829 32.0669 53.7592 32.0758 53.7408 32.092C53.7232 32.1128 53.7136 32.1391 53.7136 32.1662C53.7136 32.1933 53.7232 32.2194 53.7408 32.2402C53.7611 32.2518 53.7841 32.2579 53.8075 32.2579C53.8309 32.2579 53.8539 32.2518 53.8741 32.2402Z" fill="#DA715D"/>
<path d="M56.5372 32.1086C56.5548 32.0878 56.5644 32.0615 56.5644 32.0344C56.5644 32.0073 56.5548 31.9812 56.5372 31.9604C56.5189 31.9442 56.4951 31.9351 56.4706 31.9351C56.446 31.9351 56.4222 31.9442 56.4039 31.9604C56.3863 31.9812 56.3767 32.0073 56.3767 32.0344C56.3767 32.0615 56.3863 32.0878 56.4039 32.1086C56.4222 32.1248 56.446 32.1337 56.4706 32.1337C56.4951 32.1337 56.5189 32.1248 56.5372 32.1086Z" fill="#DA715D"/>
<path d="M68.7367 30.9392C68.7367 30.9392 68.87 29.7203 70.5843 30.165C72.2986 30.6097 71.5494 34.6117 69.9516 35.1058C68.3538 35.5998 67.9878 33.64 67.9878 33.64L68.7367 30.9392Z" fill="#EB9A7D"/>
<path d="M56.4707 35.6165C57.5972 36.0054 58.7931 36.1569 59.9823 36.0612C59.9823 36.0612 57.0865 38.3998 56.4707 35.6165Z" fill="white"/>
<path d="M52.4424 16.6771C55.0888 11.9669 64.293 10.5175 71.9324 14.7171C79.5718 18.9168 83.2334 24.8786 80.587 29.5394C79.372 31.6804 76.3428 30.4618 76.3428 30.4618C77.2249 25.6857 71.1666 21.7495 66.6728 19.3121C60.7643 16.1335 54.2899 17.8793 52.5091 22.8695C52.2481 23.3773 52.1607 23.9552 52.2596 24.5164C49.7464 22.2931 51.3273 18.6698 52.4424 16.6771Z" fill="#88552A"/>
<path d="M71.5665 15.2933C61.2807 9.62792 50.0962 10.0066 46.135 16.0344C46.2193 15.8429 46.3136 15.6561 46.4178 15.4745C50.0794 8.88678 61.6134 8.40916 72.1654 14.2228C82.7175 20.0364 88.3097 30.0331 84.6481 36.5385C84.5483 36.7197 84.4318 36.9009 84.3153 37.0821C87.411 30.5603 81.8522 20.9423 71.5665 15.2933Z" fill="#9B6842"/>
<path d="M53.0918 48.1331C53.0918 48.1331 46.6174 48.133 45.1028 47.886C44.459 53.7401 44.825 59.6599 46.1849 65.3928C48.054 72.2688 49.2081 79.3158 49.6298 86.424C57.9393 88.8621 66.7852 88.8621 75.0946 86.424C75.0946 86.424 80.0877 58.4264 81.3193 53.7162C78.6588 51.5883 75.6836 49.8776 72.4981 48.6437C72.4981 48.6437 68.4371 53.7161 62.978 61.6378C59.9209 56.97 56.6211 52.4624 53.0918 48.1331Z" fill="#515271"/>
<path d="M62.6287 62.2307C62.6287 62.2307 56.5705 75.1754 49.4304 81.8289C49.4471 81.8289 59.0836 66.6115 62.6287 62.2307Z" fill="#3B3D51"/>
<path d="M53.8076 82.175C53.8076 82.175 62.4792 74.0886 66.973 68.7361C63.2793 73.8344 58.8425 78.3632 53.8076 82.175Z" fill="#3B3D51"/>
<path d="M66.9729 73.364C66.9729 73.364 73.1976 72.7052 76.1269 68.7361C76.1269 68.7361 74.5624 74.1875 66.9729 73.364Z" fill="#3B3D51"/>
<path d="M61.3138 63.3341C61.3138 63.3341 55.9548 54.7043 53.1753 50.6858C55.6216 55.0642 58.3395 59.2883 61.3138 63.3341Z" fill="#3B3D51"/>
<path d="M54.1402 73.4461C51.2483 71.4955 48.906 68.8487 47.3333 65.7549C47.3333 65.7549 48.8975 71.7827 54.1402 73.4461Z" fill="#3B3D51"/>
<path d="M72.4983 51.6575C72.4983 51.6575 63.8937 64.4211 62.2126 68.7361C62.2126 68.7361 70.8506 55.4619 72.4983 51.6575Z" fill="#3B3D51"/>
<path d="M70.8008 180.15L78.4735 215.477L83.4166 214.818L81.1032 178.503L70.8008 180.15Z" fill="#EB9A7D"/>
<path d="M80.6873 221.999C81.0854 222.703 81.7158 223.251 82.4731 223.551C83.2305 223.851 84.0689 223.884 84.8482 223.646C85.2272 223.608 85.5927 223.486 85.918 223.29C86.2433 223.094 86.5198 222.828 86.7275 222.512C86.9351 222.196 87.0684 221.838 87.1176 221.464C87.1667 221.09 87.1305 220.71 87.0115 220.352L80.6873 221.999Z" fill="#C98C53"/>
<path d="M86.2791 218.079C85.4303 216.63 83.4165 213.797 83.4165 213.797C82.6275 213.281 81.6755 213.066 80.7383 213.193C79.8011 213.321 78.9426 213.781 78.3234 214.489C78.3234 214.489 78.3237 214.192 78.1572 213.665C78.1112 214.437 78.2243 215.211 78.49 215.938C79.1207 217.092 79.5645 218.337 79.8049 219.627C80.271 222.921 82.7842 223.547 85.2474 222.756C87.7107 221.966 87.1279 219.512 86.2791 218.079Z" fill="#88552A"/>
<path d="M51.4941 179.278L56.637 215.74L61.7799 215.51L62.0961 179.278H51.4941Z" fill="#EB9A7D"/>
<path d="M62.4621 217.47L62.3458 218.985C61.3358 219.56 60.1815 219.84 59.0171 219.792C59.0171 219.792 57.236 219.166 56.2374 220.022C54.3566 221.669 48.2819 222.954 47.6494 220.764L62.4621 217.47Z" fill="#C98C53"/>
<path d="M62.2961 213.781C62.2961 213.781 63.0281 217.338 62.429 217.849C61.8298 218.359 57.8686 219.001 55.7715 220.006C53.6744 221.011 47.7659 222.131 47.4497 220.418C47.1335 218.705 49.6301 217.651 51.3111 217.009C52.9921 216.366 54.6399 214.061 55.5387 213.715C55.5387 213.715 56.0215 213.336 57.819 214.555C58.8676 215.23 61.2642 213.286 62.2961 213.781Z" fill="#88552A"/>
<path d="M49.63 86.49C49.63 86.49 39.0779 117.979 38.7617 190.246C38.7617 190.246 42.5065 192.7 49.9795 192.387C57.4525 192.074 71.4999 193.359 75.5609 192.387C79.6219 191.415 89.8908 191.448 93.6356 188.978C93.6356 188.978 84.6482 108.493 75.0948 86.523L49.63 86.49Z" fill="#515271"/>
<path d="M53.1753 89.8167C53.1753 89.8167 49.7465 105.561 48.7979 112.544C48.7979 112.544 53.1088 96.0585 53.1753 89.8167Z" fill="#3B3D51"/>
<path d="M65.6411 75.686H63.4275V76.526H65.6411V75.686Z" fill="#413B4A"/>
<path d="M76.0602 76.0156H63.6108C63.0409 76.0156 62.5789 76.4728 62.5789 77.0367V83.6079C62.5789 84.1719 63.0409 84.629 63.6108 84.629H76.0602C76.6301 84.629 77.0921 84.1719 77.0921 83.6079V77.0367C77.0921 76.4728 76.6301 76.0156 76.0602 76.0156Z" fill="#4E4757"/>
<path d="M75.1278 80.3635C75.1311 79.682 74.9298 79.0148 74.5496 78.4466C74.1694 77.8784 73.6274 77.4346 72.9921 77.1716C72.3568 76.9085 71.6566 76.838 70.9807 76.9689C70.3049 77.0999 69.6838 77.4265 69.1957 77.9072C68.7075 78.3879 68.3743 79.0012 68.2387 79.6693C68.1032 80.3374 68.171 81.0305 68.4338 81.6604C68.6966 82.2903 69.1426 82.8289 69.715 83.2078C70.2874 83.5868 70.9604 83.789 71.6491 83.789C72.5688 83.789 73.4511 83.4286 74.103 82.7866C74.7549 82.1447 75.1234 81.2735 75.1278 80.3635Z" fill="#D2CBD8"/>
<path d="M68.2043 76.8555H63.594V78.0413H68.2043V76.8555Z" fill="#B1A7BD"/>
<path d="M76.4097 76.6907H74.3625V77.3659H76.4097V76.6907Z" fill="#D2CBD8"/>
<path d="M71.6495 83.262C73.2673 83.262 74.5788 81.9643 74.5788 80.3634C74.5788 78.7626 73.2673 77.4648 71.6495 77.4648C70.0317 77.4648 68.7202 78.7626 68.7202 80.3634C68.7202 81.9643 70.0317 83.262 71.6495 83.262Z" fill="#B1A7BD"/>
<path d="M73.5303 80.3634C73.5336 79.9946 73.4261 79.6332 73.2215 79.325C73.0168 79.0168 72.7241 78.7756 72.3808 78.6322C72.0374 78.4888 71.6589 78.4497 71.293 78.5196C70.9271 78.5896 70.5902 78.7654 70.3255 79.025C70.0608 79.2847 69.8801 79.6161 69.8062 79.9776C69.7323 80.339 69.7684 80.7141 69.9102 81.0552C70.0521 81.3962 70.2934 81.6879 70.603 81.8931C70.9127 82.0983 71.2767 82.2079 71.6494 82.2079C72.1453 82.2079 72.6214 82.014 72.9736 81.6685C73.3259 81.3231 73.5259 80.8541 73.5303 80.3634Z" fill="#D2CBD8"/>
<path d="M63.2445 77.7941C63.2445 77.7941 53.4248 51.147 56.587 47.0132C56.587 47.0132 55.8378 46.7826 55.4716 47.7378C55.1055 48.693 55.1056 57.2734 63.1112 78.7328C63.0446 78.7328 63.3776 78.914 63.2445 77.7941Z" fill="#413B4A"/>
<path d="M22.6841 40.1619C22.6841 40.1619 17.4249 34.1836 6.58991 22.2764C6.58991 22.2764 2.67865 21.8974 2.41235 24.9936C6.23332 32.4715 11.1148 39.3706 16.9089 45.4815C17.6745 46.2061 28.1597 53.3538 30.0238 54.6055C32.6868 51.5257 33.5856 49.434 35.4497 47.6388C34.4178 46.8318 23.8991 41.1501 22.6841 40.1619Z" fill="#EB9A7D"/>
<path d="M46.1849 65.3926L45.1028 47.8858C40.9388 47.4095 36.8347 46.5156 32.8534 45.2178C30.9893 47.0129 29.5246 53.9795 29.8741 59.1509C35.5884 60.4371 41.083 62.5396 46.1849 65.3926Z" fill="#515271"/>
<path d="M45.6023 64.5693C43.3554 60.7813 40.4425 56.5159 40.4093 56.45C40.3706 56.4102 40.3491 56.3569 40.3491 56.3017C40.3491 56.2464 40.3706 56.1934 40.4093 56.1535C40.4495 56.1153 40.5034 56.094 40.5592 56.094C40.615 56.094 40.6688 56.1153 40.7091 56.1535C40.8922 56.417 43.7381 60.6002 45.9684 64.3881C45.8398 64.4346 45.717 64.4954 45.6023 64.5693Z" fill="#3B3D51"/>
<path d="M7.7048 23.3798C8.64893 21.4964 9.43912 19.5414 10.0681 17.5333C10.1513 16.3805 11.0169 12.7406 11.0835 12.2301C11.1501 11.7195 10.734 11.1432 9.88521 11.9173C9.03721 13.202 8.39157 14.607 7.97095 16.084L3.84337 11.5715L0.398438 17.5663C0.398438 17.5663 0.564548 22.507 2.14569 24.7304C4.02642 27.3819 7.7048 23.3798 7.7048 23.3798Z" fill="#EB9A7D"/>
<path d="M5.53397 4.81771L1.47794 19.9229C1.41893 20.1426 1.55114 20.3681 1.77323 20.4265L7.40314 21.9068C7.62524 21.9652 7.85312 21.8343 7.91213 21.6146L11.9682 6.5094C12.0272 6.28963 11.895 6.06414 11.6729 6.00574L6.04295 4.52551C5.82086 4.46712 5.59298 4.59794 5.53397 4.81771Z" fill="#4E4757"/>
<path d="M1.31342 19.7402C1.29823 19.7888 1.29314 19.8401 1.29839 19.8907C1.30364 19.9414 1.31945 19.9903 1.34431 20.0349C1.36916 20.0795 1.40254 20.1187 1.44305 20.1501C1.48355 20.1815 1.53029 20.2046 1.57998 20.2178C1.68146 20.243 1.78879 20.2278 1.87905 20.1754C1.9693 20.1231 2.03534 20.0377 2.06271 19.9378L6.14031 4.78617C6.16575 4.68575 6.15015 4.57934 6.09724 4.49003C6.04433 4.40072 5.95807 4.33558 5.85709 4.30849C5.75562 4.28332 5.64828 4.29856 5.55803 4.35091C5.46778 4.40327 5.40214 4.48863 5.37477 4.58854L1.31342 19.7402Z" fill="#413B4A"/>
<path d="M2.42907 19.6249C2.40326 19.7318 2.42003 19.8443 2.4758 19.9393C2.53156 20.0344 2.62194 20.1046 2.72854 20.1354L7.0727 21.2718C7.1876 21.3049 7.31045 21.2944 7.41809 21.2427C7.52572 21.191 7.61023 21.1016 7.65498 20.9918L11.5497 6.4823C11.5617 6.36576 11.5315 6.24892 11.4644 6.15239C11.3973 6.05586 11.2979 5.986 11.1836 5.95537L6.83946 4.81889C6.7859 4.80403 6.73007 4.80009 6.67489 4.80703C6.61972 4.81396 6.56615 4.83166 6.51805 4.8593C6.46995 4.88694 6.42796 4.92388 6.39452 4.96786C6.36108 5.01184 6.33692 5.06203 6.32341 5.11542L2.42907 19.6249Z" fill="#DAD3E2"/>
<path d="M1.9128 11.6044C1.94506 11.7146 1.99934 11.8173 2.0725 11.9063C2.14565 11.9954 2.23618 12.0689 2.33865 12.1226C2.44111 12.1764 2.55345 12.2094 2.669 12.2193C2.78455 12.2293 2.90081 12.2162 3.01114 12.1807L4.00991 11.8842C4.12158 11.8521 4.22567 11.7985 4.31629 11.7264C4.40692 11.6543 4.48206 11.565 4.53775 11.464C4.59343 11.363 4.62875 11.2522 4.64096 11.1377C4.65316 11.0233 4.64201 10.9075 4.60886 10.7972C4.53596 10.5752 4.37938 10.3897 4.17164 10.2793C3.96389 10.1688 3.72113 10.142 3.49386 10.2043L2.49549 10.5008C2.27303 10.5692 2.08655 10.7218 1.97741 10.9254C1.86828 11.1291 1.84519 11.3673 1.9128 11.5879V11.6044Z" fill="#EB9A7D"/>
<path d="M1.38014 13.5806C1.41059 13.6923 1.46378 13.7967 1.53617 13.8876C1.60856 13.9785 1.69884 14.0539 1.80151 14.1093C1.90417 14.1647 2.01707 14.199 2.13349 14.21C2.2499 14.2211 2.36746 14.2086 2.47887 14.1735L3.47725 13.8769C3.58891 13.8448 3.693 13.7912 3.78362 13.7191C3.87425 13.647 3.9498 13.558 4.00548 13.4569C4.06117 13.3559 4.09608 13.2449 4.10829 13.1305C4.12049 13.016 4.10974 12.9004 4.07659 12.7901C4.00369 12.5682 3.84712 12.3827 3.63937 12.2722C3.43163 12.1618 3.18846 12.1349 2.9612 12.1972L1.96282 12.4936C1.85116 12.5257 1.74707 12.5795 1.65645 12.6516C1.56582 12.7237 1.49027 12.8127 1.43458 12.9137C1.3789 13.0148 1.34398 13.1258 1.33178 13.2402C1.31958 13.3547 1.33033 13.4703 1.36348 13.5806H1.38014Z" fill="#EB9A7D"/>
<path d="M0.84735 15.5735C0.879825 15.684 0.934169 15.787 1.00704 15.8767C1.07991 15.9663 1.16988 16.0409 1.27197 16.096C1.37406 16.1511 1.48627 16.1858 1.60192 16.1979C1.71757 16.21 1.83462 16.1992 1.94609 16.1664L2.94446 15.87C3.16749 15.8014 3.35476 15.6495 3.4666 15.4466C3.57845 15.2437 3.60625 15.0057 3.54381 14.783C3.50971 14.6721 3.4536 14.569 3.37883 14.4798C3.30407 14.3906 3.21201 14.3172 3.10821 14.2635C3.00441 14.2099 2.8909 14.1772 2.7742 14.1674C2.65751 14.1576 2.54025 14.171 2.42882 14.2066L1.43004 14.5029C1.31838 14.5351 1.21429 14.5889 1.12366 14.661C1.03303 14.7331 0.957891 14.8221 0.902206 14.9231C0.84652 15.0241 0.8112 15.1352 0.798996 15.2496C0.786792 15.364 0.797946 15.4797 0.831097 15.59L0.84735 15.5735Z" fill="#EB9A7D"/>
<path d="M0.315063 17.5664C0.347538 17.6769 0.401475 17.7799 0.474347 17.8695C0.547219 17.9592 0.637596 18.0338 0.739686 18.0889C0.841776 18.144 0.953578 18.1785 1.06923 18.1906C1.18487 18.2027 1.30193 18.192 1.41339 18.1592L2.41217 17.8627C2.63646 17.7906 2.82391 17.6356 2.93554 17.4301C3.04716 17.2245 3.07412 16.9841 3.01111 16.7592C2.97864 16.6487 2.9247 16.5457 2.85183 16.456C2.77896 16.3663 2.68858 16.2918 2.58649 16.2367C2.4844 16.1816 2.3726 16.147 2.25695 16.135C2.1413 16.1229 2.02425 16.1335 1.91278 16.1663L0.914005 16.4628C0.689718 16.535 0.502267 16.6899 0.390642 16.8955C0.279017 17.1011 0.252058 17.3415 0.315063 17.5664Z" fill="#EB9A7D"/>
<path d="M82.2683 92.5834C82.1574 91.8373 81.7647 91.1605 81.1696 90.6894L76.3598 87.9884C75.096 87.7412 73.7954 87.7412 72.5316 87.9884C71.7262 88.3571 70.9478 88.7809 70.2017 89.2565C70.0186 89.3883 68.8868 90.6072 68.8535 90.6566C68.5206 90.986 68.9532 91.5293 69.569 91.3152C70.0467 91.0782 70.4938 90.7853 70.9006 90.4425C71.4439 90.0715 72.0308 89.7673 72.6483 89.5366C73.1975 89.4543 73.8464 89.4543 74.5121 89.4214C73.7982 89.5909 73.106 89.8395 72.4483 90.1624C71.2087 90.7299 70.1117 91.5623 69.2362 92.5998C68.7702 93.2257 69.8856 93.4892 70.3017 93.2422C70.7178 92.9951 70.8507 92.7811 71.3 92.4682C71.8451 92.0775 72.438 91.7564 73.0644 91.5128C73.6136 91.3481 74.5124 91.1506 75.2448 91.0024C74.5362 91.2123 73.8414 91.4653 73.1643 91.7599C72.6379 92.0374 72.1316 92.3512 71.6495 92.6988C71.1718 93.0429 70.7361 93.4408 70.3512 93.8845C69.8186 94.5433 70.9506 94.889 71.3667 94.5761C72.1323 93.9832 72.332 93.8021 72.565 93.6374C73.0434 93.3317 73.5505 93.0725 74.0794 92.8634C74.6933 92.6559 75.3307 92.5232 75.977 92.4682C75.5649 92.7436 75.1903 93.0701 74.862 93.4398C74.4114 93.881 73.9942 94.3544 73.6137 94.8561C73.1144 95.5149 72.7982 95.9925 72.7649 96.0583C72.5485 96.4536 73.3804 96.7501 73.7466 96.4866C74.1128 96.2231 74.1796 95.9431 74.4459 95.6631C74.8072 95.24 75.221 94.8639 75.6775 94.5433C76.0848 94.1981 76.5453 93.92 77.042 93.7198C77.3387 94.2539 77.6053 94.8037 77.8409 95.3668C78.8395 97.8536 82.0684 95.3668 82.0684 95.3668C82.4422 94.4859 82.5126 93.5076 82.2683 92.5834Z" fill="#EB9A7D"/>
<path d="M82.0684 95.3834C82.0684 95.3834 96.7482 86.2264 100.11 78.7988C102.856 72.6887 83.7994 57.6853 83.7994 57.6853C82.5867 59.132 81.6962 60.8156 81.1862 62.6261C80.4705 65.3764 79.9546 68.1597 79.9546 68.1597C79.9546 68.1597 89.1921 75.8013 90.224 76.5095C90.224 76.5095 89.3918 80.594 80.6206 90.7719C80.6206 90.739 79.9879 94.3129 82.0684 95.3834Z" fill="#EB9A7D"/>
<path d="M81.3194 53.7161C77.7244 55.1983 77.5082 65.1292 77.2751 68.2913C77.2751 68.2913 82.8674 72.8368 86.8619 76.1142C90.4569 74.0391 91.2723 66.2326 90.8562 62.9388C84.1155 55.9723 81.3194 53.7161 81.3194 53.7161Z" fill="#515271"/>
<path d="M129.336 40.3103C129.336 40.3103 129.653 35.0071 126.823 34.4801C123.957 34.0232 121.035 34.0232 118.169 34.4801C116.504 34.8424 115.888 39.8491 115.888 39.8491H117.952C117.952 39.8491 118.435 36.3082 119.1 35.9624C121.509 35.6771 123.946 35.7269 126.34 36.1105C126.854 37.4205 126.992 38.8452 126.74 40.2278L129.336 40.3103Z" fill="#464557"/>
<path d="M109.348 107.159C109.348 107.159 102.54 105.924 99.3614 97.4255C96.1824 88.9274 96.9314 43.2745 111.012 40.6394L109.348 107.159Z" fill="#4C7CAA"/>
<path d="M103.655 83.97C101.722 84.119 99.7798 84.119 97.8465 83.97C97.3139 83.6571 95.7495 84.9416 95.0171 85.7321C94.2848 86.5227 95.4333 99.5005 100.51 99.8134C100.51 99.8134 103.439 100.225 103.655 99.8134C103.871 99.4017 103.539 85.2546 103.655 83.97Z" fill="#63637B"/>
<path d="M103.655 83.97C102.556 84.7216 101.511 85.547 100.526 86.4404C100.376 86.7862 102.191 97.5901 102.191 98.4135C102.191 99.237 99.5108 98.8581 98.3291 98.7593C98.9026 99.3607 99.6776 99.7353 100.51 99.8134C100.51 99.8134 103.439 100.225 103.655 99.8134C103.871 99.4016 103.538 85.2546 103.655 83.97Z" fill="#464557"/>
<path d="M100.326 89.7179C98.5777 89.7059 96.832 89.5794 95.1004 89.3392C95.0682 89.3483 95.0341 89.3498 95.0012 89.3438C94.9683 89.3377 94.9373 89.3241 94.9106 89.3042C94.8839 89.2842 94.8622 89.2584 94.8472 89.2288C94.8323 89.1991 94.8245 89.1664 94.8245 89.1333C94.8245 89.1002 94.8323 89.0675 94.8472 89.0378C94.8622 89.0081 94.8839 88.9824 94.9106 88.9624C94.9373 88.9425 94.9683 88.9289 95.0012 88.9228C95.0341 88.9167 95.0682 88.9183 95.1004 88.9274C96.8915 89.1853 98.6995 89.3119 100.51 89.3062C100.538 89.3062 100.566 89.3117 100.592 89.3225C100.619 89.3332 100.642 89.349 100.662 89.3689C100.682 89.3888 100.699 89.4123 100.709 89.4383C100.72 89.4642 100.726 89.4922 100.726 89.5203C100.726 89.5727 100.705 89.623 100.667 89.66C100.63 89.6971 100.579 89.7179 100.526 89.7179H100.326Z" fill="#464557"/>
<path d="M133.913 107.159C133.913 107.159 140.721 105.924 143.9 97.4256C147.078 88.9274 146.562 43.2253 132.515 40.5737L133.913 107.159Z" fill="#05A9E1"/>
<path d="M121.364 109.168C121.364 109.168 138.091 110.37 138.673 101.608C139.256 92.8469 138.673 45.7778 136.16 43.1098C133.647 40.4417 120.731 32.7177 108.315 42.5169C104.038 45.8931 104.321 100.653 104.371 101.608C104.471 104.013 106.718 109.316 121.364 109.168Z" fill="#3D5F8E"/>
<path d="M139.605 83.97C141.539 84.119 143.481 84.119 145.414 83.97C145.946 83.6571 147.511 84.9416 148.243 85.7321C148.976 86.5227 147.827 99.5005 142.751 99.8134C142.751 99.8134 139.822 100.225 139.605 99.8134C139.389 99.4017 139.705 85.2546 139.605 83.97Z" fill="#05A9E1"/>
<path d="M139.605 83.97C140.704 84.7216 141.749 85.547 142.734 86.4404C142.884 86.7862 141.07 97.5901 141.07 98.4135C141.07 99.237 143.749 98.8581 144.931 98.7593C144.358 99.3607 143.583 99.7353 142.751 99.8134C142.751 99.8134 139.822 100.225 139.605 99.8134C139.389 99.4016 139.705 85.2546 139.605 83.97Z" fill="#464557"/>
<path d="M142.934 89.7179C144.683 89.7059 146.428 89.5794 148.16 89.3392C148.192 89.3483 148.226 89.3498 148.259 89.3438C148.292 89.3377 148.323 89.3241 148.35 89.3042C148.377 89.2842 148.398 89.2584 148.413 89.2288C148.428 89.1991 148.436 89.1664 148.436 89.1333C148.436 89.1002 148.428 89.0675 148.413 89.0378C148.398 89.0081 148.377 88.9824 148.35 88.9624C148.323 88.9425 148.292 88.9289 148.259 88.9228C148.226 88.9167 148.192 88.9183 148.16 88.9274C146.369 89.1853 144.561 89.3119 142.751 89.3062C142.693 89.3062 142.639 89.3288 142.598 89.3689C142.557 89.4091 142.535 89.4635 142.535 89.5203C142.535 89.5727 142.556 89.623 142.593 89.66C142.631 89.6971 142.681 89.7179 142.734 89.7179H142.934Z" fill="#464557"/>
<path d="M82.801 82.6691C82.0025 93.7299 82.0579 104.835 82.9672 115.888C83.7417 116.403 84.6466 116.692 85.5791 116.725C86.5117 116.757 87.4344 116.529 88.2431 116.069C88.576 106.533 91.572 92.4519 92.9867 83.6079C93.1698 82.4386 94.6512 79.0624 94.851 76.5755C90.3239 75.8344 86.7788 74.9285 83.966 74.2368C83.3863 77.0184 82.9971 79.8356 82.801 82.6691Z" fill="#574639"/>
<path d="M82.917 117.979C82.878 120.4 83.062 122.82 83.4663 125.209C83.6657 126.882 84.1554 128.509 84.9141 130.018C85.5965 131.121 86.1124 132.143 87.394 132.439C88.3469 132.795 89.3549 132.984 90.3733 132.999C90.4436 132.79 90.4426 132.564 90.3704 132.356C90.2982 132.147 90.1589 131.968 89.9738 131.846C89.3081 131.27 87.3608 130.495 87.1278 129.573C86.8948 128.651 86.6952 123.891 87.2445 124.072C87.7937 124.254 89.042 128.849 90.2404 128.569C90.2404 128.569 90.5564 128.569 90.4732 127.268C90.274 124.798 89.7827 122.361 89.0088 120.005C88.6728 118.709 88.4168 117.395 88.2428 116.068C88.2428 116.068 84.9142 113.631 82.9669 115.887C82.9669 115.887 82.917 116.563 82.917 117.979Z" fill="#574639"/>
<path d="M93.6689 44.4438C93.6689 44.4438 89.841 45.9425 86.3126 53.6831C83.633 59.5296 78.6234 73.7755 76.9258 78.3869C76.9258 78.3869 83.1502 81.9279 87.4109 81.9938C89.899 82.0189 92.3709 82.3959 94.751 83.1136L96.8648 72.6227C96.8648 72.6227 99.2445 53.4196 93.6689 44.4438Z" fill="#E8E8EF"/>
<path d="M126.923 200.984L127.655 208.56L133.447 208.263L133.297 200.753L126.923 200.984Z" fill="#574639"/>
<path d="M103.073 201.066L103.156 209.186H109.231L109.364 201.066H103.073Z" fill="#574639"/>
<path d="M124.376 202.944C123.744 196.356 115.339 129.952 114.59 121.635C114.59 121.635 112.676 168.046 111.644 202.944H100.493C99.3277 179.195 93.1364 114.554 94.368 95.2681H134.912C134.912 95.2681 134.912 177.186 135.012 202.944H124.376Z" fill="#2F3B4D"/>
<path d="M132.415 107.62C132.468 107.62 132.519 107.599 132.557 107.562C132.594 107.525 132.615 107.475 132.615 107.422C132.617 107.396 132.615 107.37 132.607 107.345C132.599 107.32 132.585 107.297 132.568 107.278C132.551 107.258 132.531 107.241 132.507 107.229C132.484 107.217 132.458 107.21 132.432 107.208C130.723 107.208 129.046 106.748 127.58 105.877C126.114 105.007 124.915 103.759 124.11 102.267C123.348 100.869 122.873 99.3355 122.712 97.7548C122.699 97.7101 122.672 97.6707 122.634 97.6426C122.597 97.6146 122.551 97.5996 122.504 97.5996C122.457 97.5996 122.411 97.6146 122.374 97.6426C122.336 97.6707 122.309 97.7101 122.296 97.7548C122.296 97.8536 122.945 106.994 132.282 107.636L132.415 107.62Z" fill="#424257"/>
<path d="M134.379 138.318C134.496 138.318 134.579 138.319 134.579 138.154L133.481 106.105C133.481 106.077 133.475 106.05 133.464 106.025C133.453 106 133.437 105.977 133.416 105.959C133.396 105.94 133.372 105.926 133.346 105.917C133.319 105.908 133.292 105.905 133.264 105.907C133.211 105.914 133.162 105.94 133.126 105.979C133.089 106.018 133.068 106.068 133.064 106.121L134.163 138.17C134.196 138.319 134.28 138.318 134.379 138.318Z" fill="#424257"/>
<path d="M114.606 120.828C114.658 120.82 114.705 120.794 114.738 120.755C114.772 120.716 114.79 120.666 114.79 120.614C113.992 112.531 113.708 104.407 113.941 96.2891C113.937 96.2361 113.916 96.1859 113.879 96.1469C113.843 96.1079 113.794 96.0824 113.741 96.075C113.686 96.0748 113.633 96.0952 113.593 96.1318C113.553 96.1685 113.529 96.2187 113.525 96.2726C113.292 104.407 113.576 112.548 114.374 120.647C114.372 120.676 114.378 120.704 114.39 120.73C114.402 120.756 114.421 120.779 114.443 120.796C114.466 120.814 114.493 120.826 114.521 120.832C114.549 120.837 114.579 120.836 114.606 120.828Z" fill="#424257"/>
<path d="M113.675 113.845C113.724 113.844 113.771 113.827 113.81 113.798C113.849 113.768 113.877 113.727 113.891 113.681C113.901 113.626 113.889 113.57 113.858 113.524C113.827 113.478 113.779 113.446 113.725 113.434C110.396 112.758 110.396 108.493 110.396 108.493C110.18 105.397 110.396 96.8656 110.396 96.7833C110.405 96.7514 110.407 96.7177 110.401 96.6852C110.395 96.6526 110.381 96.6219 110.361 96.5955C110.34 96.569 110.315 96.5475 110.285 96.5328C110.255 96.518 110.221 96.5103 110.188 96.5103C110.154 96.5103 110.122 96.518 110.092 96.5328C110.062 96.5475 110.035 96.569 110.015 96.5955C109.995 96.6219 109.982 96.6526 109.975 96.6852C109.969 96.7177 109.971 96.7514 109.98 96.7833C109.98 96.7833 109.78 105.43 109.98 108.526C109.98 108.526 109.98 113.137 113.658 113.878L113.675 113.845Z" fill="#424257"/>
<path d="M124.876 200.901H134.446C134.545 200.901 134.646 200.902 134.646 200.737C134.646 200.712 134.64 200.687 134.63 200.663C134.62 200.64 134.605 200.62 134.586 200.603C134.567 200.585 134.545 200.572 134.521 200.564C134.497 200.556 134.471 200.553 134.446 200.556H124.876C124.85 200.553 124.825 200.556 124.8 200.564C124.776 200.572 124.754 200.585 124.735 200.603C124.717 200.62 124.702 200.64 124.691 200.663C124.681 200.687 124.676 200.712 124.676 200.737C124.676 200.902 124.759 200.901 124.876 200.901Z" fill="#8D2926"/>
<path d="M100.909 200.901H110.895C111.012 200.901 111.111 200.902 111.111 200.737C111.109 200.711 111.102 200.685 111.09 200.662C111.078 200.639 111.062 200.619 111.041 200.602C111.021 200.585 110.998 200.572 110.973 200.564C110.948 200.556 110.921 200.553 110.895 200.556H100.909C100.883 200.553 100.857 200.556 100.831 200.564C100.806 200.572 100.783 200.585 100.763 200.602C100.743 200.619 100.726 200.639 100.714 200.662C100.702 200.685 100.695 200.711 100.693 200.737C100.759 200.902 100.909 200.901 100.909 200.901Z" fill="#8D2926"/>
<path d="M108.082 21.6012C108.082 21.6012 108.449 34.7765 108.082 36.1105C107.716 37.4445 105.353 39.1079 100.643 41.463C102.327 43.3449 104.41 44.8359 106.743 45.8294C109.076 46.823 111.602 47.2948 114.141 47.211C122.978 47.0298 125.525 43.4065 126.923 41.4138C126.923 41.4138 119.933 38.7292 119.733 36.3741C119.483 33.5249 119.733 21.5518 119.733 21.5518L108.082 21.6012Z" fill="#574639"/>
<path d="M117.403 21.6011H108.083C108.083 21.6011 108.332 30.7251 108.215 34.6448C111.245 34.6777 117.136 32.9154 117.403 21.6011Z" fill="#3E312A"/>
<path d="M122.23 17.3849C122.083 20.0875 121.332 22.7244 120.031 25.1052C118.73 27.4861 116.912 29.5518 114.707 31.1533C112.993 32.2391 110.951 32.6991 108.931 32.4543C103.273 32.1908 102.274 25.702 102.107 17.3356C101.974 5.11545 105.336 4.57188 112.327 4.90127C120.099 5.28006 122.779 9.10085 122.23 17.3849Z" fill="#574639"/>
<path d="M104.238 18.7849C104.24 18.8693 104.225 18.9532 104.195 19.032C104.164 19.1108 104.118 19.1827 104.059 19.2439C104.001 19.3051 103.93 19.3542 103.853 19.3884C103.775 19.4227 103.691 19.4414 103.605 19.4435C103.435 19.4189 103.28 19.3296 103.174 19.1944C103.069 19.0592 103.02 18.8888 103.039 18.719C103.037 18.6354 103.052 18.5524 103.083 18.4745C103.113 18.3967 103.16 18.3257 103.219 18.2658C103.278 18.206 103.348 18.1584 103.426 18.1259C103.504 18.0934 103.587 18.0766 103.672 18.0767C103.841 18.0973 103.996 18.1831 104.102 18.3157C104.208 18.4483 104.257 18.617 104.238 18.7849Z" fill="#23252C"/>
<path d="M112.726 19.1801C112.704 19.2911 112.65 19.3936 112.571 19.4752C112.491 19.5569 112.39 19.6142 112.279 19.6407C112.168 19.6672 112.051 19.6618 111.943 19.6248C111.835 19.5878 111.739 19.5208 111.668 19.432C111.597 19.3432 111.553 19.2363 111.542 19.1236C111.531 19.0109 111.552 18.8973 111.604 18.7963C111.656 18.6953 111.736 18.6112 111.834 18.5536C111.933 18.4961 112.046 18.4677 112.16 18.4718C112.33 18.4925 112.484 18.5785 112.59 18.7111C112.696 18.8436 112.745 19.0121 112.726 19.1801Z" fill="#23252C"/>
<path d="M106.951 24.6807C106.737 24.6983 106.524 24.6548 106.335 24.5555C106.146 24.4562 105.99 24.3054 105.886 24.1208C105.353 22.9515 106.551 21.1563 106.668 20.9257C106.784 20.6951 106.851 20.6952 107.017 20.7611C107.184 20.8269 107.017 21.0575 107.017 21.2058C106.583 22.0133 106.453 22.9473 106.651 23.8408C106.69 23.908 106.746 23.9643 106.813 24.0046C106.88 24.0449 106.956 24.0679 107.034 24.0714C107.115 24.0836 107.188 24.1265 107.238 24.191C107.287 24.2555 107.31 24.3366 107.3 24.4172C107.288 24.4974 107.245 24.5697 107.179 24.6188C107.114 24.668 107.032 24.6902 106.951 24.6807Z" fill="#3E312A"/>
<path d="M101.891 16.4463C101.855 16.4451 101.819 16.4355 101.788 16.4184C101.756 16.4012 101.729 16.3768 101.708 16.3474C101.651 16.2773 101.62 16.1903 101.62 16.1005C101.62 16.0107 101.651 15.9236 101.708 15.8535C101.861 15.5799 102.076 15.3452 102.336 15.1675C102.596 14.9899 102.894 14.874 103.206 14.8294C103.519 14.7847 103.838 14.8123 104.139 14.91C104.439 15.0076 104.712 15.1727 104.937 15.3923C105.005 15.4494 105.052 15.5274 105.07 15.614C105.088 15.7006 105.076 15.7908 105.037 15.8699C105.025 15.9093 105.004 15.9454 104.976 15.9755C104.948 16.0055 104.913 16.0286 104.874 16.043C104.836 16.0574 104.794 16.0626 104.753 16.0583C104.712 16.054 104.672 16.0402 104.637 16.0181C104.256 15.7415 103.782 15.6214 103.314 15.6828C102.845 15.7442 102.419 15.9822 102.124 16.3474C102.063 16.4095 101.979 16.4451 101.891 16.4463Z" fill="#3E312A"/>
<path d="M114.889 17.1215C114.98 17.1241 115.068 17.0948 115.139 17.0391C115.202 16.972 115.237 16.8837 115.237 16.792C115.237 16.7003 115.202 16.6122 115.139 16.5451C114.937 16.2386 114.676 15.9746 114.37 15.7687C114.065 15.5628 113.721 15.419 113.359 15.3455C112.996 15.272 112.623 15.2703 112.26 15.3405C111.897 15.4107 111.552 15.5513 111.244 15.7544C111.202 15.7739 111.164 15.8015 111.132 15.8356C111.1 15.8698 111.075 15.9099 111.059 15.9534C111.042 15.997 111.035 16.0433 111.037 16.0898C111.039 16.1362 111.05 16.1817 111.07 16.2238C111.089 16.266 111.117 16.3039 111.152 16.3354C111.186 16.3669 111.227 16.3915 111.271 16.4076C111.315 16.4237 111.362 16.431 111.409 16.4291C111.455 16.4273 111.501 16.4162 111.544 16.3967C112.045 16.1536 112.613 16.0799 113.16 16.1871C113.707 16.2942 114.204 16.5761 114.573 16.9896C114.61 17.0366 114.658 17.0735 114.714 17.0966C114.769 17.1196 114.83 17.1283 114.889 17.1215Z" fill="#3E312A"/>
<path d="M119.583 25.8666L118.684 20.5801L116.904 17.7144L116.421 15.277C116.421 15.277 114.19 14.47 113.724 13.4325C113.258 12.3949 112.826 11.1762 111.461 10.7645C110.096 10.3527 110.379 6.77885 107.933 6.59769C107.933 6.59769 105.935 6.71291 105.203 9.41387C104.72 11.1925 103.938 12.1807 102.341 12.0654L102.141 14.6512C102.141 14.6512 100.476 15.4252 99.6774 14.6512C98.2627 13.0042 97.5969 12.8066 97.5969 12.8066C97.7134 10.0069 99.644 11.1596 99.1613 9.00214C98.9949 8.27749 100.093 7.07533 101.242 6.63066C102.39 6.18599 101.858 4.48955 103.422 4.45661C104.987 4.42367 104.388 0.998056 107.217 2.38147C108.965 3.23787 109.614 -2.55932 113.408 1.73915C113.408 1.73915 119.15 -0.582942 120.066 2.0192C121.414 5.60949 123.394 2.11812 124.193 6.03779C124.726 8.80462 127.838 6.71292 126.973 10.8632C126.673 12.3125 128.837 10.962 129.336 14.157C129.336 14.157 128.737 17.1874 126.274 16.8745C124.468 20.1593 122.217 23.1846 119.583 25.8666Z" fill="#3E312A"/>
<path d="M117.835 18.1919C118.053 17.7568 118.414 17.4084 118.859 17.2046C119.304 17.0009 119.806 16.954 120.282 17.072C122.096 17.319 121.946 21.6998 120.282 22.3915C118.618 23.0832 117.586 20.9752 117.586 20.9752L117.835 18.1919Z" fill="#574639"/>
<path d="M106.335 25.9326C107.41 26.3203 108.589 26.3203 109.664 25.9326C109.664 25.9326 110.08 25.7349 110.213 25.9326C110.346 26.1302 110.113 27.5795 108.215 27.5795C106.318 27.5795 105.985 26.6243 105.985 26.3443C105.902 26.3278 105.902 25.7843 106.335 25.9326Z" fill="white"/>
<path d="M103.256 39.7009C103.256 39.7009 102.041 46.371 112.743 46.371C115.027 46.3628 117.265 45.737 119.215 44.5615C121.166 43.3859 122.755 41.7051 123.811 39.7009C123.811 39.7009 134.279 43.4394 135.761 44.1475C135.761 44.1475 132.981 67.7151 133.264 72.2606C133.547 76.8061 134.779 97.9856 136.01 109.547C133.114 108.049 130.068 106.851 126.923 105.973C123.394 105.1 115.755 108.427 113.475 108.872C106.85 109.689 100.158 109.838 93.5026 109.316C93.5026 109.316 91.0558 106.171 91.2222 104.474C91.5946 101.55 92.1505 98.6514 92.8866 95.7952C93.3027 93.9342 92.7704 53.535 93.6192 44.3946C96.7316 42.6368 99.9495 41.0693 103.256 39.7009Z" fill="#E8E8EF"/>
<path d="M93.5693 50.801C93.4694 56.3018 93.4861 63.9765 93.5693 71.4535L93.1532 71.6182C93.1532 64.0423 93.07 56.3512 93.1532 50.8175L93.5693 50.801Z" fill="#D4D4DD"/>
<path d="M95.2168 106.665C104.27 104.528 112.773 100.545 120.182 94.9717C123.289 92.6876 126.125 90.0633 128.637 87.1488C128.672 87.1072 128.692 87.0546 128.692 87.0004C128.692 86.9462 128.672 86.8938 128.637 86.8522C128.597 86.814 128.543 86.7927 128.487 86.7927C128.432 86.7927 128.378 86.814 128.337 86.8522C125.858 89.7312 123.068 92.3323 120.016 94.6092C112.625 100.118 104.157 104.044 95.1501 106.138C95.1235 106.143 95.0984 106.154 95.0762 106.17C95.054 106.186 95.0354 106.206 95.0213 106.229C95.0073 106.252 94.9981 106.278 94.9945 106.305C94.9909 106.332 94.9928 106.359 95.0002 106.385C94.9894 106.418 94.987 106.453 94.9929 106.487C94.9988 106.521 95.0131 106.553 95.0343 106.581C95.0556 106.608 95.083 106.63 95.1148 106.645C95.1466 106.66 95.1818 106.666 95.2168 106.665Z" fill="#D4D4DD"/>
<path d="M95.7827 105.38H95.916C100.476 102.237 104.688 98.6269 108.482 94.6093C108.501 94.5877 108.515 94.5627 108.523 94.5357C108.532 94.5087 108.536 94.4802 108.533 94.4519C108.531 94.4236 108.523 94.3961 108.51 94.3709C108.497 94.3456 108.479 94.3231 108.457 94.3047C108.435 94.2863 108.41 94.2724 108.382 94.2637C108.355 94.255 108.327 94.2516 108.298 94.2539C108.269 94.2562 108.241 94.264 108.216 94.277C108.19 94.2899 108.168 94.3078 108.149 94.3295C104.396 98.3332 100.21 101.917 95.6665 105.018C95.6278 105.058 95.606 105.111 95.606 105.166C95.606 105.221 95.6278 105.274 95.6665 105.314C95.6955 105.35 95.7369 105.374 95.7827 105.38Z" fill="#D4D4DD"/>
<path d="M126.457 72.2441C126.457 72.2441 125.924 66.1835 126.041 64.2731C126.157 62.3627 126.24 57.5205 126.24 57.5205C126.24 57.5205 115.489 57.0925 111.911 57.0925C108.332 57.0925 99.0947 58.097 97.1142 57.9982C97.1142 57.9982 96.9645 68.9009 97.6968 72.2441C101.705 72.4626 105.722 72.4626 109.73 72.2441C115.139 71.7995 126.457 72.2441 126.457 72.2441Z" fill="#D5D6E0"/>
<path d="M132.282 70.9263C132.309 70.919 132.334 70.9061 132.356 70.8885C132.378 70.8709 132.396 70.8491 132.408 70.8242C132.421 70.7993 132.428 70.7719 132.429 70.7442C132.43 70.7164 132.425 70.6888 132.415 70.6629C130.956 65.9618 129.844 61.162 129.086 56.3016C129.096 56.2698 129.097 56.2363 129.091 56.2037C129.085 56.1711 129.071 56.1405 129.051 56.114C129.031 56.0876 129.005 56.0661 128.975 56.0513C128.945 56.0365 128.912 56.0288 128.878 56.0288C128.845 56.0288 128.812 56.0365 128.782 56.0513C128.752 56.0661 128.726 56.0876 128.706 56.114C128.685 56.1405 128.672 56.1711 128.666 56.2037C128.66 56.2363 128.661 56.2698 128.67 56.3016C129.415 61.1861 130.527 66.0085 131.999 70.7287C132 70.7619 132.009 70.7945 132.025 70.8238C132.041 70.8531 132.063 70.8784 132.09 70.8976C132.118 70.9167 132.15 70.9294 132.183 70.9344C132.216 70.9393 132.25 70.9366 132.282 70.9263Z" fill="#D4D4DD"/>
<path d="M104.388 219.149C101.607 219.989 98.7451 220.541 95.8492 220.796C94.913 220.912 93.9627 220.764 93.1085 220.367C92.2543 219.971 91.5312 219.343 91.0228 218.556C90.6611 217.714 90.5736 216.782 90.7729 215.888L110.895 212.43C110.895 212.43 111.278 212.562 111.278 212.71C111.278 212.858 111.178 215.921 111.145 216.317L106.701 218.227" fill="white"/>
<path d="M110.046 205.842C110.046 205.842 110.978 206.913 110.895 212.43C110.895 212.43 109.93 213.632 100.293 217.009C98.6955 217.666 97.0162 218.109 95.2998 218.326C93.9351 218.326 91.8216 218.095 91.0227 216.893C89.9243 215.246 91.9049 214.258 95.2836 211.804C97.5427 210.123 99.5486 208.132 101.242 205.892C101.524 205.658 101.858 205.494 102.217 205.414C102.576 205.334 102.949 205.34 103.306 205.431C104.82 205.612 106.035 206.271 105.835 207.374C106.267 207.497 106.661 207.724 106.984 208.033C107.333 208.477 109.031 207.703 109.097 206.534C109.231 205.842 109.747 205.266 110.046 205.842Z" fill="#05A9E1"/>
<path d="M97.5802 215.148C100.69 212.795 103.674 210.283 106.518 207.621C106.328 207.518 106.127 207.435 105.919 207.374C106.118 206.271 104.903 205.612 103.389 205.431C103.033 205.34 102.66 205.334 102.301 205.414C101.942 205.494 101.607 205.658 101.325 205.892C99.6319 208.132 97.6256 210.123 95.3665 211.804L93.7021 213.039C94.1626 213.641 94.7459 214.139 95.414 214.502C96.0822 214.866 96.8205 215.085 97.5802 215.148Z" fill="#05A9E1"/>
<path d="M97.214 214.769C100.231 212.46 103.12 209.991 105.869 207.374C106.068 206.271 104.853 205.612 103.339 205.431C102.982 205.34 102.61 205.334 102.251 205.414C101.892 205.494 101.557 205.658 101.275 205.892C99.7313 208.215 97.8274 210.282 95.633 212.018L94.2681 212.973C94.6842 214.159 97.214 214.769 97.214 214.769Z" fill="#05A9E1"/>
<path d="M97.4637 214.867C97.4097 214.87 97.3564 214.856 97.3113 214.826C97.2663 214.797 97.2322 214.753 97.2142 214.703C96.8025 213.732 96.3125 212.796 95.7494 211.903C95.7289 211.862 95.7185 211.817 95.7185 211.771C95.7185 211.725 95.7289 211.68 95.7494 211.639C95.7715 211.601 95.803 211.569 95.8408 211.546C95.8786 211.523 95.9217 211.51 95.966 211.508C97.4515 211.42 98.9408 211.42 100.426 211.508C100.032 210.551 99.565 209.627 99.0285 208.741C99.0081 208.703 98.9972 208.66 98.9972 208.617C98.9972 208.574 99.0081 208.532 99.0285 208.494C99.0471 208.452 99.0769 208.415 99.1151 208.389C99.1533 208.363 99.1983 208.348 99.2447 208.346C100.948 208.205 102.663 208.304 104.338 208.642C104.402 208.658 104.459 208.697 104.496 208.752C104.533 208.807 104.548 208.873 104.537 208.938C104.533 208.973 104.522 209.006 104.505 209.035C104.487 209.065 104.463 209.091 104.435 209.111C104.407 209.131 104.375 209.145 104.341 209.153C104.307 209.16 104.272 209.16 104.238 209.153C102.746 208.872 101.228 208.761 99.7108 208.823C100.245 209.748 100.707 210.711 101.092 211.705C101.113 211.746 101.123 211.791 101.123 211.837C101.123 211.883 101.113 211.928 101.092 211.969C101.063 212.001 101.027 212.027 100.987 212.044C100.946 212.061 100.903 212.069 100.859 212.068C99.402 211.962 97.9391 211.962 96.482 212.068C96.9838 212.868 97.4127 213.712 97.7636 214.588C97.7857 214.651 97.7825 214.72 97.7547 214.782C97.7268 214.843 97.6763 214.891 97.6137 214.917L97.4637 214.867Z" fill="white"/>
<path d="M99.2446 213.253C96.7314 213.253 94.3848 213.138 94.3681 213.138C94.2975 213.138 94.2295 213.11 94.1796 213.061C94.1296 213.012 94.1016 212.945 94.1016 212.875C94.1058 212.808 94.1358 212.745 94.1853 212.699C94.2348 212.653 94.3003 212.627 94.3681 212.628C94.3681 212.628 96.4984 212.628 98.8452 212.726C98.491 211.89 98.0444 211.094 97.5136 210.355C97.4899 210.318 97.4774 210.275 97.4774 210.231C97.4774 210.188 97.4899 210.145 97.5136 210.108C97.5257 210.062 97.5509 210.02 97.5863 209.988C97.6217 209.956 97.6661 209.935 97.7135 209.927C99.1952 209.754 100.692 209.754 102.174 209.927C101.539 209.026 100.832 208.178 100.06 207.39C100.017 207.341 99.9952 207.277 99.9971 207.212C99.9991 207.147 100.025 207.085 100.071 207.038C100.116 206.991 100.178 206.962 100.243 206.957C100.309 206.952 100.374 206.972 100.426 207.012C101.347 207.971 102.182 209.007 102.923 210.108C102.951 210.149 102.967 210.198 102.967 210.248C102.967 210.298 102.951 210.347 102.923 210.388C102.895 210.428 102.858 210.462 102.815 210.485C102.771 210.508 102.723 210.52 102.673 210.519C101.202 210.312 99.7115 210.263 98.2291 210.371C98.7169 211.177 99.1506 212.013 99.5274 212.875C99.5478 212.913 99.5587 212.955 99.5587 212.998C99.5587 213.041 99.5478 213.084 99.5274 213.122C99.5181 213.149 99.5033 213.174 99.4839 213.196C99.4645 213.218 99.4409 213.235 99.4144 213.247C99.388 213.26 99.3595 213.267 99.3303 213.268C99.3011 213.269 99.2719 213.264 99.2446 213.253Z" fill="white"/>
<path d="M130.502 205.398C130.502 205.398 133.215 205.299 133.83 207.308C133.83 207.308 134.996 207.424 135.229 208.099C135.69 212.168 135.74 216.273 135.378 220.352C134.712 223.646 133.181 223.794 130.668 223.794C127.639 223.794 125.924 223.25 125.675 220.286C125.442 216.268 125.941 208.593 125.941 208.593C125.988 208.305 126.111 208.034 126.298 207.808C126.485 207.582 126.73 207.41 127.006 207.308C127.223 207.242 127.223 205.595 130.502 205.398Z" fill="#05A9E1"/>
<path d="M127.539 216.811L126.49 207.671C126.653 207.529 126.831 207.408 127.023 207.308C127.156 207.308 127.156 205.661 130.435 205.398C130.435 205.398 133.148 205.299 133.764 207.308C133.961 207.336 134.156 207.38 134.346 207.44L133.764 216.811C131.703 217.148 129.6 217.148 127.539 216.811Z" fill="#05A9E1"/>
<path d="M127.988 216.218L127.089 207.308C127.223 207.308 127.223 205.661 130.501 205.398C130.501 205.398 133.214 205.299 133.83 207.308L133.381 216.185C131.588 216.364 129.783 216.375 127.988 216.218Z" fill="#05A9E1"/>
<path d="M133.381 216.449C133.438 216.449 133.495 216.432 133.542 216.399C133.59 216.367 133.626 216.321 133.647 216.267C133.657 216.234 133.66 216.199 133.656 216.164C133.653 216.129 133.642 216.095 133.625 216.065C133.608 216.034 133.585 216.007 133.557 215.985C133.53 215.964 133.498 215.948 133.464 215.938L128.604 214.406L133.597 212.43C133.646 212.406 133.688 212.368 133.718 212.322C133.747 212.275 133.763 212.221 133.763 212.167C133.759 212.11 133.738 212.057 133.702 212.013C133.666 211.968 133.618 211.936 133.564 211.92L128.371 210.569L133.83 208.922C133.896 208.9 133.952 208.853 133.986 208.793C134.019 208.732 134.029 208.66 134.013 208.593C134.004 208.557 133.987 208.524 133.964 208.495C133.941 208.466 133.912 208.443 133.879 208.426C133.846 208.409 133.81 208.398 133.773 208.396C133.736 208.394 133.698 208.399 133.663 208.412L127.323 210.421C127.267 210.439 127.219 210.474 127.186 210.522C127.152 210.57 127.136 210.627 127.139 210.684C127.141 210.741 127.161 210.796 127.197 210.841C127.233 210.885 127.283 210.917 127.339 210.931L132.632 212.315L127.639 214.275C127.588 214.293 127.544 214.327 127.513 214.371C127.482 214.415 127.465 214.468 127.465 214.522C127.465 214.576 127.482 214.628 127.513 214.672C127.544 214.716 127.588 214.75 127.639 214.769L133.214 216.514L133.381 216.449Z" fill="white"/>
<path d="M127.988 216.482H128.088L133.597 214.341C133.646 214.316 133.688 214.279 133.718 214.232C133.747 214.186 133.763 214.132 133.763 214.077C133.759 214.021 133.738 213.967 133.702 213.923C133.666 213.879 133.618 213.846 133.564 213.83L128.471 212.48L133.613 210.454C133.664 210.431 133.707 210.394 133.737 210.347C133.767 210.3 133.782 210.246 133.78 210.19C133.772 210.133 133.748 210.079 133.709 210.035C133.671 209.991 133.62 209.959 133.564 209.943L127.306 208.56C127.235 208.545 127.161 208.557 127.099 208.593C127.038 208.63 126.992 208.689 126.973 208.758C126.965 208.792 126.966 208.828 126.973 208.863C126.98 208.897 126.993 208.93 127.014 208.959C127.034 208.989 127.06 209.014 127.09 209.033C127.12 209.052 127.154 209.064 127.189 209.07L132.598 210.273L127.505 212.266C127.456 212.29 127.414 212.327 127.385 212.374C127.355 212.42 127.339 212.474 127.339 212.529C127.343 212.585 127.364 212.639 127.4 212.683C127.436 212.727 127.484 212.76 127.539 212.776L132.632 214.143L127.888 215.988C127.854 215.998 127.822 216.016 127.795 216.04C127.768 216.064 127.747 216.093 127.732 216.126C127.718 216.159 127.712 216.195 127.713 216.23C127.714 216.266 127.722 216.301 127.739 216.333C127.759 216.381 127.794 216.421 127.839 216.447C127.884 216.474 127.936 216.486 127.988 216.482Z" fill="white"/>
<path d="M135.112 221.373C134.346 223.695 132.898 223.794 130.668 223.794C127.871 223.794 126.207 223.333 125.824 220.928C127.289 221.777 128.972 222.183 130.668 222.097C132.184 222.17 133.699 221.923 135.112 221.373Z" fill="white"/>
<path d="M131.566 42.5995C131.566 42.5995 131.566 41.6442 130.251 41.1337C128.936 40.6232 125.258 38.9105 124.476 40.0139C121.621 49.0083 121.179 58.5831 123.194 67.7975C125.384 68.6068 127.796 68.6068 129.985 67.7975C129.985 67.7975 128.287 50.373 131.566 42.5995Z" fill="#05A9E1"/>
<path d="M129.619 40.87C129.619 40.87 121.147 66.5291 138.24 99.7969V102.63C132.129 93.4808 127.966 83.1953 126.006 72.4011C124.045 61.607 124.329 50.5308 126.84 39.8489L129.619 40.87Z" fill="#464557"/>
<path d="M93.8521 44.1638C93.9176 43.8148 94.0625 43.4851 94.2759 43.1998C94.4893 42.9144 94.7655 42.6809 95.0837 42.5168C96.1156 42.0063 99.0116 40.3431 99.2612 41.2324C101.43 50.3231 101.764 59.7479 100.243 68.9665C99.4506 69.3605 98.5754 69.5656 97.6883 69.5656C96.8011 69.5656 95.9264 69.3605 95.1336 68.9665C95.1336 68.9665 96.2987 51.9372 93.8521 44.1638Z" fill="#05A9E1"/>
<path d="M95.3664 42.4348C95.3664 42.4348 99.6606 67.7644 93.0864 88.2521L93.2859 92.0071C93.2859 92.0071 102.507 74.0392 97.5135 41.3972L95.3664 42.4348Z" fill="#464557"/>
<path d="M155.017 64.3882C148.892 66.5457 146.945 69.5924 146.512 72.1451C146.945 72.5898 149.841 75.439 149.841 75.6366C149.674 76.3283 137.558 93.1434 137.558 93.1434C137.591 94.0669 137.816 94.9739 138.22 95.8072C138.624 96.6404 139.197 97.382 139.905 97.9855C139.905 97.9855 160.709 80.0505 161.941 75.3897C162.989 71.2559 157.381 67.2868 155.017 64.3882Z" fill="#574639"/>
<path d="M158.246 64.8164C154.718 60.485 146.779 52.9914 146.779 52.9914C143.631 49.4551 139.907 46.4657 135.761 44.1475C131.15 53.2385 133.181 69.2468 133.181 69.2468C133.181 69.2468 143.816 76.0484 146.912 78.8153C151.523 74.874 155.365 70.1292 158.246 64.8164Z" fill="#E8E8EF"/>
<path d="M132.915 68.2419C132.798 68.2419 132.715 68.0444 132.715 67.9291L133.214 57.6523C133.214 57.6242 133.22 57.5963 133.231 57.5703C133.242 57.5443 133.257 57.5208 133.277 57.501C133.298 57.4811 133.322 57.4653 133.348 57.4545C133.374 57.4438 133.402 57.4382 133.431 57.4382C133.484 57.4382 133.534 57.4591 133.572 57.4961C133.609 57.5332 133.63 57.5834 133.63 57.6359L133.131 67.9621C133.115 68.0774 133.014 68.2419 132.915 68.2419Z" fill="#D4D4DD"/>
<path d="M139.871 95.4987C139.122 93.8518 138.207 93.6212 138.207 93.6541L132.848 90.3603C131.424 90.0246 129.948 89.9743 128.504 90.2121C127.564 90.5892 126.657 91.0408 125.791 91.5625C125.591 91.6778 124.243 93.0283 124.127 93.0777C123.744 93.4565 124.21 94.0823 124.925 93.8682C125.471 93.6057 125.99 93.2912 126.474 92.9294C127.109 92.5304 127.79 92.2096 128.504 91.9742C129.208 91.9389 129.914 91.9389 130.618 91.9742C129.801 92.1496 129.004 92.4033 128.238 92.7318C126.811 93.347 125.53 94.2503 124.476 95.3835C123.927 96.0587 125.192 96.4045 125.658 96.141C126.124 95.8775 126.324 95.6634 126.84 95.3175C127.476 94.8932 128.164 94.5501 128.887 94.2965C129.503 94.1482 130.551 93.9505 131.383 93.8023C130.568 94.0136 129.767 94.2777 128.987 94.5928C128.375 94.8792 127.785 95.2096 127.222 95.5811C126.666 95.9587 126.152 96.3948 125.691 96.882C125.059 97.6067 126.34 98.0514 126.823 97.7055L128.221 96.7009C128.781 96.3713 129.372 96.0955 129.985 95.8774C130.686 95.6586 131.414 95.5367 132.149 95.5152C131.671 95.808 131.234 96.1625 130.851 96.5692C130.318 97.0828 129.823 97.6331 129.37 98.2161C128.77 98.9408 128.404 99.4677 128.354 99.55C128.088 99.9782 129.02 100.357 129.452 100.061C129.885 99.7642 129.968 99.4677 130.268 99.1548C130.704 98.6975 131.19 98.2888 131.716 97.9361C132.224 97.5652 132.785 97.271 133.381 97.0632C133.697 97.7055 133.98 98.3478 134.213 98.9572C135.245 101.839 139.855 98.1832 139.855 98.1832C140.1 97.7782 140.232 97.3155 140.235 96.8432C140.238 96.371 140.112 95.9066 139.871 95.4987Z" fill="#574639"/>
</g>
<defs>
<clipPath id="clip0_1_1786">
<rect width="161.776" height="223.702" fill="white" transform="translate(0.265137 0.0922852)"/>
</clipPath>
</defs>
</svg>
