<svg width="63" height="91" viewBox="0 0 63 91" fill="none" xmlns="http://www.w3.org/2000/svg">
<g clip-path="url(#clip0_1_2175)">
<path d="M52.7319 90.2657H6.21634C4.87528 90.2631 3.59008 89.7356 2.64274 88.7989C1.69541 87.8622 1.16334 86.5928 1.16335 85.2694V34.3601C1.1588 31.6715 2.15773 29.0755 3.96945 27.0676L7.60443 23.0272C8.17127 22.397 8.48398 21.5835 8.48322 20.7409V4.32294C8.51435 3.49599 8.87061 2.71351 9.47647 2.14138C10.0823 1.56925 10.8902 1.25244 11.7287 1.25813H47.1896C48.0271 1.25252 48.8339 1.56964 49.4381 2.14203C50.0424 2.71441 50.3965 3.49686 50.4251 4.32294V20.7409C50.428 21.5846 50.7442 22.398 51.3138 23.0272L54.9488 27.0676C56.7565 29.0779 57.7548 31.6724 57.7549 34.3601V85.2694C57.7549 86.5877 57.227 87.8526 56.2862 88.7885C55.3453 89.7244 54.0677 90.2553 52.7319 90.2657Z" fill="white" stroke="#E6E6E5" stroke-miterlimit="10"/>
<path d="M52.7319 90.2657H6.21634C4.87528 90.2631 3.59008 89.7356 2.64274 88.7989C1.69541 87.8622 1.16334 86.5928 1.16335 85.2694V34.3601C1.1588 31.6715 2.15773 29.0755 3.96945 27.0676L7.60443 23.0272C8.17127 22.397 8.48398 21.5835 8.48322 20.7409V4.32294C8.51435 3.49599 8.87061 2.71351 9.47647 2.14138C10.0823 1.56925 10.8902 1.25244 11.7287 1.25813H47.1896C48.0271 1.25252 48.8339 1.56964 49.4381 2.14203C50.0424 2.71441 50.3965 3.49686 50.4251 4.32294V20.7409C50.428 21.5846 50.7442 22.398 51.3138 23.0272L54.9488 27.0676C56.7565 29.0779 57.7548 31.6724 57.7549 34.3601V85.2694C57.7549 86.5877 57.227 87.8526 56.2862 88.7885C55.3453 89.7244 54.0677 90.2553 52.7319 90.2657ZM11.7886 1.82971C11.1051 1.82878 10.4472 2.08698 9.95103 2.55097C9.45483 3.01496 9.15813 3.64929 9.12229 4.32294V20.7409C9.13563 21.7194 8.77968 22.6678 8.12367 23.4016L4.48875 27.4421C2.77914 29.3441 1.83421 31.7979 1.8324 34.3404V85.2694C1.8324 86.4412 2.30346 87.5652 3.14217 88.3947C3.98088 89.2242 5.1188 89.6916 6.30624 89.6942H52.8217C54.0109 89.6942 55.1514 89.228 55.9923 88.3982C56.8331 87.5684 57.3055 86.4429 57.3055 85.2694V34.3601C57.2991 31.8185 56.3548 29.3662 54.6492 27.4618L51.0042 23.4213C50.3532 22.6846 49.9979 21.7381 50.0056 20.7606V4.34266C49.9723 3.66987 49.6777 3.03559 49.1832 2.57136C48.6886 2.10714 48.0319 1.84861 47.3493 1.84942L11.7886 1.82971Z" fill="white"/>
<path d="M3.41014 17.6663C3.0424 17.6656 2.67909 17.5869 2.34484 17.4356C2.0106 17.2843 1.71321 17.0639 1.47282 16.7892C1.20372 16.4822 1.00399 16.1222 0.886904 15.7331C0.769816 15.344 0.738063 14.9347 0.793771 14.5325L1.66256 7.49625C1.81284 6.49488 2.32142 5.57969 3.09624 4.9163C3.87107 4.2529 4.86091 3.88514 5.88669 3.87958H52.9814L56.5065 1.79039C56.5721 1.75157 56.6448 1.72586 56.7204 1.71475C56.796 1.70365 56.8731 1.70735 56.9473 1.72566C57.0215 1.74396 57.0914 1.7765 57.1528 1.82143C57.2142 1.86635 57.2661 1.92277 57.3054 1.98748C57.3448 2.05219 57.3708 2.1239 57.3821 2.19854C57.3933 2.27318 57.3896 2.34928 57.3711 2.42249C57.3525 2.4957 57.3195 2.56459 57.274 2.62522C57.2284 2.68585 57.1713 2.73704 57.1057 2.77586L53.301 5.05229H5.88669C5.14006 5.05606 4.41949 5.32346 3.85532 5.80609C3.29116 6.28871 2.92071 6.95468 2.811 7.68349L1.94214 14.7099C1.90626 14.95 1.92342 15.195 1.99237 15.428C2.06131 15.6611 2.18042 15.8766 2.34161 16.06C2.47167 16.215 2.63499 16.3397 2.81977 16.4249C3.00455 16.5101 3.20619 16.5537 3.41014 16.5527C3.61119 16.5503 3.80969 16.508 3.9938 16.4282C4.17791 16.3485 4.34386 16.233 4.48178 16.0886C4.61969 15.9442 4.72672 15.7739 4.79652 15.5878C4.86633 15.4018 4.89747 15.2037 4.88807 15.0055L4.21902 12.1969C4.18943 12.0511 4.21865 11.8996 4.30045 11.7746C4.38224 11.6497 4.51016 11.5611 4.65707 11.5277C4.80398 11.4944 4.95829 11.5189 5.0872 11.596C5.21611 11.6731 5.30947 11.7968 5.34746 11.9407L6.0465 14.8971V14.907C6.06541 15.261 6.01134 15.6151 5.8876 15.9479C5.76386 16.2808 5.57299 16.5853 5.32655 16.8433C5.08011 17.1012 4.7832 17.3072 4.4538 17.4486C4.1244 17.5901 3.76937 17.6641 3.41014 17.6663Z" fill="#363738"/>
<path d="M3.33046 15.5868C3.25488 15.5881 3.17979 15.5746 3.10958 15.5469C3.03936 15.5193 2.9754 15.4781 2.92148 15.4258C2.86756 15.3735 2.82479 15.3112 2.79556 15.2424C2.76633 15.1736 2.7513 15.0997 2.75131 15.0251C2.74998 14.9505 2.76371 14.8764 2.79172 14.8071C2.81973 14.7378 2.86142 14.6747 2.91441 14.6215C2.9674 14.5683 3.03059 14.5261 3.10031 14.4972C3.17003 14.4684 3.24487 14.4535 3.32047 14.4535L55.648 13.9214C55.724 13.9214 55.7994 13.9362 55.8696 13.9649C55.9399 13.9936 56.0037 14.0357 56.0575 14.0888C56.1113 14.1419 56.1539 14.2049 56.1831 14.2742C56.2122 14.3436 56.2272 14.4179 56.2272 14.493C56.2285 14.5676 56.2147 14.6417 56.1867 14.711C56.1587 14.7802 56.117 14.8433 56.064 14.8965C56.011 14.9497 55.9478 14.992 55.8781 15.0209C55.8084 15.0497 55.7336 15.0645 55.658 15.0645L3.33046 15.5868Z" fill="#363738"/>
<path d="M52.9816 21.3322C52.8279 21.3322 52.6806 21.272 52.572 21.1648C52.4633 21.0576 52.4023 20.9122 52.4023 20.7606V1.97758C52.4023 1.82599 52.4633 1.6806 52.572 1.57341C52.6806 1.46622 52.8279 1.40601 52.9816 1.40601C53.1352 1.40601 53.2825 1.46622 53.3911 1.57341C53.4997 1.6806 53.5607 1.82599 53.5607 1.97758V20.7606C53.5607 20.9122 53.4997 21.0576 53.3911 21.1648C53.2825 21.272 53.1352 21.3322 52.9816 21.3322Z" fill="#363738"/>
<path d="M53.0416 23.372C52.5355 23.374 52.0403 23.2277 51.6185 22.9516C51.1968 22.6756 50.8676 22.2823 50.6726 21.8215C50.4776 21.3607 50.4255 20.8531 50.523 20.3631C50.6205 19.8731 50.8632 19.4226 51.2203 19.0688C51.5775 18.715 52.033 18.4738 52.5291 18.3756C53.0253 18.2775 53.5398 18.3269 54.0076 18.5175C54.4753 18.7082 54.8751 19.0315 55.1565 19.4466C55.4378 19.8617 55.588 20.3498 55.588 20.8492C55.588 21.5166 55.32 22.1568 54.8428 22.6296C54.3655 23.1025 53.7178 23.3694 53.0416 23.372ZM53.0416 19.4301C52.7642 19.4282 52.4925 19.5077 52.2611 19.6585C52.0296 19.8094 51.8489 20.0248 51.7418 20.2773C51.6348 20.5297 51.6063 20.808 51.6599 21.0765C51.7135 21.345 51.8469 21.5918 52.043 21.7853C52.2391 21.9789 52.4892 22.1104 52.7613 22.1634C53.0334 22.2163 53.3153 22.1881 53.5712 22.0825C53.8271 21.9769 54.0453 21.7985 54.1982 21.5701C54.351 21.3417 54.4316 21.0736 54.4296 20.7999C54.4143 20.4461 54.2616 20.1116 54.0032 19.8658C53.7448 19.6199 53.4005 19.4816 53.0416 19.4794V19.4301Z" fill="#363738"/>
<path d="M55.5679 15.1039C55.0619 15.1059 54.5667 14.9596 54.145 14.6836C53.7232 14.4076 53.394 14.0142 53.1989 13.5534C53.0039 13.0926 52.9519 12.5851 53.0494 12.095C53.1469 11.605 53.3896 11.1546 53.7467 10.8008C54.1038 10.447 54.5593 10.2057 55.0555 10.1076C55.5517 10.0094 56.0662 10.0588 56.5339 10.2494C57.0016 10.4401 57.4015 10.7634 57.6828 11.1785C57.9642 11.5936 58.1144 12.0818 58.1144 12.5811C58.1144 13.2485 57.8465 13.8887 57.3692 14.3616C56.8919 14.8344 56.2442 15.1013 55.5679 15.1039ZM55.5679 11.1621C55.291 11.1601 55.0198 11.2394 54.7885 11.3898C54.5573 11.5402 54.3765 11.755 54.2692 12.0069C54.1618 12.2588 54.1327 12.5365 54.1856 12.8048C54.2384 13.0731 54.3707 13.3198 54.5658 13.5137C54.7609 13.7077 55.01 13.8401 55.2815 13.8941C55.553 13.9481 55.8346 13.9214 56.0906 13.8173C56.3467 13.7131 56.5656 13.5363 56.7197 13.3092C56.8738 13.0821 56.956 12.815 56.956 12.5417C56.9457 12.1844 56.7952 11.845 56.5362 11.595C56.2773 11.345 55.9302 11.2039 55.5679 11.2015V11.1621Z" fill="#363738"/>
<path d="M61.8792 33.6309C61.7745 33.6293 61.6721 33.6001 61.5826 33.5464C61.493 33.4927 61.4196 33.4164 61.3699 33.3254L54.4795 20.6424C54.426 20.5775 54.3875 20.5017 54.3669 20.4205C54.3463 20.3393 54.3441 20.2546 54.3603 20.1724C54.3766 20.0902 54.4109 20.0126 54.4609 19.9449C54.5109 19.8773 54.5754 19.8213 54.6497 19.781C54.7241 19.7406 54.8064 19.7169 54.8911 19.7114C54.9757 19.706 55.0606 19.7189 55.1396 19.7494C55.2187 19.7799 55.2899 19.8271 55.3484 19.8878C55.4069 19.9484 55.4512 20.021 55.4781 20.1004L62.3585 32.7834C62.3955 32.8493 62.4189 32.9218 62.4273 32.9967C62.4358 33.0716 62.4292 33.1475 62.4078 33.2198C62.3865 33.2922 62.3508 33.3596 62.3029 33.4184C62.2551 33.4771 62.1959 33.5259 62.1289 33.5619C62.0509 33.6005 61.9661 33.6239 61.8792 33.6309Z" fill="#363738"/>
<path d="M7.90403 17.7548C7.8289 17.7561 7.75428 17.7425 7.6846 17.7147C7.61493 17.687 7.55165 17.6456 7.49852 17.5932C7.44539 17.5408 7.40353 17.4783 7.3754 17.4096C7.34727 17.3408 7.33345 17.2672 7.33481 17.193V12.857C7.33348 12.7824 7.34721 12.7083 7.37522 12.639C7.40323 12.5697 7.44498 12.5066 7.49797 12.4534C7.55096 12.4002 7.61415 12.3579 7.68387 12.3291C7.75359 12.3002 7.82843 12.2854 7.90403 12.2854C7.98009 12.2854 8.05537 12.3002 8.12564 12.3289C8.19591 12.3576 8.25977 12.3997 8.31355 12.4528C8.36734 12.5059 8.41 12.5689 8.43911 12.6382C8.46822 12.7076 8.48324 12.7819 8.48324 12.857V17.193C8.48325 17.2677 8.46816 17.3415 8.43893 17.4103C8.4097 17.4791 8.36692 17.5415 8.313 17.5938C8.25909 17.646 8.19513 17.6872 8.12491 17.7149C8.05469 17.7425 7.97961 17.7561 7.90403 17.7548Z" fill="#363738"/>
<path d="M50.485 9.90075H8.54314C8.34185 9.90075 8.1488 9.82185 8.00647 9.68139C7.86414 9.54093 7.78418 9.35043 7.78418 9.1518C7.78418 8.95316 7.86414 8.76266 8.00647 8.62221C8.1488 8.48175 8.34185 8.40283 8.54314 8.40283H50.485C50.6863 8.40283 50.8793 8.48175 51.0217 8.62221C51.164 8.76266 51.244 8.95316 51.244 9.1518C51.244 9.35043 51.164 9.54093 51.0217 9.68139C50.8793 9.82185 50.6863 9.90075 50.485 9.90075Z" fill="#4F5DAA"/>
<path d="M53.0415 21.2829C52.9853 21.2931 52.9278 21.2931 52.8717 21.2829C52.7248 21.2396 52.6014 21.1406 52.5284 21.0076C52.4554 20.8746 52.4388 20.7185 52.4822 20.5734L54.9388 12.6896C54.9611 12.6178 54.9975 12.551 55.046 12.4931C55.0944 12.4352 55.154 12.3872 55.2212 12.352C55.2884 12.3167 55.362 12.2949 55.4378 12.2878C55.5136 12.2806 55.59 12.2882 55.6628 12.3102C55.7356 12.3322 55.8033 12.3682 55.862 12.416C55.9207 12.4638 55.9693 12.5225 56.005 12.5889C56.0407 12.6552 56.0628 12.7279 56.07 12.8026C56.0773 12.8774 56.0696 12.9529 56.0473 13.0247L53.5907 20.9085C53.5483 21.0184 53.473 21.113 53.375 21.1799C53.2769 21.2467 53.1607 21.2827 53.0415 21.2829Z" fill="#363738"/>
<path d="M55.6478 59.4403C55.5593 60.7034 55.093 61.9122 54.3078 62.9135C53.5227 63.9148 52.454 64.6636 51.2373 65.0651C50.0205 65.4666 48.7103 65.5026 47.4728 65.1687C46.2352 64.8347 45.126 64.1458 44.2855 63.1893C43.445 62.2327 42.9112 61.0514 42.7515 59.7952C42.5919 58.5389 42.8137 57.2642 43.3888 56.1324C43.964 55.0007 44.8665 54.0628 45.9822 53.4377C47.0979 52.8126 48.3765 52.5283 49.6561 52.6209C51.3657 52.7446 52.9559 53.5316 54.0789 54.8097C55.2018 56.0877 55.7659 57.7528 55.6478 59.4403Z" fill="#FBA823"/>
<path d="M54.4295 59.3615C54.3559 60.3897 53.975 61.3733 53.335 62.188C52.6951 63.0027 51.8247 63.6119 50.834 63.9386C49.8433 64.2652 48.7766 64.2947 47.7689 64.0233C46.7612 63.7519 45.8576 63.1917 45.1725 62.4137C44.4873 61.6356 44.0512 60.6746 43.9194 59.652C43.7876 58.6294 43.9659 57.5912 44.4319 56.6687C44.8979 55.7461 45.6306 54.9805 46.5373 54.4688C47.4441 53.9571 48.4842 53.7221 49.5262 53.7936C50.2188 53.8411 50.8951 54.0228 51.5164 54.3284C52.1377 54.634 52.6919 55.0575 53.1473 55.5746C53.6027 56.0917 53.9503 56.6923 54.1703 57.3421C54.3903 57.9919 54.4784 58.6781 54.4295 59.3615Z" fill="#D89028"/>
<path d="M49.9059 54.3258C50.658 54.3764 51.3903 54.5855 52.0536 54.9391C52.7168 55.2927 53.2954 55.7825 53.7505 56.3755C53.1855 55.4064 52.3202 54.6418 51.282 54.1942C50.2437 53.7465 49.0873 53.6395 47.9828 53.8888C46.8784 54.1382 45.8841 54.7307 45.1463 55.5792C44.4085 56.4277 43.9661 57.4875 43.8842 58.6027C43.7886 59.8638 44.1653 61.1156 44.9428 62.1208C44.4673 61.2977 44.2276 60.3624 44.2495 59.4152C44.2714 58.4679 44.5539 57.5444 45.067 56.7435C45.58 55.9426 46.3041 55.2944 47.1618 54.8686C48.0194 54.4427 48.9784 54.255 49.9359 54.3258H49.9059Z" fill="#BB7B2A"/>
<path d="M48.3579 62.9386L48.4278 62.032C47.856 61.9716 47.3042 61.7901 46.8101 61.4998L47.1795 60.406C47.6525 60.71 48.1947 60.8929 48.7573 60.9381C49.3065 60.9381 49.696 60.7903 49.7559 60.4158C49.8158 60.0413 49.4863 59.795 48.7573 59.5092C47.7587 59.0953 47.0796 58.5237 47.1396 57.6368C47.1879 57.207 47.3927 56.8092 47.716 56.5174C48.0393 56.2255 48.4591 56.0595 48.8971 56.0502L48.967 55.1436L49.9657 55.2125L49.9057 56.0502C50.3889 56.0942 50.8578 56.235 51.2838 56.4641L50.9244 57.5284C50.5082 57.2834 50.0396 57.1383 49.5563 57.1046C48.9271 57.1046 48.7074 57.3116 48.6875 57.5777C48.6675 57.8437 48.987 58.1197 49.7859 58.4843C50.9144 58.9672 51.3338 59.519 51.2738 60.3764C51.2292 60.8295 51.0153 61.2499 50.6738 61.556C50.3324 61.862 49.8877 62.0317 49.4264 62.032L49.3565 63.0175L48.3579 62.9386Z" fill="#FBA823"/>
<path d="M13.3675 42.1292L3.31592 60.2471L38.1342 79.0586L48.1858 60.9407L13.3675 42.1292Z" fill="#02B581"/>
<path d="M42.1466 59.4896C42.1414 59.4669 42.1414 59.4433 42.1466 59.4206L17.9002 46.3237V46.3927C17.3519 47.3806 16.4284 48.1131 15.3328 48.4291C14.2373 48.7452 13.0594 48.6188 12.0583 48.0779H11.9784L7.59448 55.9616H7.66439C8.16103 56.2286 8.5993 56.5897 8.95411 57.0243C9.30892 57.4589 9.57329 57.9583 9.73196 58.494C9.89063 59.0297 9.9405 59.591 9.87873 60.1457C9.81696 60.7005 9.64474 61.2377 9.37199 61.7266C9.37715 61.7493 9.37715 61.7729 9.37199 61.7956L33.6184 74.8925V74.8235C34.1667 73.8356 35.0902 73.1031 36.1857 72.7871C37.2813 72.4711 38.4591 72.5974 39.4603 73.1383H39.5402L43.9241 65.2546H43.8542C43.3576 64.9876 42.9193 64.6265 42.5644 64.1919C42.2096 63.7573 41.9453 63.2579 41.7867 62.7222C41.628 62.1865 41.5781 61.6252 41.6399 61.0705C41.7017 60.5157 41.8738 59.9785 42.1466 59.4896Z" fill="#0B8E6D"/>
<path d="M16.7917 55.7744C16.6415 56.0439 16.4136 56.2635 16.1371 56.4054C15.8605 56.5472 15.5476 56.6051 15.2377 56.5716C14.9279 56.5382 14.635 56.4149 14.3961 56.2174C14.1572 56.0198 13.9828 55.7569 13.8952 55.4617C13.8075 55.1665 13.8105 54.8523 13.9036 54.5587C13.9967 54.2652 14.1758 54.0054 14.4184 53.8122C14.6609 53.619 14.956 53.5011 15.2665 53.4732C15.5769 53.4453 15.8887 53.5088 16.1626 53.6557C16.3453 53.7536 16.5065 53.8862 16.6371 54.0459C16.7677 54.2056 16.8651 54.3891 16.9235 54.586C16.982 54.7829 17.0004 54.9892 16.9778 55.1932C16.9552 55.3972 16.892 55.5947 16.7917 55.7744Z" fill="#02B581"/>
<path d="M37.513 66.9694C37.3619 67.2409 37.1325 67.4622 36.854 67.6052C36.5755 67.7481 36.2603 67.8064 35.9482 67.7727C35.6361 67.7389 35.3412 67.6146 35.1007 67.4154C34.8602 67.2163 34.6849 66.9513 34.597 66.6538C34.5091 66.3564 34.5125 66.0399 34.6068 65.7444C34.7011 65.4489 34.8821 65.1876 35.1268 64.9936C35.3716 64.7995 35.6691 64.6814 35.9819 64.6542C36.2946 64.627 36.6085 64.6919 36.8839 64.8407C37.0669 64.9397 37.2284 65.0732 37.3591 65.2337C37.4898 65.3943 37.5871 65.5787 37.6455 65.7764C37.704 65.9741 37.7223 66.1812 37.6996 66.3859C37.6768 66.5906 37.6135 66.7889 37.513 66.9694Z" fill="#827FBD"/>
<path d="M40.0109 45.9533L5.40088 65.1355L15.6505 83.1449L50.2605 63.9627L40.0109 45.9533Z" fill="#097B97"/>
<path d="M35.5159 50.1965C35.5195 50.1704 35.5195 50.1438 35.5159 50.1177L11.4293 63.4806V63.5496C11.9858 64.5328 12.1249 65.6936 11.8161 66.7778C11.5073 67.862 10.7757 68.7813 9.78158 69.3343H9.71167L14.1854 77.2181H14.2554C14.7484 76.9448 15.2912 76.7701 15.8527 76.7039C16.4142 76.6378 16.9834 76.6814 17.5277 76.8324C18.0721 76.9834 18.581 77.2388 19.0254 77.584C19.4697 77.9292 19.8407 78.3574 20.1172 78.8441C20.114 78.867 20.114 78.8902 20.1172 78.9131L44.2038 65.56C44.209 65.5373 44.209 65.5137 44.2038 65.491C43.9269 65.0045 43.7499 64.4688 43.6828 63.9147C43.6158 63.3606 43.6601 62.7989 43.8131 62.2617C43.9661 61.7245 44.2249 61.2223 44.5747 60.7838C44.9244 60.3454 45.3583 59.9792 45.8516 59.7063H45.9215L41.4477 51.8225H41.3778C40.8848 52.0958 40.342 52.2705 39.7805 52.3367C39.219 52.4029 38.6498 52.3592 38.1054 52.2082C37.561 52.0572 37.0521 51.8018 36.6078 51.4566C36.1635 51.1115 35.7925 50.6833 35.5159 50.1965Z" fill="#05AAE2"/>
<path d="M33.0491 61.5984C35.0464 65.0574 34.2775 69.1668 31.3815 70.7731C28.4855 72.3794 24.5509 70.8618 22.5837 67.4028C20.6164 63.9438 21.3554 59.8443 24.2513 58.2379C27.1473 56.6316 31.0819 58.1394 33.0491 61.5984Z" fill="#097B97"/>
<path d="M18.8988 69.4429C19.0512 69.7111 19.1198 70.0179 19.0958 70.3245C19.0718 70.6311 18.9563 70.9238 18.764 71.1657C18.5716 71.4077 18.3109 71.588 18.0149 71.6839C17.7188 71.7799 17.4006 71.7871 17.1004 71.7048C16.8001 71.6225 16.5313 71.4543 16.3278 71.2214C16.1243 70.9885 15.9952 70.7014 15.9568 70.3962C15.9185 70.0911 15.9726 69.7815 16.1122 69.5066C16.2519 69.2317 16.471 69.0038 16.7417 68.8516C17.1075 68.649 17.5397 68.5975 17.9438 68.7083C18.348 68.8191 18.6913 69.0832 18.8988 69.4429Z" fill="#097B97"/>
<path d="M39.4904 58.0312C39.6413 58.3001 39.7081 58.607 39.6825 58.9134C39.6569 59.2197 39.54 59.5117 39.3466 59.7525C39.1531 59.9934 38.8918 60.1724 38.5954 60.2669C38.2991 60.3615 37.981 60.3674 37.6812 60.2838C37.3815 60.2003 37.1135 60.0311 36.9111 59.7975C36.7086 59.564 36.5807 59.2765 36.5435 58.9714C36.5063 58.6662 36.5615 58.357 36.7021 58.0827C36.8426 57.8084 37.0623 57.5813 37.3334 57.4301C37.7004 57.2283 38.1335 57.1782 38.5378 57.2909C38.9421 57.4036 39.2846 57.6698 39.4904 58.0312Z" fill="#827FBD"/>
<path d="M55.7078 66.0428L37.2933 56.2275L23.6123 81.2289L43.285 88.7382L55.7078 66.0428Z" fill="#515271"/>
<path d="M51.5136 70.5759H51.4338C50.4302 70.0399 49.6834 69.1325 49.3575 68.0533C49.0317 66.9741 49.1535 65.8113 49.6961 64.8207V64.7517L41.6673 60.4255C41.6705 60.4484 41.6705 60.4716 41.6673 60.4945C41.3992 60.9857 41.0357 61.42 40.5975 61.7725C40.1592 62.1251 39.6549 62.3889 39.1134 62.5491C38.5718 62.7092 38.0035 62.7625 37.4411 62.7059C36.8786 62.6493 36.333 62.4839 35.8353 62.2191H35.7655L25.0403 81.8102L41.877 88.2453L51.5136 70.5759Z" fill="#7E81AB"/>
<path d="M43.4348 66.7425C43.633 66.8315 43.8105 66.9597 43.9564 67.1193C44.1022 67.2789 44.2132 67.4664 44.2825 67.6701C44.3518 67.8738 44.3779 68.0894 44.3592 68.3035C44.3405 68.5176 44.2773 68.7256 44.1737 68.9145C44.07 69.1035 43.9281 69.2694 43.7567 69.402C43.5853 69.5345 43.3881 69.6309 43.1774 69.685C42.9667 69.7392 42.747 69.75 42.5318 69.7168C42.3167 69.6836 42.1108 69.607 41.9269 69.492C41.7437 69.3958 41.5817 69.2647 41.4502 69.1064C41.3187 68.948 41.2204 68.7654 41.1609 68.5692C41.1015 68.3731 41.0821 68.1672 41.1039 67.9636C41.1256 67.76 41.1881 67.5627 41.2878 67.383C41.4887 67.0194 41.8265 66.7484 42.2282 66.6285C42.63 66.5086 43.0634 66.5496 43.4348 66.7425Z" fill="#515271"/>
<path d="M25.8592 67.6589L23.6123 81.2289L43.285 88.7381L46.4407 71.4037L25.8592 67.6589Z" fill="#515271"/>
<path d="M43.7843 76.9914C42.6654 76.7877 41.6737 76.1549 41.0262 75.2315C40.3787 74.3081 40.128 73.1693 40.3291 72.0641C40.3291 72.0641 40.3291 72.0148 40.3291 71.9852L31.3416 70.3494C31.3416 70.3494 31.3416 70.4085 31.3416 70.4381C31.1351 71.5423 30.4939 72.5209 29.5582 73.1599C28.6225 73.7989 27.4685 74.0462 26.3485 73.8478H26.2686L25.0503 81.8301L41.8869 88.2652L43.8842 77.0407L43.7843 76.9914Z" fill="#7E81AB"/>
<path d="M34.4074 78.8736C34.0974 78.8194 33.8108 78.6754 33.5839 78.46C33.3571 78.2446 33.2002 77.9676 33.1333 77.664C33.0663 77.3605 33.0923 77.0441 33.2079 76.7552C33.3236 76.4662 33.5237 76.2177 33.7827 76.0413C34.0418 75.8648 34.3483 75.7683 34.6631 75.7641C34.9778 75.7598 35.2867 75.848 35.5506 76.0174C35.8145 76.1869 36.0214 76.4299 36.145 76.7156C36.2686 77.0013 36.3034 77.3168 36.2448 77.6221C36.1672 78.0274 35.9306 78.3861 35.5866 78.6204C35.2427 78.8547 34.8189 78.9457 34.4074 78.8736Z" fill="#515271"/>
<path d="M44.0649 84.0246L43.373 87.8269L43.5401 87.8565L44.232 84.0542L44.0649 84.0246Z" fill="#6868AF"/>
<path d="M27.7364 81.1796C27.9742 82.0711 27.9387 83.0121 27.6345 83.8837C27.3303 84.7553 26.7711 85.5183 26.0276 86.0762C25.284 86.6342 24.3895 86.9621 23.4571 87.0184C22.5247 87.0747 21.5964 86.857 20.7894 86.3927C19.9824 85.9284 19.3331 85.2384 18.9235 84.4099C18.5138 83.5814 18.3623 82.6517 18.4881 81.7383C18.6139 80.8248 19.0112 79.9687 19.63 79.2781C20.2488 78.5876 21.0612 78.0936 21.9645 77.8586C22.5644 77.7025 23.1897 77.6646 23.8045 77.747C24.4193 77.8295 25.0116 78.0306 25.5476 78.339C26.0836 78.6474 26.5528 79.0571 26.9284 79.5444C27.304 80.0318 27.5785 80.5875 27.7364 81.1796Z" fill="#EAEAEA"/>
<path d="M26.8978 81.3966C27.0916 82.124 27.0625 82.8917 26.8143 83.6028C26.5661 84.3139 26.1099 84.9365 25.5032 85.3918C24.8966 85.8471 24.1668 86.1147 23.4061 86.1608C22.6454 86.2069 21.8879 86.0294 21.2294 85.6507C20.5708 85.2721 20.0408 84.7093 19.7063 84.0335C19.3718 83.3577 19.2478 82.5992 19.35 81.8539C19.4522 81.1086 19.776 80.4099 20.2805 79.8461C20.785 79.2824 21.4474 78.8788 22.1843 78.6865C23.1734 78.4311 24.2248 78.5728 25.1083 79.0808C25.9917 79.5887 26.6352 80.4214 26.8978 81.3966Z" fill="#CCCBCA"/>
<path d="M22.5837 78.9624C23.1136 78.8217 23.6681 78.7956 24.2093 78.8857C24.7504 78.9758 25.2655 79.1801 25.7193 79.4847C25.322 79.1534 24.8608 78.9049 24.3636 78.7542C23.8664 78.6034 23.3434 78.5535 22.8262 78.6075C22.3089 78.6615 21.8081 78.8182 21.3539 79.0683C20.8996 79.3183 20.5013 79.6565 20.183 80.0625C19.8647 80.4684 19.6329 80.9338 19.5017 81.4305C19.3704 81.9271 19.3424 82.4449 19.4193 82.9526C19.4962 83.4602 19.6763 83.9473 19.949 84.3844C20.2217 84.8215 20.5812 85.1996 21.0058 85.496C20.4846 85.0379 20.0989 84.449 19.8896 83.7919C19.6803 83.1349 19.6551 82.4341 19.8169 81.7641C19.9787 81.0941 20.3214 80.4798 20.8085 79.9865C21.2957 79.4932 21.9091 79.1393 22.5837 78.9624Z" fill="#B0B0B0"/>
<path d="M23.5523 85.2794L23.3826 84.6388C22.9747 84.7275 22.5521 84.7275 22.1443 84.6388V83.7913C22.5442 83.8902 22.9626 83.8902 23.3626 83.7913C23.752 83.6927 23.9817 83.476 23.9018 83.2C23.822 82.9241 23.5723 82.8452 23.0231 82.8058C22.2242 82.8058 21.635 82.5496 21.4652 81.8893C21.3945 81.5816 21.4396 81.2589 21.5921 80.9815C21.7446 80.7042 21.9941 80.4909 22.294 80.3816L22.1243 79.741L22.7933 79.5735L22.9532 80.1648C23.3023 80.0933 23.6626 80.0933 24.0117 80.1648V80.9334C23.6827 80.8627 23.3421 80.8627 23.0131 80.9334C22.5737 81.0517 22.4738 81.2783 22.5238 81.4656C22.5737 81.6528 22.8633 81.7612 23.5224 81.8302C24.4111 81.8992 24.8405 82.185 25.0003 82.8157C25.0777 83.1379 25.0306 83.4771 24.8681 83.7669C24.7056 84.0567 24.4394 84.2762 24.1215 84.3826L24.3013 85.0724L23.5523 85.2794Z" fill="#EAEAEA"/>
<path d="M20.3787 81.2546C20.7284 77.1873 17.6707 73.6103 13.5491 73.2652C9.42749 72.92 5.80277 75.9375 5.45305 80.0048C5.10333 84.0722 8.16103 87.6492 12.2826 87.9943C16.4042 88.3394 20.0289 85.3219 20.3787 81.2546Z" fill="#FBA823"/>
<path d="M12.9371 86.8165C16.3951 86.8165 19.1984 84.0501 19.1984 80.6376C19.1984 77.2251 16.3951 74.4587 12.9371 74.4587C9.47907 74.4587 6.67578 77.2251 6.67578 80.6376C6.67578 84.0501 9.47907 86.8165 12.9371 86.8165Z" fill="#D89028"/>
<path d="M14.4449 75.1191C15.9637 75.3914 17.3264 76.2094 18.2697 77.4152C17.8246 76.6994 17.2364 76.0806 16.5409 75.5967C15.8454 75.1127 15.0573 74.7738 14.2247 74.6005C13.392 74.4272 12.5322 74.4233 11.698 74.5889C10.8637 74.7545 10.0723 75.0862 9.37233 75.5637C8.67231 76.0412 8.07828 76.6546 7.62652 77.3662C7.17475 78.0779 6.87474 78.873 6.7448 79.7029C6.61486 80.5329 6.65774 81.3803 6.87079 82.1933C7.08383 83.0063 7.4626 83.768 7.98393 84.4317C7.35062 83.4145 7.02948 82.238 7.05937 81.0445C7.08926 79.851 7.46888 78.6916 8.15234 77.7065C8.83579 76.7214 9.79381 75.9528 10.9105 75.4936C12.0273 75.0344 13.2549 74.9043 14.4449 75.1191Z" fill="#BB7B2A"/>
<path d="M17.6704 79.6622L8.77271 78.0559L8.86258 77.573L13.7258 76.144L17.7602 79.1793L17.6704 79.6622Z" fill="#FBA823"/>
<path d="M16.7918 79.0216L9.80151 77.7602L13.5962 76.686L16.7918 79.0216ZM10.5205 77.7306L16.1427 78.7161L13.5862 76.824L10.5205 77.7306Z" fill="#D89028"/>
<path d="M17.1878 79.5447L9.28979 78.1199L9.23053 78.4398L17.1285 79.8646L17.1878 79.5447Z" fill="#FBA823"/>
<path d="M16.3966 83.7898L8.49854 82.365L8.43927 82.6849L16.3373 84.1097L16.3966 83.7898Z" fill="#FBA823"/>
<path d="M16.3301 84.1092L8.43213 82.6843L8.37287 83.0042L16.2709 84.4291L16.3301 84.1092Z" fill="#FBA823"/>
<path d="M16.7042 84.5062L7.96143 82.929L7.90217 83.2488L16.645 84.8261L16.7042 84.5062Z" fill="#FBA823"/>
<path d="M10.7154 78.3788L9.66431 78.1892L8.849 82.5903L9.9001 82.7799L10.7154 78.3788Z" fill="#FBA823"/>
<path d="M10.1371 82.3339L8.79126 82.0911L8.67274 82.7309L10.0185 82.9736L10.1371 82.3339Z" fill="#FBA823"/>
<path d="M12.743 78.7426L11.6919 78.553L10.8766 82.9541L11.9277 83.1437L12.743 78.7426Z" fill="#FBA823"/>
<path d="M12.1646 82.6974L10.8188 82.4546L10.7003 83.0944L12.0461 83.3372L12.1646 82.6974Z" fill="#FBA823"/>
<path d="M14.7706 79.1064L13.7195 78.9167L12.9042 83.3178L13.9553 83.5075L14.7706 79.1064Z" fill="#FBA823"/>
<path d="M14.1922 83.0709L12.8464 82.8281L12.7279 83.4679L14.0737 83.7107L14.1922 83.0709Z" fill="#FBA823"/>
<path d="M16.8062 79.4814L15.7551 79.2917L14.9398 83.6928L15.9909 83.8825L16.8062 79.4814Z" fill="#FBA823"/>
<path d="M16.2296 83.4264L14.8838 83.1836L14.7653 83.8234L16.1111 84.0662L16.2296 83.4264Z" fill="#FBA823"/>
<path d="M9.48381 78.0881L9.45508 78.2432L16.8324 79.5741L16.8611 79.419L9.48381 78.0881Z" fill="#D89028"/>
<path d="M8.56951 82.9757L8.54077 83.1309L15.702 84.4228L15.7307 84.2677L8.56951 82.9757Z" fill="#D89028"/>
<path d="M8.77238 82.3574L8.74365 82.5125L16.1898 83.8558L16.2185 83.7007L8.77238 82.3574Z" fill="#D89028"/>
<path d="M9.82438 78.4614L9.79565 78.6165L16.505 79.8269L16.5337 79.6718L9.82438 78.4614Z" fill="#D89028"/>
<path d="M9.1657 82.0407L9.13696 82.1958L15.8463 83.4062L15.8751 83.2511L9.1657 82.0407Z" fill="#D89028"/>
<g opacity="0.66">
<path opacity="0.66" d="M12.1583 26.0132C12.3609 26.0449 12.5533 26.1225 12.7205 26.2398C12.8876 26.3572 13.025 26.5112 13.1217 26.6897C13.2184 26.8682 13.2719 27.0664 13.278 27.2688C13.2841 27.4712 13.2427 27.6722 13.1569 27.8561C12.4225 29.4048 11.8954 31.0413 11.589 32.7243C11.5348 33.0244 11.3747 33.2959 11.1371 33.4907C10.8995 33.6855 10.5997 33.791 10.2908 33.7886H9.14242C8.94557 33.7886 8.75121 33.7451 8.57362 33.6613C8.39604 33.5775 8.23974 33.4555 8.11619 33.3042C7.99264 33.153 7.90498 32.9764 7.85965 32.7874C7.81431 32.5983 7.81247 32.4017 7.85422 32.2118C8.31514 30.0058 9.41479 27.9793 11.0198 26.3779C11.1674 26.2334 11.3473 26.1251 11.545 26.0618C11.7428 25.9985 11.9528 25.9818 12.1583 26.0132Z" fill="white"/>
</g>
<path opacity="0.66" d="M9.63166 37.0503H8.92264C8.18912 37.0503 7.59448 37.6371 7.59448 38.361V62.1305C7.59448 62.8544 8.18912 63.4412 8.92264 63.4412H9.63166C10.3652 63.4412 10.9598 62.8544 10.9598 62.1305V38.361C10.9598 37.6371 10.3652 37.0503 9.63166 37.0503Z" fill="white"/>
</g>
<defs>
<clipPath id="clip0_1_2175">
<rect width="61.8043" height="89.9931" fill="white" transform="translate(0.664062 0.765381)"/>
</clipPath>
</defs>
</svg>
