<svg width="72" height="86" viewBox="0 0 72 86" fill="none" xmlns="http://www.w3.org/2000/svg">
<g clip-path="url(#clip0_1_1962)">
<path d="M37.8521 66.2353C37.9719 64.7472 37.922 63.2296 37.9819 61.7612C38.1217 58.8541 38.2715 55.947 38.4612 53.0399C38.8507 47.196 39.2801 41.3423 39.9991 35.528C40.6282 30.4233 40.9977 24.3529 43.9936 19.938C45.3799 17.6944 47.429 15.9233 49.8654 14.8628C52.282 13.9956 54.6688 14.8628 56.7758 16.0946C56.8086 16.114 56.8449 16.1268 56.8828 16.1324C56.9206 16.1379 56.9592 16.1361 56.9962 16.127C57.0333 16.1178 57.0682 16.1016 57.0989 16.0791C57.1297 16.0566 57.1556 16.0284 57.1753 15.9961C57.1949 15.9637 57.208 15.9278 57.2136 15.8905C57.2192 15.8532 57.2173 15.8151 57.208 15.7785C57.1988 15.7419 57.1823 15.7075 57.1595 15.6772C57.1368 15.6469 57.1082 15.6213 57.0754 15.6019C54.2094 13.9561 51.0837 13.2564 48.1678 15.0598C45.0104 17.074 42.6814 20.1302 41.5969 23.6827C40.2188 28.0089 39.7694 32.7095 39.2502 37.1934C38.671 42.2785 38.2515 47.3832 37.9519 52.4879C37.7622 55.2177 37.6224 57.9376 37.4926 60.6674C37.4027 62.4412 37.4925 64.3431 37.3328 66.1761L37.8521 66.2353Z" fill="#0B8E6D"/>
<path d="M35.3055 65.9593C35.7149 66.0185 36.1144 66.048 36.5138 66.0776C35.3255 61.1502 35.8747 55.8878 35.7249 50.8915C35.5252 43.9341 35.3454 36.9767 34.966 30.0292C34.6464 24.0671 34.1871 17.5727 31.8004 11.9556L31.351 12.2217C32.3271 14.9154 33.0296 17.6983 33.448 20.5292C33.9751 23.9541 34.3085 27.4053 34.4467 30.8668C34.7862 37.4497 34.966 44.0327 35.1557 50.5762C35.2955 55.5035 34.7663 60.6969 35.8148 65.575C35.2 63.2498 34.7956 60.8754 34.6065 58.4797C34.2693 54.5529 33.4752 50.6774 32.2398 46.9299C30.8617 43.0373 28.7446 39.5685 26.8872 35.9025C25.5391 33.2516 24.101 29.9898 21.0652 28.9353C17.4802 27.6542 13.6655 29.5955 11.9679 32.7983C11.7881 33.1235 12.2874 33.4093 12.4672 33.0841C13.0372 31.947 13.9058 30.9815 14.9824 30.2882C16.0591 29.5949 17.3044 29.1992 18.5887 29.1422C19.741 29.1535 20.8706 29.4601 21.8667 30.0319C22.8628 30.6038 23.6912 31.4212 24.2708 32.4041C25.4092 34.0498 26.1682 35.9124 27.1368 37.6468C28.4219 39.8597 29.5918 42.1357 30.6419 44.4662C32.4687 48.956 33.6096 53.6886 34.0273 58.5091C34.2181 61.0263 34.6461 63.5205 35.3055 65.9593Z" fill="#0B8E6D"/>
<path d="M59.6218 24.5302C57.8265 23.9392 55.905 23.8267 54.0515 24.2039C52.198 24.5812 50.4783 25.4349 49.0664 26.6785C45.9807 29.29 44.6226 33.3699 43.6739 37.1344C42.5355 41.6971 41.5968 46.3583 40.8179 50.99C39.959 56.0849 39.25 61.2193 38.0317 66.2452H38.6309C39.4797 62.7172 40.0789 59.13 40.6281 55.5527C41.3371 51.1378 42.186 46.7722 43.0947 42.3869C44.5827 35.2324 46.6898 24.4809 56.2166 24.4415C59.2124 24.4415 65.1442 26.4913 65.264 30.0292C65.264 30.4036 65.8631 30.4036 65.8432 30.0292C65.7633 27.0333 62.1183 25.358 59.6218 24.5302Z" fill="#0B8E6D"/>
<path d="M58.8528 7.35358C56.1465 6.36811 52.2919 8.46711 51.8625 11.3644C49.8652 10.241 46.8694 10.0242 45.9807 12.5372C44.6525 16.479 49.5657 18.7061 51.7127 20.8643C51.778 20.9309 51.8631 20.9752 51.9557 20.9905C52.0483 21.0059 52.1434 20.9916 52.2271 20.9497C52.3109 20.9079 52.3788 20.8406 52.421 20.7579C52.4632 20.6751 52.4775 20.5812 52.4617 20.4898C52.1639 19.2122 51.9635 17.9144 51.8625 16.6072C51.8125 16.1144 52.0323 15.5132 52.5216 15.4147C52.7433 15.3889 52.967 15.4437 53.1508 15.5689C53.3346 15.694 53.4659 15.8809 53.5202 16.0947C53.8298 17.0802 53.2706 18.4992 53.2206 19.5241C53.1707 20.549 52.9809 21.4951 53.8198 22.1455C54.3569 22.4435 54.9742 22.5709 55.5873 22.5101C57.3549 22.5692 58.5233 22.4312 60.2209 23.2295C60.2855 23.2658 60.3582 23.2858 60.4325 23.2876C60.5069 23.2894 60.5805 23.2729 60.6469 23.2397C60.7132 23.2065 60.7701 23.1575 60.8125 23.0973C60.8549 23.037 60.8816 22.9674 60.89 22.8945C61.1396 21.2783 62.1682 20.1745 62.5976 18.6766C62.7076 18.3683 62.7511 18.0408 62.7253 17.715C62.6995 17.3891 62.605 17.0721 62.4478 16.7845C62.2796 16.528 62.0599 16.3082 61.8022 16.1387C61.5446 15.9692 61.2545 15.8536 60.9499 15.799C60.6603 15.7202 59.2722 15.7399 59.1024 15.4936C59.3321 13.8281 60.0212 13.5226 61.1896 14.5081C61.4692 14.9516 61.7488 15.395 62.0484 15.8385C62.0943 15.9182 62.1646 15.9815 62.2493 16.0193C62.334 16.0571 62.4286 16.0675 62.5196 16.0489C62.6106 16.0302 62.6933 15.9836 62.7557 15.9157C62.8182 15.8478 62.8572 15.7621 62.8672 15.6709C63.3366 12.6356 62.0683 8.56571 58.8528 7.35358Z" fill="#02B581"/>
<path d="M42.3259 10.2804C41.2374 8.8219 39.4898 8.0138 38.3314 6.57502C38.3029 6.54326 38.2816 6.50578 38.2691 6.46518C38.2565 6.42459 38.2529 6.38179 38.2586 6.33972C38.2643 6.29764 38.2791 6.25727 38.302 6.22134C38.3249 6.18542 38.3554 6.15487 38.3913 6.1316C39.7794 5.47134 40.9478 6.24001 41.8965 7.49155C41.6835 6.74928 41.3676 6.03959 40.9578 5.38264C39.9976 3.97675 38.7109 2.81751 37.2049 2.00158C35.6989 1.18565 34.0172 0.736636 32.2998 0.69179C29.7933 0.583389 26.378 0.928332 24.93 3.18506C22.9328 1.07615 19.0582 0.839553 16.4518 1.86444C14.7595 2.61147 13.3034 3.79639 12.2381 5.29362C11.1727 6.79084 10.5376 8.5446 10.4002 10.369C10.2891 11.3956 10.3092 12.4319 10.4601 13.4536C10.9993 12.7637 11.5885 12.1233 12.0978 11.5615C12.8268 10.7633 14.6543 8.60504 16.0024 9.11748C17.7999 9.82702 15.6129 12.074 15.0038 12.6455C13.9435 13.4792 13.0058 14.4543 12.2177 15.5428C11.9795 15.9486 11.7628 16.3664 11.5685 16.7943C12.2013 17.9966 12.9939 19.1102 13.9252 20.1055L14.6642 20.9038C14.7884 19.6749 15.0807 18.4682 15.5331 17.3167C15.9325 16.2228 16.9012 13.5718 18.5289 13.7985C20.8757 14.1138 19.1481 17.3167 18.5289 18.312C17.9098 19.3073 16.8612 20.4406 16.6714 21.6626C16.6364 22.3658 16.7527 23.0683 17.0126 23.7239C17.2725 24.3795 17.6701 24.9734 18.1794 25.4665C19.3598 26.5715 20.6071 27.6048 21.9142 28.5609C23.2313 29.5393 24.1034 30.9914 24.3408 32.6013C25.0512 31.1804 26.1741 30.0003 27.5664 29.2112C28.9554 28.4322 30.2233 27.4598 31.3311 26.3239C33.3283 23.9686 32.2399 21.6823 30.8618 19.4256C30.2826 18.4401 29.6235 16.3114 31.431 16.134C33.2385 15.9566 34.4268 18.2529 34.7764 19.5537C35.1395 20.8657 35.2312 22.2365 35.046 23.5842C36.4185 22.5884 37.6834 21.4556 38.8207 20.204C38.8429 19.178 38.6771 18.1565 38.3314 17.1885C37.6991 15.9528 36.9069 14.8034 35.9747 13.769C35.2956 12.7835 34.4069 10.5071 36.3542 10.31C38.0518 10.1425 39.8494 12.2809 40.6183 13.5226C40.9997 14.1706 41.3078 14.858 41.537 15.5724L41.5969 15.4048C42.1242 13.7479 42.3705 12.0165 42.3259 10.2804ZM19.4176 10.1325C19.4075 10.2451 19.3715 10.3539 19.3121 10.4505C19.2528 10.5471 19.1718 10.6291 19.0753 10.69C18.9789 10.7509 18.8696 10.7892 18.7558 10.8019C18.6421 10.8146 18.5268 10.8014 18.419 10.7633C18.3584 10.7461 18.3051 10.7099 18.2673 10.66C18.2294 10.6102 18.2091 10.5496 18.2093 10.4873C18.1944 10.4224 18.1944 10.3551 18.2093 10.2903C18.1665 10.2447 18.1427 10.1848 18.1427 10.1227C18.1427 10.0605 18.1665 10.0008 18.2093 9.95523C18.3283 9.85057 18.4732 9.77889 18.6294 9.74772C18.7855 9.71655 18.9473 9.72696 19.0981 9.77779C19.1446 9.77375 19.1915 9.78049 19.235 9.79752C19.2784 9.81455 19.3172 9.84136 19.3483 9.87583C19.3793 9.91031 19.4017 9.95156 19.4138 9.99613C19.4258 10.0407 19.4272 10.0874 19.4176 10.1325ZM20.0868 8.37838C20.0455 8.37604 20.0052 8.36531 19.9684 8.34686C19.9316 8.32841 19.8989 8.30266 19.8727 8.2712C19.8464 8.23973 19.827 8.20322 19.8158 8.16401C19.8045 8.1248 19.8015 8.08374 19.8071 8.04335C19.7874 7.95045 19.7948 7.85393 19.8284 7.76499C19.862 7.67604 19.9204 7.5983 19.9968 7.54076C20.1187 7.37838 20.2954 7.26438 20.495 7.2192C20.6946 7.17403 20.904 7.20065 21.0854 7.29439C21.1417 7.32547 21.1854 7.3749 21.2091 7.43417C21.2328 7.49345 21.2349 7.55901 21.2151 7.61967C21.1446 7.85522 20.9938 8.05939 20.7881 8.1977C20.5824 8.336 20.3347 8.39981 20.0868 8.37838ZM21.7144 10.1819C21.4248 10.3691 20.9655 10.5267 20.7158 10.2607C20.6518 10.1857 20.6038 10.0989 20.5745 10.0052C20.5453 9.91145 20.5355 9.81287 20.5458 9.71536C20.556 9.61784 20.5861 9.52337 20.6342 9.43759C20.6823 9.35181 20.7474 9.2765 20.8257 9.21613C21.1185 8.95473 21.4569 8.74774 21.8243 8.60514C21.8879 8.57645 21.9596 8.57054 22.0271 8.58854C22.0946 8.60654 22.1535 8.64728 22.1938 8.70366C22.234 8.71841 22.2702 8.74208 22.2996 8.77283C22.3291 8.80359 22.3509 8.84055 22.3636 8.88098C22.4087 9.13768 22.3701 9.40187 22.2535 9.6356C22.1369 9.86933 21.9481 10.0606 21.7144 10.1819ZM30.2027 8.94017C29.6534 8.94017 28.8746 8.53612 28.8246 7.9547C28.8075 7.75843 28.8626 7.56258 28.9801 7.40326C29.0975 7.24394 29.2692 7.13185 29.4637 7.08748C29.49 7.0595 29.523 7.03855 29.5596 7.02649C29.5963 7.01443 29.6354 7.01159 29.6734 7.01843H29.7733C29.912 6.99368 30.0541 6.99368 30.1927 7.01843C30.2337 7.02765 30.2717 7.04704 30.3031 7.07461C30.3345 7.10217 30.3584 7.13704 30.3725 7.17614C30.6709 7.32061 30.918 7.55082 31.0815 7.83644C31.381 8.46715 30.7919 8.97957 30.2027 8.92044V8.94017ZM31.3811 5.25452C30.582 5.74401 29.6398 5.9556 28.7047 5.85564C27.9158 5.78666 26.8773 5.18556 27.776 4.41689C28.2311 4.04596 28.7775 3.80041 29.3598 3.70522C29.9421 3.61003 30.5395 3.66854 31.0915 3.87484C31.1433 3.9021 31.1826 3.94795 31.2013 4.00295C31.36 4.0522 31.4995 4.14858 31.6008 4.27891C31.6994 4.43793 31.7316 4.62851 31.6906 4.8105C31.6496 4.9925 31.5387 5.15169 31.3811 5.25452Z" fill="#0B8E6D"/>
<path d="M25.0895 6.94961C24.8582 5.99232 24.3624 5.1171 23.6573 4.42121C22.9521 3.72532 22.0651 3.23603 21.0951 3.00773C19.3345 2.49558 17.4436 2.65015 15.7924 3.44128C15.7416 3.41977 15.6851 3.41491 15.6312 3.42732C15.5773 3.43973 15.5288 3.46882 15.4929 3.51033C14.8956 4.10421 14.4267 4.81161 14.1148 5.58965C14.1001 5.6389 14.0992 5.69113 14.112 5.74087C14.1249 5.7906 14.1511 5.83605 14.1878 5.87235C14.2246 5.90865 14.2706 5.93449 14.321 5.94717C14.3714 5.95986 14.4243 5.95888 14.4743 5.94441C15.4729 5.74731 16.3117 5.1856 17.2904 4.95894C18.4542 4.59585 19.695 4.54481 20.8854 4.81109C21.4759 5.00141 22.022 5.30604 22.4918 5.70706C22.9616 6.10808 23.3457 6.59744 23.6216 7.14665C24.0434 7.93346 24.3782 8.76274 24.6202 9.62019C24.7401 10.0439 24.8499 10.4776 24.9597 10.9112C25.0231 11.2988 25.0465 11.6916 25.0296 12.0839C25.0296 13.9661 25.0296 15.8582 25.0296 17.7404C24.9597 20.5293 24.8898 23.3281 25.0296 26.1169C25.0296 26.4914 25.3492 27.1616 25.3392 26.797C25.1495 23.1015 25.4291 19.4257 25.5689 15.74C25.6488 12.9413 25.8884 9.78776 25.0895 6.94961Z" fill="#02B581"/>
<path d="M23.5318 33.37C22.848 31.8551 21.7303 30.5706 20.3163 29.6745C18.9325 28.6968 17.2373 28.2453 15.5429 28.4032C14.045 28.5904 13.3959 29.4674 12.3174 30.2263C12.2375 27.8217 10.3202 26.442 7.88353 26.511C7.58199 26.5233 7.28166 26.5562 6.98475 26.6095C7.5845 27.1426 8.05489 27.8021 8.3609 28.5391C8.6669 29.2761 8.80067 30.0718 8.75232 30.8668C8.74806 30.9219 8.72822 30.9747 8.69509 31.0192C8.66195 31.0638 8.61688 31.0983 8.5649 31.1189C8.51291 31.1394 8.45612 31.145 8.401 31.1353C8.34588 31.1256 8.2946 31.1009 8.25301 31.0639C6.9648 29.9996 6.2558 28.4031 4.89768 27.398C4.28238 27.775 3.72709 28.2399 3.24994 28.7776C4.99752 29.5266 6.57532 31.2018 6.42553 32.7885C6.42381 32.8322 6.41233 32.875 6.39182 32.9138C6.37132 32.9526 6.34232 32.9863 6.30698 33.0127C6.27164 33.0391 6.23078 33.0574 6.18739 33.0663C6.14401 33.0753 6.09914 33.0746 6.05605 33.0644C5.43052 32.8355 4.84955 32.5021 4.33846 32.0789C3.57345 31.4811 2.63704 31.1363 1.66217 31.0935C1.08003 32.202 0.618106 33.368 0.284078 34.5722C2.84053 33.6656 5.76648 33.3206 7.15456 35.7646C7.19072 35.8301 7.19947 35.907 7.17894 35.9788C7.15841 36.0507 7.11026 36.1117 7.04473 36.1489C5.26719 37.4202 2.94039 35.4886 1.15287 36.8387C0.673123 37.2273 0.290435 37.7197 0.0344238 38.2776C0.0852502 38.587 0.155246 38.893 0.244094 39.194C0.51378 40.0329 0.903909 40.8294 1.40252 41.5592C2.8605 40.3569 5.03748 38.6027 6.3956 39.805C6.44987 39.8586 6.48038 39.9313 6.48038 40.0071C6.48038 40.0829 6.44987 40.1555 6.3956 40.2091C5.34706 41.1945 4.01891 41.9533 3.23001 43.1655C3.14013 43.3034 3.07018 43.4414 2.99029 43.5794C3.53251 44.2108 3.97066 44.9225 4.28854 45.6883C4.59811 46.5063 4.56812 47.3734 4.9476 48.1716C4.9888 48.2353 5.05317 48.281 5.12746 48.2994C5.20175 48.3177 5.28034 48.3073 5.34707 48.2703C7.01104 47.6216 8.74764 47.1716 10.5199 46.9299C10.4465 45.8472 10.1401 44.7924 9.62111 43.8356C9.47666 43.5615 9.38901 43.2617 9.36329 42.9538C9.33757 42.6458 9.37434 42.3358 9.47136 42.042C9.5649 41.8048 9.71889 41.5955 9.91849 41.4343C10.1181 41.2731 10.3565 41.1654 10.6106 41.1218C10.8647 41.0781 11.126 41.1 11.369 41.1853C11.612 41.2705 11.8286 41.4164 11.9978 41.6085C13.0663 42.7812 13.1662 44.7521 12.6769 46.5358C13.8989 46.3112 15.0937 45.961 16.2419 45.4912L16.6314 45.304C16.5994 44.9679 16.5256 44.6369 16.4117 44.3185C16.212 43.7667 15.8825 43.333 15.6528 42.7515C15.4607 42.3902 15.3536 41.9908 15.3398 41.583C15.326 41.1751 15.4057 40.7694 15.5729 40.3962C16.0422 39.4108 17.1207 38.6914 18.0794 39.5586C19.2478 40.6032 19.1579 42.2884 18.6886 43.9932C19.942 42.8919 21.0105 41.6013 21.8542 40.1696C21.5944 38.4264 20.6954 36.8381 19.3277 35.7055C18.6386 35.1635 17.4103 34.6314 17.1107 33.7346C16.5615 32.0888 19.2578 32.0297 20.1066 32.7491C21.6844 33.9612 22.1039 36.5431 22.3335 38.3564C22.3335 38.6126 22.4034 38.8689 22.4334 39.1251C22.6531 38.7177 22.8628 38.3137 23.0625 37.913C23.4749 37.2365 23.7307 36.4786 23.8118 35.6933C23.893 34.9079 23.7974 34.1146 23.5318 33.37ZM8.10326 32.9462L7.98337 32.7097C7.8136 32.3845 8.31291 32.0888 8.48267 32.4238L8.60256 32.6603C8.77233 32.9954 8.27302 33.2812 8.10326 32.9462ZM10.3701 32.7294C9.81085 32.8476 9.37147 31.7439 9.82085 31.4482C9.89511 31.3958 9.98126 31.3621 10.0718 31.3501C10.1623 31.338 10.2545 31.3481 10.3401 31.3793C10.5399 31.4483 10.8295 31.6257 10.8295 31.8622C10.8295 32.0987 10.7595 32.6505 10.3701 32.7294ZM11.7382 39.4108C11.6111 39.4034 11.4905 39.3535 11.3961 39.2693C11.3016 39.1851 11.2392 39.0716 11.2189 38.9476C11.2189 38.6914 11.4985 38.1691 11.8081 38.3662C12.1177 38.5633 12.3074 38.6618 12.3074 38.9378C12.3069 39.0076 12.2911 39.0764 12.261 39.1396C12.2309 39.2028 12.1874 39.2589 12.1333 39.3038C12.0792 39.3488 12.0159 39.3816 11.9477 39.4001C11.8795 39.4185 11.808 39.4222 11.7382 39.4108ZM16.1221 37.568C16.0422 37.8734 15.3432 37.9326 15.1235 37.7257C14.8814 37.4824 14.7457 37.1551 14.7457 36.8142C14.7457 36.4732 14.8814 36.1458 15.1235 35.9026C15.1738 35.865 15.2352 35.8447 15.2982 35.8447C15.3613 35.8447 15.4227 35.865 15.473 35.9026C15.7479 36.0748 15.9594 36.3296 16.0763 36.6295C16.1932 36.9294 16.2092 37.2584 16.1221 37.568Z" fill="#0B8E6D"/>
<path d="M21.8942 31.5862C21.011 30.8218 19.883 30.3891 18.7086 30.3643C18.6318 30.3643 18.5581 30.3944 18.5038 30.448C18.4495 30.5016 18.4189 30.5743 18.4189 30.6501C18.4189 30.7259 18.4495 30.7985 18.5038 30.8521C18.5581 30.9057 18.6318 30.9358 18.7086 30.9358C19.7774 30.9675 20.8001 31.3726 21.5945 32.079C21.9041 32.3056 22.1838 31.8129 21.8942 31.5862Z" fill="#02B581"/>
<path d="M22.4533 33.0151C22.3727 32.9387 22.3022 32.8526 22.2435 32.7589C22.202 32.7 22.1396 32.6588 22.0687 32.6433C21.9977 32.6277 21.9234 32.6391 21.8606 32.675C21.7977 32.711 21.7509 32.769 21.7294 32.8374C21.7078 32.9059 21.7131 32.9799 21.7442 33.0447C21.8271 33.1819 21.9278 33.3078 22.0438 33.4192C22.3134 33.6656 22.7229 33.2615 22.4533 33.0151Z" fill="#02B581"/>
<path d="M20.1266 37.1839C20.1266 37.105 19.9668 37.0655 19.887 37.0064C19.7115 36.8576 19.5245 36.7225 19.3277 36.6023C19.118 36.5038 18.9583 36.7207 18.9583 36.9375C18.9614 37.0138 18.9798 37.0888 19.0124 37.1581C19.0449 37.2274 19.091 37.2897 19.148 37.3414C19.2676 37.4389 19.4073 37.5096 19.5574 37.5485C19.6713 37.5828 19.793 37.5828 19.9069 37.5485C19.9651 37.5395 20.0196 37.5143 20.0638 37.4759C20.108 37.4375 20.1401 37.3874 20.1565 37.3316C20.1645 37.3064 20.1659 37.2798 20.1606 37.254C20.1554 37.2282 20.1437 37.2041 20.1266 37.1839Z" fill="#02B581"/>
<path d="M20.2563 39.1449V39.953C20.2563 40.4358 20.8455 40.1501 20.9753 39.953C21.0289 39.83 21.0566 39.6975 21.0566 39.5637C21.0566 39.4298 21.0289 39.2974 20.9753 39.1744C20.8555 38.8788 20.2563 38.7113 20.2563 39.1449Z" fill="#02B581"/>
<path d="M19.0481 38.4844C18.9023 38.363 18.7194 38.2936 18.5288 38.2874C18.4788 38.294 18.4319 38.3154 18.3945 38.3488C18.357 38.3823 18.3308 38.4261 18.3191 38.4745C18.3232 38.5179 18.337 38.5598 18.3594 38.5972C18.3819 38.6347 18.4124 38.6668 18.4489 38.6913C18.5848 38.8163 18.7398 38.9195 18.9082 38.9969C18.9881 38.9969 19.098 39.056 19.148 38.9969C19.1641 38.9557 19.1641 38.91 19.148 38.8687C19.1633 38.7906 19.1633 38.7104 19.148 38.6322C19.1302 38.5743 19.0955 38.5228 19.0481 38.4844Z" fill="#02B581"/>
<path d="M14.5642 41.2536C14.4444 40.8988 13.8852 41.0564 14.005 41.4013C14.1248 41.7462 14.005 41.9926 14.1748 42.2488C14.2043 42.2976 14.2471 42.3373 14.2982 42.3635C14.3494 42.3896 14.407 42.401 14.4644 42.3967C14.6941 42.3967 14.6341 42.1208 14.6341 41.9631C14.651 41.7244 14.6274 41.4846 14.5642 41.2536Z" fill="#02B581"/>
<path d="M6.93481 41.0467C6.63523 41.1156 6.01608 41.4113 5.93619 41.766C5.92485 41.78 5.9187 41.7974 5.9187 41.8153C5.9187 41.8333 5.92485 41.8507 5.93619 41.8647H5.99611L6.51541 41.7464C6.69516 41.7464 7.10458 41.6281 7.19446 41.4507C7.28434 41.2733 7.13453 41.0072 6.93481 41.0467Z" fill="#02B581"/>
<path d="M7.37435 42.2193C7.33372 42.1862 7.28639 42.1619 7.23551 42.1484C7.18462 42.1348 7.13138 42.1321 7.07935 42.1405C7.02733 42.1489 6.97771 42.1682 6.93386 42.1971C6.89002 42.226 6.85294 42.2638 6.82513 42.308C6.65348 42.6079 6.57046 42.9493 6.58547 43.2935C6.58768 43.336 6.60195 43.377 6.62667 43.4118C6.65139 43.4467 6.68559 43.4739 6.72529 43.4905C6.78959 43.5148 6.86066 43.5148 6.92496 43.4905C6.98503 43.4528 7.03895 43.4063 7.08478 43.3525L7.34443 43.0866C7.46114 42.9951 7.54797 42.8717 7.59408 42.7318C7.61235 42.6585 7.61089 42.5817 7.58987 42.5091C7.56886 42.4365 7.52901 42.3706 7.47425 42.3179C7.41993 42.2655 7.35222 42.2286 7.27836 42.2113C7.20449 42.1939 7.12719 42.1968 7.05479 42.2193C7.11249 42.1922 7.17561 42.1781 7.23953 42.1781C7.30345 42.1781 7.36657 42.1922 7.42427 42.2193" fill="#02B581"/>
<path d="M5.40704 44.6832C5.32928 44.9079 5.30535 45.1474 5.33713 45.3828C5.33713 45.7376 5.95629 45.7474 5.91634 45.3828C5.88284 45.1978 5.90006 45.0072 5.96626 44.8309C6.09608 44.486 5.53686 44.3382 5.40704 44.6832Z" fill="#02B581"/>
<path d="M7.33425 45.5305C7.25745 45.5305 7.18377 45.5606 7.12946 45.6142C7.07515 45.6678 7.04468 45.7404 7.04468 45.8162C7.04468 45.892 7.07515 45.9647 7.12946 46.0183C7.18377 46.0719 7.25745 46.102 7.33425 46.102C7.41106 46.102 7.48474 46.0719 7.53905 46.0183C7.59336 45.9647 7.62383 45.892 7.62383 45.8162C7.62383 45.7404 7.59336 45.6678 7.53905 45.6142C7.48474 45.5606 7.41106 45.5305 7.33425 45.5305Z" fill="#02B581"/>
<path d="M14.1549 43.5991C14.0781 43.5991 14.0044 43.6293 13.9501 43.6828C13.8958 43.7364 13.8652 43.8092 13.8652 43.8849C13.8652 43.9607 13.8958 44.0334 13.9501 44.087C14.0044 44.1406 14.0781 44.1708 14.1549 44.1708C14.2317 44.1708 14.3053 44.1406 14.3596 44.087C14.4139 44.0334 14.4444 43.9607 14.4444 43.8849C14.4444 43.8092 14.4139 43.7364 14.3596 43.6828C14.3053 43.6293 14.2317 43.5991 14.1549 43.5991Z" fill="#02B581"/>
<path d="M15.2135 44.3972C15.2064 44.3375 15.1803 44.2816 15.139 44.2373C15.0978 44.1931 15.0435 44.1629 14.9838 44.1508H14.9339C14.5045 44.0523 14.5245 44.6929 14.5944 44.9393C14.6035 44.9967 14.6289 45.0503 14.6678 45.094C14.7067 45.1376 14.7575 45.1695 14.8141 45.1856C14.8652 45.1849 14.9152 45.1708 14.9591 45.1449C15.0029 45.1189 15.039 45.082 15.0637 45.0378C15.1302 44.946 15.1776 44.8422 15.2033 44.7322C15.229 44.6223 15.2325 44.5085 15.2135 44.3972Z" fill="#02B581"/>
<path d="M20.3662 41.0565C20.2863 40.6919 19.7371 40.8496 19.817 41.2044C19.8337 41.2977 19.879 41.3837 19.9468 41.4507C20.2065 41.7464 20.6059 41.3423 20.3662 41.0565Z" fill="#02B581"/>
<path d="M23.7816 34.7595L23.7217 34.7004C23.667 34.649 23.5941 34.6207 23.5185 34.6216C23.4429 34.6225 23.3707 34.6525 23.3172 34.7052C23.2638 34.758 23.2334 34.8292 23.2324 34.9038C23.2315 34.9784 23.2602 35.0503 23.3123 35.1044L23.3722 35.1635C23.6418 35.4198 24.0512 35.0157 23.7816 34.7595Z" fill="#02B581"/>
<path d="M55.947 31.1526C55.5775 29.7828 55.228 28.0188 53.9498 27.2107C52.6716 26.4026 51.0738 26.8657 49.9553 27.6147C49.3237 28.0196 48.7777 28.5418 48.3476 29.1521C47.7584 30.0193 47.4787 31.0639 46.56 31.6355C45.0821 30.1375 46.2405 27.5162 45.4716 25.7226C44.7625 24.0769 42.9051 23.4855 41.2974 23.0519C37.982 22.165 32.5295 21.9975 30.7919 25.7029C30.732 25.8212 30.7919 26.0281 30.9417 26.0478C33.2086 26.3434 36.4341 25.0624 38.2815 26.9347C38.5312 27.1811 39.2801 27.9202 39.2002 28.3538C39.2002 29.1717 38.2016 28.7775 37.8022 28.6297C36.9234 28.3439 36.1345 27.9892 35.2158 27.7822C33.0488 27.2994 30.4724 27.191 28.575 28.5213C27.8387 29.1232 27.2432 29.8752 26.8294 30.7258C26.4157 31.5764 26.1936 32.5053 26.1783 33.4487C26.1783 33.6556 26.388 33.7246 26.5378 33.6556C28.0195 32.853 29.5914 32.2246 31.2213 31.7832C32.7135 31.506 34.2513 31.5871 35.7051 32.0197C36.0746 32.1281 37.6025 32.4237 37.1531 33.0052C36.9933 33.2121 36.0147 33.0939 35.775 33.0742C34.5866 33.0151 33.4183 32.9264 32.2299 32.9658C30.003 33.0348 27.0171 33.3797 25.6091 35.3408C24.4008 37.026 24.6804 39.2827 24.5605 41.2536C24.5621 41.2956 24.5745 41.3365 24.5966 41.3724C24.6187 41.4083 24.6497 41.438 24.6868 41.4588C24.7238 41.4795 24.7656 41.4906 24.8082 41.4909C24.8508 41.4912 24.8927 41.4808 24.93 41.4606C26.2682 40.7116 27.3467 39.6276 28.6648 38.8688C30.1746 38.0328 31.8259 37.4751 33.5381 37.223C34.2671 37.0949 36.3941 36.4149 37.0133 36.8682C37.6324 37.3216 36.4042 37.8537 36.0646 37.9917C35.4355 38.2381 34.7964 38.4451 34.1672 38.6619C31.7106 39.4798 29.0244 40.3174 27.2368 42.2883C25.8488 43.8059 26.0285 46.0134 26.7075 47.8267C26.719 47.8612 26.7382 47.8929 26.7635 47.9193C26.7889 47.9457 26.8199 47.9662 26.8543 47.9794C26.8887 47.9926 26.9256 47.9981 26.9624 47.9956C26.9992 47.993 27.0349 47.9825 27.0671 47.9646C30.0629 46.1021 32.7692 43.9341 35.6552 41.973C36.2127 41.5589 36.8283 41.2269 37.4826 40.9876C37.942 40.7313 38.2116 40.8692 38.2915 41.4112C38.7109 41.7562 38.7009 42.0715 38.2915 42.3967C38.0663 42.6299 37.8189 42.8411 37.5525 43.0274C36.6315 43.6371 35.6631 44.1742 34.6565 44.6337C32.869 45.5404 30.7919 46.6047 29.8732 48.4475C28.7248 50.8028 30.3226 52.8822 31.8005 54.6461C31.8228 54.6682 31.8492 54.6857 31.8783 54.6976C31.9075 54.7096 31.9387 54.7157 31.9703 54.7157C32.0018 54.7157 32.033 54.7096 32.0622 54.6976C32.0913 54.6857 32.1177 54.6682 32.14 54.6461C32.6332 53.9276 32.998 53.131 33.2185 52.2909C33.7076 50.9374 34.5436 49.7321 35.6452 48.7924C36.496 48.0854 37.4121 47.4586 38.3814 46.9201C38.7808 46.6934 40.1589 45.7966 40.2987 46.7525C40.3487 47.1467 39.6796 47.8464 39.4499 48.1026C38.0219 49.6695 36.0047 50.6255 34.7264 52.3402C33.3284 54.2126 34.1173 55.6711 35.9148 56.893C35.9518 56.911 35.9927 56.9196 36.0339 56.9182C36.0751 56.9168 36.1153 56.9052 36.1509 56.8847C36.1865 56.8643 36.2164 56.8355 36.2379 56.8008C36.2594 56.7661 36.2719 56.7266 36.2743 56.686C36.2523 55.8504 36.4462 55.0231 36.8375 54.2818C37.2288 53.5405 37.8047 52.9097 38.5112 52.4486C38.6993 52.3122 38.904 52.1996 39.1204 52.1134L39.6396 53.0398C39.6396 53.2074 39.2003 53.4734 39.0605 53.5916C38.6804 53.9215 38.3626 54.3152 38.1218 54.7545C37.8568 55.1095 37.7089 55.5363 37.6982 55.977C37.6875 56.4177 37.8145 56.8511 38.0619 57.2182C38.445 57.559 38.8979 57.8144 39.39 57.9672C40.1765 58.325 40.9145 58.7786 41.5869 59.3173C41.6179 59.3459 41.6558 59.3662 41.697 59.3763C41.7381 59.3865 41.7812 59.3861 41.8221 59.3752C41.8631 59.3644 41.9006 59.3435 41.9311 59.3144C41.9616 59.2853 41.9841 59.2489 41.9964 59.2089C42.3659 58.0854 44.0835 58.0953 44.8624 57.3266C45.4314 56.5658 45.7043 55.6284 45.6313 54.6855C45.6812 53.8084 45.6913 51.6109 44.9623 50.448C45.2419 50.1425 45.5015 50.1919 45.7412 50.6156C45.9359 50.9572 46.0868 51.3213 46.1905 51.6996C46.3697 52.3413 46.4538 53.0051 46.4402 53.6705C46.4402 54.7743 46.3004 55.8681 46.2005 56.962C46.2005 57.0256 46.2254 57.0869 46.2701 57.1328C46.3148 57.1787 46.3757 57.2058 46.4402 57.2083C47.7584 57.1098 49.9054 56.1637 50.1351 54.7249C50.4946 52.4978 48.727 50.1031 47.5786 48.3687C46.9695 47.3832 45.7412 46.043 45.5814 44.89C45.4216 43.737 46.58 43.2738 47.4688 44.0523C47.8226 44.3942 48.1132 44.7944 48.3276 45.2349C49.7443 47.9026 50.5617 50.8403 50.7243 53.8479C50.7247 53.885 50.7336 53.9216 50.7504 53.9549C50.7671 53.9882 50.7913 54.0173 50.8211 54.0401C50.8509 54.0628 50.8855 54.0786 50.9223 54.0863C50.9592 54.094 50.9973 54.0933 51.0339 54.0844C52.0465 53.6215 52.9905 53.0248 53.84 52.3106C54.1273 52.1493 54.3623 51.9109 54.5179 51.6231C54.6734 51.3353 54.7431 51.0098 54.7188 50.6845C54.533 49.8371 54.1948 49.0293 53.7201 48.2997C53.1139 47.0388 52.4094 45.8264 51.613 44.6732C51.1836 44.0721 50.7343 43.4906 50.2749 42.9092C49.8358 42.4684 49.4411 41.9866 49.0965 41.4704C48.9567 41.1846 49.2563 40.071 49.5959 39.9626C49.9354 39.8542 50.4846 40.3667 50.7043 40.5736C51.0171 40.8759 51.3012 41.2058 51.5531 41.5591C53.4437 43.7288 54.5502 46.4569 54.6988 49.3147C54.6984 49.3564 54.7092 49.3974 54.73 49.4337C54.7509 49.4699 54.7812 49.5001 54.8177 49.5212C54.8542 49.5422 54.8956 49.5533 54.9379 49.5534C54.9801 49.5535 55.0217 49.5425 55.0583 49.5216C56.0569 49.0782 56.4863 47.7577 56.8458 46.8313C57.427 45.3176 57.6524 43.6936 57.5049 42.0814C57.3832 40.5595 56.9049 39.0863 56.1078 37.778C55.3106 36.4698 54.2163 35.3622 52.9113 34.5425C53.3319 34.4472 53.7689 34.4472 54.1895 34.5425C54.5695 34.6437 54.9146 34.8446 55.1881 35.1239C55.4903 35.5086 55.8243 35.868 56.1867 36.1982C56.2142 36.2221 56.2468 36.2397 56.282 36.2498C56.3172 36.2599 56.3543 36.2622 56.3905 36.2565C56.4267 36.2509 56.4613 36.2374 56.4916 36.2171C56.522 36.1968 56.5474 36.1701 56.5662 36.139C57.2952 34.6411 56.3465 32.5717 55.947 31.1526ZM42.3958 38.3366C42.3064 38.4235 42.2095 38.5027 42.1062 38.5731C41.9888 38.6703 41.8502 38.7397 41.7013 38.7755C41.5523 38.8114 41.3971 38.813 41.2474 38.7801H41.1176C41.079 38.7706 41.0437 38.7509 41.0156 38.7231C40.9874 38.6953 40.9675 38.6605 40.9578 38.6224C40.9203 38.6184 40.8845 38.605 40.8538 38.5834C40.8231 38.5618 40.7986 38.5327 40.7826 38.4991C40.7665 38.4654 40.7595 38.4283 40.7622 38.3912C40.7649 38.3541 40.7773 38.3184 40.798 38.2874C40.9177 38.0962 41.0962 37.9477 41.3074 37.8636H41.3673C41.4022 37.8437 41.4418 37.8333 41.4821 37.8333C41.5224 37.8333 41.562 37.8437 41.5969 37.8636C41.7707 37.825 41.9481 37.8052 42.1262 37.8045C42.1789 37.805 42.23 37.8226 42.2715 37.8547C42.3131 37.8867 42.3427 37.9314 42.3559 37.9818C42.3607 38.0211 42.3607 38.0608 42.3559 38.1001C42.3884 38.1294 42.4122 38.167 42.4245 38.2087C42.4369 38.2504 42.4373 38.2946 42.4258 38.3366H42.3958ZM42.2361 36.474H41.9664C41.6136 36.5418 41.2507 36.5418 40.8979 36.474C40.7554 36.4548 40.6208 36.3979 40.5083 36.3095C40.3958 36.221 40.3096 36.1042 40.2588 35.9714C40.1766 35.9171 40.1165 35.836 40.0891 35.7423C40.0617 35.6485 40.0687 35.5482 40.109 35.4591C40.2588 35.1634 40.6882 35.0648 40.9678 34.986H41.0976C41.4498 34.8887 41.8223 34.8888 42.1745 34.9861C42.5267 35.0834 42.8451 35.2742 43.0949 35.5379C43.4643 36.1784 42.7553 36.4445 42.266 36.5135L42.2361 36.474ZM44.1234 33.1333C44.1234 33.4092 43.8039 33.5571 43.5542 33.5965C43.3238 33.6447 43.0857 33.6447 42.8552 33.5965C42.5877 33.6036 42.3229 33.5424 42.0862 33.4191C42.0059 33.3745 41.937 33.3121 41.885 33.2368C41.8331 33.1616 41.7994 33.0757 41.7867 32.9855C41.7755 32.8553 41.8115 32.7254 41.8883 32.6189C41.9651 32.5124 42.0777 32.4362 42.2061 32.404C42.7149 32.2795 43.2529 32.3575 43.704 32.6209C43.9636 32.6702 44.1833 32.8672 44.1534 33.1333H44.1234ZM48.5573 35.8237C48.5379 35.9569 48.4662 36.0773 48.3576 36.1587L48.2877 36.2375C48.192 36.3426 48.0647 36.4146 47.9245 36.443C47.7843 36.4714 47.6386 36.4546 47.5087 36.3952C47.4287 36.3532 47.3616 36.2908 47.3142 36.2145C47.2668 36.1383 47.2409 36.051 47.2391 35.9616C47.1809 35.8091 47.1809 35.641 47.2391 35.4886C47.2602 35.3961 47.3068 35.3114 47.3738 35.2435C47.4408 35.1757 47.5255 35.1274 47.6186 35.1042C47.9581 35.0057 48.6472 35.3605 48.5872 35.8237H48.5573Z" fill="#02B581"/>
<path d="M50.9537 27.7428C48.7268 28.5115 47.8381 31.0738 46.2103 32.5815C46.1648 32.6031 46.1266 32.6374 46.1005 32.6801C46.0652 32.7055 46.038 32.7404 46.0221 32.7805C46.0062 32.8207 46.0022 32.8644 46.0106 32.9067C45.5114 34.2256 45.088 35.5714 44.7424 36.9374C44.6325 37.302 44.5127 37.6765 44.3928 38.0509L44.3129 38.1396C44.2736 38.183 44.2519 38.2391 44.2519 38.2973C44.2519 38.3555 44.2736 38.4115 44.3129 38.4549C43.9534 39.5488 43.5839 40.6426 43.3143 41.7562C42.8484 43.3368 42.475 44.9424 42.1959 46.5653C41.9662 48.2702 42.1959 49.7976 41.8264 51.4926C41.7665 51.7981 41.9163 52.1037 41.9762 51.7982C42.2558 50.3693 42.3956 48.9305 42.5753 47.4917C42.8154 45.7401 43.1826 44.0078 43.6739 42.3081C43.9435 41.3226 44.1632 40.1795 44.4927 39.194C44.8223 38.2085 45.4913 37.4695 45.8308 36.553C46.2453 35.3961 46.8603 34.3191 47.6483 33.37C49.306 31.1724 51.0636 28.551 54.2392 29.7434C54.4689 29.8321 54.6387 29.5857 54.5987 29.3985C54.4938 29.0371 54.311 28.7023 54.0629 28.417C53.8148 28.1317 53.5072 27.9026 53.1611 27.7454C52.8151 27.5882 52.4387 27.5065 52.0577 27.5061C51.6768 27.5057 51.3002 27.5864 50.9537 27.7428Z" fill="#107D5D"/>
<path d="M58.2537 32.0988C58.3735 31.5864 58.6332 31.0049 59.1524 30.8768C59.3892 30.8377 59.6325 30.8799 59.8415 30.9965C60.0505 31.1131 60.2126 31.297 60.3008 31.5174C60.4607 31.9672 60.4607 32.4571 60.3008 32.9068C60.161 33.3503 59.9413 33.784 59.7915 34.2275C59.6219 34.7962 59.571 35.3928 59.6417 35.9815C59.9956 36.2624 60.3732 36.5129 60.7702 36.7305C61.4046 37.0723 62.0741 37.3466 62.7674 37.5485C62.6765 37.2849 62.6063 37.0146 62.5577 36.7403C62.4804 36.3926 62.5047 36.0305 62.6276 35.6958C62.6868 35.5277 62.7953 35.3807 62.9393 35.2737C63.0833 35.1666 63.2564 35.1044 63.4365 35.0947C64.0656 35.0947 64.3652 35.8338 64.4351 36.4349C64.5117 36.9643 64.6251 37.4878 64.7746 38.0018C65.7133 38.1496 66.672 38.2383 67.6007 38.2975C67.973 38.3669 68.3558 38.3598 68.7252 38.2768C69.0946 38.1937 69.4427 38.0363 69.7477 37.8145C70.2363 37.2573 70.5518 36.573 70.6565 35.8435C71.1096 34.3177 71.4205 32.7541 71.5852 31.1724C71.3623 30.9226 71.1184 30.6919 70.8562 30.4826C70.2916 30.1279 69.7919 29.6814 69.3783 29.1621C69.0387 28.5906 69.1286 27.6938 69.7477 27.4573C69.9653 27.3989 70.1939 27.3926 70.4145 27.4389C70.635 27.4852 70.8413 27.5826 71.016 27.7233C71.0959 27.7725 71.1658 27.8416 71.2457 27.9007C70.9187 26.2115 69.9643 24.7038 68.5694 23.673C66.3225 22.2539 62.9372 23.5055 62.3679 25.8804C62.2917 26.1731 62.2615 26.4755 62.2781 26.7773C61.9405 26.5139 61.5716 26.2921 61.1796 26.1169C59.9912 25.0625 56.9355 27.467 56.4762 28.5806C55.6773 30.4924 56.586 32.6999 58.004 34.4048C57.966 33.628 58.0503 32.8501 58.2537 32.0988Z" fill="#0B8E6D"/>
<path d="M48.6271 78.1595L51.1236 61.9387H23.4719L25.9685 78.1595V78.2482C26.3294 80.2216 27.387 82.0051 28.9536 83.2823C30.5203 84.5595 32.4947 85.2479 34.5266 85.2254H40.049C42.0829 85.2495 44.0595 84.5604 45.6267 83.2809C47.1939 82.0014 48.2501 80.2144 48.6071 78.2383L48.6271 78.1595Z" fill="#E76565"/>
<path opacity="0.78" d="M46.8796 61.9387L44.383 78.1595V78.2383C44.0239 80.2152 42.9658 82.0024 41.3969 83.2817C39.828 84.5611 37.85 85.2499 35.8149 85.2254H40.069C42.1029 85.2495 44.0795 84.5604 45.6468 83.2809C47.214 82.0014 48.2701 80.2144 48.6271 78.2383V78.1595L51.1237 61.9387H46.8796Z" fill="#D34242"/>
</g>
<defs>
<clipPath id="clip0_1_1962">
<rect width="71.6307" height="84.5533" fill="white" transform="translate(0.0344238 0.681885)"/>
</clipPath>
</defs>
</svg>
