<svg width="191" height="210" viewBox="0 0 191 210" fill="none" xmlns="http://www.w3.org/2000/svg">
<g clip-path="url(#clip0_1_1472)">
<path d="M188.652 77.5348C171.086 87.4991 153.521 98.0789 138.96 112.16C131.718 119.162 125.131 128.087 117.466 135.243C114.692 136.397 111.919 137.59 109.299 139.09C112.639 134.167 115.528 128.952 117.928 123.509C123.514 111.429 129.484 99.6179 135.686 87.8453C141.89 76.7218 147.247 65.1473 151.71 53.2202C156.179 40.2935 159.415 27.0206 165.809 14.7479C166.387 13.5937 164.769 12.0933 163.883 13.2475L163.69 13.5168C155.254 24.2891 147.781 35.7538 139.191 46.4107C131.065 55.9492 123.613 66.0405 116.888 76.6114C110.532 87.6692 105.821 99.5925 102.905 112.006C101.595 117.084 100.247 122.24 99.053 127.395C99.053 123.086 99.053 118.7 98.8219 114.391C99.3195 102.265 98.6747 90.118 96.8959 78.1118C94.6232 66.801 89.1918 56.375 85.1087 45.7181C81.0255 35.0613 78.6757 22.6348 74.1688 11.6702C74.0794 11.4256 73.9168 11.2144 73.7032 11.0651C73.4896 10.9159 73.2353 10.8358 72.9746 10.8358C72.714 10.8358 72.4596 10.9159 72.246 11.0651C72.0324 11.2144 71.8699 11.4256 71.7805 11.6702C67.9285 22.7502 68.4292 34.4842 69.5848 46.0259C70.779 58.414 71.742 70.7636 73.9762 82.9978C76.2104 95.232 79.215 106.543 82.1811 118.238C84.6849 128.049 87.4584 138.398 93.7372 146.554L99.0145 146.285C101.865 146.285 104.754 146.092 107.604 145.977C111.572 143.609 115.256 140.795 118.583 137.59C121.626 136.397 124.669 135.243 127.635 134.012C136.187 130.597 144.557 126.745 152.712 122.47C161.045 118.201 168.413 112.269 174.36 105.042C180.181 96.7586 185.506 88.1387 190.308 79.2276C190.44 78.9952 190.494 78.7262 190.459 78.461C190.425 78.1958 190.306 77.949 190.118 77.7578C189.931 77.5666 189.687 77.4414 189.422 77.4012C189.158 77.3609 188.887 77.4078 188.652 77.5348ZM104.754 144.784C106.616 143.44 108.573 142.231 110.609 141.168C108.756 142.526 106.798 143.735 104.754 144.784Z" fill="#107D5D"/>
<path d="M82.6818 142.168C82.9515 143.63 83.2596 145.131 83.6448 146.593H86.5724C86.238 144.951 85.7611 143.342 85.1472 141.783C84.685 139.321 84.2611 136.859 83.5677 134.474C82.181 129.819 80.3321 125.279 78.7912 120.701C75.7662 110.76 71.6989 101.165 66.6572 92.0772C55.6404 73.649 39.3077 59.1834 27.6746 41.1784C27.5459 40.9773 27.3632 40.8165 27.1472 40.7144C26.9313 40.6124 26.6911 40.5731 26.4539 40.6013C26.2166 40.6294 25.992 40.7237 25.8059 40.8734C25.6199 41.0231 25.48 41.2221 25.402 41.4476C23.6301 49.5268 27.1354 57.683 30.6407 64.8388C35.3787 74.4569 40.8487 83.8442 46.3186 93.039C51.9317 102.572 58.4734 111.528 65.8484 119.777C71.7421 126.433 79.215 133.858 82.6818 142.168Z" fill="#107D5D"/>
<path d="M77.3661 145.746C78.3419 145.926 79.3049 146.079 80.2551 146.208C73.1639 133.214 63.0591 122.106 50.7869 113.814C44.9878 110.117 38.3804 107.873 31.5267 107.274C26.0674 107.165 20.6391 106.429 15.3483 105.081C10.6378 103.235 6.12172 100.928 1.86613 98.1943C1.62893 98.0811 1.36229 98.0442 1.1032 98.0886C0.844116 98.133 0.605146 98.2565 0.419267 98.4422C0.233389 98.6278 0.109879 98.8665 0.0654269 99.1253C0.0209748 99.384 0.057938 99.6501 0.171226 99.8871C7.37454 111.429 22.1664 114.006 33.6069 119.7C42.0246 123.884 50.1228 128.68 57.8362 134.05C61.6882 136.82 66.0025 139.36 69.8545 142.322C71.9583 143.973 74.407 145.13 77.0193 145.708L77.3661 145.746Z" fill="#107D5D"/>
<path d="M163.074 47.4108C162.612 48.5265 162.226 49.6807 161.841 50.8349C157.691 59.3082 152.516 67.2413 146.433 74.4569C140.655 82.1514 134.222 89.4226 128.136 96.9247C122.547 103.446 117.869 110.693 114.23 118.469C112.535 122.316 111.302 126.471 109.993 130.511C108.683 134.551 106.873 137.859 105.833 141.668C105.67 141.749 105.53 141.869 105.426 142.018C105.323 142.166 105.258 142.339 105.239 142.519C105.22 142.7 105.246 142.882 105.317 143.049C105.387 143.216 105.498 143.363 105.64 143.476C105.691 143.761 105.84 144.018 106.062 144.204C106.284 144.389 106.564 144.491 106.853 144.491C107.143 144.491 107.423 144.389 107.645 144.204C107.866 144.018 108.016 143.761 108.067 143.476V142.976C115.911 138.829 123.166 133.653 129.638 127.587C136.111 120.774 141.467 112.984 145.509 104.504C150.097 96.1812 154.112 87.5563 157.527 78.6889C160.57 69.8787 161.379 60.3376 164.075 51.5274C164.586 50.3761 165.023 49.1939 165.385 47.9879C165.963 46.9107 163.613 46.1028 163.074 47.4108Z" fill="#0B8E6D"/>
<path d="M149.322 76.9962C143.001 85.9404 137.288 95.2972 132.219 105.004C127.905 112.698 125.016 122.432 117.466 127.472C116.156 128.357 117.466 130.473 118.698 129.588C125.94 124.779 131.372 115.545 135.262 108.159C140.732 97.7328 144.314 87.653 151.441 78.2658C152.404 76.9962 150.285 75.765 149.322 76.9962Z" fill="#107D5D"/>
<path d="M84.0684 123.24C77.2118 111.698 67.1965 103.157 58.2983 93.2314C53.2952 87.6547 48.7843 81.6563 44.8161 75.3033C40.4187 69.5326 36.551 63.3778 33.26 56.9136V56.7212V56.4904C32.7207 55.0284 30.3325 55.644 30.9103 57.1444C35.7877 70.5924 42.5862 83.2655 51.095 94.7703C59.9547 106.312 72.1657 114.391 82.2195 124.74C82.4429 124.872 82.7012 124.932 82.9597 124.912C83.2181 124.893 83.4645 124.795 83.6657 124.631C83.8669 124.468 84.0134 124.247 84.0854 123.999C84.1573 123.75 84.1514 123.485 84.0684 123.24Z" fill="#0B8E6D"/>
<path d="M88.6911 91.731C87.0347 83.6903 85.3784 75.611 83.6835 67.6088C81.9886 59.6066 80.7174 52.4507 79.3692 44.8332C79.3692 44.0253 79.3691 43.3713 78.9839 42.5633C78.5987 41.7554 78.4061 40.5628 78.0594 39.5625C77.4431 37.5619 76.7498 35.7153 75.9794 33.5993C75.9396 33.4085 75.8563 33.2295 75.7361 33.0761C75.6158 32.9226 75.4619 32.7989 75.2861 32.7144C75.1269 32.6937 74.9649 32.7147 74.8163 32.7754C74.6677 32.8361 74.5375 32.9344 74.4385 33.0607C74.0906 33.6727 73.8928 34.3582 73.8608 35.0612C73.7202 35.9001 73.6555 36.7499 73.668 37.6004C73.668 39.2162 73.9378 40.8321 74.0534 42.4864C74.5658 50.5765 75.5433 58.6305 76.981 66.6085C78.9455 75.688 80.4477 81.3435 82.4508 90.4229C84.5306 99.4541 87.5383 108.247 91.4261 116.661C92.0424 117.777 93.7759 120.739 93.8529 119.585C94.1611 112.891 90.0008 98.2328 88.6911 91.731Z" fill="#0B8E6D"/>
<path d="M133.567 17.0562C123.051 32.6759 117.042 51.6813 113.074 70.2634C113.575 60.4145 113.768 50.5655 114.076 40.7166C114.307 34.0609 114.423 27.3283 115.154 20.711C116.181 14.2704 116.747 7.76495 116.849 1.24402C116.849 0.917512 116.719 0.604379 116.488 0.3735C116.257 0.142621 115.944 0.0129395 115.617 0.0129395C115.29 0.0129395 114.976 0.142621 114.745 0.3735C114.514 0.604379 114.384 0.917512 114.384 1.24402C113.652 13.3628 108.644 24.3274 104.561 35.6383C101.039 46.3455 98.6756 57.3988 97.512 68.609C95.6886 80.7241 94.6721 92.9467 94.469 105.196C94.469 116.738 95.2008 128.28 94.469 140.014C93.6215 130.434 88.5753 119.739 85.8019 113.083C82.2214 105.124 79.372 96.8573 77.2888 88.3838C74.4383 75.2648 72.127 61.9533 65.7326 49.9115C65.6184 49.7286 65.4596 49.5778 65.2709 49.4733C65.0822 49.3687 64.87 49.3138 64.6542 49.3138C64.4384 49.3138 64.2262 49.3687 64.0375 49.4733C63.8488 49.5778 63.6897 49.7286 63.5755 49.9115C59.7235 57.0289 61.1488 65.7621 62.6511 73.3412C64.9238 84.6521 66.5031 95.6936 68.0054 107.12C69.2343 118.055 71.8223 128.794 75.7095 139.09C76.6324 141.406 77.687 143.666 78.8682 145.861C82.0004 146.382 85.169 146.652 88.3441 146.669C91.6183 146.669 94.9311 146.362 98.2439 146.208C99.8472 143.308 101.275 140.314 102.52 137.244C102.424 139.14 102.424 141.041 102.52 142.938C102.529 143.123 102.582 143.305 102.676 143.465C102.77 143.626 102.901 143.762 103.059 143.861C102.33 144.673 101.531 145.42 100.671 146.092H104.523C107 143.306 109.169 140.262 110.994 137.013C116.545 127.45 120.757 117.172 123.513 106.466C131.68 77.6116 133.452 47.4108 135.878 17.6717C135.994 16.3637 134.222 16.1328 133.567 17.0562Z" fill="#02B581"/>
<path d="M123.013 209.956H68.352C65.1163 186.142 61.7652 162.328 58.1057 138.59H133.221C129.6 162.328 126.248 186.142 123.013 209.956Z" fill="#595A5C"/>
<path d="M133.259 138.59H58.1443L61.5341 160.558H129.869L133.259 138.59Z" fill="#424143"/>
<path d="M136.88 138.59H54.5234L57.1428 155.672H134.261L136.88 138.59Z" fill="#6E6F72"/>
<path opacity="0.47" d="M132.72 141.168L131.295 151.594" stroke="white" stroke-width="0.37" stroke-miterlimit="10" stroke-linecap="round"/>
<path opacity="0.47" d="M125.016 163.482L120.625 200.8" stroke="white" stroke-width="0.37" stroke-miterlimit="10" stroke-linecap="round"/>
</g>
<defs>
<clipPath id="clip0_1_1472">
<rect width="190.406" height="209.905" fill="white" transform="translate(0.132568 0.0513916)"/>
</clipPath>
</defs>
</svg>
