<svg width="171" height="157" viewBox="0 0 171 157" fill="none" xmlns="http://www.w3.org/2000/svg">
<g clip-path="url(#clip0_1_2258)">
<path d="M58.221 24.4595C75.4987 20.3461 93.2509 18.5006 111.018 18.9705C120.085 19.207 129.332 20.1038 137.601 23.7796C150.463 29.515 159.57 41.518 164.494 54.6346C169.417 67.7512 170.485 81.8335 170.845 95.7582C171.164 107.328 170.935 119.41 165.682 129.727C155.446 149.87 129.502 157.094 106.694 155.931C83.8855 154.768 61.5864 147.476 38.788 147.811C31.6279 147.909 24.388 148.796 17.3677 147.397C10.3474 145.997 3.31706 141.878 1.02024 135.187C-2.18531 125.854 4.61518 116.463 9.17886 107.692C16.7584 93.1467 18.5959 76.4037 24.0084 60.9515C29.4209 45.4993 33.3355 35.5954 48.7042 27.0809L58.221 24.4595Z" fill="#2386B4"/>
<path d="M138.11 107.416C133.556 109.969 129.003 112.679 125.228 116.286C123.351 118.089 121.643 120.375 119.656 122.198C118.937 122.494 118.228 122.8 117.539 123.184C118.402 121.938 119.15 120.619 119.775 119.242C121.223 116.148 122.771 113.122 124.389 110.097C125.993 107.246 127.378 104.282 128.533 101.228C129.692 97.9164 130.531 94.5166 132.188 91.3729C132.338 91.0773 131.919 90.6929 131.689 90.9886L131.639 91.0575C129.452 93.8168 127.515 96.7437 125.288 99.4833C123.179 101.925 121.247 104.51 119.506 107.219C117.862 110.054 116.641 113.107 115.881 116.286C115.541 117.586 115.192 118.907 114.882 120.227C114.882 119.124 114.822 118 114.812 116.887C114.941 113.784 114.774 110.676 114.313 107.604C113.724 104.706 112.366 102.036 111.257 99.306C110.149 96.5762 109.59 93.3931 108.421 90.5845C108.398 90.5218 108.356 90.4678 108.301 90.4296C108.245 90.3913 108.179 90.3708 108.112 90.3708C108.044 90.3708 107.978 90.3913 107.923 90.4296C107.867 90.4678 107.825 90.5218 107.802 90.5845C106.803 93.4226 106.933 96.4284 107.233 99.3848C107.543 102.548 107.792 105.721 108.371 108.855C108.95 111.989 109.73 114.886 110.498 117.882C111.148 120.395 111.867 123.046 113.494 125.135L114.862 125.066C115.601 125.066 116.35 125.017 117.089 124.977C118.12 124.378 119.075 123.66 119.935 122.839C120.724 122.533 121.513 122.238 122.282 121.922C124.501 121.046 126.674 120.059 128.793 118.966C130.949 117.87 132.855 116.351 134.395 114.502C135.906 112.378 137.287 110.167 138.529 107.88C138.576 107.821 138.6 107.749 138.598 107.675C138.596 107.6 138.567 107.53 138.517 107.474C138.467 107.419 138.399 107.383 138.324 107.372C138.25 107.362 138.174 107.377 138.11 107.416ZM116.36 124.642C116.843 124.298 117.35 123.988 117.878 123.716C117.404 124.063 116.903 124.373 116.38 124.642H116.36Z" fill="#107D5D"/>
<path d="M110.658 123.972C110.728 124.347 110.808 124.731 110.908 125.105H111.667C111.58 124.685 111.456 124.273 111.297 123.874C111.177 123.243 111.068 122.612 110.888 121.991C110.528 120.809 110.049 119.646 109.65 118.463C108.863 115.921 107.809 113.467 106.504 111.141C103.648 106.421 99.4137 102.716 96.3979 98.0937C96.3653 98.0417 96.3181 98.0002 96.2621 97.9741C96.206 97.948 96.1435 97.9386 96.0821 97.9469C96.0208 97.9553 95.9634 97.9811 95.9166 98.0211C95.8698 98.0612 95.8356 98.1138 95.8186 98.1726C95.3492 100.242 96.2581 102.331 97.1768 104.164C98.3951 106.628 99.8132 109.032 101.231 111.388C102.684 113.847 104.379 116.157 106.294 118.286C107.822 119.942 109.759 121.784 110.658 123.972Z" fill="#107D5D"/>
<path d="M109.29 124.869L110.039 124.987C108.201 121.659 105.581 118.814 102.4 116.69C100.896 115.742 99.1835 115.168 97.4067 115.014C95.9919 114.982 94.5851 114.793 93.2126 114.453C91.9914 113.98 90.8207 113.389 89.7175 112.689C89.656 112.66 89.5869 112.65 89.5197 112.662C89.4526 112.673 89.3907 112.705 89.3425 112.752C89.2943 112.8 89.2621 112.861 89.2506 112.927C89.239 112.993 89.2488 113.061 89.2781 113.122C91.1455 116.079 94.9802 116.739 97.946 118.197C100.128 119.269 102.228 120.498 104.227 121.873C105.226 122.583 106.344 123.233 107.343 123.992C107.888 124.415 108.523 124.711 109.2 124.859L109.29 124.869Z" fill="#107D5D"/>
<path d="M131.499 99.7001C131.381 99.9872 131.278 100.28 131.19 100.577C130.108 102.744 128.767 104.776 127.195 106.628C125.697 108.599 124.03 110.461 122.452 112.383C121.003 114.053 119.79 115.91 118.847 117.902C118.407 118.887 118.088 119.952 117.749 120.986C117.409 122.021 116.94 122.869 116.67 123.844H116.62C116.581 123.869 116.549 123.904 116.526 123.944C116.504 123.984 116.492 124.03 116.492 124.076C116.492 124.122 116.504 124.167 116.526 124.208C116.549 124.248 116.581 124.282 116.62 124.307C116.633 124.38 116.672 124.446 116.729 124.494C116.787 124.541 116.859 124.567 116.934 124.567C117.009 124.567 117.082 124.541 117.14 124.494C117.197 124.446 117.236 124.38 117.249 124.307V124.179C119.283 123.117 121.163 121.791 122.841 120.237C124.519 118.492 125.908 116.497 126.956 114.325C128.147 112.19 129.188 109.978 130.071 107.702C130.86 105.455 131.07 103.011 131.769 100.755C131.903 100.457 132.016 100.151 132.108 99.8381C132.198 99.572 131.639 99.3651 131.499 99.7001Z" fill="#0B8E6D"/>
<path d="M127.934 107.278C126.299 109.572 124.818 111.968 123.501 114.453C122.382 116.424 121.633 118.917 119.676 120.208C119.336 120.434 119.676 120.976 119.995 120.75C121.873 119.518 123.281 117.153 124.289 115.261C125.707 112.59 126.636 110.008 128.484 107.604C128.733 107.278 128.184 106.963 127.934 107.278Z" fill="#107D5D"/>
<path d="M111.018 119.124C109.24 116.167 106.644 113.98 104.337 111.437C103.042 110.007 101.873 108.47 100.842 106.845C99.7055 105.364 98.703 103.788 97.8461 102.134V102.075C97.7063 101.701 97.0873 101.858 97.2371 102.243C98.5015 105.687 100.264 108.933 102.47 111.88C104.767 114.837 107.932 116.906 110.538 119.557C110.6 119.605 110.676 119.629 110.754 119.626C110.832 119.623 110.907 119.593 110.965 119.541C111.022 119.489 111.059 119.419 111.069 119.342C111.078 119.266 111.061 119.188 111.018 119.124Z" fill="#0B8E6D"/>
<path d="M112.216 111.072C111.787 109.013 111.357 106.943 110.918 104.884C110.478 102.824 110.149 101.001 109.799 99.0596C109.781 98.8636 109.747 98.6692 109.7 98.4781C109.626 98.2219 109.546 97.9656 109.46 97.7094C109.3 97.197 109.12 96.724 108.931 96.182C108.931 96.0933 108.841 95.9849 108.741 95.9554C108.7 95.95 108.658 95.9554 108.619 95.971C108.58 95.9865 108.547 96.0117 108.521 96.044C108.431 96.2008 108.38 96.3764 108.371 96.5565C108.351 96.7728 108.351 96.9906 108.371 97.2069C108.371 97.6208 108.441 98.0346 108.471 98.4485C108.604 100.524 108.857 102.59 109.23 104.637C109.74 106.963 110.129 108.412 110.648 110.737C111.187 113.051 111.967 115.303 112.975 117.458C113.135 117.744 113.584 118.503 113.604 118.207C113.634 116.473 112.556 112.718 112.216 111.072Z" fill="#0B8E6D"/>
<path d="M123.85 91.9248C121.124 95.9258 119.566 100.794 118.537 105.554C118.667 103.031 118.717 100.508 118.797 97.9854C118.857 96.2806 118.887 94.556 119.077 92.861C119.343 91.2113 119.489 89.5448 119.516 87.8745C119.516 87.7909 119.482 87.7107 119.423 87.6516C119.363 87.5925 119.281 87.5592 119.197 87.5592C119.112 87.5592 119.03 87.5925 118.971 87.6516C118.911 87.7107 118.877 87.7909 118.877 87.8745C118.687 90.9787 117.389 93.7874 116.33 96.6847C115.417 99.4273 114.805 102.259 114.503 105.13C114.03 108.233 113.767 111.364 113.714 114.502C113.714 117.458 113.904 120.415 113.714 123.371C113.494 120.917 112.186 118.178 111.467 116.473C110.538 114.436 109.802 112.318 109.27 110.146C108.521 106.786 107.922 103.376 106.274 100.292C106.245 100.245 106.203 100.206 106.155 100.179C106.106 100.152 106.051 100.138 105.995 100.138C105.939 100.138 105.884 100.152 105.835 100.179C105.786 100.206 105.745 100.245 105.715 100.292C104.717 102.115 105.086 104.352 105.476 106.293C106.065 109.19 106.474 112.019 106.864 114.945C107.181 117.743 107.852 120.491 108.861 123.125C109.098 123.722 109.372 124.304 109.68 124.869C110.492 125.002 111.313 125.072 112.136 125.076C112.985 125.076 113.844 124.997 114.703 124.958C115.118 124.215 115.488 123.448 115.811 122.662C115.786 123.147 115.786 123.634 115.811 124.12C115.816 124.167 115.831 124.213 115.855 124.254C115.879 124.294 115.912 124.33 115.951 124.357C115.762 124.565 115.555 124.756 115.332 124.928H116.33C116.973 124.215 117.535 123.435 118.008 122.602C119.447 120.153 120.539 117.52 121.254 114.778C123.371 107.387 123.83 99.651 124.459 92.0333C124.479 91.7475 124.02 91.6883 123.85 91.9248Z" fill="#02B581"/>
<path d="M121.134 141.336H106.963C106.125 135.236 105.256 129.136 104.307 123.056H123.78C122.821 129.136 121.953 135.236 121.134 141.336Z" fill="#595A5C"/>
<path d="M123.77 123.056H104.297L105.166 128.683H122.891L123.77 123.056Z" fill="#424143"/>
<path d="M124.709 123.056H103.348L104.027 127.431H124.03L124.709 123.056Z" fill="#6E6F72"/>
<path opacity="0.47" d="M123.62 123.716L123.251 126.387" stroke="white" stroke-width="0.37" stroke-miterlimit="10" stroke-linecap="round"/>
<path opacity="0.47" d="M121.633 129.432L120.495 138.991" stroke="white" stroke-width="0.37" stroke-miterlimit="10" stroke-linecap="round"/>
<path d="M70.8533 134.891L71.0232 136.783C71.3252 137.19 71.7416 137.501 72.221 137.676C72.7004 137.851 73.2216 137.884 73.7194 137.769C74.5944 137.693 75.4409 137.423 76.196 136.981C75.9759 136.882 75.7821 136.735 75.6296 136.55C75.4771 136.366 75.3702 136.149 75.3173 135.916C75.1475 135.138 75.0277 133.748 75.0277 133.748L70.8533 134.891Z" fill="#078A8A"/>
<path d="M85.1837 141.267C85.2956 141.269 85.4067 141.248 85.5097 141.204C85.6126 141.161 85.7052 141.097 85.7815 141.016C85.8578 140.935 85.916 140.84 85.9524 140.735C85.9888 140.631 86.0024 140.52 85.9926 140.41C85.9845 140.143 85.8788 139.889 85.6952 139.693C85.5116 139.498 85.2627 139.374 84.994 139.346C83.139 139.19 81.3032 138.86 79.5116 138.36C77.8439 137.739 76.8653 136.389 76.3161 136.172C76.0659 136.092 75.7969 136.088 75.5442 136.16C75.2915 136.232 75.0664 136.377 74.8979 136.576C74.838 136.803 75.2974 137.138 74.6583 137.266C73.7488 137.375 72.8264 137.236 71.992 136.862C71.6378 136.638 71.3037 136.384 70.9934 136.103V141.139H74.9379V140.154C75.3805 140.259 75.7828 140.488 76.0962 140.814C76.4357 141.267 77.0351 141.208 77.5644 141.198L85.1837 141.267Z" fill="#19151A"/>
<path d="M37.6395 128.909L36.6409 130.516C36.6236 131.022 36.7585 131.523 37.0285 131.954C37.2986 132.386 37.6918 132.729 38.1588 132.94C38.8994 133.402 39.7355 133.695 40.6056 133.797C40.4989 133.583 40.4432 133.347 40.4432 133.108C40.4432 132.868 40.4989 132.632 40.6056 132.418C40.9451 131.698 41.7039 130.526 41.7039 130.526L37.6395 128.909Z" fill="#078A8A"/>
<path d="M45.5885 141.425C46.0478 141.504 46.5071 141.553 46.7568 141.228C46.9243 141.008 47 140.734 46.9684 140.46C46.9368 140.187 46.8004 139.936 46.5871 139.76C45.8781 139.03 44.41 138.587 43.711 138.104C43.1888 137.786 42.737 137.367 42.3827 136.872C41.3841 135.384 41.464 133.748 41.1744 133.226C41.0247 133.012 40.8133 132.848 40.5674 132.755C40.3215 132.661 40.0528 132.644 39.7965 132.704C39.6067 132.841 39.7963 133.384 39.1772 133.108C38.3842 132.65 37.7346 131.985 37.2999 131.186C37.1508 130.793 37.0371 130.387 36.9603 129.974L33.8647 133.975L36.9703 136.36L37.5996 135.581C37.8914 135.925 38.0722 136.347 38.1189 136.793C38.1189 137.365 38.6181 137.68 39.0475 137.986C39.2273 138.114 40.1958 138.971 41.6338 139.957C42.86 140.66 44.1967 141.156 45.5885 141.425Z" fill="#19151A"/>
<path d="M83.8154 42.2473C83.8154 42.2473 82.767 59.3846 81.9382 65.2777C81.2291 70.3036 80.6099 72.9939 80.6099 72.9939L74.1289 69.8207L83.8154 42.2473Z" fill="#0993B8"/>
<path d="M104.597 47.7166C105.519 47.9016 106.462 47.9745 107.403 47.9335C108.18 47.6735 108.99 47.5208 109.809 47.4801C110.105 47.5657 110.393 47.6779 110.668 47.8152C110.466 47.8571 110.266 47.9097 110.069 47.9728C109.879 48.0418 109.849 48.0912 109.959 48.17C110.069 48.2488 110.898 48.8894 111.397 49.1555C111.896 49.4215 112.666 49.9931 112.765 50.3676C112.865 50.7421 112.695 50.811 112.525 50.9292C112.356 51.0475 112.296 51.018 112.296 51.018C112.296 51.018 112.056 51.4221 111.826 51.5108C111.597 51.5995 111.457 51.9246 111.227 51.9344H110.998C110.998 51.9344 110.618 52.4173 110.429 52.3089C109.947 51.9115 109.412 51.5801 108.841 51.3235C108.444 51.2465 108.056 51.1309 107.682 50.9786C105.126 49.9931 103.608 49.5594 103.608 49.5594L104.597 47.7166Z" fill="#F7C7B8"/>
<path d="M69.3453 61.5231C71.5684 61.6016 73.6751 62.5237 75.2266 64.0969C76.778 65.6702 77.6547 67.7734 77.6738 69.9686V70.1262L78.2731 105.81V106.549L76.9349 118.966L76.2659 125.165L75.7066 133.216V133.295C75.4669 135.423 74.5681 135.266 72.3411 135.266C69.9545 135.266 70.4938 134.714 70.2242 132.901L67.528 115.399C67.4132 113.998 67.4132 112.591 67.528 111.191C67.7776 108.234 68.3568 107.712 69.5252 103.425C69.5252 103.425 64.7218 87.8745 64.2325 84.928L62.3053 80.1583L60.7973 71.2891C60.727 70.872 60.6868 70.4504 60.6774 70.0277C60.6611 68.9022 60.8745 67.7851 61.3049 66.7427C61.7354 65.7004 62.3741 64.7542 63.1829 63.9606C63.9918 63.167 64.9543 62.5422 66.013 62.1235C67.0717 61.7047 68.2049 61.5005 69.3453 61.5231Z" fill="#181213"/>
<path d="M37.959 126.465L44.1304 110.461C44.8639 108.576 45.8732 106.806 47.1262 105.209C48.521 103.448 50.0572 101.8 51.7199 100.282L55.7144 65.7902C55.7856 65.457 55.8756 65.128 55.9841 64.8047C56.3288 63.741 56.8856 62.7561 57.6217 61.9078C58.3578 61.0596 59.2583 60.3652 60.2703 59.8654C61.2824 59.3657 62.3854 59.0707 63.5146 58.9977C64.6439 58.9248 65.7763 59.0754 66.8457 59.4408C67.9151 59.8061 68.8998 60.3789 69.7416 61.1252C70.5834 61.8715 71.2653 62.7764 71.7476 63.7866C72.2299 64.7969 72.5026 65.8921 72.5497 67.0079C72.5968 68.1237 72.4174 69.2375 72.0219 70.2838V70.4021L60.7075 103.543L60.4478 104.302C60.2996 104.723 60.0803 105.117 59.7988 105.465L42.8224 130.742C41.634 132.211 40.8252 131.314 39.1175 130.358C37.0704 129.284 36.8905 128.338 37.959 126.465Z" fill="#2E2325"/>
<path d="M84.4347 5.4597C84.7802 6.74635 84.9614 8.07058 84.974 9.40157C84.7743 10.387 85.4334 11.6189 85.5033 13.038C85.5632 14.2403 85.7829 17.719 84.7543 18.8326C83.7258 19.9462 81.2492 19.2268 80.2606 20.2911C79.6567 20.9682 79.192 21.7547 78.8924 22.6069L73.1703 19.7786C73.1703 19.7786 74.7981 17.8668 74.4486 15.9648C74.099 14.0629 72.9506 11.6978 72.9007 8.46543C72.8507 5.23309 76.4558 2.72998 78.9823 2.78911C81.5088 2.84824 84.4347 5.4597 84.4347 5.4597Z" fill="#F7C7B8"/>
<path d="M82.9067 7.09572C81.3389 7.45048 80.3103 6.55375 78.8523 6.64244C77.3943 6.73113 76.4456 7.87427 76.8551 8.978C77.1318 9.78651 77.3654 10.6089 77.5543 11.4417L76.8551 12.2793C76.8551 12.2793 76.0562 10.6533 75.1874 11.353C74.3186 12.0527 75.4472 13.7477 74.8181 14.3094C74.189 14.8711 74.4585 16.0241 74.4585 16.0241C74.4585 16.0241 73.5098 16.4577 72.4612 13.7378C71.4127 11.0179 70.6638 5.59776 72.2416 4.46447C73.8194 3.33118 73.2401 2.49357 74.3885 1.79388C75.5369 1.0942 80.4702 -0.28548 82.757 1.89241C85.0439 4.07029 85.8427 4.36594 86.2122 4.23783C86.5817 4.10972 85.8726 6.40589 82.9067 7.09572Z" fill="#181213"/>
<path d="M85.5032 13.0576C85.1309 13.6212 84.6387 14.0981 84.0611 14.4554C83.4834 14.8128 82.834 15.042 82.1577 15.1271C81.3833 15.217 80.5995 15.0719 79.9108 14.7109C79.2221 14.35 78.6613 13.7904 78.3032 13.1068C77.8738 12.2889 77.5442 11.4414 77.5442 11.4414L76.845 12.279C76.9829 13.1 77.0032 13.936 76.905 14.7624C76.6384 15.8239 76.6045 16.9292 76.8053 18.0047C77.0449 19.2759 78.6527 20.1924 80.2604 20.3106C81.8682 20.4289 85.4331 20.3107 85.5929 19.4829C85.7527 18.6551 85.5032 13.0576 85.5032 13.0576Z" fill="#181213"/>
<path d="M82.5076 17.0094C82.7951 17.078 83.0949 17.0789 83.3828 17.0122C83.6708 16.9454 83.9387 16.8128 84.1652 16.625C84.5247 16.3097 84.7944 15.3341 84.5248 15.3932L83.8355 15.6297C83.3204 15.8059 82.7825 15.9087 82.2379 15.9351H81.2393C81.0196 16.0435 81.9483 16.8813 82.5076 17.0094Z" fill="#F7C7B8"/>
<path d="M81.1892 28.1847C81.2536 27.2772 81.4142 26.3788 81.6685 25.5043C81.8284 25.0673 82.0575 24.6581 82.3475 24.2921L77.8237 20.9021L81.1892 28.1847Z" fill="#F4F3F9"/>
<path d="M83.3262 49.7664C82.6697 54.6304 81.7195 59.4513 80.4803 64.2034C79.5965 67.639 78.1747 70.9175 76.2661 73.9203C76.0265 74.2159 69.8449 69.8896 64.8918 68.5198C61.1836 67.3767 57.5739 65.9432 54.0969 64.233C54.0969 64.233 61.2069 51.5107 62.4252 47.6575C63.6435 43.8043 65.9803 30.3231 68.4169 25.7012C70.8535 21.0793 71.6224 20.5867 71.6224 20.5867L77.6141 23.0306L81.4389 28.9434L83.0268 37.0637L83.4961 43.7845L83.5858 47.8053L83.3262 49.7664Z" fill="#0DBAE9"/>
<path d="M83.326 49.7666C83.326 49.7666 85.0537 39.626 82.9167 32.4912C80.7797 25.3564 79.6412 22.5479 77.3643 20.4587C75.0875 18.3695 73.5697 17.7979 73.2202 18.1231C72.5836 18.878 72.0404 19.7051 71.6023 20.5868C71.6023 20.8529 76.5155 21.2273 79.5912 28.2438C81.8529 33.4444 83.1129 39.0155 83.3063 44.6716C83.4629 46.3661 83.4694 48.0709 83.326 49.7666Z" fill="#181213"/>
<path d="M70.4041 22.7644C71.4297 22.0504 72.7005 21.7667 73.9377 21.9754C75.175 22.1841 76.278 22.8683 77.005 23.878L89.5477 41.38L104.896 46.1989C106.284 46.7902 105.825 47.8545 105.066 49.4805C104.377 50.939 104.816 52.4369 103.368 51.6879L85.653 46.7606C85.3535 46.6072 85.0832 46.4038 84.854 46.1595L84.6443 45.9328L69.6651 29.6726C69.5312 29.5338 69.4078 29.3855 69.2957 29.229C68.5832 28.2237 68.3001 26.9822 68.5075 25.7726C68.7149 24.563 69.3961 23.4825 70.4041 22.7644Z" fill="#05AAE2"/>
<path d="M113.554 47.4309C112.812 47.5807 112.062 47.686 111.307 47.7462C111.093 47.7539 110.88 47.7737 110.668 47.8054C109.809 47.9335 109.769 47.9926 110.049 48.2981C110.73 48.8865 111.477 49.3956 112.276 49.8156C112.978 49.4602 113.714 49.1731 114.473 48.9583L114.273 47.3717L113.554 47.4309Z" fill="#DDC19E"/>
<path d="M128.124 49.875L115.142 50.6437C113.894 50.7225 114.143 49.6582 114.073 48.4855C114.004 47.3127 113.474 46.4554 114.563 46.2386L127.255 43.7158H127.365C127.773 43.6349 128.193 43.6341 128.601 43.7134C129.009 43.7927 129.397 43.9505 129.744 44.1779C130.09 44.4053 130.388 44.6978 130.62 45.0387C130.851 45.3796 131.013 45.7622 131.095 46.1647C131.177 46.5672 131.178 46.9816 131.097 47.3844C131.017 47.7872 130.857 48.1705 130.627 48.5123C130.396 48.8541 130.1 49.1476 129.754 49.3764C129.409 49.6051 129.021 49.7645 128.613 49.8454L128.124 49.875Z" fill="#FBA823"/>
<path d="M125.708 59.828C125.708 59.828 126.416 56.7731 126.636 54.9598C126.779 53.6509 126.839 52.3343 126.816 51.018L126.586 47.4012C126.586 47.4012 126.327 53.7772 125.708 55.9059C125.088 58.0345 124.359 59.4831 124.569 59.6802C124.779 59.8773 125.708 59.828 125.708 59.828Z" fill="#B1DBDD"/>
<path d="M132.049 132.753C131.736 133.564 131.486 134.398 131.3 135.246C131.014 136.104 130.618 136.922 130.121 137.68C130.121 137.798 130.041 137.897 130.012 137.976C129.862 138.429 130.89 138.754 131.559 138.34C132.673 137.462 133.602 136.377 134.296 135.148C134.473 134.657 134.607 134.153 134.695 133.64C134.381 133.388 134.16 133.042 134.066 132.654C133.996 132.053 132.988 132.29 132.618 132.477C132.419 132.55 132.229 132.642 132.049 132.753Z" fill="#DDC19E"/>
<path d="M130.541 138.005C130.793 137.994 131.04 137.927 131.263 137.809C131.486 137.691 131.679 137.526 131.829 137.325C132.684 136.458 133.435 135.496 134.066 134.458C134.385 133.699 134.665 133.59 134.665 133.59C134.665 133.59 135.114 133.679 135.234 134.379C135.354 135.079 134.875 135.64 134.815 136.35C134.755 137.059 134.735 139.444 134.735 139.444H134.355V136.33C134.355 136.33 133.786 136.33 133.077 137.463C132.368 138.597 132.408 139.71 131.419 140.065C130.35 140.41 129.21 140.485 128.104 140.282C127.814 140.055 127.355 139.484 128.414 138.961C129.067 138.656 129.649 138.22 130.121 137.68C130.121 137.68 130.121 137.946 130.301 138.005C130.38 138.02 130.461 138.02 130.541 138.005Z" fill="#19151A"/>
<path d="M138.829 132.654C138.829 132.654 137.951 134.793 137.461 136.084C136.972 137.375 136.303 137.789 136.522 138.281C136.742 138.774 138.999 138.794 139.778 137.582C140.41 136.403 140.87 135.142 141.146 133.837C141.181 133.412 141.137 132.985 141.016 132.575C140.996 132.349 138.829 132.654 138.829 132.654Z" fill="#DDC19E"/>
<path d="M141.106 133.196C141.302 133.892 141.343 134.622 141.226 135.335C141.01 136.433 140.887 137.547 140.856 138.666V139.385H140.437V137.069C140.207 137.397 140.025 137.755 139.898 138.133C139.748 138.666 139.568 139.819 139.039 139.888C137.907 140.134 136.752 140.256 135.594 140.252C135.184 140.065 135.014 139.395 135.594 138.843C136.036 138.383 136.43 137.882 136.772 137.345C136.772 137.345 136.213 138.035 137.511 138.222C139.308 138.469 139.508 137.611 140.437 135.335C140.731 134.646 140.955 133.929 141.106 133.196Z" fill="#19151A"/>
<path d="M135.654 98.902C135.654 98.902 136.043 99.8184 136.443 101.04C136.842 102.262 137.132 112.087 137.571 117.054C138.01 122.021 138.769 126.239 138.829 128.259V132.654L141.146 133.196C141.146 133.196 141.416 124.731 142.215 118.907C142.961 114.396 143.122 109.809 142.694 105.258C142.425 103.298 142.381 101.315 142.564 99.3454L135.654 98.902Z" fill="#DDC19E"/>
<path d="M130.351 96.2904C130.351 96.5466 130.74 100.902 130.76 104.174C130.82 115.813 132.678 123.884 131.959 132.979C131.839 134.448 133.427 133.6 134.665 133.6C134.406 128.939 135.334 124.869 135.664 120.109C135.943 116.049 136.413 114.512 136.492 110.353C136.674 107.203 136.5 104.044 135.973 100.932C135.753 99.5106 135.82 98.0601 136.173 96.6649L130.351 96.2904Z" fill="#DDC19E"/>
<path d="M128.953 55.5314C128.953 55.5314 126.956 64.0065 127.395 67.5246C127.835 71.0427 128.114 88.9388 128.783 93.4818C129.452 98.0249 127.885 100.153 129.183 100.38C130.481 100.607 143.593 101.366 143.623 100.705C144.092 88.3672 146.828 72.3731 147.338 66.5391C147.847 60.7052 145.7 59.1776 145.7 59.1776L139.768 54.6149L128.953 55.5314Z" fill="#2E2325"/>
<path d="M130.021 11.885C129.754 12.8545 129.564 13.8429 129.452 14.8414C129.499 15.8778 129.426 16.9161 129.233 17.9358C128.953 19.0494 129.932 21.6116 130.231 21.9762C130.531 22.3408 130.68 22.7646 131.11 22.9617C132.528 23.4938 134.265 22.2718 134.765 22.3211C135.264 22.3704 135.284 23.9866 135.184 24.7553C135.084 25.524 133.267 26.4897 132.967 27.1598C132.477 27.9008 131.908 28.5881 131.27 29.2096L132.128 33.654L141.116 26.3024C140.443 24.816 139.93 23.2635 139.588 21.6708C139.388 20.0152 140.637 16.1619 140.637 16.1619L137.641 11.4021L132.408 9.29321L130.021 11.885Z" fill="#DDC19E"/>
<path d="M129.842 12.6141C130.155 12.3833 130.516 12.2231 130.899 12.1448C131.282 12.0664 131.678 12.072 132.059 12.1609C133.15 12.4882 134.132 13.0972 134.905 13.9249C135.404 14.6837 135.903 15.8367 136.742 16.0338C137.581 16.2309 137.331 14.3289 138.669 14.6147C139.488 14.7822 139.518 15.6495 139.179 16.7532C138.839 17.8569 139.099 19.611 139.628 19.6208C139.948 19.6208 139.888 19.0296 140.217 18.1821C140.547 17.3346 141.316 17.1966 141.855 15.8169C142.176 14.8928 142.285 13.9101 142.175 12.9394H142.744L142.504 10.6039C142.223 9.6908 141.662 8.88601 140.898 8.30019C140.135 7.71438 139.206 7.3762 138.24 7.33205C134.675 7.00684 132.528 7.33202 130.311 9.64788C129.382 10.6728 129.842 12.6141 129.842 12.6141Z" fill="#12323A"/>
<path d="M142.554 11.1163C142.998 10.9948 143.466 10.9815 143.916 11.0776C144.367 11.1737 144.787 11.3765 145.141 11.6683C146.339 12.6537 147.138 15.8565 147.367 19.0198C147.597 22.1832 149.654 24.5877 150.363 27.1401C151.072 29.6924 150.912 33.6443 150.363 34.8761C149.962 35.7329 149.48 36.5511 148.925 37.3201L141.476 26.9233C141 25.1225 140.898 23.2454 141.176 21.4047C141.762 19.3114 142.183 17.1764 142.434 15.0189C142.498 14.2357 142.267 13.4567 141.785 12.8312L142.554 11.1163Z" fill="#12323A"/>
<path d="M139.548 22.4885C139.072 23.306 138.476 24.0497 137.781 24.696C136.243 26.3417 133.517 26.795 133.187 27.6524C132.858 28.5098 131.899 31.7421 131.899 31.7421L132.898 27.3764L134.895 25.0705C134.895 25.0705 135.244 24.4299 134.815 24.6763C133.969 25.1679 133.095 25.6121 132.199 26.0067C131.559 26.2925 130.701 26.4304 130.641 26.6768C130.581 26.9232 130.73 28.3126 130.641 28.9926C130.551 29.6726 129.442 31.072 129.203 31.4859C128.963 31.8998 126.966 34.7773 126.966 34.7773V40.5128L126.736 49.382L125.837 57.1771L125.708 58.7637C126.444 58.9407 127.197 59.0397 127.954 59.0593H130.071C130.071 59.0593 135.734 36.0979 135.883 35.7136C136.033 35.3293 141.336 24.7453 141.336 24.7453C141.336 24.7453 139.988 22.6463 139.878 22.3014C139.768 21.9565 139.548 22.4885 139.548 22.4885Z" fill="#0DBAE9"/>
<path d="M139.858 22.9321C140.009 22.6909 140.198 22.4747 140.417 22.2915C140.537 22.2915 141.086 23.2276 141.416 23.7105C141.745 24.1934 142.164 24.3905 142.234 24.8438C142.304 25.2972 139.998 27.6918 137.421 30.6088L134.046 34.4324L132.648 34.876L133.117 36.6793C132.489 38.4915 131.979 40.3414 131.589 42.2177C131.25 44.3069 129.512 52.0724 129.252 53.5802C128.993 55.0879 129.562 42.6907 130.251 39.143C130.94 35.5953 131.25 34.1171 132.907 31.8998C134.565 29.6825 139.858 22.9321 139.858 22.9321Z" fill="#EDAD40"/>
<path d="M130.731 29.2786C129.854 31.2974 129.094 33.3637 128.454 35.4673C127.545 38.5322 126.816 50.9984 126.816 50.9984C126.816 50.9984 126.007 39.4781 126.337 37.0046C126.666 34.5311 130.731 29.2786 130.731 29.2786Z" fill="#FBA823"/>
<path d="M141.875 25.0803C142.529 25.6112 143.255 26.0491 144.032 26.3812C145.25 26.8838 147.488 29.0814 145.7 36.2359C143.912 43.3904 143.483 46.0215 144.122 51.7668C144.761 57.5121 147.258 60.7838 146.369 61.6215C145.48 62.4591 131.48 61.0303 129.762 60.2321C128.044 59.4338 129.023 55.2455 129.403 52.6735C129.782 50.1014 130.401 42.878 130.401 42.878L130.94 36.3048L132.878 33.5061L141.875 25.0803Z" fill="#FBA823"/>
<path d="M127.585 47.5687L127.395 43.1538L142.214 43.3213L142.734 55.5313L128.054 54.5064L127.904 51.1263L127.585 47.5687Z" fill="white"/>
<path d="M131.38 48.3868C130.739 48.1193 130.069 47.9275 129.382 47.8153C128.704 47.7619 128.067 47.4719 127.585 46.9972C127.315 46.7019 127.09 46.3701 126.916 46.0118C126.806 45.6471 126.367 45.8147 126.367 46.13C126.356 46.5275 126.449 46.921 126.636 47.2732C126.732 47.361 126.801 47.4736 126.836 47.5984C126.836 47.5984 126.307 47.1943 126.117 47.3816C126.026 47.5279 125.971 47.693 125.955 47.864C125.939 48.0349 125.964 48.2071 126.027 48.3671C126.281 48.962 126.502 49.5706 126.686 50.1901C126.771 50.4693 126.913 50.7278 127.106 50.949C127.112 51.1448 127.153 51.3381 127.225 51.5205C127.325 51.6782 127.795 51.8457 128.484 51.6782C129.2 51.5153 129.928 51.4066 130.661 51.3531C131.004 51.3269 131.341 51.247 131.659 51.1166L131.38 48.3868Z" fill="#DDC19E"/>
<path d="M148.096 30.136L152.091 48.9979L152.141 49.2738C152.217 49.6266 152.221 49.9906 152.153 50.3451C152.086 50.6995 151.948 51.0372 151.747 51.3387C151.547 51.6402 151.288 51.8994 150.985 52.1015C150.682 52.3036 150.342 52.4444 149.984 52.5159C149.777 52.5605 149.566 52.5804 149.355 52.5751L132.099 51.8951H132.019C130.68 51.8951 131.02 50.9097 131.02 49.599C131.02 48.2883 130.75 47.8252 132.019 47.7858L149.185 46.8889L146.459 50.4662L140.407 32.1464C140.176 31.6418 140.056 31.0949 140.054 30.5414C140.051 29.9878 140.167 29.44 140.393 28.9336C140.62 28.4272 140.952 27.9734 141.368 27.602C141.784 27.2306 142.274 26.9498 142.807 26.7779C143.34 26.606 143.905 26.5469 144.462 26.6043C145.02 26.6617 145.56 26.8344 146.045 27.1112C146.531 27.388 146.952 27.7627 147.282 28.2109C147.611 28.659 147.841 29.1705 147.957 29.7122C148.017 29.8484 148.064 29.9905 148.096 30.136Z" fill="#FBA823"/>
</g>
<defs>
<clipPath id="clip0_1_2258">
<rect width="170.793" height="155.369" fill="white" transform="translate(0.191406 0.680176)"/>
</clipPath>
</defs>
</svg>
