<svg width="189" height="1473" viewBox="0 0 189 1473" fill="none" xmlns="http://www.w3.org/2000/svg">
<ellipse cx="178.772" cy="283.32" rx="9.2372" ry="9.11559" fill="white"/>
<ellipse cx="31.683" cy="9.72472" rx="9.2372" ry="9.11559" fill="white"/>
<path d="M31.6917 10.3452V118.747C31.6917 146.34 46.671 144.123 61.8999 144.123C91.4098 144.123 135.548 144.123 135.548 144.123C174.494 144.123 177.989 157.18 177.989 185.266C177.989 243.627 178.821 349.347 179.487 408.475C179.764 433.12 184.492 455.284 141.539 456.27C72.8347 457.847 81.9554 456.927 56.6571 456.27C12.718 456.27 10.2215 456.664 10.2215 505.544C10.2215 554.423 9.72217 669.953 9.72217 741.564C9.72216 765.215 12.2188 779.011 47.6696 779.011C103.615 779.011 92.9402 779.668 117.573 779.011C142.205 778.354 164.008 785.417 164.008 820.894C164.008 863.466 165.506 1006.33 165.506 1068.74C165.506 1100.27 165.506 1118.51 117.573 1118.51C58.6543 1118.51 26.6987 1111.11 26.6987 1157.92C26.6987 1197.34 28.6959 1355.51 28.6959 1467.85" stroke="white" stroke-width="6"/>
<ellipse cx="9.86854" cy="638.614" rx="9.2372" ry="9.11559" fill="white"/>
<ellipse cx="164.653" cy="951.735" rx="9.2372" ry="9.11559" fill="white"/>
<ellipse cx="27.3781" cy="1248.69" rx="9.2372" ry="9.11559" fill="white"/>
<ellipse cx="28.2372" cy="1463.12" rx="9.2372" ry="9.11559" fill="white"/>
</svg>
