<svg width="609" height="313" viewBox="0 0 609 313" fill="none" xmlns="http://www.w3.org/2000/svg">
<g clip-path="url(#clip0_1_1486)">
<g opacity="0.1">
<path d="M168.822 279.663C149.301 285.925 143.339 291.03 134.567 294.815C116.233 302.738 109.166 306.305 89.9309 310.184C70.6957 314.064 49.7962 314.364 32.3617 305.338C24.4251 301.23 17.5372 295.361 12.2262 288.184C6.91522 281.006 3.3224 272.709 1.72346 263.93C0.124512 255.152 0.561889 246.124 3.00206 237.541C5.44223 228.957 9.82026 221.045 15.8004 214.412C40.5742 186.94 83.1644 188.886 120.161 186.926C185.314 183.33 248.057 161.12 300.917 122.941C311.544 115.222 321.844 106.768 329.565 96.1497C338.815 83.3937 343.903 68.0784 352.457 54.8459C368.322 30.2732 395.333 14.4129 423.654 6.93901C451.975 -0.534918 481.741 -0.412155 510.963 1.39847C531.657 2.67816 553.253 5.1014 570.455 16.7139C597.412 34.9699 605.924 70.556 607.971 103.011C610.14 138.407 606.606 175.341 589.035 206.149C571.465 236.956 537.387 260.182 502 256.996C490.909 256.002 480.173 252.571 469.505 249.603C395.811 229.374 317.829 230.83 244.944 253.797C217.538 262.496 198.794 269.738 171.496 278.723" fill="#2386B4"/>
</g>
<path d="M329.045 185.892L331.228 185.524C333.711 185.102 338.049 178.118 339.509 175.464L339.618 175.273L359.59 173.68L359.044 174.415C351.937 184.095 347.258 189.595 346.207 189.513L329.045 185.892Z" fill="white" stroke="#E6E6E5" stroke-width="0.28" stroke-miterlimit="10"/>
<path d="M447.703 101.65C433.406 90.2145 461.045 67.9971 463.828 52.4639C467.538 50.1904 479.544 52.2595 480.717 56.7112C482.627 74.2592 484.332 86.3347 475.437 96.2999C467.716 91.222 452.683 98.9137 447.703 101.65Z" fill="#151C28"/>
<path d="M464.36 45.2486C464.46 45.8811 464.694 46.4852 465.047 47.0204C465.399 47.5556 465.862 48.0095 466.404 48.3522C466.946 48.6949 467.555 48.9184 468.191 49.0076C468.826 49.0969 469.474 49.0497 470.089 48.8697C472.818 48.189 473.5 45.9563 472.818 43.0157C472.136 40.0752 470.089 38.2373 467.361 38.9316C464.633 39.6259 463.61 42.308 464.36 45.2486Z" fill="#151C28"/>
<path d="M470.376 49.6457C468.63 50.0813 465.642 51.0069 465.615 49.5366C465.533 45.929 471.072 43.5058 473.978 46.8139C473.828 48.7062 472.259 49.1828 470.376 49.6457Z" fill="#05AAE2"/>
<path d="M467.866 77.8668L467.661 63.0144L475.737 65.0834L477.415 77.8668C478.193 82.8767 475.028 79.4187 475.028 79.4187C475.028 79.4187 467.934 79.1193 467.866 77.8668Z" fill="#B99F8D"/>
<path d="M476.706 72.3806C474.084 71.2745 471.832 69.4474 470.212 67.1123C468.316 63.9675 476.051 67.1123 476.051 67.1123L476.706 72.3806Z" fill="#967B6E"/>
<path d="M468.562 167.146C469.338 166.003 469.996 164.785 470.526 163.51C472.954 155.574 482.626 131.41 482.626 131.41C482.626 131.41 465.424 107.94 460.117 115.427C460.117 115.427 456.857 148.467 454.388 159.154C450.753 159.359 447.146 159.896 443.611 160.76C437.635 162.204 427.568 164.382 422.738 165.907L423.189 175.354C433.775 174.823 464.851 172.564 468.562 167.146Z" fill="#2F3C4E"/>
<path d="M416.913 167.813L413.816 172.509L419.205 175.041L423.148 174.756L422.779 166.86L416.913 167.813Z" fill="#B99F8D"/>
<path d="M458.889 133.751C465.424 142.954 480.935 164.899 482.272 167.35C483.977 170.454 483.063 174.851 487.728 187.008C490.387 193.669 493.695 200.052 497.605 206.067L506.459 202.691C502.639 192.821 499.201 172.156 497.605 168.167C495.341 162.49 485.437 126.917 485.437 126.917C485.437 126.917 471.604 123.909 462.9 124.957C458.93 125.474 457.13 131.274 458.889 133.751Z" fill="#2F3C4E"/>
<path d="M501.002 211.05L507.032 213.609L507.196 206.584L505.641 203.045L498.356 205.836L501.002 211.05Z" fill="#B99F8D"/>
<path d="M500.143 210.002C499.72 210.274 501.166 218.864 502.053 219.041C502.939 219.218 523.962 212.67 524.78 211.09C525.203 210.246 523.621 207.728 523.143 207.741C517.715 207.964 512.285 207.321 507.059 205.836C507.059 205.836 505.245 207.197 505.845 208.286L506.254 208.667C505.767 209.55 504.985 210.234 504.045 210.6C502.749 210.914 501.207 209.294 500.143 210.002Z" fill="#2F3C4E"/>
<path d="M417.459 167.54C417.281 167.064 408.632 166.533 408.264 167.363C407.896 168.194 409.533 189.935 410.884 191.078C411.593 191.691 414.403 190.725 414.485 190.248C415.486 184.958 417.328 179.861 419.942 175.15C419.942 175.15 418.973 173.081 417.841 173.435L417.391 173.735C416.648 173.068 416.165 172.162 416.027 171.175C415.999 169.855 417.909 168.711 417.459 167.54Z" fill="#2F3C4E"/>
<path d="M489.133 123.786C487.769 127.557 491.726 140.858 491.726 140.858C489.488 142.219 485.532 142.478 481.63 142.396C478.365 142.317 475.185 141.34 472.441 139.572C469.697 137.804 467.495 135.314 466.079 132.376L465.56 131.301L463.609 134.473C461.631 137.686 457.757 142.001 454.06 141.021H453.937C453.16 129.749 455.602 99.8939 456.038 88.6217C456.174 85.0005 456.638 80.9847 459.517 78.6703C461.801 77.006 464.189 75.4872 466.665 74.1232C466.665 74.1232 467.225 72.1221 467.729 70.4749C470.349 71.9451 476.924 75.7432 476.924 75.7432L476.597 71.7953L478.888 74.6677L485.273 77.9624L489.133 123.786Z" fill="#05AAE2"/>
<g opacity="0.8">
<path opacity="0.8" d="M516.827 101.65H486.446V111.602H516.827V101.65Z" fill="#F4F4F4"/>
<path opacity="0.8" d="M488.561 118.898V118.912H518.928V111.588H488.561V118.898Z" fill="#E5E5E5"/>
<path opacity="0.8" d="M516.827 118.912H486.446V129.939H516.827V118.912Z" fill="#F4F4F4"/>
<path opacity="0.8" d="M516.827 127.08H486.446V127.775H516.827V127.08Z" fill="white"/>
<path opacity="0.8" d="M516.827 122.302H486.446V124.998H516.827V122.302Z" fill="#E5E5E5"/>
<path opacity="0.8" d="M516.827 106.646H486.446V108.008H516.827V106.646Z" fill="white"/>
<path opacity="0.8" d="M516.827 103.842H486.446V104.482H516.827V103.842Z" fill="#E5E5E5"/>
<path opacity="0.8" d="M516.827 95.2925H486.446V98.9001H516.827V95.2925Z" fill="#F4F4F4"/>
<path opacity="0.8" d="M514.358 98.9136H483.977V101.65H514.358V98.9136Z" fill="#E5E5E5"/>
<path opacity="0.8" d="M514.358 129.953H483.977V132.689H514.358V129.953Z" fill="white"/>
<path opacity="0.8" d="M517.659 66.5811H487.278V77.3087H517.659V66.5811Z" fill="#F4F4F4"/>
<path opacity="0.8" d="M489.379 81.5016V81.5288H519.76V77.3086H489.379V81.5016Z" fill="#E5E5E5"/>
<path opacity="0.8" d="M517.659 81.5288H487.278V92.5559H517.659V81.5288Z" fill="#F4F4F4"/>
<path opacity="0.8" d="M517.659 89.6836H487.278V90.3779H517.659V89.6836Z" fill="white"/>
<path opacity="0.8" d="M517.659 84.905H487.278V87.6005H517.659V84.905Z" fill="#E5E5E5"/>
<path opacity="0.8" d="M517.659 71.5908H487.278V72.9522H517.659V71.5908Z" fill="white"/>
<path opacity="0.8" d="M517.659 68.7864H487.278V69.4262H517.659V68.7864Z" fill="#E5E5E5"/>
<path opacity="0.8" d="M517.659 60.2371H487.278V63.8447H517.659V60.2371Z" fill="#F4F4F4"/>
<path opacity="0.8" d="M516.622 63.8447H486.242V66.5811H516.622V63.8447Z" fill="#E5E5E5"/>
<path opacity="0.8" d="M515.19 92.5559H484.809V95.2923H515.19V92.5559Z" fill="white"/>
</g>
<path d="M509.392 101.65H479.011V111.602H509.392V101.65Z" fill="#F4F4F4"/>
<path d="M481.112 118.899V118.912H511.479V111.588H481.112V118.899Z" fill="#E5E5E5"/>
<path d="M509.392 118.912H479.011V129.939H509.392V118.912Z" fill="#F4F4F4"/>
<path d="M509.392 127.08H479.011V127.775H509.392V127.08Z" fill="white"/>
<path d="M509.392 122.302H479.011V124.998H509.392V122.302Z" fill="#E5E5E5"/>
<path d="M509.392 106.646H479.011V108.008H509.392V106.646Z" fill="white"/>
<path d="M509.392 103.842H479.011V104.482H509.392V103.842Z" fill="#E5E5E5"/>
<path d="M509.392 95.2925H479.011V98.9001H509.392V95.2925Z" fill="#F4F4F4"/>
<path d="M506.909 98.9136H476.529V101.65H506.909V98.9136Z" fill="#E5E5E5"/>
<path d="M506.909 129.953H476.529V132.689H506.909V129.953Z" fill="white"/>
<path d="M510.211 66.5811H479.83V77.3087H510.211V66.5811Z" fill="#F4F4F4"/>
<path d="M481.931 81.5016V81.5288H512.311V77.3086H481.931V81.5016Z" fill="#E5E5E5"/>
<path d="M510.211 81.5291H479.83V92.5562H510.211V81.5291Z" fill="#F4F4F4"/>
<path d="M510.211 89.6836H479.83V90.3779H510.211V89.6836Z" fill="white"/>
<path d="M510.211 84.9053H479.83V87.6008H510.211V84.9053Z" fill="#E5E5E5"/>
<path d="M510.211 71.5911H479.83V72.9524H510.211V71.5911Z" fill="white"/>
<path d="M510.211 68.7866H479.83V69.4265H510.211V68.7866Z" fill="#E5E5E5"/>
<path d="M510.211 60.2371H479.83V63.8447H510.211V60.2371Z" fill="#F4F4F4"/>
<path d="M509.174 63.8447H478.793V66.5811H509.174V63.8447Z" fill="#E5E5E5"/>
<path d="M507.742 92.5562H477.361V95.2925H507.742V92.5562Z" fill="white"/>
<path d="M491.18 77.0229H484.809V77.7036H491.18V77.0229Z" fill="#84A3A3"/>
<path d="M507.319 103.501H500.948V104.182H507.319V103.501Z" fill="#CEA446"/>
<path d="M502.012 89.6973H495.641V90.3779H502.012V89.6973Z" fill="#84A3A3"/>
<path d="M492.572 111.248H486.201V111.928H492.572V111.248Z" fill="#505FAB"/>
<path d="M505.654 66.2407H499.283V66.9214H505.654V66.2407Z" fill="#505FAB"/>
<path d="M489.638 63.3137H483.268V63.9944H489.638V63.3137Z" fill="#CEA446"/>
<path d="M506.923 118.585H500.552V119.266H506.923V118.585Z" fill="#505FAB"/>
<path d="M493.895 60.2371H493.404V77.3631H493.895V60.2371Z" fill="#2A3856"/>
<path d="M498.069 95.3333H497.578V111.588H498.069V95.3333Z" fill="#2A3856"/>
<path d="M513.812 111.588L520.483 113.78L518.928 111.588H513.812Z" fill="white"/>
<path d="M479.83 84.9053L476.556 87.1788H479.83V84.9053Z" fill="white"/>
<path d="M477.361 115.849C477.361 115.849 488.451 123.609 489.134 123.813C490.587 123.883 492.029 124.116 493.431 124.508C494.972 125.175 499.01 129.722 499.01 129.722C498.715 129.897 498.378 129.989 498.035 129.989C497.692 129.989 497.355 129.897 497.06 129.722C496.068 129.063 495.153 128.295 494.331 127.434C494.457 128.462 494.685 129.474 495.013 130.457C495.566 131.314 496.268 132.066 497.087 132.676H498.028C497.912 132.957 497.726 133.203 497.487 133.392C497.248 133.58 496.965 133.704 496.664 133.751C495.736 133.751 495.15 132.962 494.659 133.139C494.427 133.22 494.359 133.547 493.745 133.547C493.131 133.547 492.694 133.071 492.38 133.275C492.067 133.479 492.244 133.847 491.698 133.71C491.153 133.574 490.962 133.288 490.634 133.275C490.307 133.261 490.17 133.547 489.898 133.547C489.229 133.547 488.533 132.186 488.533 132.186L486.242 127.421L473.391 121.853L477.361 115.849Z" fill="#B99F8D"/>
<path d="M459.449 108.28C459.667 111.806 462.477 114.46 465.083 116.53C466.938 118.013 468.889 119.348 470.826 120.709C471.522 121.213 472.191 121.703 472.941 122.193C472.98 122.222 473.028 122.237 473.077 122.237C473.126 122.237 473.174 122.222 473.214 122.193C474.202 121.127 475.093 119.974 475.874 118.749C476.597 117.673 477.238 116.57 477.947 115.468C478.07 115.236 478.207 115.005 478.343 114.787C478.37 114.747 478.384 114.7 478.384 114.651C478.384 114.603 478.37 114.555 478.343 114.515C476.556 112.84 474.66 111.275 472.886 109.668C472.136 109.015 471.372 108.307 470.649 107.681L470.403 107.449C470.302 107.226 470.247 106.986 470.24 106.741C470.24 106.279 470.24 105.829 470.24 105.38C470.24 104.931 470.24 104.522 470.24 104.019C470.24 100.86 470.076 97.6883 469.871 94.4891C469.871 93.6995 469.776 92.9099 469.68 92.1339C469.493 90.3939 469.032 88.6942 468.316 87.0969C467.36 85.0069 465.997 83.1278 464.305 81.5697L463.964 81.2429C463.746 81.0387 463.432 81.3518 463.637 81.556C464.25 82.1151 464.832 82.7059 465.383 83.3259C466.215 84.281 466.93 85.3323 467.511 86.4571C468.266 87.9348 468.79 89.5185 469.066 91.1538C469.216 92.1067 469.271 93.0731 469.339 94.0397C469.557 97.0619 469.721 100.084 469.735 103.12C469.735 103.964 469.735 104.822 469.735 105.666C469.735 106.292 469.585 107.163 470.035 107.667C470.598 108.247 471.194 108.792 471.822 109.301C473.746 110.975 475.696 112.623 477.593 114.324L478.043 114.733V114.46C476.973 116.375 475.784 118.221 474.482 119.988C474.027 120.618 473.525 121.214 472.982 121.771H473.255L468.876 118.694C467.975 118.054 467.075 117.401 466.147 116.72C464.714 115.675 463.392 114.484 462.204 113.167C460.93 111.814 460.13 110.085 459.926 108.239C459.926 107.953 459.462 107.94 459.49 108.239L459.449 108.28Z" fill="#097B97"/>
<path d="M467.402 74.4228C469.094 75.9475 470.622 77.6902 472.163 79.3647C472.6 79.814 473.023 80.2768 473.527 80.7261C473.548 80.7516 473.574 80.7721 473.603 80.7862C473.633 80.8004 473.665 80.8079 473.698 80.8079C473.731 80.8079 473.763 80.8004 473.793 80.7862C473.822 80.7721 473.848 80.7516 473.869 80.7261C473.985 80.5218 474.122 80.3299 474.278 80.1541L475.137 79.0922C475.737 78.357 476.351 77.6357 476.965 76.9006L477.388 76.4103H476.952L479.448 78.9699C479.492 78.9995 479.545 79.0132 479.598 79.0088C479.651 79.0043 479.7 78.9819 479.739 78.9453C479.777 78.9086 479.802 78.8598 479.808 78.8073C479.815 78.7548 479.803 78.7018 479.776 78.6568L477.265 76.0972C477.245 76.0762 477.221 76.0594 477.194 76.048C477.167 76.0366 477.138 76.0308 477.108 76.0308C477.079 76.0308 477.05 76.0366 477.023 76.048C476.996 76.0594 476.972 76.0762 476.952 76.0972C475.915 77.3088 474.878 78.5204 473.896 79.7592C473.695 79.9861 473.516 80.2324 473.364 80.4944H473.718C472.081 78.7519 470.485 76.9687 468.807 75.267C468.425 74.8994 468.057 74.5181 467.661 74.1642C467.266 73.8102 467.129 74.2867 467.348 74.4909L467.402 74.4228Z" fill="#097B97"/>
<path d="M475.096 152.797C475.942 149.829 476.883 146.889 477.92 143.975C478.015 143.703 477.579 143.58 477.483 143.853C476.446 146.766 475.505 149.711 474.66 152.688C474.578 152.96 475.014 153.083 475.096 152.797Z" fill="#0D0F11"/>
<path d="M469.558 118.708C471.072 116.87 472.518 114.978 473.923 113.059C474.087 112.813 473.691 112.595 473.527 112.827C472.163 114.719 470.799 116.584 469.244 118.381C469.053 118.613 469.367 118.926 469.558 118.708Z" fill="#097B97"/>
<path d="M471.222 119.171C471.213 119.303 471.242 119.435 471.304 119.552C471.365 119.671 471.46 119.771 471.577 119.838C471.648 119.877 471.727 119.898 471.809 119.898C471.89 119.898 471.97 119.877 472.04 119.838C472.1 119.806 472.146 119.755 472.171 119.692C472.196 119.63 472.198 119.561 472.177 119.498C472.151 119.427 472.119 119.359 472.081 119.293C472.003 119.174 471.901 119.072 471.781 118.994C471.704 118.938 471.616 118.901 471.522 118.885C471.421 118.886 471.324 118.925 471.249 118.994C471.197 119.072 471.169 119.165 471.169 119.259C471.169 119.354 471.197 119.446 471.249 119.525C471.314 119.642 471.408 119.741 471.522 119.811H471.727C471.802 119.838 471.884 119.838 471.959 119.811C471.995 119.793 472.027 119.768 472.052 119.738C472.078 119.707 472.097 119.672 472.109 119.634C472.149 119.533 472.149 119.421 472.109 119.321C472.062 119.239 472.002 119.166 471.932 119.103C471.874 119.083 471.811 119.083 471.754 119.103C471.699 119.118 471.651 119.151 471.618 119.198C471.598 119.255 471.598 119.318 471.618 119.375L471.699 119.457V119.538C471.705 119.565 471.705 119.593 471.699 119.62H471.604L471.481 119.552C471.443 119.527 471.41 119.495 471.386 119.457C471.379 119.421 471.379 119.384 471.386 119.348C471.386 119.348 471.386 119.348 471.386 119.239C471.43 119.254 471.468 119.282 471.495 119.321C471.547 119.359 471.593 119.405 471.631 119.457C471.671 119.511 471.703 119.571 471.727 119.634H471.618H471.522L471.427 119.552C471.42 119.516 471.42 119.479 471.427 119.443V119.321C471.425 119.259 471.401 119.201 471.358 119.157C471.306 119.136 471.247 119.136 471.195 119.157C471.147 119.138 471.093 119.138 471.045 119.157C471.037 119.193 471.037 119.23 471.045 119.266L471.222 119.171Z" fill="white"/>
<path d="M509.692 209.076C509.835 208.163 510.265 207.319 510.92 206.666L510.415 206.448C510.458 207.452 510.67 208.442 511.043 209.375C511.062 209.432 511.096 209.482 511.142 209.52C511.188 209.559 511.243 209.584 511.302 209.593C511.361 209.601 511.422 209.59 511.475 209.564C511.529 209.537 511.573 209.495 511.602 209.443L512.721 207.143C512.76 207.074 512.771 206.992 512.751 206.916C512.73 206.839 512.68 206.774 512.612 206.734C512.542 206.698 512.461 206.689 512.386 206.709C512.31 206.729 512.245 206.777 512.203 206.843L511.084 209.144L511.629 209.212C511.274 208.345 511.067 207.424 511.016 206.489C511.012 206.431 510.992 206.375 510.958 206.327C510.924 206.28 510.878 206.242 510.824 206.22C510.77 206.197 510.711 206.19 510.653 206.199C510.595 206.208 510.542 206.233 510.497 206.271C509.762 207.01 509.284 207.964 509.133 208.994C509.112 209.07 509.121 209.151 509.16 209.22C509.198 209.289 509.262 209.34 509.338 209.362C509.488 209.362 509.692 209.362 509.706 209.157L509.692 209.076Z" fill="white"/>
<path d="M416.204 177.71C417.101 177.829 417.937 178.229 418.591 178.853L418.796 178.35C417.765 178.423 416.755 178.672 415.808 179.085C415.763 179.111 415.725 179.149 415.699 179.194C415.673 179.24 415.659 179.291 415.659 179.344C415.659 179.396 415.673 179.447 415.699 179.492C415.725 179.538 415.763 179.576 415.808 179.602L418.141 180.664C418.21 180.704 418.292 180.714 418.368 180.694C418.445 180.674 418.51 180.623 418.55 180.555C418.59 180.486 418.601 180.405 418.58 180.328C418.56 180.252 418.51 180.186 418.441 180.147L416.108 179.085V179.602C416.975 179.233 417.897 179.007 418.837 178.935C418.895 178.935 418.952 178.918 419.001 178.886C419.049 178.853 419.088 178.808 419.111 178.755C419.134 178.701 419.141 178.642 419.131 178.584C419.121 178.527 419.095 178.474 419.055 178.431C418.289 177.688 417.304 177.21 416.245 177.07C416.095 177.07 415.945 177.22 415.945 177.37C415.951 177.447 415.985 177.519 416.04 177.574C416.095 177.629 416.167 177.663 416.245 177.669L416.204 177.71Z" fill="white"/>
<path d="M467.211 110.172C467.542 109.628 467.926 109.117 468.357 108.647C468.567 108.385 468.827 108.167 469.122 108.006C469.417 107.844 469.741 107.743 470.076 107.708C470.376 107.708 470.376 107.245 470.076 107.259C469.309 107.322 468.599 107.684 468.098 108.266C467.617 108.779 467.192 109.34 466.829 109.941C466.799 109.991 466.789 110.052 466.803 110.109C466.817 110.167 466.854 110.216 466.904 110.247C466.955 110.278 467.016 110.287 467.073 110.273C467.131 110.259 467.181 110.223 467.211 110.172Z" fill="#097B97"/>
<path d="M468.943 110.404C469.154 109.887 469.434 109.402 469.776 108.961C469.797 108.935 469.812 108.905 469.82 108.872C469.829 108.84 469.83 108.807 469.824 108.774C469.818 108.741 469.805 108.71 469.786 108.682C469.767 108.655 469.742 108.632 469.713 108.616C469.684 108.599 469.652 108.588 469.618 108.585C469.585 108.581 469.552 108.585 469.52 108.596C469.489 108.607 469.46 108.624 469.436 108.647C469.411 108.67 469.392 108.698 469.38 108.729C469.021 109.21 468.728 109.737 468.507 110.295C468.497 110.323 468.492 110.352 468.494 110.381C468.496 110.411 468.505 110.44 468.519 110.465C468.533 110.491 468.553 110.514 468.577 110.531C468.601 110.549 468.628 110.561 468.657 110.567C468.716 110.58 468.779 110.571 468.832 110.541C468.885 110.51 468.924 110.462 468.943 110.404Z" fill="#097B97"/>
<path d="M463.473 55.8942C463.535 57.0739 463.835 58.2291 464.356 59.2899C464.876 60.3508 465.607 61.2955 466.503 62.0672C467.4 62.8389 468.443 63.4217 469.571 63.7802C470.699 64.1387 471.888 64.2656 473.066 64.1534C474.245 64.0413 475.388 63.6923 476.428 63.1274C477.467 62.5626 478.382 61.7935 479.115 60.8667C479.849 59.9398 480.388 58.8744 480.698 57.7345C481.008 56.5945 481.084 55.4034 480.921 54.2333C480.701 51.9244 479.57 49.7975 477.778 48.3205C475.986 46.8436 473.679 46.1377 471.365 46.3579C469.051 46.5782 466.92 47.7067 465.44 49.4951C463.96 51.2835 463.253 53.5852 463.473 55.8942Z" fill="#151C28"/>
<path d="M467.307 57.1877C467.539 53.0219 470.854 50.5576 474.619 50.2037C478.384 49.8497 480.485 52.1367 480.84 55.9077C480.84 55.9077 481.276 60.7136 481.29 60.9451C481.562 63.7631 479.625 69.29 476.911 69.5487C473.773 69.8482 468.03 66.1862 467.771 63.477C467.757 63.2456 467.225 58.7669 467.307 57.1877Z" fill="#B99F8D"/>
<path d="M474.059 56.126C474.059 56.126 471.249 56.4798 470.731 56.6431C470.458 56.7221 470.217 56.8837 470.041 57.1058C469.865 57.3278 469.763 57.5994 469.749 57.8822C471.162 57.8401 472.565 57.6205 473.923 57.2288C474.401 56.9157 474.059 56.126 474.059 56.126Z" fill="#151C28"/>
<path d="M477.265 55.7992C477.265 55.7992 480.089 55.7176 480.635 55.7992H480.908C481.208 55.8945 481.139 56.8884 480.908 56.902C479.797 56.9882 478.68 56.947 477.579 56.7794C477.047 56.6296 477.265 55.7992 477.265 55.7992Z" fill="#151C28"/>
<path d="M475.942 63.0281C475.669 63.0281 475.41 63.4907 475.41 63.4907H476.488C476.297 63.2185 476.201 63.0281 475.942 63.0281Z" fill="#967B6E"/>
<path d="M477.361 62.7692C477.102 62.8509 477.033 63.3412 477.033 63.3412L477.947 63.055C477.947 63.055 477.606 62.6875 477.361 62.7692Z" fill="#967B6E"/>
<path d="M477.033 61.2583C476.838 59.9335 476.755 58.5943 476.788 57.2556H477.211C477.186 58.567 477.268 59.8784 477.456 61.1765L477.033 61.2583Z" fill="#967B6E"/>
<path d="M466.693 58.1269C466.352 57.7729 465.547 57.5686 464.81 58.6985C464.074 59.8285 465.001 63.6948 467.102 63.4906C469.203 63.2864 467.648 59.0798 466.693 58.1269Z" fill="#B99F8D"/>
<path d="M465.52 59.1208C465.781 59.1316 466.031 59.2302 466.229 59.4007C466.427 59.5712 466.562 59.8036 466.611 60.0601C466.733 60.9314 466.788 61.9662 466.788 61.9662L465.52 59.1208Z" fill="#967B6E"/>
<path d="M478.411 58.7943C478.534 59.3796 478.889 59.8561 479.407 59.8289C479.676 59.7982 479.923 59.6619 480.091 59.45C480.26 59.2381 480.338 58.9678 480.307 58.6989C480.307 58.0999 480.021 58.5899 479.489 58.6171C478.957 58.6443 478.316 58.522 478.411 58.7943Z" fill="#151C28"/>
<path d="M477.947 59.1754C478.773 58.7565 479.681 58.5241 480.607 58.4947V58.168C479.658 58.2073 478.727 58.4487 477.879 58.8759L477.947 59.1754Z" fill="#151C28"/>
<path d="M473.746 59.325C473.746 59.924 473.473 60.4551 472.955 60.5232C472.821 60.5343 472.686 60.5187 472.559 60.4773C472.431 60.4359 472.313 60.3697 472.211 60.2822C472.11 60.1948 472.027 60.0877 471.967 59.9678C471.907 59.8479 471.872 59.7176 471.863 59.5839C471.781 58.9849 472.122 59.434 472.641 59.3523C473.159 59.2706 473.759 59.0391 473.746 59.325Z" fill="#151C28"/>
<path d="M474.223 59.611L474.305 59.2975C473.384 59.0278 472.415 58.9675 471.467 59.1207L470.84 59.1888V59.5156L471.467 59.4474C472.386 59.2905 473.329 59.3465 474.223 59.611Z" fill="#151C28"/>
<path d="M476.856 66.6083C477.308 66.5482 477.741 66.3901 478.125 66.1453C478.163 66.1049 478.185 66.0515 478.185 65.9958C478.185 65.94 478.163 65.8863 478.125 65.8459C478.083 65.8104 478.03 65.791 477.975 65.791C477.92 65.791 477.866 65.8104 477.825 65.8459C477.506 66.0496 477.148 66.183 476.774 66.2371C476.4 66.2911 476.019 66.2644 475.656 66.1589C475.63 66.1484 475.602 66.1437 475.574 66.145C475.546 66.1463 475.519 66.1536 475.494 66.1666C475.469 66.1796 475.448 66.1979 475.431 66.2201C475.414 66.2423 475.402 66.268 475.397 66.2952C475.386 66.3201 475.38 66.3469 475.381 66.374C475.381 66.4011 475.388 66.4276 475.399 66.4521C475.411 66.4766 475.427 66.4984 475.448 66.5159C475.469 66.5334 475.493 66.5463 475.519 66.5538C475.954 66.678 476.412 66.6968 476.856 66.6083Z" fill="#967B6E"/>
<path d="M475.342 65.4237L475.751 65.3287C475.884 65.2882 476.021 65.2608 476.16 65.2469C476.446 65.2469 477.088 65.1651 477.32 65.1243C477.451 65.1099 477.584 65.1099 477.715 65.1243C477.847 65.1392 477.98 65.1392 478.111 65.1243C478.477 65.0692 478.824 64.9244 479.121 64.7025C479.162 64.6664 479.188 64.6151 479.191 64.5602C479.195 64.5053 479.177 64.4512 479.141 64.4097C479.105 64.3682 479.053 64.3427 478.998 64.3389C478.943 64.3351 478.889 64.3533 478.847 64.3894C478.603 64.5469 478.329 64.6534 478.043 64.7025H477.729C477.566 64.6814 477.401 64.6814 477.238 64.7025C476.877 64.7617 476.512 64.7978 476.146 64.8112C475.975 64.8334 475.807 64.8699 475.642 64.9202C475.528 64.9292 475.414 64.9292 475.301 64.9202C474.993 64.933 474.685 64.9008 474.387 64.8248L473.909 64.7297C473.853 64.7218 473.796 64.7356 473.751 64.7686C473.705 64.8016 473.674 64.8511 473.664 64.9066C473.659 64.9618 473.674 65.0171 473.707 65.0621C473.739 65.1071 473.787 65.1387 473.841 65.1515C473.997 65.1709 474.152 65.1983 474.305 65.2333C474.638 65.3505 474.988 65.4146 475.342 65.4237Z" fill="#967B6E"/>
<path d="M384.786 175.15C391.348 174.443 394.745 168.739 395.441 167.418C391.362 166.337 387.529 164.489 384.145 161.972C382.441 160.77 380.823 159.451 379.302 158.024C377.243 158.351 370.231 156.663 368.389 156.228C369.371 161.823 373.764 166.642 377.311 169.719C379.636 171.748 382.138 173.565 384.786 175.15Z" fill="white" stroke="#E6E6E5" stroke-width="0.28" stroke-miterlimit="10"/>
<path d="M329.918 179.684L332.088 179.303C334.57 178.881 338.909 171.91 340.382 169.256L340.491 169.051L360.449 167.459L359.904 168.207C352.796 177.887 348.131 183.387 347.067 183.305L329.918 179.684Z" fill="white" stroke="#E6E6E5" stroke-width="0.28" stroke-miterlimit="10"/>
<path d="M299.333 213.636C305.868 214.549 310.547 209.838 311.611 208.735C307.916 206.714 304.642 204.006 301.966 200.758C300.606 199.18 299.357 197.511 298.228 195.762C296.154 195.571 289.756 192.249 288.065 191.351C287.642 197.028 290.793 202.773 293.426 206.612C295.174 209.13 297.152 211.481 299.333 213.636Z" fill="white" stroke="#E6E6E5" stroke-width="0.28" stroke-miterlimit="10"/>
<path d="M203.307 218.442L205.476 218.075C207.959 217.639 212.297 210.669 213.771 208.014L213.88 207.823L233.838 206.231L233.292 206.966C226.199 216.645 221.519 222.145 220.469 222.063L203.307 218.442Z" fill="white" stroke="#E6E6E5" stroke-width="0.28" stroke-miterlimit="10"/>
<path d="M71.1985 258.834L73.3677 258.453C75.8505 258.031 80.1886 251.061 81.6619 248.406L81.771 248.202L101.743 246.609L101.197 247.358C94.0899 257.023 89.4106 262.537 88.3602 262.455L71.1985 258.834Z" fill="white" stroke="#E6E6E5" stroke-width="0.28" stroke-miterlimit="10"/>
<path opacity="0.1" d="M232.638 129.054C218.527 130.678 204.334 131.483 190.129 131.464C186.56 131.699 182.979 131.265 179.57 130.184C175.341 128.537 172.136 124.97 169.707 121.131C165.495 114.467 163.141 106.802 162.886 98.9271C162.641 91.1536 164.455 83.4754 166.57 75.9878C168.411 69.4396 170.662 62.7828 174.918 57.5143C179.843 51.4834 187.06 47.8756 194.017 44.445C207.141 37.9921 221.151 31.3624 235.721 32.7374C241.435 33.4439 247.031 34.8994 252.364 37.0665C261.913 40.6332 272.336 46.2963 274.546 56.248C276.156 63.5721 272.772 70.9781 271.913 78.4247C270.917 87.015 273.277 95.9592 270.74 104.291C266.21 119.143 248.763 125.106 233.674 128.932" fill="white"/>
<path d="M123.625 236.78C130.159 237.678 134.838 232.981 135.902 231.879C132.214 229.853 128.945 227.146 126.271 223.901C124.91 222.32 123.661 220.646 122.533 218.891C120.46 218.714 114.048 215.392 112.356 214.494C111.947 220.157 115.085 225.902 117.731 229.755C119.48 232.269 121.452 234.62 123.625 236.78Z" fill="white" stroke="#E6E6E5" stroke-width="0.28" stroke-miterlimit="10"/>
<g opacity="0.1">
<path d="M72.972 143.362C76.4371 133.833 80.0112 132.757 86.2729 127.475C92.5346 122.193 100.87 119.824 109.055 119.43C113.72 119.212 118.604 119.634 122.697 122.016C129.054 125.773 132.014 133.629 138.181 137.713C141.359 139.823 145.165 140.762 148.508 142.6C151.85 144.438 154.906 147.719 154.646 151.517C154.454 152.968 153.904 154.348 153.047 155.536C152.191 156.723 151.053 157.681 149.735 158.324C147.097 159.571 144.264 160.358 141.359 160.652C135.275 161.623 129.172 162.49 123.052 163.252C111.51 164.722 99.6012 165.866 88.4011 162.748C84.1087 161.721 80.1502 159.617 76.9009 156.636C75.3 155.132 74.0852 153.266 73.3587 151.195C72.6322 149.124 72.4152 146.909 72.7264 144.737" fill="white"/>
</g>
</g>
<defs>
<clipPath id="clip0_1_1486">
<rect width="607.722" height="312.394" fill="white" transform="translate(0.806152 0.364014)"/>
</clipPath>
</defs>
</svg>
